<svg width="29" height="28" viewBox="0 0 29 28" fill="none" xmlns="http://www.w3.org/2000/svg">
<path d="M26.8372 14.6889L25.1011 6.45272C24.7658 4.65584 23.4745 3.58325 21.6473 3.58325H7.75839C6.84693 3.58325 6.07653 3.8377 5.47432 4.33955C4.8721 4.84139 4.47768 5.54994 4.30353 6.44946L2.56741 14.6889C2.55568 14.7479 2.54987 14.8079 2.55005 14.868V20.9444C2.55005 21.8653 2.91588 22.7484 3.56704 23.3996C4.21821 24.0508 5.10138 24.4166 6.02228 24.4166H23.3834C24.3043 24.4166 25.1875 24.0508 25.8386 23.3996C26.4898 22.7484 26.8556 21.8653 26.8556 20.9444V14.868C26.8554 14.8078 26.8493 14.7479 26.8372 14.6889ZM6.00383 6.80048V6.78529C6.19643 5.7854 6.75307 5.32045 7.75567 5.32045H21.6473C22.6569 5.32045 23.2136 5.78432 23.398 6.78041C23.398 6.78746 23.4007 6.79452 23.4018 6.80157L24.8629 13.7395C24.8695 13.7711 24.869 13.8038 24.8614 13.8352C24.8537 13.8666 24.8392 13.8959 24.8188 13.9209C24.7985 13.946 24.7727 13.9662 24.7436 13.98C24.7144 13.9939 24.6825 14.001 24.6502 14.001H18.1751C17.9462 13.9998 17.7262 14.0896 17.5634 14.2505C17.4007 14.4115 17.3084 14.6304 17.307 14.8593C17.307 15.55 17.0326 16.2123 16.5443 16.7007C16.0559 17.1891 15.3935 17.4635 14.7028 17.4635C14.0122 17.4635 13.3498 17.1891 12.8614 16.7007C12.373 16.2123 12.0987 15.55 12.0987 14.8593C12.0981 14.7459 12.0752 14.6337 12.0313 14.5291C11.9873 14.4245 11.9232 14.3296 11.8426 14.2498C11.762 14.17 11.6665 14.1069 11.5615 14.064C11.4565 14.0211 11.344 13.9993 11.2306 13.9999H4.75546C4.72316 14 4.69126 13.9928 4.66209 13.9789C4.63292 13.9651 4.6072 13.9449 4.58682 13.9198C4.56645 13.8948 4.55192 13.8655 4.5443 13.8341C4.53668 13.8027 4.53616 13.77 4.54278 13.7384L6.00383 6.80048Z" fill="#5F6266"/>
<path d="M20.7793 8.79153H8.62649C8.39627 8.79153 8.17548 8.70008 8.01268 8.53728C7.84989 8.37449 7.75844 8.1537 7.75844 7.92348C7.75844 7.69325 7.84989 7.47246 8.01268 7.30967C8.17548 7.14688 8.39627 7.05542 8.62649 7.05542H20.7793C21.0095 7.05542 21.2303 7.14688 21.3931 7.30967C21.5559 7.47246 21.6473 7.69325 21.6473 7.92348C21.6473 8.1537 21.5559 8.37449 21.3931 8.53728C21.2303 8.70008 21.0095 8.79153 20.7793 8.79153ZM21.6473 12.2638H7.75844C7.52821 12.2638 7.30742 12.1723 7.14463 12.0095C6.98184 11.8467 6.89038 11.6259 6.89038 11.3957C6.89038 11.1655 6.98184 10.9447 7.14463 10.7819C7.30742 10.6191 7.52821 10.5276 7.75844 10.5276H21.6473C21.8775 10.5276 22.0983 10.6191 22.2611 10.7819C22.4239 10.9447 22.5154 11.1655 22.5154 11.3957C22.5154 11.6259 22.4239 11.8467 22.2611 12.0095C22.0983 12.1723 21.8775 12.2638 21.6473 12.2638Z" fill="#979A9E"/>
</svg>
