<svg width="28" height="28" viewBox="0 0 28 28" fill="none" xmlns="http://www.w3.org/2000/svg">
<g clip-path="url(#clip0_292_674)">
<path d="M27.4323 6.95784C27.3686 6.82677 27.2745 6.71283 27.1578 6.62551C27.0411 6.53819 26.9053 6.48003 26.7616 6.45588C26.6179 6.43172 26.4705 6.44227 26.3317 6.48665C26.1929 6.53102 26.0667 6.60794 25.9636 6.71098L23.1886 9.48605C23.0754 9.5977 22.9228 9.6603 22.7638 9.6603C22.6048 9.6603 22.4522 9.5977 22.339 9.48605L21.1193 8.26643C21.0078 8.15307 20.9453 8.0004 20.9453 7.84135C20.9453 7.68231 21.0078 7.52964 21.1193 7.41628L23.8798 4.65532C23.9854 4.54971 24.0635 4.41983 24.1073 4.27703C24.1511 4.13424 24.1593 3.98289 24.1311 3.83621C24.1029 3.68954 24.0392 3.55201 23.9455 3.43566C23.8518 3.3193 23.7311 3.22767 23.5938 3.16877C21.4394 2.24647 18.7609 2.76459 17.0834 4.43234C15.6289 5.87602 15.1938 8.12157 15.8898 10.601C15.9199 10.7074 15.9197 10.82 15.8895 10.9264C15.8592 11.0327 15.8 11.1285 15.7184 11.2032L6.33798 19.919C6.02722 20.1986 5.77663 20.5385 5.60148 20.918C5.42633 21.2976 5.33028 21.7088 5.3192 22.1267C5.30811 22.5445 5.38222 22.9603 5.53701 23.3486C5.69179 23.7369 5.92401 24.0896 6.21952 24.3853C6.51502 24.6809 6.86763 24.9133 7.25585 25.0683C7.64408 25.2233 8.05979 25.2976 8.47766 25.2867C8.89553 25.2758 9.30682 25.18 9.68645 25.005C10.0661 24.8301 10.4061 24.5797 10.6859 24.269L19.4798 14.8723C19.5534 14.7926 19.6474 14.7345 19.7516 14.7042C19.8558 14.6739 19.9663 14.6725 20.0712 14.7003C22.5126 15.3514 24.737 14.9174 26.1709 13.5068C26.9955 12.693 27.5712 11.5444 27.7925 10.2673C28.0003 9.06287 27.869 7.85627 27.4323 6.95784Z" fill="#5F6266"/>
<path d="M23.8377 20.6412C23.0814 20.0124 21.4658 18.5579 19.8192 17.0486L16.2346 20.8794C17.7668 22.507 19.1535 24.018 19.7611 24.7249L19.7649 24.7292C19.9109 24.8963 20.0894 25.0317 20.2897 25.1273C20.4899 25.2228 20.7075 25.2764 20.9292 25.2848H20.9889C21.4151 25.2835 21.824 25.1157 22.1282 24.8171L22.132 24.8133L23.9457 23.0029C24.1032 22.8457 24.2262 22.6573 24.3068 22.4499C24.3873 22.2424 24.4236 22.0204 24.4134 21.7981C24.4032 21.5757 24.3467 21.358 24.2474 21.1588C24.1482 20.9596 24.0085 20.7833 23.8372 20.6412H23.8377ZM6.54225 11.7513C6.54314 11.5453 6.48679 11.3432 6.37949 11.1675C6.36446 11.1437 6.35643 11.1162 6.35631 11.0881C6.3562 11.06 6.364 11.0324 6.37884 11.0085C6.39367 10.9846 6.41493 10.9654 6.44018 10.953C6.46544 10.9406 6.49367 10.9356 6.52163 10.9385H6.52489C6.57046 10.9434 6.81406 10.9787 7.15965 11.1886C7.41627 11.3443 8.14869 11.844 9.42365 13.1168C9.41008 13.5503 9.54866 13.9749 9.81536 14.3169L13.4086 10.9776C13.0903 10.6763 12.6745 10.4991 12.2367 10.4785C12.2326 10.474 12.2288 10.4693 12.2253 10.4644L12.19 10.4269L10.8587 8.59099C10.7106 8.39001 10.6136 8.15614 10.5758 7.90942C10.538 7.6627 10.5606 7.4105 10.6416 7.17443C10.7638 6.82282 10.9859 6.51453 11.2807 6.28738C11.5894 6.04812 12.2861 5.76004 12.878 5.71121C13.1537 5.68841 13.4313 5.70559 13.7021 5.76221C13.8318 5.79351 13.9597 5.83209 14.0851 5.87777C14.1231 5.89197 14.1621 5.90339 14.2018 5.91195C14.374 5.9501 14.5537 5.93488 14.7171 5.86832C14.8804 5.80176 15.0196 5.68702 15.1161 5.53937C15.2126 5.39173 15.2619 5.21819 15.2573 5.04186C15.2527 4.86553 15.1945 4.69478 15.0904 4.55236C15.0763 4.53337 15.0188 4.45524 14.9336 4.34999C14.7747 4.14955 14.6006 3.96163 14.4128 3.78792C13.9706 3.38862 12.8248 2.71533 11.3204 2.71533C10.4594 2.7147 9.60644 2.88051 8.80842 3.20362C6.72671 4.04183 5.36495 5.18821 4.73886 5.79639L4.73398 5.80127C4.3127 6.21724 3.92265 6.66369 3.56699 7.13699C3.43253 7.3266 3.34513 7.54548 3.312 7.77556C3.29652 7.87344 3.24505 7.96202 3.16768 8.02393C3.0903 8.08585 2.9926 8.11665 2.8937 8.1103H2.83457C2.53881 8.10833 2.25427 8.22339 2.04301 8.43039L0.445244 9.98801L0.427883 10.0054C0.226899 10.2142 0.113545 10.4921 0.111124 10.7819C0.108702 11.0717 0.217396 11.3514 0.414862 11.5635C0.42517 11.5744 0.434936 11.5847 0.445787 11.595L3.02283 14.1086C3.23515 14.3166 3.52038 14.4334 3.81764 14.4341C4.1134 14.4361 4.39794 14.321 4.6092 14.114L6.20751 12.552C6.31411 12.4478 6.39867 12.3232 6.45617 12.1856C6.51368 12.0481 6.54295 11.9003 6.54225 11.7513Z" fill="#5F6266"/>
</g>
<defs>
<clipPath id="clip0_292_674">
<rect width="27.7778" height="27.7778" fill="white" transform="translate(0.110962 0.111084)"/>
</clipPath>
</defs>
</svg>
