<svg width="29" height="28" viewBox="0 0 29 28" fill="none" xmlns="http://www.w3.org/2000/svg">
<path d="M18.5641 3.61475C17.5083 2.47488 16.0337 1.84717 14.4061 1.84717C12.7698 1.84717 11.2903 2.47108 10.2395 3.6039C9.17718 4.74919 8.6596 6.30572 8.78113 7.98649C9.02201 11.3025 11.5453 13.9999 14.4061 13.9999C17.2669 13.9999 19.7859 11.303 20.0306 7.98758C20.1537 6.32199 19.6329 4.76872 18.5641 3.61475ZM23.9547 26.1527H4.85752C4.60755 26.156 4.36 26.1035 4.13289 25.999C3.90577 25.8946 3.70479 25.7408 3.54458 25.5489C3.19193 25.1273 3.04979 24.5517 3.15504 23.9696C3.61294 21.4294 5.04198 19.2956 7.28807 17.7977C9.28351 16.4679 11.8112 15.7361 14.4061 15.7361C17.0011 15.7361 19.5287 16.4685 21.5242 17.7977C23.7703 19.2951 25.1993 21.4289 25.6572 23.969C25.7625 24.5512 25.6203 25.1268 25.2677 25.5483C25.1075 25.7403 24.9066 25.8942 24.6794 25.9988C24.4523 26.1033 24.2047 26.1559 23.9547 26.1527Z" fill="#5F6266"/>
</svg>
