<svg width="29" height="28" viewBox="0 0 29 28" fill="none" xmlns="http://www.w3.org/2000/svg">
<path d="M26.1906 11.3155C25.6296 8.67605 24.142 6.27371 22.0011 4.55116C19.8118 2.79949 17.0912 1.84578 14.2874 1.84717C10.9822 1.84717 7.89521 3.1205 5.58727 5.43278C3.35691 7.6702 2.13458 10.6243 2.14435 13.7488C2.14442 16.0395 2.81694 18.2798 4.07848 20.1919L4.31448 20.5201L3.0124 26.1527L9.2407 24.6032C9.2407 24.6032 9.36548 24.645 9.45771 24.6803C9.54994 24.7156 10.3437 25.0199 11.1857 25.2554C11.8856 25.4507 13.3417 25.7437 14.4827 25.7437C17.7189 25.7437 20.7408 24.4904 22.9912 22.2139C25.2216 19.9554 26.4499 16.9524 26.4499 13.7553C26.4501 12.9351 26.3631 12.1173 26.1906 11.3155ZM9.08879 15.7361C8.74542 15.7361 8.40976 15.6342 8.12426 15.4435C7.83876 15.2527 7.61623 14.9816 7.48483 14.6643C7.35343 14.3471 7.31905 13.998 7.38604 13.6612C7.45303 13.3245 7.61837 13.0151 7.86117 12.7723C8.10397 12.5295 8.41332 12.3642 8.75009 12.2972C9.08686 12.2302 9.43594 12.2646 9.75317 12.396C10.0704 12.5274 10.3415 12.7499 10.5323 13.0354C10.7231 13.3209 10.8249 13.6566 10.8249 13.9999C10.8249 14.4604 10.642 14.902 10.3164 15.2276C9.99082 15.5531 9.54923 15.7361 9.08879 15.7361ZM14.2971 15.7361C13.9538 15.7361 13.6181 15.6342 13.3326 15.4435C13.0471 15.2527 12.8246 14.9816 12.6932 14.6643C12.5618 14.3471 12.5274 13.998 12.5944 13.6612C12.6614 13.3245 12.8267 13.0151 13.0695 12.7723C13.3123 12.5295 13.6217 12.3642 13.9584 12.2972C14.2952 12.2302 14.6443 12.2646 14.9615 12.396C15.2787 12.5274 15.5499 12.7499 15.7406 13.0354C15.9314 13.3209 16.0332 13.6566 16.0332 13.9999C16.0332 14.4604 15.8503 14.902 15.5247 15.2276C15.1992 15.5531 14.7576 15.7361 14.2971 15.7361ZM19.5055 15.7361C19.1621 15.7361 18.8264 15.6342 18.5409 15.4435C18.2554 15.2527 18.0329 14.9816 17.9015 14.6643C17.7701 14.3471 17.7357 13.998 17.8027 13.6612C17.8697 13.3245 18.035 13.0151 18.2778 12.7723C18.5206 12.5295 18.83 12.3642 19.1668 12.2972C19.5035 12.2302 19.8526 12.2646 20.1698 12.396C20.4871 12.5274 20.7582 12.7499 20.949 13.0354C21.1397 13.3209 21.2416 13.6566 21.2416 13.9999C21.2416 14.4604 21.0587 14.902 20.7331 15.2276C20.4075 15.5531 19.9659 15.7361 19.5055 15.7361Z" fill="#5F6266"/>
</svg>
