<svg width="29" height="28" viewBox="0 0 29 28" fill="none" xmlns="http://www.w3.org/2000/svg">
<path d="M14.8957 5.60574C14.815 5.52848 14.7075 5.48535 14.5957 5.48535C14.4839 5.48535 14.3765 5.52848 14.2957 5.60574L4.30763 15.1473C4.26521 15.1879 4.23147 15.2366 4.20843 15.2906C4.1854 15.3446 4.17356 15.4027 4.17362 15.4614L4.172 24.4165C4.172 24.877 4.35491 25.3185 4.68049 25.6441C5.00608 25.9697 5.44766 26.1526 5.90811 26.1526H11.1219C11.3521 26.1526 11.5729 26.0612 11.7357 25.8984C11.8985 25.7356 11.9899 25.5148 11.9899 25.2846V17.9061C11.9899 17.791 12.0356 17.6806 12.117 17.5992C12.1984 17.5178 12.3088 17.4721 12.424 17.4721H16.7642C16.8793 17.4721 16.9897 17.5178 17.0711 17.5992C17.1525 17.6806 17.1983 17.791 17.1983 17.9061V25.2846C17.1983 25.5148 17.2897 25.7356 17.4525 25.8984C17.6153 26.0612 17.8361 26.1526 18.0663 26.1526H23.2779C23.7383 26.1526 24.1799 25.9697 24.5055 25.6441C24.8311 25.3185 25.014 24.877 25.014 24.4165V15.4614C25.0141 15.4027 25.0022 15.3446 24.9792 15.2906C24.9562 15.2366 24.9224 15.1879 24.88 15.1473L14.8957 5.60574Z" fill="#979A9E"/>
<path d="M27.3388 13.357L23.2806 9.47466V3.58328C23.2806 3.35306 23.1892 3.13226 23.0264 2.96947C22.8636 2.80668 22.6428 2.71522 22.4126 2.71522H19.8084C19.5782 2.71522 19.3574 2.80668 19.1946 2.96947C19.0318 3.13226 18.9403 3.35306 18.9403 3.58328V5.31939L15.798 2.31483C15.5039 2.01752 15.0666 1.84717 14.5941 1.84717C14.1232 1.84717 13.687 2.01752 13.3929 2.31538L1.85321 13.356C1.51575 13.6815 1.47344 14.217 1.78051 14.5696C1.85762 14.6586 1.95204 14.731 2.05802 14.7824C2.16399 14.8337 2.27932 14.863 2.39696 14.8684C2.51461 14.8738 2.63212 14.8551 2.74234 14.8137C2.85256 14.7722 2.95319 14.7087 3.03811 14.6271L14.2957 3.86974C14.3765 3.79247 14.4839 3.74935 14.5957 3.74935C14.7075 3.74935 14.815 3.79247 14.8957 3.86974L26.1544 14.6271C26.3203 14.7862 26.5424 14.873 26.7722 14.8685C27.0019 14.864 27.2205 14.7686 27.38 14.6032C27.7131 14.2582 27.6855 13.6885 27.3388 13.357Z" fill="#5F6266"/>
</svg>
