<svg width="14" height="14" viewBox="0 0 14 14" fill="none" xmlns="http://www.w3.org/2000/svg">
<path d="M8.59267 6.99943L13.0522 2.53988C13.2639 2.32861 13.3829 2.04191 13.3832 1.74285C13.3834 1.4438 13.2649 1.15689 13.0536 0.945242C12.8423 0.733593 12.5556 0.614541 12.2566 0.614277C11.9575 0.614013 11.6706 0.732558 11.459 0.943834L6.99943 5.40338L2.53988 0.943834C2.32823 0.732185 2.04118 0.613281 1.74186 0.613281C1.44254 0.613281 1.15548 0.732185 0.943834 0.943834C0.732185 1.15548 0.613281 1.44254 0.613281 1.74186C0.613281 2.04118 0.732185 2.32823 0.943834 2.53988L5.40338 6.99943L0.943834 11.459C0.732185 11.6706 0.613281 11.9577 0.613281 12.257C0.613281 12.5563 0.732185 12.8434 0.943834 13.055C1.15548 13.2667 1.44254 13.3856 1.74186 13.3856C2.04118 13.3856 2.32823 13.2667 2.53988 13.055L6.99943 8.59548L11.459 13.055C11.6706 13.2667 11.9577 13.3856 12.257 13.3856C12.5563 13.3856 12.8434 13.2667 13.055 13.055C13.2667 12.8434 13.3856 12.5563 13.3856 12.257C13.3856 11.9577 13.2667 11.6706 13.055 11.459L8.59267 6.99943Z" fill="white" fill-opacity="0.5"/>
</svg>
