<svg width="28" height="27" viewBox="0 0 28 27" fill="none" xmlns="http://www.w3.org/2000/svg">
<path d="M13.9998 1.68689C7.49883 1.68689 2.2276 7.09476 2.2276 13.7587C2.2276 19.093 5.60161 23.6127 10.279 25.2104C10.3446 25.2246 10.4115 25.2316 10.4787 25.2314C10.9149 25.2314 11.0831 24.9108 11.0831 24.6322C11.0831 24.3432 11.0725 23.5864 11.0673 22.5774C10.6779 22.6687 10.2795 22.7162 9.87956 22.7193C7.61445 22.7193 7.09942 20.9587 7.09942 20.9587C6.56336 19.566 5.79081 19.1928 5.79081 19.1928C4.76599 18.4728 5.78555 18.4518 5.86438 18.4518H5.86964C7.05212 18.5569 7.67226 19.7026 7.67226 19.7026C8.26087 20.7327 9.04919 21.0217 9.75343 21.0217C10.2191 21.0124 10.6775 20.905 11.0988 20.7064C11.2039 19.9286 11.5087 19.3978 11.8451 19.093C9.23313 18.7882 6.48453 17.7528 6.48453 13.128C6.48453 11.8089 6.94175 10.7315 7.69328 9.89067C7.57241 9.58585 7.16774 8.35607 7.8089 6.69535C7.89491 6.67477 7.9833 6.66593 8.07168 6.66907C8.49737 6.66907 9.45912 6.83199 11.0463 7.93564C12.9748 7.39606 15.0144 7.39606 16.9429 7.93564C18.5301 6.83199 19.4918 6.66907 19.9175 6.66907C20.0059 6.66593 20.0943 6.67477 20.1803 6.69535C20.8214 8.35607 20.4168 9.58585 20.2959 9.89067C21.0474 10.7368 21.5046 11.8142 21.5046 13.128C21.5046 17.7634 18.7508 18.7829 16.1283 19.0825C16.5487 19.4556 16.9271 20.1914 16.9271 21.3161C16.9271 22.9295 16.9114 24.2328 16.9114 24.627C16.9114 24.9108 17.0743 25.2314 17.5105 25.2314C17.5811 25.2317 17.6516 25.2246 17.7207 25.2104C22.4033 23.6127 25.7721 19.0877 25.7721 13.7587C25.7721 7.09476 20.5009 1.68689 13.9998 1.68689Z" fill="#1D1D1F"/>
</svg>
