<svg width="28" height="27" viewBox="0 0 28 27" fill="none" xmlns="http://www.w3.org/2000/svg">
<path d="M23.9815 1.68689H4.33186C3.25817 1.68689 2.32007 2.45944 2.32007 3.52052V23.2138C2.32007 24.2807 3.25817 25.2314 4.33186 25.2314H23.9757C25.0552 25.2314 25.8646 24.2743 25.8646 23.2138V3.52052C25.8709 2.45944 25.0552 1.68689 23.9815 1.68689ZM9.61833 21.3124H6.24538V10.8251H9.61833V21.3124ZM8.04852 9.23058H8.02435C6.94488 9.23058 6.2459 8.42702 6.2459 7.42113C6.2459 6.39684 6.96327 5.6122 8.06692 5.6122C9.17057 5.6122 9.84589 6.39106 9.87007 7.42113C9.86954 8.42702 9.17057 9.23058 8.04852 9.23058ZM21.9456 21.3124H18.5726V15.5781C18.5726 14.2044 18.0817 13.2657 16.8614 13.2657C15.9291 13.2657 15.3773 13.8964 15.1318 14.5107C15.0399 14.7315 15.0152 15.0321 15.0152 15.339V21.3124H11.6422V10.8251H15.0152V12.2845C15.506 11.5856 16.2728 10.5797 18.057 10.5797C20.2712 10.5797 21.9461 12.0391 21.9461 15.1856L21.9456 21.3124Z" fill="#1D1D1F"/>
</svg>
