<svg width="28" height="27" viewBox="0 0 28 27" fill="none" xmlns="http://www.w3.org/2000/svg">
<path d="M22.7364 4.20947H5.07807C4.29778 4.21031 3.54968 4.52065 2.99793 5.0724C2.44618 5.62415 2.13584 6.37224 2.13501 7.15253V19.7656C2.13584 20.5459 2.44618 21.294 2.99793 21.8458C3.54968 22.3975 4.29778 22.7079 5.07807 22.7087H22.7364C23.5167 22.7079 24.2648 22.3975 24.8166 21.8458C25.3683 21.294 25.6787 20.5459 25.6795 19.7656V7.15253C25.6787 6.37224 25.3683 5.62415 24.8166 5.0724C24.2648 4.52065 23.5167 4.21031 22.7364 4.20947ZM21.9912 9.07761L14.4233 14.9637C14.2758 15.0785 14.0942 15.1407 13.9073 15.1407C13.7203 15.1407 13.5387 15.0785 13.3912 14.9637L5.82329 9.07761C5.73438 9.01046 5.6597 8.92632 5.60358 8.83006C5.54747 8.7338 5.51105 8.62734 5.49643 8.51688C5.48181 8.40643 5.4893 8.29416 5.51844 8.18662C5.54759 8.07908 5.59782 7.97841 5.66621 7.89044C5.7346 7.80248 5.81979 7.72899 5.91683 7.67424C6.01387 7.61948 6.12083 7.58456 6.23148 7.5715C6.34213 7.55844 6.45428 7.5675 6.5614 7.59816C6.66852 7.62882 6.76848 7.68046 6.85547 7.75008L13.9073 13.2347L20.959 7.75008C21.1354 7.61692 21.357 7.55851 21.5761 7.5875C21.7951 7.61648 21.994 7.73053 22.1296 7.90497C22.2652 8.07941 22.3268 8.30023 22.3009 8.51967C22.275 8.73911 22.1637 8.93954 21.9912 9.07761Z" fill="#1D1D1F"/>
</svg>
