<svg width="58" height="58" viewBox="0 0 58 58" fill="none" xmlns="http://www.w3.org/2000/svg">
<rect x="0.875732" y="0.751465" width="56.7516" height="56.7516" rx="8.25478" fill="url(#paint0_linear_267_5486)"/>
<path d="M7.91016 8.36792H50.5928V49.8865H7.91016V8.36792Z" fill="#0C0824"/>
<path d="M7.91021 8.36797H50.5929V49.8865H7.91021V8.36797ZM5.96948 51.8272H52.5336V6.42725H5.96948V51.8272ZM37.362 25.0529C35.8287 25.0529 35.3049 25.8295 35.3049 26.4698C35.3049 27.1682 35.6541 27.6538 37.7112 28.7198C40.7579 30.1949 41.7024 31.6101 41.7024 33.6872C41.7024 36.792 39.336 38.46 36.1347 38.46C34.7608 38.5109 33.3953 38.2255 32.1568 37.6285C32.0204 37.5703 32.0021 37.4739 32.0021 37.3175V34.4622C32.0021 34.2676 32.0986 34.2094 32.235 34.3075C33.3981 35.0554 34.7519 35.4526 36.1347 35.4517C37.668 35.4517 38.3083 34.8114 38.3083 33.9383C38.3083 33.2399 37.8626 32.6196 35.9019 31.6101C33.1463 30.2913 32.0021 28.9493 32.0021 26.7209C32.0021 24.2181 33.9612 22.1426 37.357 22.1426C38.5391 22.0919 39.7194 22.2767 40.8294 22.6864C40.8933 22.7279 40.945 22.7857 40.9792 22.8538C41.0134 22.9219 41.0288 22.9979 41.0239 23.0739V25.7347C41.0239 25.8894 40.9275 25.9875 40.7329 25.9293C39.7071 25.3388 38.5405 25.0371 37.357 25.0562L37.362 25.0529ZM20.6754 27.3611C21.1211 27.3994 21.4703 27.3994 22.247 27.3994C24.517 27.3994 26.6506 26.6045 26.6506 23.5196C26.6506 21.055 25.1173 19.8144 22.538 19.8144C21.7614 19.8144 21.0247 19.8527 20.6754 19.8726V27.3611ZM17.2214 17.0505C17.2214 16.9141 17.4924 16.8177 17.6488 16.8177C18.891 16.7595 20.7336 16.7212 22.6544 16.7212C28.0292 16.7212 30.1246 19.6697 30.1246 23.4348C30.1246 28.3623 26.5541 30.4776 22.1705 30.4776C21.4338 30.4776 21.181 30.4394 20.6571 30.4394V37.8896C20.6571 38.0443 20.5989 38.1224 20.4243 38.1224H17.4558C17.3012 38.1224 17.223 38.0642 17.223 37.8896V17.0588L17.2214 17.0505Z" fill="#31C5F0"/>
<defs>
<linearGradient id="paint0_linear_267_5486" x1="29.2515" y1="0.751465" x2="29.2515" y2="57.5031" gradientUnits="userSpaceOnUse">
<stop stop-color="#FDFDFD"/>
<stop offset="1" stop-color="#F5F4F4"/>
</linearGradient>
</defs>
</svg>
