<svg width="58" height="57" viewBox="0 0 58 57" fill="none" xmlns="http://www.w3.org/2000/svg">
<rect x="0.621094" width="56.7516" height="56.7516" rx="8.25478" fill="url(#paint0_linear_92_671)"/>
<g clip-path="url(#clip0_92_671)">
<path d="M14.4881 11.449C13.2055 11.449 11.9753 11.9585 11.0684 12.8655C10.1614 13.7725 9.65186 15.0026 9.65186 16.2852L9.65186 40.4665C9.65186 41.7491 10.1614 42.9792 11.0684 43.8862C11.9753 44.7932 13.2055 45.3027 14.4881 45.3027H43.5056C44.7883 45.3027 46.0184 44.7932 46.9254 43.8862C47.8323 42.9792 48.3419 41.7491 48.3419 40.4665V16.2852C48.3419 15.0026 47.8323 13.7725 46.9254 12.8655C46.0184 11.9585 44.7883 11.449 43.5056 11.449H14.4881Z" fill="black"/>
<path d="M24.1603 30.7936C24.1603 30.4729 24.2877 30.1654 24.5144 29.9386C24.7412 29.7119 25.0487 29.5845 25.3694 29.5845H32.6238C32.9444 29.5845 33.252 29.7119 33.4787 29.9386C33.7054 30.1654 33.8328 30.4729 33.8328 30.7936C33.8328 31.1142 33.7054 31.4218 33.4787 31.6485C33.252 31.8752 32.9444 32.0026 32.6238 32.0026H25.3694C25.0487 32.0026 24.7412 31.8752 24.5144 31.6485C24.2877 31.4218 24.1603 31.1142 24.1603 30.7936ZM18.971 19.056C18.8586 18.9436 18.7252 18.8544 18.5783 18.7936C18.4314 18.7327 18.274 18.7014 18.115 18.7014C17.956 18.7014 17.7986 18.7327 17.6517 18.7936C17.5049 18.8544 17.3714 18.9436 17.259 19.056C17.1466 19.1684 17.0574 19.3019 16.9966 19.4487C16.9357 19.5956 16.9044 19.753 16.9044 19.912C16.9044 20.071 16.9357 20.2284 16.9966 20.3753C17.0574 20.5222 17.1466 20.6556 17.259 20.768L21.2416 24.7483L17.259 28.7285C17.1466 28.8409 17.0574 28.9744 16.9966 29.1212C16.9357 29.2681 16.9044 29.4255 16.9044 29.5845C16.9044 29.7435 16.9357 29.9009 16.9966 30.0478C17.0574 30.1947 17.1466 30.3281 17.259 30.4405C17.486 30.6676 17.7939 30.7951 18.115 30.7951C18.274 30.7951 18.4314 30.7638 18.5783 30.7029C18.7252 30.6421 18.8586 30.5529 18.971 30.4405L23.8073 25.6043C23.9199 25.492 24.0092 25.3585 24.0702 25.2116C24.1311 25.0648 24.1625 24.9073 24.1625 24.7483C24.1625 24.5892 24.1311 24.4318 24.0702 24.2849C24.0092 24.138 23.9199 24.0046 23.8073 23.8922L18.971 19.056Z" fill="#00FF00"/>
</g>
<defs>
<linearGradient id="paint0_linear_92_671" x1="28.9969" y1="0" x2="28.9969" y2="56.7516" gradientUnits="userSpaceOnUse">
<stop stop-color="#FDFDFD"/>
<stop offset="1" stop-color="#F5F4F4"/>
</linearGradient>
<clipPath id="clip0_92_671">
<rect width="38.69" height="38.69" fill="white" transform="translate(9.65186 9.03076)"/>
</clipPath>
</defs>
</svg>
