<svg width="52" height="36" viewBox="0 0 52 36" fill="none" xmlns="http://www.w3.org/2000/svg">
<path d="M44.333 11.0841C44.2 9.74285 43.6291 8.70089 42.6204 7.95821C41.6117 7.21553 40.2427 6.8442 38.5135 6.8442C37.3386 6.8442 36.3465 7.01047 35.5373 7.34301C34.7281 7.66447 34.1074 8.1134 33.6751 8.6898C33.2538 9.26621 33.0432 9.92021 33.0432 10.6518C33.0211 11.2615 33.1485 11.7935 33.4256 12.248C33.7138 12.7025 34.1074 13.096 34.6062 13.4285C35.105 13.75 35.6814 14.0326 36.3354 14.2765C36.9894 14.5093 37.6877 14.7088 38.4304 14.8751L41.4898 15.6067C42.9751 15.9392 44.3386 16.3826 45.58 16.9368C46.8215 17.4911 47.8967 18.1728 48.8057 18.982C49.7146 19.7911 50.4185 20.7444 50.9173 21.8418C51.4272 22.9392 51.6877 24.1973 51.6988 25.6162C51.6877 27.7001 51.1557 29.5069 50.1026 31.0366C49.0606 32.5552 47.5531 33.7357 45.58 34.5782C43.618 35.4095 41.2515 35.8252 38.4803 35.8252C35.7313 35.8252 33.337 35.404 31.2974 34.5615C29.2689 33.7191 27.6838 32.4721 26.542 30.8204C25.4114 29.1577 24.8184 27.1015 24.7629 24.6518H31.7297C31.8073 25.7935 32.1343 26.7468 32.7107 27.5117C33.2982 28.2654 34.0796 28.8363 35.0551 29.2242C36.0416 29.6011 37.1557 29.7896 38.3971 29.7896C39.6165 29.7896 40.6751 29.6122 41.5729 29.2575C42.4819 28.9028 43.1857 28.4095 43.6846 27.7777C44.1834 27.1459 44.4328 26.4198 44.4328 25.5995C44.4328 24.8347 44.2055 24.1918 43.7511 23.6708C43.3077 23.1498 42.6537 22.7064 41.7891 22.3406C40.9355 21.9748 39.888 21.6423 38.6466 21.343L34.9387 20.4119C32.0678 19.7136 29.8009 18.6217 28.1382 17.1364C26.4755 15.651 25.6497 13.6502 25.6608 11.134C25.6497 9.07222 26.1984 7.27096 27.3069 5.73018C28.4264 4.18941 29.9617 2.98672 31.9126 2.12211C33.8635 1.2575 36.0804 0.825195 38.5634 0.825195C41.0907 0.825195 43.2966 1.2575 45.181 2.12211C47.0765 2.98672 48.5507 4.18941 49.6038 5.73018C50.6568 7.27096 51.2 9.0556 51.2332 11.0841H44.333Z" fill="white"/>
<path d="M0.844482 35.2727V1.27271H23.3562V7.19946H8.03296V15.301H21.8621V21.2278H8.03296V35.2727H0.844482Z" fill="white"/>
</svg>
