<svg width="39" height="38" viewBox="0 0 39 38" fill="none" xmlns="http://www.w3.org/2000/svg">
<g filter="url(#filter0_d_216_1422)">
<path d="M19.8338 30.884C16.6864 30.884 13.6678 29.6337 11.4422 27.4081C9.21663 25.1825 7.96631 22.1639 7.96631 19.0165C7.96631 14.2081 10.7286 9.89691 15.0055 8.03545C15.1562 7.96975 15.3232 7.95098 15.4848 7.98158C15.6463 8.01218 15.7949 8.09074 15.9112 8.207C16.0275 8.32327 16.106 8.47186 16.1366 8.63342C16.1672 8.79497 16.1485 8.962 16.0828 9.11273C15.5917 10.2401 15.3323 11.6842 15.3323 13.2873C15.3323 18.9285 19.9218 23.5179 25.563 23.5179C27.1661 23.5179 28.6101 23.2586 29.7376 22.7675C29.8883 22.7018 30.0553 22.6831 30.2169 22.7137C30.3784 22.7443 30.527 22.8228 30.6433 22.9391C30.7596 23.0554 30.8381 23.2039 30.8687 23.3655C30.8993 23.5271 30.8805 23.6941 30.8148 23.8448C28.9534 28.1217 24.6422 30.884 19.8338 30.884Z" fill="#5F6266"/>
</g>
<defs>
<filter id="filter0_d_216_1422" x="-2.09611" y="-2.79655" width="43.566" height="43.566" filterUnits="userSpaceOnUse" color-interpolation-filters="sRGB">
<feFlood flood-opacity="0" result="BackgroundImageFix"/>
<feColorMatrix in="SourceAlpha" type="matrix" values="0 0 0 0 0 0 0 0 0 0 0 0 0 0 0 0 0 0 127 0" result="hardAlpha"/>
<feOffset/>
<feGaussianBlur stdDeviation="1.50228"/>
<feComposite in2="hardAlpha" operator="out"/>
<feColorMatrix type="matrix" values="0 0 0 0 1 0 0 0 0 1 0 0 0 0 1 0 0 0 0.25 0"/>
<feBlend mode="normal" in2="BackgroundImageFix" result="effect1_dropShadow_216_1422"/>
<feBlend mode="normal" in="SourceGraphic" in2="effect1_dropShadow_216_1422" result="shape"/>
</filter>
</defs>
</svg>
