<svg width="39" height="39" viewBox="0 0 39 39" fill="none" xmlns="http://www.w3.org/2000/svg">
<path d="M18.2089 7.29131C18.2089 6.57814 18.7871 6 19.5002 6C20.2134 6 20.7915 6.57814 20.7915 7.2913V10.1087C20.7915 10.8219 20.2134 11.4 19.5002 11.4C18.7871 11.4 18.2089 10.8219 18.2089 10.1087V7.29131ZM18.2089 28.8913C18.2089 28.1781 18.7871 27.6 19.5002 27.6C20.2134 27.6 20.7915 28.1781 20.7915 28.8913V31.7087C20.7915 32.4219 20.2134 33 19.5002 33C18.7871 33 18.2089 32.4219 18.2089 31.7087V28.8913ZM25.2279 13.7721C24.7236 13.2678 24.7236 12.4502 25.2279 11.9459L27.22 9.95371C27.7243 9.44942 28.542 9.44942 29.0462 9.95371C29.5505 10.458 29.5505 11.2756 29.0462 11.7799L27.0541 13.7721C26.5498 14.2764 25.7321 14.2764 25.2279 13.7721ZM9.95466 29.0457C9.45037 28.5414 9.45037 27.7238 9.95466 27.2195L11.9468 25.2273C12.4511 24.723 13.2688 24.723 13.773 25.2273C14.2773 25.7316 14.2773 26.5492 13.773 27.0535L11.7809 29.0457C11.2766 29.55 10.4589 29.55 9.95466 29.0457ZM27.6002 19.5C27.6002 18.7868 28.1784 18.2087 28.8915 18.2087H31.7089C32.4221 18.2087 33.0002 18.7868 33.0002 19.5C33.0002 20.2132 32.4221 20.7913 31.7089 20.7913H28.8916C28.1784 20.7913 27.6002 20.2132 27.6002 19.5ZM6.00024 19.5C6.00024 18.7868 6.57838 18.2087 7.29155 18.2087H10.1089C10.8221 18.2087 11.4002 18.7868 11.4002 19.5C11.4002 20.2132 10.8221 20.7913 10.1089 20.7913H7.29155C6.57838 20.7913 6.00024 20.2132 6.00024 19.5ZM25.2281 27.0539C24.7238 26.5496 24.7238 25.732 25.228 25.2277C25.7323 24.7234 26.5499 24.7234 27.0542 25.2277L29.0464 27.2199C29.5507 27.7242 29.5507 28.5418 29.0464 29.0461C28.5422 29.5504 27.7246 29.5504 27.2203 29.0461L25.2281 27.0539ZM9.9539 11.7801C9.44961 11.2759 9.44961 10.4582 9.9539 9.95394C10.4582 9.44965 11.2758 9.44965 11.7801 9.95394L13.7723 11.9461C14.2766 12.4504 14.2766 13.268 13.7723 13.7723C13.268 14.2766 12.4504 14.2766 11.9461 13.7723L9.9539 11.7801ZM19.5002 25.487C18.3161 25.487 17.1586 25.1358 16.1741 24.478C15.1895 23.8201 14.4222 22.8851 13.969 21.7911C13.5159 20.6971 13.3973 19.4934 13.6283 18.332C13.8593 17.1706 14.4295 16.1039 15.2668 15.2666C16.1041 14.4293 17.1709 13.8591 18.3322 13.6281C19.4936 13.3971 20.6974 13.5156 21.7914 13.9688C22.8853 14.4219 23.8204 15.1893 24.4782 16.1738C25.1361 17.1584 25.4872 18.3159 25.4872 19.5C25.4853 21.0873 24.854 22.609 23.7316 23.7314C22.6092 24.8537 21.0875 25.4851 19.5002 25.487Z" fill="#5F6266"/>
</svg>
