<svg width="58" height="57" viewBox="0 0 58 57" fill="none" xmlns="http://www.w3.org/2000/svg">
<rect x="0.5" width="56.7516" height="56.7516" rx="8.25478" fill="url(#paint0_linear_92_688)"/>
<path d="M28.8759 40.2501C41.3418 40.2501 51.4475 34.9338 51.4475 28.3758C51.4475 21.8178 41.3418 16.5015 28.8759 16.5015C16.4099 16.5015 6.3042 21.8178 6.3042 28.3758C6.3042 34.9338 16.4099 40.2501 28.8759 40.2501Z" fill="url(#paint1_radial_92_688)"/>
<path d="M28.8768 39.3681C40.8557 39.3681 50.5665 34.4466 50.5665 28.3757C50.5665 22.3048 40.8557 17.3833 28.8768 17.3833C16.8978 17.3833 7.18701 22.3048 7.18701 28.3757C7.18701 34.4466 16.8978 39.3681 28.8768 39.3681Z" fill="#6280B6"/>
<path d="M33.2696 31.9228L34.345 26.3863C34.4982 25.9125 34.5234 25.4066 34.4181 24.9199C34.3128 24.4332 34.0806 23.983 33.7452 23.6149C32.8091 22.9501 31.6627 22.6492 30.5207 22.7684H28.6618L29.1954 20.0276C29.2052 19.9766 29.2035 19.924 29.1906 19.8737C29.1777 19.8234 29.1538 19.7765 29.1207 19.7365C29.0876 19.6964 29.0461 19.6642 28.9991 19.6421C28.9521 19.6199 28.9008 19.6084 28.8488 19.6084H26.2692C26.1873 19.6084 26.1079 19.6368 26.0447 19.6889C25.9814 19.7409 25.9383 19.8134 25.9226 19.8938L24.7795 25.7721C24.6915 25.1436 24.4245 24.5537 24.0104 24.0727C23.5494 23.611 22.9931 23.2554 22.3805 23.0307C21.7679 22.806 21.1137 22.7176 20.4634 22.7717H15.4945C15.4125 22.7716 15.3332 22.8001 15.2699 22.8521C15.2067 22.9042 15.1635 22.9766 15.1478 23.057L12.8358 34.9555C12.8261 35.0065 12.8278 35.0591 12.8407 35.1094C12.8536 35.1597 12.8775 35.2066 12.9106 35.2466C12.9437 35.2867 12.9852 35.3189 13.0322 35.341C13.0792 35.3632 13.1305 35.3747 13.1825 35.3747H15.7669C15.8488 35.3747 15.9282 35.3463 15.9914 35.2942C16.0547 35.2421 16.0979 35.1697 16.1136 35.0893L16.673 32.2114H18.6077C19.462 32.2343 20.3146 32.1255 21.1358 31.889C21.8281 31.6599 22.4613 31.2806 22.9899 30.7781C23.423 30.3836 23.7928 29.9246 24.0862 29.4174L23.6235 31.7955C23.6137 31.8465 23.6154 31.8991 23.6283 31.9494C23.6412 31.9997 23.6651 32.0466 23.6982 32.0866C23.7313 32.1266 23.7729 32.1589 23.8199 32.181C23.8669 32.2031 23.9182 32.2146 23.9701 32.2147H26.5497C26.6316 32.2147 26.711 32.1862 26.7742 32.1342C26.8375 32.0821 26.8807 32.0097 26.8964 31.9293L28.1652 25.398H29.929C30.6803 25.398 30.8964 25.548 30.9609 25.6125C31.0254 25.6769 31.1221 25.8785 31.0012 26.5298L29.9774 31.7939C29.9677 31.8449 29.9693 31.8975 29.9822 31.9478C29.9952 31.9981 30.019 32.0449 30.0521 32.085C30.0852 32.125 30.1268 32.1573 30.1738 32.1794C30.2208 32.2015 30.2721 32.213 30.324 32.2131H32.9359C33.0163 32.2099 33.0931 32.1795 33.1538 32.1267C33.2145 32.0739 33.2554 32.002 33.2696 31.9228ZM21.347 27.3537C21.2681 28.0306 20.9468 28.656 20.4425 29.1143C19.809 29.5083 19.0662 29.6897 18.3224 29.6318H17.1744L18.0047 25.3577H19.4896C20.5811 25.3577 21.0197 25.5915 21.197 25.7866C21.3323 26.022 21.4157 26.2836 21.4415 26.5539C21.4674 26.8242 21.4351 27.0969 21.347 27.3537Z" fill="white"/>
<path d="M44.2652 24.0743C43.8041 23.6126 43.2479 23.257 42.6353 23.0323C42.0227 22.8076 41.3685 22.7192 40.7182 22.7733H35.7347C35.6528 22.7732 35.5734 22.8017 35.5102 22.8537C35.4469 22.9058 35.4038 22.9782 35.3881 23.0586L33.0761 34.9571C33.0663 35.0081 33.068 35.0607 33.0809 35.111C33.0938 35.1613 33.1177 35.2082 33.1508 35.2482C33.1839 35.2883 33.2254 35.3205 33.2724 35.3426C33.3194 35.3648 33.3707 35.3763 33.4227 35.3763H36.0152C36.0971 35.3763 36.1765 35.3479 36.2397 35.2958C36.303 35.2437 36.3461 35.1713 36.3619 35.0909L36.9213 32.213H38.856C39.7102 32.2359 40.5629 32.1271 41.384 31.8906C42.0764 31.6615 42.7096 31.2822 43.2381 30.7797C44.1434 29.9639 44.7533 28.8716 44.9729 27.6729C45.1464 27.0597 45.1727 26.4142 45.0497 25.7889C44.9267 25.1636 44.6579 24.5762 44.2652 24.0743ZM41.5775 27.3537C41.4987 28.0306 41.1774 28.656 40.673 29.1143C40.038 29.5088 39.2933 29.6896 38.5481 29.6302H37.4034L38.2337 25.3561H39.7186C40.8101 25.3561 41.2486 25.5899 41.426 25.785C41.5617 26.0205 41.6455 26.2823 41.6717 26.5529C41.6978 26.8235 41.6657 27.0965 41.5775 27.3537Z" fill="white"/>
<path d="M19.4905 25.0029C19.8384 24.9591 20.1915 24.9847 20.5294 25.0783C20.8673 25.1718 21.1833 25.3314 21.4591 25.5478C21.6371 25.8219 21.7506 26.1327 21.7911 26.4569C21.8316 26.7811 21.798 27.1103 21.6929 27.4197C21.6007 28.1814 21.2324 28.883 20.6578 29.3915C19.9647 29.8379 19.1455 30.0472 18.3232 29.988H16.7465L17.7138 25.0077L19.4905 25.0029ZM13.1753 35.0247H15.7678L16.3821 31.8615H18.6022C19.4193 31.8838 20.2351 31.7799 21.0206 31.5535C21.6652 31.3407 22.2545 30.9871 22.7457 30.5184C23.5959 29.7536 24.1686 28.7285 24.3741 27.6035C24.5368 27.044 24.5653 26.4541 24.4575 25.8816C24.3497 25.309 24.1084 24.7699 23.7533 24.308C23.3252 23.8845 22.8098 23.5595 22.2432 23.3557C21.6765 23.1519 21.0722 23.0741 20.4724 23.1278H15.4953L13.1753 35.0247Z" fill="#000004"/>
<path d="M26.2766 19.9629H28.8562L28.2323 23.1261H30.5233C31.5755 23.016 32.6327 23.2834 33.506 23.8807C33.795 24.2092 33.9926 24.608 34.0789 25.037C34.1652 25.466 34.1372 25.9101 33.9977 26.3249L32.9223 31.8614H30.3121L31.3359 26.5973C31.4072 26.3964 31.4326 26.1821 31.4103 25.9701C31.388 25.758 31.3185 25.5537 31.2069 25.372C30.8335 25.1046 30.3724 24.9893 29.9171 25.0496H27.8614L26.5362 31.8662H23.9565L26.2766 19.9629Z" fill="#000004"/>
<path d="M39.721 25.0029C40.0688 24.9591 40.4219 24.9847 40.7598 25.0783C41.0977 25.1718 41.4137 25.3314 41.6896 25.5478C41.8675 25.8219 41.981 26.1327 42.0215 26.4569C42.062 26.7811 42.0285 27.1103 41.9233 27.4197C41.8312 28.1814 41.4629 28.883 40.8883 29.3915C40.1939 29.8389 39.3727 30.0483 38.5489 29.988H36.9721L37.9394 25.0077L39.721 25.0029ZM33.4058 35.0247H35.9983L36.6125 31.8615H38.8326C39.6498 31.8838 40.4655 31.7799 41.251 31.5535C41.8957 31.3407 42.485 30.9871 42.9761 30.5184C43.8264 29.7536 44.399 28.7285 44.6045 27.6035C44.7672 27.044 44.7958 26.4541 44.688 25.8816C44.5801 25.309 44.3389 24.7699 43.9838 24.308C43.5557 23.8845 43.0403 23.5595 42.4736 23.3557C41.907 23.1519 41.3027 23.0741 40.7029 23.1278H35.7177L33.4058 35.0247Z" fill="#000004"/>
<defs>
<linearGradient id="paint0_linear_92_688" x1="28.8758" y1="0" x2="28.8758" y2="56.7516" gradientUnits="userSpaceOnUse">
<stop stop-color="#FDFDFD"/>
<stop offset="1" stop-color="#F5F4F4"/>
</linearGradient>
<radialGradient id="paint1_radial_92_688" cx="0" cy="0" r="1" gradientUnits="userSpaceOnUse" gradientTransform="translate(19.8569 20.6772) scale(29.6398 29.6398)">
<stop stop-color="white"/>
<stop offset="0.5" stop-color="#4C6B96"/>
<stop offset="1" stop-color="#231F20"/>
</radialGradient>
</defs>
</svg>
