<svg width="58" height="57" viewBox="0 0 58 57" fill="none" xmlns="http://www.w3.org/2000/svg">
<rect x="0.748291" width="56.7516" height="56.7516" rx="8.25478" fill="url(#paint0_linear_92_683)"/>
<path d="M18.5714 27.3203C21.9594 28.5112 25.5335 29.0844 29.124 29.0129C32.7146 29.084 36.2888 28.5102 39.6767 27.3189C42.3212 26.2875 43.259 25.1411 43.259 24.4814V19.4377C42.3344 20.0569 41.3425 20.5691 40.3024 20.9643C36.7178 22.2479 32.9309 22.8736 29.124 22.8115C25.3174 22.8725 21.5309 22.2477 17.9457 20.9672C16.905 20.5719 15.913 20.0587 14.989 19.4377V24.4743C14.989 25.1468 15.9296 26.2875 18.5714 27.3203Z" fill="#74777C"/>
<path d="M18.5714 36.8329C19.7682 37.2894 21.0024 37.6411 22.2601 37.8842C24.5217 38.3217 26.8206 38.537 29.124 38.5269C31.4274 38.5374 33.7263 38.3226 35.9879 37.8856C37.2456 37.6425 38.4798 37.2908 39.6767 36.8343C42.3212 35.8029 43.259 34.6566 43.259 33.9968V29.1873C42.4948 29.6472 41.6915 30.0388 40.8585 30.3577C37.0928 31.691 33.1181 32.3364 29.124 32.2631C25.1295 32.3341 21.1548 31.6863 17.3895 30.3506C16.5569 30.0309 15.7537 29.6393 14.989 29.1802V33.994C14.989 34.6551 15.9296 35.7972 18.5714 36.8329Z" fill="#74777C"/>
<path d="M29.124 48.2383C36.9271 48.2383 43.259 45.764 43.259 42.7137V38.6887C42.5638 39.1078 41.8354 39.4694 41.0812 39.7698L40.8585 39.8592C37.0935 41.1964 33.1188 41.8457 29.124 41.7759C25.1291 41.8477 21.154 41.1984 17.3895 39.8592C17.3129 39.8308 17.2392 39.7982 17.1668 39.7698C16.4126 39.4694 15.6843 39.1078 14.989 38.6887V42.7137C14.989 45.764 21.3209 48.2383 29.124 48.2383Z" fill="#74777C"/>
<path d="M29.124 19.5624C36.9306 19.5624 43.259 17.089 43.259 14.0378C43.259 10.9866 36.9306 8.51318 29.124 8.51318C21.3175 8.51318 14.989 10.9866 14.989 14.0378C14.989 17.089 21.3175 19.5624 29.124 19.5624Z" fill="#74777C"/>
<defs>
<linearGradient id="paint0_linear_92_683" x1="29.1241" y1="0" x2="29.1241" y2="56.7516" gradientUnits="userSpaceOnUse">
<stop stop-color="#FDFDFD"/>
<stop offset="1" stop-color="#F5F4F4"/>
</linearGradient>
</defs>
</svg>
