<svg width="231" height="147" viewBox="0 0 231 147" fill="none" xmlns="http://www.w3.org/2000/svg">
<path d="M197 43.0577C196.399 37.4637 193.816 33.118 189.254 30.0206C184.691 26.9231 178.499 25.3744 170.678 25.3744C165.364 25.3744 160.876 26.0678 157.216 27.4548C153.556 28.7955 150.748 30.6678 148.793 33.0718C146.888 35.4758 145.935 38.2034 145.935 41.2547C145.835 43.7974 146.412 46.0164 147.665 47.9119C148.969 49.8074 150.748 51.4486 153.005 52.8355C155.261 54.1762 157.868 55.3551 160.826 56.3722C163.784 57.343 166.943 58.1752 170.302 58.8686L184.14 61.9199C190.858 63.3068 197.025 65.156 202.641 67.4676C208.256 69.7791 213.119 72.6223 217.231 75.9972C221.342 79.372 224.526 83.3479 226.782 87.9247C229.088 92.5016 230.266 97.7488 230.316 103.666C230.266 112.358 227.86 119.893 223.097 126.273C218.384 132.607 211.565 137.53 202.641 141.044C193.766 144.511 183.062 146.245 170.528 146.245C158.094 146.245 147.264 144.488 138.039 140.975C128.864 137.461 121.694 132.26 116.53 125.372C111.416 118.437 108.733 109.861 108.483 99.6442H139.994C140.345 104.406 141.824 108.382 144.431 111.572C147.088 114.716 150.623 117.096 155.035 118.714C159.497 120.286 164.536 121.072 170.152 121.072C175.667 121.072 180.455 120.333 184.516 118.853C188.627 117.374 191.811 115.317 194.067 112.681C196.323 110.046 197.451 107.018 197.451 103.597C197.451 100.407 196.424 97.7257 194.368 95.5528C192.362 93.38 189.404 91.5307 185.494 90.0051C181.633 88.4795 176.895 87.0926 171.28 85.8443L154.509 81.9609C141.523 79.0484 131.27 74.4947 123.749 68.2997C116.229 62.1048 112.494 53.7601 112.544 43.2657C112.494 34.6668 114.975 27.1542 119.989 20.7282C125.053 14.3021 131.997 9.28602 140.821 5.68001C149.645 2.074 159.673 0.270996 170.904 0.270996C182.335 0.270996 192.312 2.074 200.836 5.68001C209.409 9.28602 216.077 14.3021 220.841 20.7282C225.604 27.1542 228.06 34.5974 228.211 43.0577H197Z" fill="url(#paint0_linear_124_1586)"/>
<path d="M0.296631 143.941V2.13745H102.12V26.8561H32.8109V60.6452H95.3614V85.3638H32.8109V143.941H0.296631Z" fill="url(#paint1_linear_124_1586)"/>
<defs>
<linearGradient id="paint0_linear_124_1586" x1="169.4" y1="0.270996" x2="169.4" y2="146.245" gradientUnits="userSpaceOnUse">
<stop offset="0.122684" stop-color="white"/>
<stop offset="1" stop-color="white" stop-opacity="0"/>
</linearGradient>
<linearGradient id="paint1_linear_124_1586" x1="51.2081" y1="2.13745" x2="51.2081" y2="143.941" gradientUnits="userSpaceOnUse">
<stop offset="0.122684" stop-color="white"/>
<stop offset="1" stop-color="white" stop-opacity="0"/>
</linearGradient>
</defs>
</svg>
