<?xml version="1.0" standalone="no"?>
<!DOCTYPE svg PUBLIC "-//W3C//DTD SVG 20010904//EN"
 "http://www.w3.org/TR/2001/REC-SVG-20010904/DTD/svg10.dtd">
<svg version="1.0" xmlns="http://www.w3.org/2000/svg"
 width="35pt" height="35pt" viewBox="0 0 512 512"
 preserveAspectRatio="xMidYMid meet">
<g transform="translate(0,512) scale(0.1,-0.1)"
fill="#a945e3" stroke="none">
<path d="M282 5100 c-29 -10 -67 -28 -86 -39 -53 -33 -130 -121 -162 -186
l-29 -60 -3 -487 -3 -488 216 0 215 0 0 425 0 425 425 0 425 0 0 215 0 215
-472 0 c-439 -1 -477 -2 -526 -20z"/>
<path d="M3840 4905 l0 -215 425 0 425 0 0 -425 0 -425 215 0 216 0 -3 488 -3
487 -27 58 c-38 80 -123 167 -206 208 l-67 34 -487 3 -488 3 0 -216z"/>
<path d="M850 3625 l0 -645 645 0 645 0 0 645 0 645 -645 0 -645 0 0 -645z
m850 5 l0 -210 -210 0 -210 0 0 210 0 210 210 0 210 0 0 -210z"/>
<path d="M2980 3625 l0 -645 645 0 645 0 0 645 0 645 -645 0 -645 0 0 -645z
m860 5 l0 -210 -210 0 -210 0 0 210 0 210 210 0 210 0 0 -210z"/>
<path d="M2340 3410 l0 -430 220 0 220 0 0 430 0 430 -220 0 -220 0 0 -430z"/>
<path d="M850 2560 l0 -220 215 0 215 0 0 220 0 220 -215 0 -215 0 0 -220z"/>
<path d="M1920 2560 l0 -220 210 0 210 0 0 -210 0 -210 220 0 220 0 0 430 0
430 -430 0 -430 0 0 -220z"/>
<path d="M2980 2560 l0 -220 215 0 215 0 0 -210 0 -210 -215 0 -215 0 0 -105
0 -105 -320 0 -320 0 0 -430 0 -430 220 0 220 0 0 215 0 215 315 0 315 0 0
-215 0 -215 215 0 215 0 0 215 0 215 215 0 215 0 0 320 0 320 -215 0 -215 0 0
210 0 210 215 0 215 0 0 220 0 220 -215 0 -215 0 0 -215 0 -215 -210 0 -210 0
0 215 0 215 -220 0 -220 0 0 -220z m860 -960 l0 -320 -210 0 -210 0 0 320 0
320 210 0 210 0 0 -320z"/>
<path d="M850 1495 l0 -645 645 0 645 0 0 645 0 645 -645 0 -645 0 0 -645z
m850 -5 l0 -210 -210 0 -210 0 0 210 0 210 210 0 210 0 0 -210z"/>
<path d="M2 793 l3 -488 29 -60 c41 -83 122 -165 204 -206 l67 -34 488 -3 487
-3 0 216 0 215 -425 0 -425 0 0 425 0 425 -215 0 -216 0 3 -487z"/>
<path d="M4690 855 l0 -425 -425 0 -425 0 0 -215 0 -216 488 3 487 3 67 34
c82 41 163 123 204 206 l29 60 3 488 3 487 -216 0 -215 0 0 -425z"/>
</g>
</svg>
