<svg width="47" height="27" viewBox="0 0 47 27" fill="none" xmlns="http://www.w3.org/2000/svg">
<path fill-rule="evenodd" clip-rule="evenodd" d="M2.77827 17.3333C-0.0409946 15.3411 -0.0410001 11.159 2.77826 9.16667L14.4528 0.91667C15.2968 0.320243 16.3049 0 17.3383 0H42C44.7614 0 47 2.23858 47 5V21.5C47 24.2614 44.7614 26.5 42 26.5H17.3383C16.3049 26.5 15.2968 26.1798 14.4528 25.5833L2.77827 17.3333ZM8.87497 16.5C10.7389 16.5 12.25 14.989 12.25 13.125C12.25 11.261 10.7389 9.75 8.87497 9.75C7.01101 9.75 5.49997 11.261 5.49997 13.125C5.49997 14.989 7.01101 16.5 8.87497 16.5Z" fill="black"/>
</svg>
