<svg width="21" height="21" viewBox="0 0 21 21" fill="none" xmlns="http://www.w3.org/2000/svg">
<path d="M17.7188 3.9375H13.7812V2.95312C13.7812 2.518 13.6084 2.1007 13.3007 1.79303C12.993 1.48535 12.5757 1.3125 12.1406 1.3125H8.85938C8.42425 1.3125 8.00695 1.48535 7.69928 1.79303C7.3916 2.1007 7.21875 2.518 7.21875 2.95312V3.9375H3.28125C3.1072 3.9375 2.94028 4.00664 2.81721 4.12971C2.69414 4.25278 2.625 4.4197 2.625 4.59375C2.625 4.7678 2.69414 4.93472 2.81721 5.05779C2.94028 5.18086 3.1072 5.25 3.28125 5.25H3.97852L4.75781 17.7565C4.81605 18.8578 5.66016 19.6875 6.72656 19.6875H14.2734C15.3452 19.6875 16.1725 18.8762 16.2422 17.7598L17.0215 5.25H17.7188C17.8928 5.25 18.0597 5.18086 18.1828 5.05779C18.3059 4.93472 18.375 4.7678 18.375 4.59375C18.375 4.4197 18.3059 4.25278 18.1828 4.12971C18.0597 4.00664 17.8928 3.9375 17.7188 3.9375ZM7.89838 17.0625H7.875C7.70493 17.0626 7.54146 16.9967 7.41904 16.8786C7.29662 16.7606 7.22481 16.5996 7.21875 16.4296L6.89062 7.24213C6.88442 7.06808 6.94762 6.8987 7.0663 6.77124C7.18499 6.64379 7.34945 6.5687 7.5235 6.5625C7.69754 6.5563 7.86693 6.61949 7.99438 6.73818C8.12184 6.85687 8.19692 7.02132 8.20312 7.19537L8.53125 16.3829C8.53438 16.4691 8.52048 16.555 8.49036 16.6358C8.46023 16.7167 8.41447 16.7908 8.3557 16.8539C8.29692 16.917 8.22627 16.9679 8.1478 17.0037C8.06933 17.0395 7.98458 17.0595 7.89838 17.0625ZM11.1562 16.4062C11.1562 16.5803 11.0871 16.7472 10.964 16.8703C10.841 16.9934 10.674 17.0625 10.5 17.0625C10.326 17.0625 10.159 16.9934 10.036 16.8703C9.91289 16.7472 9.84375 16.5803 9.84375 16.4062V7.21875C9.84375 7.0447 9.91289 6.87778 10.036 6.75471C10.159 6.63164 10.326 6.5625 10.5 6.5625C10.674 6.5625 10.841 6.63164 10.964 6.75471C11.0871 6.87778 11.1562 7.0447 11.1562 7.21875V16.4062ZM12.4688 3.9375H8.53125V2.95312C8.53076 2.9099 8.5389 2.86701 8.55522 2.82697C8.57153 2.78694 8.59568 2.75057 8.62625 2.72C8.65682 2.68943 8.69319 2.66528 8.73322 2.64897C8.77326 2.63265 8.81615 2.62451 8.85938 2.625H12.1406C12.1839 2.62451 12.2267 2.63265 12.2668 2.64897C12.3068 2.66528 12.3432 2.68943 12.3737 2.72C12.4043 2.75057 12.4285 2.78694 12.4448 2.82697C12.4611 2.86701 12.4692 2.9099 12.4688 2.95312V3.9375ZM13.7812 16.4296C13.7752 16.5996 13.7034 16.7606 13.581 16.8786C13.4585 16.9967 13.2951 17.0626 13.125 17.0625H13.1012C13.015 17.0594 12.9303 17.0394 12.8519 17.0036C12.7735 16.9678 12.7029 16.9168 12.6442 16.8537C12.5854 16.7906 12.5397 16.7165 12.5096 16.6358C12.4795 16.555 12.4656 16.469 12.4688 16.3829L12.7969 7.19537C12.7999 7.10919 12.82 7.02446 12.8558 6.94601C12.8916 6.86757 12.9425 6.79695 13.0056 6.73818C13.0687 6.67941 13.1428 6.63365 13.2236 6.60351C13.3044 6.57336 13.3903 6.55943 13.4765 6.5625C13.5627 6.56557 13.6474 6.58558 13.7259 6.6214C13.8043 6.65722 13.8749 6.70813 13.9337 6.77124C13.9925 6.83435 14.0382 6.90842 14.0684 6.98921C14.0985 7.07001 14.1124 7.15595 14.1094 7.24213L13.7812 16.4296Z" fill="black"/>
</svg>
