<svg width="40" height="40" viewBox="0 0 40 40" fill="none" xmlns="http://www.w3.org/2000/svg">
<path d="M33.75 7.5H26.25V5.625C26.25 4.7962 25.9208 4.00134 25.3347 3.41529C24.7487 2.82924 23.9538 2.5 23.125 2.5H16.875C16.0462 2.5 15.2513 2.82924 14.6653 3.41529C14.0792 4.00134 13.75 4.7962 13.75 5.625V7.5H6.25C5.91848 7.5 5.60054 7.6317 5.36612 7.86612C5.1317 8.10054 5 8.41848 5 8.75C5 9.08152 5.1317 9.39946 5.36612 9.63388C5.60054 9.8683 5.91848 10 6.25 10H7.57812L9.0625 33.8219C9.17344 35.9195 10.7812 37.5 12.8125 37.5H27.1875C29.2289 37.5 30.8047 35.9547 30.9375 33.8281L32.4219 10H33.75C34.0815 10 34.3995 9.8683 34.6339 9.63388C34.8683 9.39946 35 9.08152 35 8.75C35 8.41848 34.8683 8.10054 34.6339 7.86612C34.3995 7.6317 34.0815 7.5 33.75 7.5ZM15.0445 32.5H15C14.6761 32.5002 14.3647 32.3746 14.1315 32.1498C13.8983 31.9249 13.7615 31.6183 13.75 31.2945L13.125 13.7945C13.1132 13.463 13.2336 13.1404 13.4596 12.8976C13.6857 12.6548 13.9989 12.5118 14.3305 12.5C14.662 12.4882 14.9846 12.6086 15.2274 12.8346C15.4702 13.0607 15.6132 13.3739 15.625 13.7055L16.25 31.2055C16.256 31.3696 16.2295 31.5334 16.1721 31.6873C16.1147 31.8413 16.0276 31.9824 15.9156 32.1026C15.8037 32.2228 15.6691 32.3198 15.5196 32.388C15.3702 32.4562 15.2087 32.4943 15.0445 32.5ZM21.25 31.25C21.25 31.5815 21.1183 31.8995 20.8839 32.1339C20.6495 32.3683 20.3315 32.5 20 32.5C19.6685 32.5 19.3505 32.3683 19.1161 32.1339C18.8817 31.8995 18.75 31.5815 18.75 31.25V13.75C18.75 13.4185 18.8817 13.1005 19.1161 12.8661C19.3505 12.6317 19.6685 12.5 20 12.5C20.3315 12.5 20.6495 12.6317 20.8839 12.8661C21.1183 13.1005 21.25 13.4185 21.25 13.75V31.25ZM23.75 7.5H16.25V5.625C16.2491 5.54266 16.2646 5.46097 16.2957 5.38471C16.3267 5.30846 16.3727 5.23918 16.431 5.18096C16.4892 5.12273 16.5585 5.07673 16.6347 5.04566C16.711 5.01458 16.7927 4.99906 16.875 5H23.125C23.2073 4.99906 23.289 5.01458 23.3653 5.04566C23.4415 5.07673 23.5108 5.12273 23.569 5.18096C23.6273 5.23918 23.6733 5.30846 23.7043 5.38471C23.7354 5.46097 23.7509 5.54266 23.75 5.625V7.5ZM26.25 31.2945C26.2385 31.6183 26.1017 31.9249 25.8685 32.1498C25.6353 32.3746 25.3239 32.5002 25 32.5H24.9547C24.7906 32.4942 24.6292 32.456 24.4798 32.3878C24.3305 32.3196 24.196 32.2226 24.0841 32.1024C23.9722 31.9821 23.8851 31.841 23.8278 31.6872C23.7705 31.5333 23.744 31.3696 23.75 31.2055L24.375 13.7055C24.3808 13.5413 24.419 13.3799 24.4872 13.2305C24.5554 13.0811 24.6524 12.9466 24.7726 12.8346C24.8928 12.7227 25.0339 12.6355 25.1878 12.5781C25.3417 12.5207 25.5054 12.4942 25.6695 12.5C25.8337 12.5058 25.9951 12.544 26.1445 12.6122C26.2939 12.6804 26.4284 12.7774 26.5404 12.8976C26.6523 13.0178 26.7395 13.1589 26.7969 13.3128C26.8543 13.4667 26.8808 13.6304 26.875 13.7945L26.25 31.2945Z" fill="black"/>
</svg>
