<svg xmlns="http://www.w3.org/2000/svg" width="39" height="39" fill="none" viewBox="0 0 39 39"><path fill="#5f6266" d="M18.209 7.291a1.291 1.291 0 0 1 2.582 0v2.818a1.291 1.291 0 1 1-2.582 0zm0 21.6a1.291 1.291 0 0 1 2.582 0v2.818a1.291 1.291 0 1 1-2.582 0zm7.019-15.119a1.29 1.29 0 0 1 0-1.826l1.992-1.992a1.291 1.291 0 0 1 1.826 1.826l-1.992 1.992a1.29 1.29 0 0 1-1.826 0M9.955 29.046a1.29 1.29 0 0 1 0-1.826l1.992-1.993a1.291 1.291 0 1 1 1.826 1.826l-1.992 1.993a1.29 1.29 0 0 1-1.826 0M27.6 19.5c0-.713.578-1.291 1.291-1.291h2.818a1.291 1.291 0 1 1 0 2.582h-2.817A1.29 1.29 0 0 1 27.6 19.5M6 19.5c0-.713.578-1.291 1.292-1.291h2.817a1.291 1.291 0 1 1 0 2.582H7.292A1.29 1.29 0 0 1 6 19.5m19.228 7.554a1.291 1.291 0 0 1 1.826-1.826l1.992 1.992a1.291 1.291 0 0 1-1.826 1.826zM9.954 11.78a1.291 1.291 0 1 1 1.826-1.826l1.992 1.992a1.291 1.291 0 1 1-1.826 1.826zM19.5 25.487a5.987 5.987 0 1 1 5.987-5.987 5.994 5.994 0 0 1-5.987 5.987"/></svg>