<svg xmlns="http://www.w3.org/2000/svg" width="52" height="36" fill="none" viewBox="0 0 52 36"><path fill="#fff" d="M44.333 11.084q-.2-2.011-1.713-3.126-1.512-1.114-4.106-1.114-1.763 0-2.977.499-1.214.482-1.862 1.347a3.24 3.24 0 0 0-.632 1.962q-.034.915.383 1.596.432.682 1.18 1.18a9 9 0 0 0 1.73.848q.98.35 2.094.6l3.06.73q2.228.5 4.09 1.33 1.863.832 3.226 2.046a8.5 8.5 0 0 1 2.111 2.86q.764 1.646.782 3.774-.017 3.125-1.596 5.42-1.563 2.28-4.523 3.542-2.943 1.247-7.1 1.247-4.123 0-7.183-1.264-3.042-1.263-4.755-3.74-1.695-2.495-1.78-6.17h6.968q.116 1.714.98 2.86.882 1.131 2.345 1.713 1.48.566 3.342.566 1.83 0 3.176-.532 1.363-.532 2.112-1.48a3.42 3.42 0 0 0 .748-2.178q0-1.147-.682-1.93-.664-.78-1.962-1.33-1.28-.548-3.142-.997l-3.708-.931q-4.307-1.047-6.8-3.276-2.495-2.228-2.478-6.002-.017-3.093 1.646-5.404 1.68-2.31 4.606-3.608Q34.838.826 38.563.825q3.792 0 6.618 1.297 2.844 1.297 4.423 3.608t1.63 5.354zM.844 35.273v-34h22.512v5.926H8.033v8.102h13.83v5.927H8.032v14.045z"/></svg>