<svg xmlns="http://www.w3.org/2000/svg" width="279" height="331" fill="none" viewBox="0 0 279 331"><g fill="#fff" clip-path="url(#clip0_155_5)"><path d="M57.548.917c-1.324.458-3.06 1.283-3.928 1.787-2.42 1.513-5.937 5.546-7.398 8.525l-1.325 2.75-.137 22.32-.137 22.367h19.685V19.708h38.821V0H81.572c-20.05.046-21.786.092-24.024.917m162.501 8.937v9.854h38.821v38.958h19.685l-.137-22.366-.137-22.321-1.233-2.658c-1.736-3.667-5.618-7.654-9.409-9.534L264.579.23 242.337.092l-22.288-.138z"/><path d="M83.49 68.52v29.562h58.917V38.958H83.49zm38.821-.23v9.626h-19.182v-19.25h19.182zm58.46.23v29.562h58.917V38.958h-58.917zm39.278-.23v9.626h-19.182v-19.25h19.182zm-68.508 10.084v19.708h20.096V58.666h-20.096zM83.49 117.332v10.084h19.639v-20.167h-19.64zm48.869 0v10.083h19.182v19.25h20.096v-39.416h-39.278z"/><path d="M180.771 117.332v10.084h19.639v19.249h-19.639v9.625h-29.23v39.417h20.096v-19.709h28.773v19.709h19.639v-19.709h19.639v-29.333h-19.639v-19.249h19.639v-20.167h-19.639v19.708h-19.182v-19.708h-20.096zm39.278 44v14.666h-19.182v-29.333h19.182zM83.49 166.145v29.562h58.917v-59.124H83.49zm38.821.229v9.625h-19.182v-19.25h19.182z"/><path d="m44.76 198.319.137 22.366 1.325 2.75c1.872 3.804 5.572 7.562 9.317 9.442l3.06 1.558 22.288.137 22.242.138v-19.754H64.308v-38.958H44.623zm214.11-2.842v19.479h-38.821v19.754l22.288-.138 22.242-.137 3.06-1.558c3.745-1.88 7.445-5.638 9.317-9.442l1.325-2.75.137-22.366.137-22.321H258.87z"/></g><path fill="#000" d="M0 32.931h158.089v271.717H0z"/><g fill="#fff" clip-path="url(#clip1_155_5)"><path d="M44.529 119.255v13.796H72.12v-27.592H44.529zm18.18-.107v4.492h-8.983v-8.983h8.983zm27.377.107v13.796h27.592v-27.592H90.086zm18.395-.107v4.492h-8.984v-8.983h8.984zm-32.083 4.706v9.197h9.411v-18.394h-9.411zm-31.869 18.18v4.706h9.197v-9.411h-9.198zm22.885 0v4.706h8.984v8.983h9.411v-18.394H67.414z"/><path d="M90.086 142.034v4.706h9.198v8.983h-9.198v4.492H76.398v18.394h9.411v-9.197h13.474v9.197h9.198v-9.197h9.197v-13.689h-9.197v-8.983h9.197v-9.411h-9.197v9.197h-8.984v-9.197h-9.411zm18.395 20.533v6.845h-8.984v-13.689h8.984zm-63.953 2.246v13.796H72.12v-27.591H44.528zm18.18.107v4.492h-8.983v-8.983h8.984zM32.38 87.707a12.6 12.6 0 0 0-1.84.834c-1.133.706-2.78 2.588-3.465 3.978l-.62 1.284-.064 10.416-.064 10.438h9.218v-18.18h18.18v-9.198H43.63c-9.39.022-10.202.043-11.25.428m76.101 4.171v4.598h18.18v18.181h9.218l-.064-10.438-.064-10.416-.577-1.24c-.813-1.712-2.631-3.573-4.406-4.45l-1.433-.727-10.417-.064-10.437-.064z"/><path d="m26.39 179.828.065 10.438.62 1.283c.877 1.775 2.61 3.529 4.364 4.406l1.433.727 10.437.064 10.417.065v-9.219h-18.18v-18.18h-9.22zm100.271-1.326v9.09h-18.18v9.219l10.437-.065 10.417-.064 1.433-.727c1.753-.877 3.486-2.631 4.363-4.406l.62-1.283.064-10.438.064-10.416h-9.218z"/></g><path fill="#fff" d="M18.108.497c-4.38.553-9.37 2.653-12.031 5.14-2.44 2.322-4.824 7.351-5.6 11.883C.09 20.173-.077 62.84.034 167.959L.2 314.696l1.442 3.703c.776 1.989 2.217 4.642 3.16 5.803 2.051 2.598 6.986 5.306 11.089 6.19 2.05.442 21.733.608 65.09.608 66.753 0 65.312.055 70.912-2.763 2.827-1.493 6.32-5.583 7.817-9.341l1.275-3.095.167-65.934c.11-57.645.221-65.88.942-65.88 1.275 0 1.22-40.622 0-41.119-.665-.221-.832-1.493-.832-6.688 0-5.305.167-6.356.832-6.356.721 0 .832-1.492.832-9.948 0-8.4-.111-9.948-.832-9.948-.665 0-.832-6.135-.942-47.144-.167-44.324-.222-47.254-1.22-49.907-2.606-7.24-8.206-11.33-16.966-12.38-5.544-.663-119.147-.663-124.858 0m137.61 167.462v132.644H5.467V35.316h150.251z"/><defs><clipPath id="clip0_155_5"><path fill="#fff" d="M44.669 0h233.84v234.664H44.67z"/></clipPath><clipPath id="clip1_155_5"><path fill="#fff" d="M26.348 87.28h109.51v109.51H26.348z"/></clipPath></defs></svg>