<svg width="57" height="24" viewBox="0 0 57 24" fill="none" xmlns="http://www.w3.org/2000/svg">
<g filter="url(#filter0_d_565_3074)">
<g filter="url(#filter1_ddd_565_3074)">
<path d="M19.3251 16.2263V5.64818H19.8993V7.31224C19.9671 7.23852 20.0298 7.16021 20.0868 7.07786C20.3214 6.5908 20.69 6.18071 21.1494 5.89567C21.6088 5.61063 22.1399 5.46244 22.6805 5.46849C23.9891 5.42942 25.0516 5.9138 25.6766 7.07786C26.0743 7.801 26.2932 8.6088 26.3149 9.43378C26.3367 10.2588 26.1607 11.077 25.8016 11.8201C25.2196 13.1247 23.7821 13.7732 22.243 13.5349C21.7641 13.4941 21.303 13.334 20.9018 13.0693C20.5006 12.8045 20.1721 12.4436 19.9462 12.0193V16.2263H19.3251ZM19.8993 9.39036C19.9501 9.90599 19.9696 10.2732 20.0282 10.6325C20.2548 12.0466 21.0907 12.8865 22.4032 13.0388C23.0195 13.1401 23.6518 13.0246 24.1924 12.7119C24.7331 12.3992 25.1485 11.9087 25.368 11.324C25.6203 10.7225 25.7416 10.0743 25.7241 9.4224C25.7066 8.77047 25.5506 8.12972 25.2665 7.54271C25.0322 7.01864 24.6337 6.58504 24.1313 6.3074C23.6288 6.02975 23.0497 5.92313 22.4813 6.00364C21.9477 6.04231 21.4393 6.24629 21.027 6.58723C20.6147 6.92817 20.3188 7.38912 20.1805 7.90599C20.0582 8.39493 19.9643 8.89055 19.8993 9.39036Z" fill="black"/>
<path d="M38.0282 10.8278C37.9412 11.5726 37.5867 12.2605 37.0305 12.7634C36.4744 13.2664 35.7545 13.5502 35.0048 13.5622C32.5985 13.6833 31.4696 12.0857 31.2899 10.2419C31.1652 9.24066 31.3278 8.22458 31.7587 7.31222C32.0588 6.6864 32.5502 6.17231 33.1619 5.84435C33.7736 5.51639 34.4737 5.39159 35.161 5.48801C35.8145 5.54339 36.4339 5.80293 36.9317 6.22987C37.4294 6.65682 37.7803 7.22953 37.9345 7.86691C38.0567 8.44742 38.1467 9.03425 38.204 9.62472H31.8798C31.7626 11.2966 32.661 12.6403 33.9345 12.9646C35.5204 13.3552 36.8759 12.6677 37.3681 11.1599C37.4774 10.7732 37.6767 10.7185 38.0282 10.8278ZM31.8798 9.08957H37.5321C37.497 7.30832 36.3876 6.01925 34.8837 5.99972C33.1806 5.97238 31.954 7.21457 31.8798 9.08957Z" fill="black"/>
<path d="M39.1922 10.8669H39.7469C39.7674 11.2751 39.9 11.6697 40.1302 12.0074C40.3603 12.3451 40.6792 12.6127 41.0516 12.781C41.5192 12.9915 42.0283 13.0937 42.541 13.0802C43.0536 13.0667 43.5566 12.9377 44.0125 12.7029C44.261 12.5909 44.4691 12.4054 44.6088 12.1714C44.7485 11.9374 44.8131 11.6661 44.7938 11.3943C44.8081 11.1321 44.7365 10.8724 44.5898 10.6546C44.4432 10.4368 44.2296 10.2727 43.9813 10.1873C43.3719 9.96069 42.7235 9.83569 42.1024 9.63647C41.4561 9.45244 40.8242 9.22135 40.2117 8.94506C39.2117 8.45678 39.1492 6.55444 40.282 5.95288C40.8621 5.62555 41.5149 5.44869 42.1808 5.43846C42.8468 5.42822 43.5047 5.58493 44.0945 5.89428C44.4519 6.09175 44.7405 6.39345 44.9219 6.75915C45.1034 7.12486 45.1691 7.53718 45.1102 7.94116H44.6336C44.6336 7.91772 44.5906 7.89819 44.5906 7.87475C44.532 6.35522 43.2586 5.88647 41.8914 6.01928C41.4833 6.06963 41.0869 6.18987 40.7195 6.37475C40.4989 6.47567 40.315 6.64261 40.1932 6.85252C40.0715 7.06243 40.0179 7.30496 40.0399 7.54662C40.0405 7.7884 40.116 8.02405 40.2559 8.22126C40.3957 8.41847 40.5932 8.5676 40.8211 8.64819C41.4227 8.86694 42.0516 9.00756 42.6688 9.17944C43.1649 9.31616 43.6805 9.406 44.161 9.57006C44.5001 9.68123 44.7974 9.89276 45.0137 10.1767C45.2299 10.4606 45.3548 10.8034 45.3719 11.1599C45.4299 11.5505 45.3633 11.9494 45.1817 12.3C45.0001 12.6506 44.7126 12.9351 44.3602 13.113C43.0555 13.8513 40.907 13.656 39.95 12.7224C39.7075 12.4785 39.5156 12.1889 39.3856 11.8705C39.2555 11.552 39.1898 11.2109 39.1922 10.8669Z" fill="black"/>
<path d="M52.4032 7.9412H51.8837C51.8837 7.87088 51.8563 7.80838 51.8485 7.74979C51.8401 7.36036 51.6981 6.98565 51.4464 6.6884C51.1946 6.39115 50.8484 6.18942 50.4657 6.11698C49.7436 5.90978 48.9732 5.94686 48.2743 6.22245C47.998 6.30166 47.7548 6.46809 47.5809 6.69689C47.407 6.9257 47.3118 7.2046 47.3094 7.49198C47.2997 7.7742 47.3877 8.05114 47.5585 8.27602C47.7293 8.50091 47.9725 8.65997 48.2469 8.72635C49.0282 8.96854 49.829 9.11698 50.6219 9.33573C50.8789 9.3974 51.132 9.47436 51.3798 9.5662C51.7498 9.69858 52.0713 9.93951 52.3022 10.2575C52.5331 10.5755 52.6627 10.9557 52.6741 11.3485C52.6855 11.7414 52.5781 12.1285 52.366 12.4593C52.1539 12.7902 51.847 13.0493 51.4852 13.2029C50.934 13.4532 50.3365 13.5857 49.7311 13.5917C49.1257 13.5978 48.5258 13.4773 47.9696 13.2381C47.5123 13.0408 47.1263 12.7082 46.8637 12.285C46.6011 11.8618 46.4745 11.3683 46.5009 10.8709H46.7196H47.0087C47.1026 11.3241 47.3056 11.7476 47.6001 12.1047C47.8946 12.4618 48.2717 12.7418 48.6988 12.9203C49.1258 13.0988 49.59 13.1705 50.051 13.1292C50.512 13.088 50.956 12.9349 51.3446 12.6834C51.5813 12.5604 51.7778 12.3721 51.9107 12.1409C52.0436 11.9096 52.1075 11.6451 52.0946 11.3787C52.1064 11.1164 52.0323 10.8573 51.8835 10.6409C51.7348 10.4245 51.5195 10.2625 51.2704 10.1795C50.661 9.95292 50.0126 9.83182 49.3915 9.6326C48.7415 9.45141 48.1057 9.22294 47.4891 8.94901C46.5126 8.46854 46.4344 6.58182 47.5477 5.98026C48.135 5.63922 48.8005 5.45601 49.4796 5.44848C50.1586 5.44095 50.8281 5.60935 51.4227 5.93729C51.7628 6.14031 52.0366 6.43782 52.2106 6.7936C52.3847 7.14938 52.4516 7.54809 52.4032 7.9412Z" fill="black"/>
<path d="M18.3759 13.3709C18.1713 13.4484 17.9455 13.4482 17.7411 13.3705C17.5367 13.2927 17.3679 13.1428 17.2665 12.949C16.6298 11.9959 15.9266 11.0858 15.2509 10.1561L14.9579 9.76545C14.1532 10.8436 13.3485 11.8787 12.6141 12.953C12.5185 13.1381 12.3587 13.2822 12.1647 13.3584C11.9707 13.4346 11.7556 13.4376 11.5594 13.367L14.579 9.31623L11.7704 5.65608C11.9726 5.58308 12.1937 5.58207 12.3966 5.65324C12.5994 5.72441 12.7714 5.86338 12.8837 6.0467C13.536 6.99983 14.2587 7.90998 14.9774 8.87483C15.7001 7.91779 16.4149 7.00373 17.0829 6.05842C17.1791 5.87624 17.3389 5.73577 17.5319 5.66375C17.725 5.59172 17.9377 5.59316 18.1298 5.66779L17.0399 7.11311C16.5516 7.75764 16.0712 8.40608 15.5634 9.03498C15.5224 9.07162 15.4897 9.11648 15.4673 9.16662C15.4449 9.21677 15.4333 9.27107 15.4333 9.326C15.4333 9.38092 15.4449 9.43523 15.4673 9.48537C15.4897 9.53552 15.5224 9.58038 15.5634 9.61701C16.4969 10.8553 17.4227 12.0975 18.3759 13.3709Z" fill="black"/>
<path d="M31.1962 5.61694V6.16382C30.8011 6.13791 30.405 6.19512 30.0334 6.33177C29.6618 6.46843 29.3229 6.68148 29.0388 6.95718C28.7546 7.23288 28.5314 7.5651 28.3836 7.9324C28.2358 8.2997 28.1666 8.69391 28.1805 9.0896C28.1805 10.3761 28.1805 11.6625 28.1805 12.949C28.1805 13.0857 28.1805 13.2224 28.1805 13.3865H27.6219V5.64819H28.1688V7.23413C28.8446 6.07788 29.8876 5.64819 31.1962 5.61694Z" fill="black"/>
<path d="M4.32507 9.26538C4.4071 8.87476 4.45789 8.44897 4.57117 8.05054C5.24695 5.64819 8.00085 4.64819 9.89539 6.13647C11.0048 7.00757 11.2821 8.24194 11.2274 9.63257H4.97742C4.87585 12.1169 6.66882 13.6169 8.96179 12.8513C9.33374 12.7183 9.66671 12.4947 9.93063 12.2008C10.1946 11.9068 10.3811 11.5518 10.4735 11.1677C10.5946 10.7771 10.7899 10.7107 11.161 10.824C11.0999 11.2995 10.9317 11.755 10.6692 12.1562C10.4067 12.5575 10.0567 12.8939 9.64539 13.1404C8.96585 13.512 8.18622 13.6592 7.41798 13.561C6.64974 13.4627 5.93222 13.1241 5.36804 12.5935C4.8099 11.9659 4.47242 11.173 4.4071 10.3357C4.4071 10.2029 4.35632 10.0701 4.32898 9.94507C4.32638 9.7133 4.32507 9.48673 4.32507 9.26538ZM4.98523 9.09741H10.6376C10.6024 7.29663 9.4657 6.01929 7.95007 6.00757C6.26257 5.98413 5.05554 7.23413 4.98132 9.0896L4.98523 9.09741Z" fill="black"/>
</g>
</g>
<defs>
<filter id="filter0_d_565_3074" x="-4" y="-0.248291" width="65" height="28.1592" filterUnits="userSpaceOnUse" color-interpolation-filters="sRGB">
<feFlood flood-opacity="0" result="BackgroundImageFix"/>
<feColorMatrix in="SourceAlpha" type="matrix" values="0 0 0 0 0 0 0 0 0 0 0 0 0 0 0 0 0 0 127 0" result="hardAlpha"/>
<feOffset dy="3"/>
<feGaussianBlur stdDeviation="2"/>
<feComposite in2="hardAlpha" operator="out"/>
<feColorMatrix type="matrix" values="0 0 0 0 0 0 0 0 0 0 0 0 0 0 0 0 0 0 0.25 0"/>
<feBlend mode="normal" in2="BackgroundImageFix" result="effect1_dropShadow_565_3074"/>
<feBlend mode="normal" in="SourceGraphic" in2="effect1_dropShadow_565_3074" result="shape"/>
</filter>
<filter id="filter1_ddd_565_3074" x="3.32507" y="4.43652" width="50.3499" height="12.7898" filterUnits="userSpaceOnUse" color-interpolation-filters="sRGB">
<feFlood flood-opacity="0" result="BackgroundImageFix"/>
<feColorMatrix in="SourceAlpha" type="matrix" values="0 0 0 0 0 0 0 0 0 0 0 0 0 0 0 0 0 0 127 0" result="hardAlpha"/>
<feOffset/>
<feGaussianBlur stdDeviation="0.5"/>
<feComposite in2="hardAlpha" operator="out"/>
<feColorMatrix type="matrix" values="0 0 0 0 0.666667 0 0 0 0 0.666667 0 0 0 0 0.666667 0 0 0 1 0"/>
<feBlend mode="normal" in2="BackgroundImageFix" result="effect1_dropShadow_565_3074"/>
<feColorMatrix in="SourceAlpha" type="matrix" values="0 0 0 0 0 0 0 0 0 0 0 0 0 0 0 0 0 0 127 0" result="hardAlpha"/>
<feOffset/>
<feGaussianBlur stdDeviation="0.5"/>
<feComposite in2="hardAlpha" operator="out"/>
<feColorMatrix type="matrix" values="0 0 0 0 0.666667 0 0 0 0 0.666667 0 0 0 0 0.666667 0 0 0 1 0"/>
<feBlend mode="normal" in2="effect1_dropShadow_565_3074" result="effect2_dropShadow_565_3074"/>
<feColorMatrix in="SourceAlpha" type="matrix" values="0 0 0 0 0 0 0 0 0 0 0 0 0 0 0 0 0 0 127 0" result="hardAlpha"/>
<feOffset/>
<feGaussianBlur stdDeviation="0.5"/>
<feComposite in2="hardAlpha" operator="out"/>
<feColorMatrix type="matrix" values="0 0 0 0 0.666667 0 0 0 0 0.666667 0 0 0 0 0.666667 0 0 0 1 0"/>
<feBlend mode="normal" in2="effect2_dropShadow_565_3074" result="effect3_dropShadow_565_3074"/>
<feBlend mode="normal" in="SourceGraphic" in2="effect3_dropShadow_565_3074" result="shape"/>
</filter>
</defs>
</svg>
