<svg xmlns="http://www.w3.org/2000/svg" width="57" height="57" fill="none" viewBox="0 0 57 57"><rect width="56.752" height="56.752" fill="url(#paint0_linear_551_3061)" rx="8.255"/><g fill="#000" clip-path="url(#clip0_551_3061)"><path d="M52.348 41.672c-1.78.453-2.882.02-3.87-1.465-2.22-3.324-4.669-6.496-7.032-9.727-.305-.418-.621-.828-1.015-1.347-2.797 3.773-5.59 7.367-8.211 11.105-.938 1.336-1.922 1.918-3.672 1.445L39.063 27.57l-9.789-12.746c1.684-.328 2.848-.16 3.88 1.348 2.276 3.328 4.788 6.496 7.292 9.847 2.52-3.34 5-6.511 7.344-9.808.941-1.336 1.953-1.844 3.644-1.352-1.28 1.7-2.535 3.371-3.796 5.031-1.704 2.239-3.375 4.504-5.141 6.696-.629.781-.528 1.289.035 2.027 3.266 4.293 6.492 8.629 9.816 13.059M3.388 27.336c.28-1.41.468-2.848.859-4.23C6.59 14.733 16.2 11.252 22.802 16.44c3.867 3.043 4.828 7.332 4.636 12.168H5.641c-.328 8.676 5.918 13.914 13.88 11.242 2.792-.937 4.437-3.125 5.261-5.86.418-1.37 1.11-1.585 2.398-1.194-.66 3.421-2.156 6.28-5.28 8.07-4.688 2.68-11.38 1.812-14.9-1.91-2.077-2.188-2.96-4.91-3.35-7.852-.06-.469-.18-.93-.274-1.394q.012-1.188.012-2.375m2.292-.582h19.7c-.13-6.274-4.035-10.73-9.375-10.77-5.86-.047-10.07 4.305-10.325 10.77"/></g><defs><linearGradient id="paint0_linear_551_3061" x1="28.376" x2="28.376" y1="0" y2="56.752" gradientUnits="userSpaceOnUse"><stop stop-color="#fdfdfd"/><stop offset="1" stop-color="#f5f4f4"/></linearGradient><clipPath id="clip0_551_3061"><path fill="#fff" d="M3.376 3.376h50v50h-50z"/></clipPath></defs></svg>