<svg width="65" height="25" viewBox="0 0 65 25" fill="none" xmlns="http://www.w3.org/2000/svg">
<g filter="url(#filter0_d_579_919)">
<g filter="url(#filter1_ddd_579_919)">
<path fill-rule="evenodd" clip-rule="evenodd" d="M43.5712 5.63815C43.6516 5.48345 43.7287 5.34684 43.7944 5.20547C43.8358 5.11503 43.8996 5.09694 43.9896 5.09932C44.5289 5.11455 45.0682 5.13121 45.608 5.13645C46.0664 5.14121 46.5257 5.13264 46.9846 5.1274C47.5015 5.12121 48.0184 5.09408 48.5349 5.10884C49.2227 5.12883 49.8929 5.26354 50.5151 5.56961C51.2581 5.93565 51.8203 6.49305 52.2034 7.22751C52.4481 7.69638 52.5899 8.1938 52.6466 8.72216C52.7285 9.48757 52.6747 10.2354 52.4319 10.9675C52.1311 11.8747 51.5599 12.5692 50.7664 13.0895C50.1557 13.4898 49.4859 13.7264 48.7681 13.8615C48.0084 14.0048 47.2464 13.9586 46.4843 13.961C45.6484 13.9644 44.8131 13.9463 43.9772 13.9367C43.8311 13.9353 43.8101 13.9077 43.8487 13.7682L43.8844 13.6397C43.9658 13.3836 44.0096 13.3722 44.2695 13.3294C44.4494 13.3003 44.636 13.2327 44.7869 13.1328C44.8745 13.0747 44.9106 12.9233 44.9449 12.8067C44.9744 12.7049 44.9758 12.593 44.9768 12.4854C44.9887 10.8551 45.0011 9.22529 45.0077 7.59594C45.0092 7.1842 44.9996 6.77151 44.9768 6.36024C44.9606 6.07226 44.8069 5.8752 44.4641 5.80713C44.1976 5.7543 43.9291 5.71336 43.6611 5.66623L43.5712 5.63815ZM51.2233 9.58562C51.1872 9.26099 51.1696 8.9335 51.1115 8.61363C50.9725 7.84584 50.6364 7.17706 50.0462 6.65299C49.0918 5.80618 47.9428 5.67575 46.7385 5.77667C46.4643 5.79951 46.4053 5.89329 46.401 6.17508C46.3943 6.57492 46.3877 6.97476 46.3872 7.3746C46.3853 8.64267 46.3853 9.91073 46.3872 11.1788C46.3877 11.5396 46.3915 11.9004 46.4019 12.2603C46.4134 12.6287 46.5471 12.9405 46.9079 13.0833C47.4767 13.3084 48.0751 13.3351 48.672 13.2432C49.6254 13.0971 50.2923 12.5416 50.7397 11.7091C51.0939 11.0484 51.1938 10.3272 51.2233 9.58562ZM53.541 13.9034C53.5296 13.7059 53.6105 13.5426 53.7105 13.3927C53.7376 13.3522 53.8309 13.3541 53.8951 13.3413L54.4406 13.2332C54.6334 13.1923 54.7348 13.0628 54.7619 12.8738C54.78 12.7491 54.7972 12.623 54.7986 12.4968C54.8105 11.4987 54.8219 10.5005 54.8267 9.50232C54.8314 8.50272 54.8276 7.50312 54.8276 6.50352L54.8233 6.31264C54.8038 5.99134 54.6486 5.82474 54.3297 5.77762L53.6381 5.67242C53.5529 5.661 53.522 5.62006 53.5529 5.54438C53.6062 5.41538 53.6571 5.28163 53.7323 5.16548C53.7604 5.12264 53.8552 5.10598 53.9189 5.10741C54.2493 5.11217 54.5796 5.13692 54.91 5.13645L57.7855 5.11931C58.3396 5.11884 58.8746 5.21546 59.3715 5.48059C59.9185 5.77191 60.2245 6.22268 60.3121 6.83672C60.4035 7.4817 60.2079 8.02529 59.7366 8.45702C59.5429 8.63505 59.292 8.75119 59.0674 8.8959L58.9941 8.9416C59.2025 9.01823 59.401 9.08439 59.5943 9.16341C60.1598 9.39522 60.6096 9.75746 60.8476 10.3358C61.0356 10.7923 61.0356 11.2683 60.9242 11.7414C60.751 12.4821 60.2631 12.9747 59.6286 13.3475C59.0331 13.6973 58.3886 13.901 57.7022 13.9353C57.0691 13.9672 56.4332 13.9553 55.7987 13.9624L55.4312 13.9643C54.82 13.9505 54.2083 13.9348 53.5967 13.9187L53.541 13.9034ZM56.1766 11.0051H56.1828C56.1828 11.3183 56.1785 11.6315 56.1842 11.9447C56.188 12.1475 56.1809 12.3559 56.2247 12.5511C56.2904 12.8429 56.4237 13.1061 56.7511 13.1899C57.1933 13.3037 57.6451 13.3265 58.0925 13.2489C58.6528 13.1513 59.0997 12.8705 59.3449 12.3369C59.5267 11.9404 59.5538 11.5201 59.4915 11.0907C59.4087 10.5252 59.1083 10.1149 58.609 9.84599C58.2815 9.6694 57.9321 9.56135 57.5599 9.54707C57.1429 9.53136 56.7254 9.53041 56.3085 9.51756C56.1914 9.51422 56.1752 9.57372 56.1757 9.66988C56.178 10.1145 56.1766 10.5595 56.1766 11.0051ZM57.0644 8.87496C57.2924 8.86353 57.5503 8.8602 57.8069 8.83449C58.2981 8.78546 58.6442 8.53842 58.8246 8.06861C58.9165 7.83013 58.9127 7.58452 58.915 7.33652C58.9222 6.69059 58.5452 6.16127 57.9316 5.94231C57.458 5.77333 56.9696 5.77048 56.4784 5.78381C56.2794 5.78904 56.1904 5.87615 56.1876 6.07655L56.158 8.68932C56.1566 8.79308 56.2014 8.83782 56.3023 8.84116L57.0644 8.87496Z" fill="#94795D"/>
<path fill-rule="evenodd" clip-rule="evenodd" d="M7.05427 13.4012L7.01952 13.8505C6.69584 13.8505 6.39739 13.8481 6.09893 13.8515C5.53678 13.8572 4.97462 13.8662 4.41199 13.8743L4.35772 13.8776C4.27728 13.8681 4.13115 13.8681 4.12734 13.8443C4.10354 13.7106 4.11116 13.5701 4.11734 13.4316C4.11782 13.4159 4.17256 13.3959 4.20445 13.3883L4.6419 13.2907C4.91464 13.2198 5.0108 13.1022 5.02365 12.8204C5.03841 12.5029 5.05316 12.185 5.05459 11.8675C5.05887 11.0859 5.05411 10.3053 5.05745 9.52366C5.05792 9.34088 4.99461 9.20474 4.8242 9.13049C4.62143 9.041 4.4177 8.95341 4.21254 8.87059C4.11544 8.83156 3.9893 8.81014 4.00072 8.67971C4.01215 8.54691 4.13448 8.51216 4.24967 8.48598C4.72662 8.37698 5.20405 8.27083 5.67958 8.15469C5.83285 8.11708 5.97946 8.05377 6.16272 7.98999C6.17224 8.089 6.18985 8.18324 6.18795 8.27749L6.15986 8.72541C6.15939 8.77587 6.18557 8.84346 6.22317 8.87154C6.24602 8.88915 6.32265 8.85726 6.36073 8.82775C6.76724 8.51835 7.19754 8.25131 7.6883 8.09566C8.44847 7.85433 9.10107 8.07805 9.55803 8.7335C9.71892 8.96436 9.71939 8.96436 9.94264 8.803C10.3258 8.52454 10.7266 8.27892 11.175 8.11708C12.1594 7.76151 13.1052 8.21276 13.4474 9.20427C13.5721 9.56412 13.6197 9.93588 13.6188 10.3157L13.6097 12.8376C13.6093 13.0456 13.6783 13.1641 13.8763 13.2289C14.0986 13.3017 14.329 13.3517 14.5794 13.4173L14.5213 13.851C14.2366 13.851 13.9748 13.8491 13.713 13.8515C13.0733 13.8572 12.4335 13.8605 11.7943 13.8753C11.6829 13.8781 11.6539 13.8505 11.6481 13.7463C11.6296 13.4126 11.6267 13.4131 11.9409 13.3379L12.0466 13.3107C12.3536 13.2269 12.4559 13.1327 12.4583 12.8214C12.4654 11.9275 12.484 11.0312 12.4388 10.1391C12.3917 9.21379 11.6572 8.72113 10.7604 8.95817C10.4677 9.03529 10.2025 9.17047 9.95597 9.34564C9.87267 9.40514 9.85696 9.47368 9.86362 9.57793C9.88885 9.97206 9.90456 10.3667 9.90789 10.7613C9.9136 11.4519 9.90503 12.1426 9.90789 12.8338C9.90884 13.1137 10.0045 13.2208 10.2811 13.2855L10.6919 13.3802L10.768 13.3974C10.7737 13.5287 10.779 13.6601 10.7728 13.7915C10.769 13.8738 10.7052 13.881 10.6338 13.8795C10.2344 13.8695 9.83459 13.8562 9.43522 13.8572C8.94922 13.8581 8.4637 13.8719 7.97818 13.8805H7.86394C7.86394 13.741 7.85728 13.6077 7.8687 13.4749C7.87108 13.443 7.92725 13.3983 7.96581 13.3883L8.44466 13.2869C8.64792 13.2369 8.74502 13.1327 8.75644 12.9261C8.81071 11.9694 8.84974 11.0121 8.75978 10.0558C8.74217 9.87019 8.68171 9.6817 8.6046 9.51081C8.35946 8.96912 7.80778 8.74302 7.17136 8.90581C6.8691 8.98293 6.59635 9.12144 6.33836 9.29613C6.21651 9.37896 6.15843 9.48844 6.15843 9.62695C6.15843 10.5813 6.16177 11.5357 6.16462 12.4896L6.16986 12.8576C6.17557 13.1141 6.28457 13.2493 6.53923 13.3045C6.70298 13.3417 6.86863 13.3669 7.05427 13.4012Z" fill="#50382B"/>
<path fill-rule="evenodd" clip-rule="evenodd" d="M35.8323 8.08728C35.906 8.44619 35.9046 8.76892 35.6409 9.01358C35.3791 9.25682 35.0478 9.17494 34.7246 9.12068C34.7546 9.29109 34.7879 9.43579 34.8041 9.5824C34.9217 10.672 34.4528 11.4807 33.4423 11.9429C33.0605 12.1171 32.6554 12.1818 32.2418 12.2152C32.0362 12.2313 31.8562 12.3884 31.8367 12.5574C31.8167 12.7288 31.9243 12.9049 32.1395 12.9563C32.3932 13.0167 32.6578 13.0339 32.9182 13.0639C33.477 13.1277 34.042 13.1567 34.5942 13.2566C35.4291 13.4071 35.8951 14.1358 35.748 14.9745C35.6171 15.7209 35.1849 16.264 34.5823 16.6805C33.567 17.384 32.4531 17.5897 31.2669 17.2308C30.5886 17.0251 30.1103 16.5791 29.9451 15.8575C29.8623 15.4962 29.9503 15.1692 30.2221 14.9241C30.5453 14.6337 30.8971 14.3748 31.2355 14.1006L31.345 13.9906L31.2193 13.9026C30.8742 13.7388 30.5982 13.5146 30.4911 13.1253C30.4544 12.9934 30.4925 12.9068 30.6043 12.8392C30.7947 12.7245 30.9842 12.6079 31.1722 12.4893C31.2608 12.4341 31.3483 12.377 31.4307 12.3132C31.543 12.2275 31.533 12.1638 31.3988 12.1142C31.0865 11.9991 30.809 11.832 30.5939 11.5749C30.2345 11.1461 30.1326 10.6353 30.1621 10.096C30.2083 9.25348 30.6658 8.69847 31.4093 8.34147C32.2932 7.91735 33.18 7.89069 34.0811 8.27721C34.4143 8.42001 34.7655 8.45047 35.123 8.42572C35.3901 8.40668 35.6233 8.30577 35.8323 8.08728ZM32.575 14.1234C31.9114 14.1177 31.7034 14.1996 31.3141 14.5961C30.878 15.0407 30.8804 15.6571 31.3155 16.1036C31.6458 16.442 32.0581 16.6005 32.5164 16.6481C33.0519 16.7034 33.5794 16.681 34.0658 16.413C34.5847 16.126 34.8427 15.5929 34.726 15.0559C34.6294 14.6128 34.3029 14.41 33.9054 14.2934C33.4532 14.161 32.9858 14.1358 32.575 14.1234ZM31.2717 9.88323C31.296 10.0674 31.306 10.254 31.3469 10.4344C31.4531 10.9019 31.6563 11.3127 32.1214 11.5207C32.6673 11.7658 33.3647 11.6606 33.6036 10.8943C33.7674 10.3692 33.7474 9.84801 33.5498 9.33583C33.4618 9.10735 33.3199 8.91409 33.1167 8.77225C32.6426 8.44143 31.7872 8.39763 31.4388 9.12877C31.3255 9.3663 31.2812 9.61905 31.2717 9.88323Z" fill="#4F382B"/>
<path fill-rule="evenodd" clip-rule="evenodd" d="M24.5744 7.97001C24.592 8.0514 24.6272 8.14375 24.6282 8.23657C24.6296 8.41316 24.6105 8.58976 24.6005 8.76636V8.91963L24.75 8.80539C25.1594 8.46838 25.5992 8.18135 26.1114 8.02665C27.0358 7.74819 27.9592 8.25418 28.2605 9.19571C28.3748 9.55366 28.42 9.92161 28.4243 10.2957C28.4338 11.1268 28.4395 11.9579 28.4481 12.789C28.4509 13.0875 28.4852 13.1408 28.7675 13.227C28.9274 13.276 29.0926 13.3103 29.2577 13.336C29.3486 13.3502 29.3877 13.3859 29.3829 13.475L29.3839 13.5568C29.3805 13.901 29.3567 13.9167 29.0231 13.9157C28.2243 13.9143 27.4261 13.9191 26.6274 13.9257C26.3894 13.9276 26.3889 13.9348 26.3651 13.6996L26.3603 13.5644C26.3751 13.3617 26.3798 13.3636 26.5793 13.3341C26.7135 13.3141 26.8468 13.2831 26.9777 13.2489C27.1124 13.2141 27.1771 13.1146 27.1952 12.9813C27.2043 12.9138 27.2162 12.8462 27.2157 12.7786C27.2043 11.8704 27.219 10.9612 27.1695 10.0544C27.1295 9.3209 26.5698 8.88393 25.8334 8.93391C25.4721 8.95914 25.1456 9.07956 24.8476 9.28758C24.651 9.42514 24.6115 9.62363 24.6124 9.83736C24.6163 10.6865 24.6243 11.5357 24.6334 12.3854C24.6353 12.5715 24.6405 12.7576 24.6581 12.9423C24.6767 13.1441 24.7476 13.2255 24.9456 13.2693C25.1351 13.3112 25.3283 13.3355 25.5306 13.3693L25.5478 13.5254C25.5544 13.8896 25.5164 13.9167 25.1627 13.9153C24.3368 13.9119 23.511 13.9172 22.6856 13.9262C22.5556 13.9281 22.5004 13.8872 22.5038 13.7606L22.5019 13.7063C22.4804 13.3783 22.49 13.366 22.8003 13.3126L22.9469 13.2831C23.283 13.2074 23.3691 13.118 23.3739 12.7767C23.3896 11.6957 23.3953 10.6151 23.4063 9.53414C23.4077 9.37897 23.3491 9.25854 23.2044 9.19428C23.0017 9.10479 22.797 9.01959 22.5918 8.93534C22.4785 8.88869 22.3491 8.85918 22.3448 8.70257C22.3419 8.59214 22.46 8.49456 22.6213 8.46172C22.9455 8.39603 23.2725 8.34129 23.5928 8.26085C23.9118 8.18135 24.225 8.07473 24.5744 7.97001Z" fill="#4F372B"/>
<path fill-rule="evenodd" clip-rule="evenodd" d="M42.4315 10.7936C42.4162 11.8032 42.154 12.6195 41.44 13.2321C40.5356 14.0095 39.1247 14.2736 37.9713 13.6924C37.4792 13.4444 37.1174 13.0641 36.8818 12.5705C36.5205 11.8113 36.4301 11.013 36.6186 10.1953C36.8051 9.38654 37.295 8.80058 38.028 8.42121C38.782 8.03137 39.5759 7.87905 40.4132 8.08373C41.4723 8.3422 42.2335 9.20566 42.3848 10.3052C42.412 10.498 42.4224 10.6932 42.4315 10.7936ZM41.2048 11.3405L41.1639 11.3358C41.1639 11.2406 41.1691 11.1454 41.1629 11.0502C41.1282 10.4571 40.9949 9.89205 40.6512 9.39558C40.3252 8.92529 39.8811 8.64779 39.3032 8.60733C38.6563 8.56163 38.1127 8.92339 37.9218 9.58408C37.6353 10.5761 37.7324 11.5428 38.236 12.4515C38.4554 12.8475 38.7805 13.1398 39.2161 13.2936C40.0696 13.5939 40.8264 13.205 41.0487 12.3311C41.1306 12.0083 41.1544 11.6709 41.2048 11.3405Z" fill="#4F382B"/>
<path fill-rule="evenodd" clip-rule="evenodd" d="M21.4657 10.8716C21.4481 11.5961 21.2772 12.2658 20.8298 12.848C20.3505 13.4715 19.6917 13.8047 18.9425 13.9451C18.0566 14.1108 17.2246 13.9604 16.5129 13.3658C16.175 13.0831 15.9441 12.7209 15.7918 12.3086C15.5419 11.6327 15.4796 10.9401 15.6333 10.2342C15.7975 9.47882 16.224 8.90143 16.8852 8.51397C17.6496 8.06701 18.4745 7.86756 19.3556 8.06844C20.4885 8.32738 21.1425 9.06566 21.3843 10.1833C21.4329 10.4089 21.4396 10.6422 21.4657 10.8716ZM20.2253 11.3495L20.1924 11.3447V11.2086C20.1739 10.5441 20.0439 9.91103 19.6474 9.35887C19.3537 8.94904 18.9605 8.69199 18.4565 8.62012C17.6349 8.50302 17.098 8.99045 16.9199 9.65256C16.6876 10.5175 16.7605 11.3719 17.1198 12.192C17.344 12.7032 17.6982 13.1017 18.2423 13.2949C19.0905 13.5962 19.8588 13.1973 20.0734 12.3267C20.1524 12.0083 20.1762 11.676 20.2253 11.3495Z" fill="#4F372B"/>
</g>
</g>
<defs>
<filter id="filter0_d_579_919" x="0" y="-0.248291" width="65" height="29" filterUnits="userSpaceOnUse" color-interpolation-filters="sRGB">
<feFlood flood-opacity="0" result="BackgroundImageFix"/>
<feColorMatrix in="SourceAlpha" type="matrix" values="0 0 0 0 0 0 0 0 0 0 0 0 0 0 0 0 0 0 127 0" result="hardAlpha"/>
<feOffset dy="3"/>
<feGaussianBlur stdDeviation="2"/>
<feComposite in2="hardAlpha" operator="out"/>
<feColorMatrix type="matrix" values="0 0 0 0 0 0 0 0 0 0 0 0 0 0 0 0 0 0 0.25 0"/>
<feBlend mode="normal" in2="BackgroundImageFix" result="effect1_dropShadow_579_919"/>
<feBlend mode="normal" in="SourceGraphic" in2="effect1_dropShadow_579_919" result="shape"/>
</filter>
<filter id="filter1_ddd_579_919" x="3" y="4.09912" width="59" height="14.3049" filterUnits="userSpaceOnUse" color-interpolation-filters="sRGB">
<feFlood flood-opacity="0" result="BackgroundImageFix"/>
<feColorMatrix in="SourceAlpha" type="matrix" values="0 0 0 0 0 0 0 0 0 0 0 0 0 0 0 0 0 0 127 0" result="hardAlpha"/>
<feOffset/>
<feGaussianBlur stdDeviation="0.5"/>
<feComposite in2="hardAlpha" operator="out"/>
<feColorMatrix type="matrix" values="0 0 0 0 0.666667 0 0 0 0 0.666667 0 0 0 0 0.666667 0 0 0 1 0"/>
<feBlend mode="normal" in2="BackgroundImageFix" result="effect1_dropShadow_579_919"/>
<feColorMatrix in="SourceAlpha" type="matrix" values="0 0 0 0 0 0 0 0 0 0 0 0 0 0 0 0 0 0 127 0" result="hardAlpha"/>
<feOffset/>
<feGaussianBlur stdDeviation="0.5"/>
<feComposite in2="hardAlpha" operator="out"/>
<feColorMatrix type="matrix" values="0 0 0 0 0.666667 0 0 0 0 0.666667 0 0 0 0 0.666667 0 0 0 1 0"/>
<feBlend mode="normal" in2="effect1_dropShadow_579_919" result="effect2_dropShadow_579_919"/>
<feColorMatrix in="SourceAlpha" type="matrix" values="0 0 0 0 0 0 0 0 0 0 0 0 0 0 0 0 0 0 127 0" result="hardAlpha"/>
<feOffset/>
<feGaussianBlur stdDeviation="0.5"/>
<feComposite in2="hardAlpha" operator="out"/>
<feColorMatrix type="matrix" values="0 0 0 0 0.666667 0 0 0 0 0.666667 0 0 0 0 0.666667 0 0 0 1 0"/>
<feBlend mode="normal" in2="effect2_dropShadow_579_919" result="effect3_dropShadow_579_919"/>
<feBlend mode="normal" in="SourceGraphic" in2="effect3_dropShadow_579_919" result="shape"/>
</filter>
</defs>
</svg>
