<svg width="62" height="24" viewBox="0 0 62 24" fill="none" xmlns="http://www.w3.org/2000/svg">
<g filter="url(#filter0_d_579_901)">
<g filter="url(#filter1_ddd_579_901)">
<path d="M20.5365 16.6466V4.98492H21.1695V6.81944C21.2443 6.73817 21.3134 6.65184 21.3762 6.56105C21.6349 6.0241 22.0413 5.57201 22.5477 5.25777C23.0542 4.94353 23.6397 4.78016 24.2357 4.78683C25.6783 4.74376 26.8496 5.27775 27.5387 6.56105C27.9771 7.35826 28.2183 8.24881 28.2423 9.15829C28.2663 10.0678 28.0723 10.9698 27.6765 11.789C27.0348 13.2273 25.4501 13.9422 23.7534 13.6795C23.2254 13.6345 22.717 13.4581 22.2747 13.1662C21.8324 12.8743 21.4702 12.4764 21.2212 12.0086V16.6466H20.5365ZM21.1695 9.11043C21.2255 9.67887 21.2471 10.0837 21.3116 10.4799C21.5614 12.0388 22.483 12.9646 23.9299 13.1326C24.6093 13.2443 25.3064 13.1169 25.9025 12.7722C26.4985 12.4274 26.9565 11.8867 27.1985 11.2421C27.4765 10.5791 27.6103 9.86446 27.591 9.14575C27.5717 8.42704 27.3997 7.72066 27.0865 7.07351C26.8282 6.49577 26.3889 6.01775 25.835 5.71167C25.2811 5.40558 24.6427 5.28804 24.0161 5.3768C23.4277 5.41942 22.8673 5.6443 22.4128 6.02016C21.9582 6.39602 21.632 6.90419 21.4796 7.474C21.3447 8.01303 21.2412 8.55942 21.1695 9.11043Z" fill="black"/>
<path d="M41.1555 10.6952C41.0596 11.5163 40.6687 12.2746 40.0556 12.829C39.4425 13.3835 38.6489 13.6965 37.8224 13.7097C35.1696 13.8432 33.9251 12.0819 33.727 10.0493C33.5895 8.94544 33.7687 7.82528 34.2438 6.81947C34.5746 6.12954 35.1163 5.56279 35.7907 5.20124C36.465 4.83969 37.2369 4.7021 37.9946 4.80839C38.715 4.86945 39.3979 5.15557 39.9466 5.62625C40.4953 6.09693 40.8821 6.7283 41.0521 7.43097C41.1869 8.07094 41.2861 8.71789 41.3493 9.36884H34.3772C34.2481 11.212 35.2385 12.6934 36.6424 13.0508C38.3908 13.4814 39.8851 12.7235 40.4277 11.0612C40.5483 10.6349 40.7679 10.5746 41.1555 10.6952ZM34.3772 8.77887H40.6086C40.5698 6.81516 39.3468 5.39406 37.6889 5.37253C35.8113 5.34238 34.4591 6.71181 34.3772 8.77887Z" fill="black"/>
<path d="M42.4387 10.7385H43.0502C43.0728 11.1884 43.219 11.6234 43.4727 11.9957C43.7265 12.368 44.0779 12.6631 44.4885 12.8486C45.0041 13.0806 45.5653 13.1933 46.1305 13.1784C46.6956 13.1635 47.2501 13.0213 47.7527 12.7625C48.0266 12.639 48.2561 12.4345 48.4101 12.1765C48.5641 11.9185 48.6353 11.6195 48.614 11.3198C48.6298 11.0308 48.5508 10.7445 48.3892 10.5044C48.2275 10.2642 47.992 10.0833 47.7183 9.98916C47.0465 9.73939 46.3316 9.60158 45.6469 9.38196C44.9345 9.17908 44.2379 8.92432 43.5626 8.61973C42.4602 8.08143 42.3913 5.98423 43.6401 5.32105C44.2796 4.96019 44.9993 4.76522 45.7334 4.75394C46.4676 4.74265 47.1929 4.91541 47.8432 5.25645C48.2371 5.47415 48.5553 5.80675 48.7553 6.20991C48.9554 6.61307 49.0277 7.06764 48.9628 7.51299H48.4375C48.4375 7.48715 48.3901 7.46562 48.3901 7.43978C48.3255 5.7646 46.9216 5.24784 45.4144 5.39425C44.9644 5.44975 44.5274 5.58232 44.1225 5.78613C43.8792 5.89739 43.6764 6.08143 43.5422 6.31285C43.408 6.54426 43.3489 6.81163 43.3732 7.07805C43.3739 7.34459 43.4571 7.60437 43.6113 7.82179C43.7655 8.0392 43.9831 8.2036 44.2344 8.29245C44.8976 8.5336 45.5909 8.68863 46.2713 8.87811C46.8183 9.02884 47.3867 9.12788 47.9164 9.30875C48.2902 9.4313 48.6181 9.6645 48.8564 9.97749C49.0948 10.2905 49.2325 10.6685 49.2514 11.0614C49.3153 11.492 49.2419 11.9318 49.0417 12.3183C48.8415 12.7048 48.5246 13.0184 48.136 13.2146C46.6977 14.0285 44.3292 13.8132 43.2741 12.784C43.0067 12.5151 42.7952 12.1959 42.6518 11.8448C42.5084 11.4937 42.436 11.1177 42.4387 10.7385Z" fill="black"/>
<path d="M57.0029 7.51296H56.4301C56.4301 7.43545 56.4 7.36654 56.3914 7.30195C56.3821 6.87263 56.2256 6.45953 55.9481 6.13184C55.6705 5.80414 55.2889 5.58174 54.8669 5.50188C54.0708 5.27347 53.2215 5.31434 52.451 5.61816C52.1465 5.70548 51.8784 5.88896 51.6867 6.1412C51.495 6.39344 51.39 6.70092 51.3874 7.01773C51.3767 7.32886 51.4736 7.63416 51.6619 7.88208C51.8502 8.13 52.1183 8.30536 52.4209 8.37854C53.2822 8.64554 54.165 8.80918 55.0392 9.05034C55.3225 9.11833 55.6014 9.20318 55.8746 9.30441C56.2825 9.45036 56.6369 9.71596 56.8915 10.0665C57.1461 10.4171 57.289 10.8363 57.3016 11.2693C57.3141 11.7024 57.1958 12.1292 56.9619 12.4939C56.7281 12.8586 56.3897 13.1443 55.9909 13.3137C55.3832 13.5896 54.7245 13.7356 54.0571 13.7423C53.3897 13.749 52.7283 13.6162 52.1152 13.3524C51.611 13.135 51.1855 12.7683 50.896 12.3017C50.6065 11.8351 50.4669 11.2911 50.496 10.7427H50.7371H51.0558C51.1593 11.2424 51.3832 11.7093 51.7078 12.103C52.0325 12.4967 52.4482 12.8053 52.919 13.0021C53.3898 13.1989 53.9015 13.2779 54.4098 13.2324C54.918 13.1869 55.4075 13.0182 55.8359 12.7409C56.0968 12.6053 56.3134 12.3978 56.4599 12.1428C56.6065 11.8879 56.6769 11.5963 56.6627 11.3026C56.6757 11.0134 56.594 10.7278 56.43 10.4892C56.266 10.2506 56.0287 10.072 55.754 9.98052C55.0822 9.73075 54.3674 9.59725 53.6827 9.37762C52.9662 9.17787 52.2652 8.926 51.5855 8.62401C50.5089 8.09432 50.4227 6.01434 51.6501 5.35116C52.2975 4.97518 53.0312 4.77322 53.7798 4.76492C54.5284 4.75661 55.2664 4.94226 55.922 5.30379C56.2969 5.52761 56.5987 5.85559 56.7906 6.24781C56.9825 6.64003 57.0563 7.07958 57.0029 7.51296Z" fill="black"/>
<path d="M19.4901 13.4989C19.2646 13.5843 19.0157 13.5841 18.7903 13.4984C18.565 13.4127 18.3788 13.2474 18.2671 13.0338C17.5651 11.983 16.79 10.9797 16.045 9.95474L15.722 9.5241C14.8349 10.7127 13.9478 11.8538 13.1382 13.0381C13.0327 13.2423 12.8566 13.4011 12.6427 13.4851C12.4288 13.5691 12.1917 13.5724 11.9755 13.4946L15.3043 9.02887L12.208 4.99379C12.4309 4.91331 12.6747 4.91221 12.8983 4.99067C13.1219 5.06912 13.3116 5.22233 13.4353 5.42443C14.1545 6.47518 14.9512 7.47857 15.7435 8.54224C16.5402 7.48718 17.3283 6.47949 18.0647 5.43735C18.1707 5.2365 18.3469 5.08165 18.5597 5.00225C18.7725 4.92285 19.0071 4.92444 19.2188 5.00671L18.0173 6.60007C17.479 7.31062 16.9493 8.02548 16.3895 8.71881C16.3444 8.7592 16.3083 8.80865 16.2836 8.86393C16.2589 8.91921 16.2461 8.97908 16.2461 9.03963C16.2461 9.10018 16.2589 9.16005 16.2836 9.21533C16.3083 9.27061 16.3444 9.32007 16.3895 9.36046C17.4187 10.7256 18.4393 12.095 19.4901 13.4989Z" fill="black"/>
<path d="M33.6236 4.95068V5.55358C33.188 5.52501 32.7513 5.58809 32.3416 5.73874C31.932 5.88939 31.5585 6.12426 31.2452 6.4282C30.9319 6.73214 30.6858 7.0984 30.5229 7.50332C30.3599 7.90824 30.2837 8.34284 30.299 8.77905C30.299 10.1973 30.299 11.6155 30.299 13.0338C30.299 13.1845 30.299 13.3352 30.299 13.5161H29.6832V4.98514H30.2861V6.73352C31.0311 5.45884 32.1809 4.98513 33.6236 4.95068Z" fill="black"/>
<path d="M4 8.97276C4.09043 8.54213 4.14642 8.07273 4.2713 7.63348C5.0163 4.98506 8.0523 3.88263 10.1409 5.52336C11.3639 6.48368 11.6697 7.84449 11.6094 9.37756H4.71916C4.6072 12.1164 6.58383 13.7701 9.11167 12.926C9.52172 12.7793 9.88879 12.5329 10.1798 12.2088C10.4707 11.8848 10.6764 11.4934 10.7782 11.07C10.9117 10.6393 11.1271 10.5661 11.5362 10.691C11.4688 11.2153 11.2834 11.7174 10.994 12.1597C10.7046 12.6021 10.3187 12.973 9.86528 13.2447C9.11615 13.6544 8.25666 13.8166 7.40972 13.7084C6.56278 13.6001 5.77177 13.2268 5.1498 12.6418C4.53449 11.95 4.16244 11.0758 4.09043 10.1527C4.09043 10.0063 4.03445 9.85988 4.00431 9.72208C4.00144 9.46656 4 9.21679 4 8.97276ZM4.72778 8.78759H10.9591C10.9203 6.80235 9.66719 5.39417 7.99632 5.38125C6.13596 5.35541 4.80529 6.73345 4.72347 8.77898L4.72778 8.78759Z" fill="black"/>
</g>
</g>
<defs>
<filter id="filter0_d_579_901" x="-2" y="-0.248291" width="65" height="29" filterUnits="userSpaceOnUse" color-interpolation-filters="sRGB">
<feFlood flood-opacity="0" result="BackgroundImageFix"/>
<feColorMatrix in="SourceAlpha" type="matrix" values="0 0 0 0 0 0 0 0 0 0 0 0 0 0 0 0 0 0 127 0" result="hardAlpha"/>
<feOffset dy="3"/>
<feGaussianBlur stdDeviation="2"/>
<feComposite in2="hardAlpha" operator="out"/>
<feColorMatrix type="matrix" values="0 0 0 0 0 0 0 0 0 0 0 0 0 0 0 0 0 0 0.25 0"/>
<feBlend mode="normal" in2="BackgroundImageFix" result="effect1_dropShadow_579_901"/>
<feBlend mode="normal" in="SourceGraphic" in2="effect1_dropShadow_579_901" result="shape"/>
</filter>
<filter id="filter1_ddd_579_901" x="3" y="3.75171" width="55.3025" height="13.8948" filterUnits="userSpaceOnUse" color-interpolation-filters="sRGB">
<feFlood flood-opacity="0" result="BackgroundImageFix"/>
<feColorMatrix in="SourceAlpha" type="matrix" values="0 0 0 0 0 0 0 0 0 0 0 0 0 0 0 0 0 0 127 0" result="hardAlpha"/>
<feOffset/>
<feGaussianBlur stdDeviation="0.5"/>
<feComposite in2="hardAlpha" operator="out"/>
<feColorMatrix type="matrix" values="0 0 0 0 0.666667 0 0 0 0 0.666667 0 0 0 0 0.666667 0 0 0 1 0"/>
<feBlend mode="normal" in2="BackgroundImageFix" result="effect1_dropShadow_579_901"/>
<feColorMatrix in="SourceAlpha" type="matrix" values="0 0 0 0 0 0 0 0 0 0 0 0 0 0 0 0 0 0 127 0" result="hardAlpha"/>
<feOffset/>
<feGaussianBlur stdDeviation="0.5"/>
<feComposite in2="hardAlpha" operator="out"/>
<feColorMatrix type="matrix" values="0 0 0 0 0.666667 0 0 0 0 0.666667 0 0 0 0 0.666667 0 0 0 1 0"/>
<feBlend mode="normal" in2="effect1_dropShadow_579_901" result="effect2_dropShadow_579_901"/>
<feColorMatrix in="SourceAlpha" type="matrix" values="0 0 0 0 0 0 0 0 0 0 0 0 0 0 0 0 0 0 127 0" result="hardAlpha"/>
<feOffset/>
<feGaussianBlur stdDeviation="0.5"/>
<feComposite in2="hardAlpha" operator="out"/>
<feColorMatrix type="matrix" values="0 0 0 0 0.666667 0 0 0 0 0.666667 0 0 0 0 0.666667 0 0 0 1 0"/>
<feBlend mode="normal" in2="effect2_dropShadow_579_901" result="effect3_dropShadow_579_901"/>
<feBlend mode="normal" in="SourceGraphic" in2="effect3_dropShadow_579_901" result="shape"/>
</filter>
</defs>
</svg>
