<svg xmlns="http://www.w3.org/2000/svg" width="57" height="57" fill="none" viewBox="0 0 57 57"><rect width="56.752" height="56.752" fill="url(#paint0_linear_551_2971)" rx="8.255"/><path fill="#00618a" d="M46.474 40.155c-2.345-.065-4.137.157-5.67.815-.435.188-1.129.192-1.2.748.24.256.277.638.467.952.366.603.984 1.412 1.534 1.835.601.463 1.222.96 1.868 1.36 1.147.714 2.429 1.121 3.535 1.835.65.422 1.297.953 1.933 1.429.315.234.525.6.935.747v-.067c-.215-.279-.27-.661-.467-.953l-.868-.884c-.848-1.148-1.923-2.154-3.068-2.99-.912-.668-2.954-1.57-3.334-2.652l-.067-.068c.646-.074 1.404-.313 2-.476 1.003-.274 1.9-.203 2.935-.476l1.4-.409v-.27c-.522-.548-.897-1.273-1.467-1.768-1.492-1.296-3.123-2.591-4.801-3.672-.931-.599-2.082-.988-3.069-1.495-.33-.172-.914-.26-1.134-.545-.52-.673-.8-1.526-1.2-2.31a89 89 0 0 1-2.402-5.168c-.505-1.178-.836-2.34-1.466-3.398-3.029-5.076-6.289-8.14-11.338-11.15-1.075-.64-2.368-.893-3.735-1.223l-2.2-.136c-.447-.19-.914-.749-1.334-1.02-1.674-1.077-5.965-3.42-7.203-.339-.782 1.945 1.17 3.842 1.867 4.828.49.69 1.117 1.465 1.468 2.242.23.511.269 1.024.467 1.564.484 1.331.906 2.78 1.533 4.01.317.623.667 1.28 1.067 1.836.245.34.667.492.733 1.02-.411.587-.436 1.5-.667 2.242-1.042 3.35-.649 7.515.868 9.995.465.762 1.56 2.394 3.067 1.767 1.318-.547 1.025-2.242 1.402-3.74.085-.337.032-.587.2-.814v.068l1.2 2.447c.889 1.459 2.465 2.982 3.801 4.011.693.533 1.24 1.456 2.135 1.768v-.07h-.066c-.175-.275-.445-.388-.668-.61a15.4 15.4 0 0 1-1.533-1.768c-1.216-1.682-2.29-3.523-3.268-5.44-.468-.914-.873-1.923-1.267-2.854-.153-.36-.15-.903-.467-1.087-.432.681-1.067 1.233-1.401 2.039-.533 1.287-.602 2.858-.8 4.486l-.133.068c-.93-.229-1.256-1.204-1.601-2.04-.873-2.114-1.036-5.519-.267-7.953.199-.63 1.097-2.614.733-3.196-.174-.58-.747-.915-1.066-1.36a10.7 10.7 0 0 1-1.068-1.904c-.715-1.648-1.048-3.5-1.8-5.166-.36-.797-.967-1.603-1.467-2.311-.552-.786-1.172-1.364-1.601-2.312-.152-.337-.36-.878-.134-1.224.072-.234.175-.332.401-.408.387-.304 1.464.101 1.867.271 1.07.454 1.963.885 2.87 1.496.434.295.873.863 1.4 1.02h.6c.938.22 1.99.067 2.868.339 1.55.48 2.94 1.228 4.201 2.04 3.844 2.475 6.986 5.996 9.137 10.198.345.677.496 1.321.8 2.039.614 1.447 1.389 2.936 2 4.351.61 1.412 1.206 2.836 2.068 4.011.454.617 2.205.949 3.001 1.292.558.24 1.472.49 2 .815 1.01.62 1.989 1.36 2.935 2.04.473.342 1.928 1.088 2 1.702m-29.811-25.9a4.7 4.7 0 0 0-1.201.135v.068h.066c.234.49.645.803.934 1.224l.668 1.427.066-.067c.413-.296.601-.77.6-1.496-.167-.178-.19-.4-.334-.611-.19-.284-.559-.443-.8-.68"/><defs><linearGradient id="paint0_linear_551_2971" x1="28.376" x2="28.376" y1="0" y2="56.752" gradientUnits="userSpaceOnUse"><stop stop-color="#fdfdfd"/><stop offset="1" stop-color="#f5f4f4"/></linearGradient></defs></svg>