<svg width="65" height="24" viewBox="0 0 65 24" fill="none" xmlns="http://www.w3.org/2000/svg">
<g filter="url(#filter0_d_579_911)">
<path d="M4.00049 14.1954H6.00659V6.27305L9.11243 13.1796C9.47868 14.0157 9.98021 14.3111 10.9642 14.3111C11.9482 14.3111 12.4307 14.0157 12.797 13.1796L15.9028 6.27305V14.1954H17.9089V6.28624C17.9089 5.51466 17.6003 5.14108 16.9635 4.94867C15.4394 4.47303 14.4168 4.8847 13.9538 5.91363L10.9061 12.7299L7.95506 5.91314C7.51116 4.8847 6.46953 4.47303 4.94543 4.94819C4.30863 5.14108 4 5.51417 4 6.28575L4.00049 14.1954ZM19.5775 7.74637H21.5832V12.1112C21.5646 12.348 21.6593 12.9047 22.7581 12.9223C23.3187 12.9311 27.0858 12.9223 27.1209 12.9223V7.72488H29.1314C29.1407 7.72488 29.1295 14.8126 29.1295 14.8419C29.1402 16.5902 26.9608 16.9696 25.9557 16.9989H19.621V15.6492C19.6318 15.6492 25.9514 15.6506 25.967 15.6487C27.2586 15.5124 27.1058 14.8708 27.1053 14.6549V14.1285H22.8416C20.858 14.1104 19.5941 13.2446 19.578 12.2484C19.5771 12.1571 19.6215 7.79032 19.5775 7.74637Z" fill="#00618A"/>
<path d="M30.678 14.1957H36.4462C37.1216 14.1957 37.7779 14.0546 38.2985 13.8104C39.1663 13.4119 39.5907 12.8718 39.5907 12.1637V10.6977C39.5907 10.119 39.1087 9.57843 38.1632 9.21902C37.6617 9.02563 37.044 8.92357 36.4458 8.92357H34.0148C33.2046 8.92357 32.8189 8.6794 32.7227 8.1393C32.7036 8.07484 32.7036 8.02356 32.7036 7.9591V7.04591C32.7036 6.99463 32.7036 6.94287 32.7227 6.87889C32.8189 6.46722 33.0313 6.35149 33.7452 6.28703L33.9381 6.27433H39.6678V4.93726H34.0348C33.2247 4.93726 32.8003 4.98853 32.4145 5.10427C31.2186 5.47736 30.697 6.06874 30.697 7.09767V8.26773C30.697 9.16823 31.7201 9.93981 33.4366 10.12C33.63 10.1322 33.8224 10.1459 34.0153 10.1459H36.099C36.1762 10.1459 36.2534 10.1459 36.3115 10.1581C36.9483 10.2094 37.2178 10.3256 37.4112 10.5566C37.5269 10.6723 37.565 10.7885 37.565 10.9165V12.087C37.565 12.2282 37.4688 12.4084 37.2759 12.5627C37.1026 12.717 36.813 12.82 36.4272 12.8459L36.2148 12.8586H30.678V14.1957ZM52.1068 11.8683C52.1068 13.2439 53.1294 14.0155 55.1931 14.1703C55.386 14.183 55.5789 14.1957 55.7718 14.1957H61V12.8586H55.7337C54.5568 12.8586 54.1134 12.5627 54.1134 11.8551V4.93628H52.1073L52.1068 11.8683ZM40.8711 11.9376V7.16897C40.8711 5.95789 41.7218 5.22293 43.4036 4.99097C43.5775 4.96509 43.7713 4.95239 43.9447 4.95239H47.7533C47.9466 4.95239 48.1205 4.96509 48.3134 4.99097C49.9952 5.22293 50.8464 5.9574 50.8464 7.16897V11.9376C50.8464 12.9211 50.485 13.4466 49.6524 13.7894L51.6292 15.5733H49.2993L47.7005 14.1298L46.091 14.2318H43.9447C43.5775 14.2318 43.1912 14.1806 42.7659 14.0643C41.4898 13.7166 40.8711 13.0461 40.8711 11.9376ZM43.0364 11.8219C43.0364 11.8863 43.0554 11.9513 43.075 12.0284C43.1907 12.5827 43.7132 12.8918 44.5053 12.8918H46.3278L44.6538 11.3804H46.9836L48.4433 12.6989C48.7129 12.5549 48.8896 12.3361 48.9517 12.0543C48.9707 11.9899 48.9707 11.9254 48.9707 11.8609V7.28617C48.9707 7.23489 48.9707 7.16995 48.9517 7.10548C48.8354 6.5898 48.3134 6.29386 47.5403 6.29386H44.5048C43.616 6.29386 43.0359 6.68063 43.0359 7.28617L43.0364 11.8219Z" fill="#E48E00"/>
</g>
<defs>
<filter id="filter0_d_579_911" x="0" y="-0.248291" width="65" height="29" filterUnits="userSpaceOnUse" color-interpolation-filters="sRGB">
<feFlood flood-opacity="0" result="BackgroundImageFix"/>
<feColorMatrix in="SourceAlpha" type="matrix" values="0 0 0 0 0 0 0 0 0 0 0 0 0 0 0 0 0 0 127 0" result="hardAlpha"/>
<feOffset dy="3"/>
<feGaussianBlur stdDeviation="2"/>
<feComposite in2="hardAlpha" operator="out"/>
<feColorMatrix type="matrix" values="0 0 0 0 0 0 0 0 0 0 0 0 0 0 0 0 0 0 0.25 0"/>
<feBlend mode="normal" in2="BackgroundImageFix" result="effect1_dropShadow_579_911"/>
<feBlend mode="normal" in="SourceGraphic" in2="effect1_dropShadow_579_911" result="shape"/>
</filter>
</defs>
</svg>
