<svg width="57" height="25" viewBox="0 0 57 25" fill="none" xmlns="http://www.w3.org/2000/svg">
<g filter="url(#filter0_d_565_3094)">
<g filter="url(#filter1_ddd_565_3094)">
<path d="M12.5481 4.33967C11.807 4.33967 11.2056 4.56847 10.7438 5.02328C10.2819 5.47809 10.0456 6.078 10.0456 6.80905C10.0456 7.18852 10.1047 7.53451 10.2175 7.8526C10.3303 8.17069 10.5128 8.46646 10.7491 8.73153C10.9854 8.99661 11.4687 9.35934 12.1856 9.84763C13.0636 10.4057 13.6356 10.8577 13.9148 11.2093C14.1742 11.5162 14.3206 11.9086 14.3283 12.317C14.3283 12.8332 14.1672 13.2434 13.8289 13.5531C13.4906 13.8628 13.0422 14.0163 12.4864 14.0163C11.8956 14.0163 11.4123 13.8014 10.9451 13.3745C10.4779 12.9476 10.2819 12.3784 10.2739 11.6669H10V14.2451H10.2739C10.3544 13.9995 10.4726 13.8768 10.6229 13.8768C10.6954 13.8768 10.8646 13.9326 11.1599 14.0274C11.8044 14.2674 12.336 14.3818 12.7549 14.3818C13.4745 14.3818 14.0866 14.1195 14.5995 13.5894C14.8466 13.3407 15.0422 13.0421 15.1743 12.712C15.3064 12.3818 15.3721 12.0271 15.3674 11.6697C15.3674 11.0893 15.1983 10.5731 14.8626 10.1239C14.527 9.67464 13.8799 9.14728 12.9079 8.54737C12.0755 8.0256 11.5305 7.59869 11.2808 7.26944C11.0364 6.96039 10.9026 6.57288 10.9022 6.17287C10.8952 5.97406 10.9329 5.7763 11.0121 5.59519C11.0913 5.41409 11.2099 5.2546 11.3586 5.12931C11.662 4.86982 12.0567 4.73868 12.5535 4.73868C13.112 4.73868 13.5738 4.91167 13.9443 5.25766C14.3272 5.63751 14.5574 6.15392 14.5888 6.70302H14.8626V4.47081H14.6075C14.5753 4.58242 14.5485 4.65776 14.5216 4.69403C14.4948 4.73031 14.4464 4.74426 14.374 4.74426C14.2853 4.74426 14.1269 4.70519 13.9041 4.63265C13.4208 4.46523 12.9804 4.38152 12.575 4.38152L12.5481 4.33967ZM21.4893 4.33967C20.5872 4.33967 19.7709 4.56289 19.0271 5.00375C18.2915 5.43964 17.683 6.07399 17.2657 6.83974C16.8397 7.59631 16.6162 8.45762 16.6187 9.33423C16.6092 10.4994 17.0103 11.6278 17.7464 12.5067C18.4982 13.4331 19.4057 14.0135 20.4529 14.2367C20.6946 14.3678 21.0356 14.7027 21.484 15.2412C21.9941 15.8551 22.4184 16.2959 22.7728 16.5582C23.1171 16.8159 23.4999 17.0129 23.9059 17.1414C24.3294 17.2714 24.7692 17.3354 25.2108 17.3311C25.78 17.3311 26.2848 17.2279 26.7413 17.0158L26.6393 16.7563C26.3788 16.854 26.1023 16.9014 25.8069 16.9014C25.4095 16.9014 25.0094 16.7619 24.6067 16.4912C24.2039 16.2206 23.7018 15.696 23.103 14.9287L22.5177 14.2367C23.6669 14.0051 24.612 13.4275 25.3451 12.5012C26.0663 11.6182 26.458 10.4952 26.4486 9.33702C26.4609 8.6744 26.3394 8.01647 26.0919 7.40565C25.8445 6.79482 25.4767 6.24465 25.0121 5.7906C24.0562 4.82796 22.8829 4.33967 21.4893 4.33967ZM27.0742 4.33967L27.0877 4.6466C27.6891 4.6466 28.0274 4.83075 28.0999 5.19907C28.1268 5.33021 28.1402 5.57575 28.1429 5.92453L28.1375 12.6546C28.1321 13.1569 28.0623 13.4778 27.9308 13.6173C27.7992 13.7568 27.5737 13.8405 27.2488 13.8768L27.2353 14.1837H33.223L33.3761 12.6574H33.1022C33.0216 13.076 32.8444 13.3717 32.5598 13.5391C32.2752 13.7066 31.7677 13.7903 31.0374 13.7903H30.4735C29.8157 13.7903 29.4371 13.5447 29.3351 13.0481C29.3148 12.9434 29.3049 12.8368 29.3055 12.73L29.3324 5.92174C29.3324 5.4195 29.3941 5.08467 29.5203 4.91725C29.6465 4.74984 29.8774 4.66055 30.2104 4.63823L30.197 4.3313L27.0742 4.33967ZM21.586 4.70798C22.0676 4.69711 22.5448 4.80557 22.9781 5.0244C23.4114 5.24323 23.7884 5.56613 24.0777 5.96639C24.7221 6.80346 25.039 7.95863 25.039 9.41793C25.039 10.8019 24.7168 11.9068 24.0724 12.7383C23.7673 13.1422 23.375 13.4656 22.9271 13.6824C22.4792 13.8991 21.9885 14.003 21.4947 13.9856C21.0086 13.9974 20.527 13.8865 20.0911 13.6625C19.6553 13.4385 19.2782 13.1079 18.9922 12.6993C18.3532 11.8399 18.0364 10.7238 18.0364 9.35097C18.0364 7.94189 18.3586 6.83974 19.003 5.96918C19.6474 5.09862 20.5066 4.70798 21.5914 4.70798H21.586ZM35.3603 6.15892C35.2153 6.15892 35.1025 6.20914 35.0193 6.31238C34.9774 6.36415 34.9481 6.42572 34.9341 6.49181C34.9201 6.55791 34.9217 6.62655 34.9388 6.69186C34.9717 6.84501 35.0553 6.98129 35.175 7.07691C35.3012 7.18852 35.4382 7.24433 35.5832 7.24433C35.7282 7.24433 35.8329 7.18852 35.9107 7.07691C35.9886 6.9653 36.0128 6.83974 35.9832 6.69186C35.9537 6.54397 35.8758 6.41283 35.7577 6.31238C35.6396 6.21193 35.5026 6.15892 35.3603 6.15892ZM39.3073 7.19131C39.0603 8.18464 38.5206 8.72037 37.6963 8.80966L37.707 9.09426H38.6737L38.6602 12.4482L38.7139 13.6005C38.8079 14.0665 39.1033 14.3037 39.5919 14.3037C40.3008 14.3037 41.0419 13.8572 41.8205 12.956L41.5843 12.7467C41.0204 13.3382 40.5263 13.634 40.0914 13.634C39.8229 13.634 39.6618 13.475 39.5973 13.1597C39.5794 13.0707 39.5713 12.9799 39.5732 12.889L39.5839 9.0831H41.0607L41.0472 8.62829H39.5919V7.18294L39.3073 7.19131ZM45.005 8.45809C44.1807 8.45809 43.5094 8.87662 42.9912 9.69975C42.473 10.5229 42.3119 11.4437 42.516 12.4537C42.6011 12.9834 42.8567 13.4674 43.2409 13.8265C43.6061 14.1502 44.0733 14.3092 44.6237 14.3092C45.1393 14.3092 45.8589 14.1697 46.1596 13.8991C46.4603 13.6284 46.7422 13.182 47 12.5765L46.7933 12.3533C46.3824 13.1401 45.5528 13.5364 44.9245 13.5364C44.0652 13.5364 43.5363 13.0453 43.3134 12.0687C43.2874 11.9369 43.2686 11.8037 43.257 11.6697C44.2774 11.5023 45.056 11.2037 45.5796 10.7712C46.1032 10.3387 46.6268 9.87833 46.5301 9.3984C46.4772 9.12362 46.3267 8.87958 46.1086 8.71479C45.8857 8.54737 45.3031 8.4553 44.9808 8.4553L45.005 8.45809ZM35.994 8.49436L34.2165 8.91848V9.24773L34.834 9.16402C35.1294 9.16402 35.3066 9.30353 35.363 9.58256C35.3853 9.71056 35.397 9.84032 35.3979 9.9704L35.3791 12.9895C35.3737 13.408 35.3308 13.6507 35.2395 13.7233C35.1482 13.7958 34.9092 13.8349 34.5253 13.8349L34.5145 14.1195H37.3338L37.3284 13.8349C36.9364 13.8349 36.684 13.807 36.5713 13.74C36.4585 13.6731 36.3833 13.5643 36.3511 13.3913C36.3242 13.2657 36.3135 13.0508 36.3135 12.7495L36.3242 8.48878H36.002L35.994 8.49436ZM44.5539 9.05241C44.7258 9.05241 44.8922 9.12217 45.0587 9.2561C45.2252 9.39003 45.3272 9.54071 45.3541 9.70254C45.5152 10.5061 44.8305 11.0586 43.2866 11.3683C43.2436 10.8103 43.3403 10.2522 43.59 9.7723C43.8397 9.29237 44.1592 9.04683 44.5512 9.04683L44.5539 9.05241Z" fill="#003B57"/>
</g>
</g>
<defs>
<filter id="filter0_d_565_3094" x="-4" y="-0.248291" width="65" height="28.1592" filterUnits="userSpaceOnUse" color-interpolation-filters="sRGB">
<feFlood flood-opacity="0" result="BackgroundImageFix"/>
<feColorMatrix in="SourceAlpha" type="matrix" values="0 0 0 0 0 0 0 0 0 0 0 0 0 0 0 0 0 0 127 0" result="hardAlpha"/>
<feOffset dy="3"/>
<feGaussianBlur stdDeviation="2"/>
<feComposite in2="hardAlpha" operator="out"/>
<feColorMatrix type="matrix" values="0 0 0 0 0 0 0 0 0 0 0 0 0 0 0 0 0 0 0.25 0"/>
<feBlend mode="normal" in2="BackgroundImageFix" result="effect1_dropShadow_565_3094"/>
<feBlend mode="normal" in="SourceGraphic" in2="effect1_dropShadow_565_3094" result="shape"/>
</filter>
<filter id="filter1_ddd_565_3094" x="9" y="3.3313" width="39" height="15" filterUnits="userSpaceOnUse" color-interpolation-filters="sRGB">
<feFlood flood-opacity="0" result="BackgroundImageFix"/>
<feColorMatrix in="SourceAlpha" type="matrix" values="0 0 0 0 0 0 0 0 0 0 0 0 0 0 0 0 0 0 127 0" result="hardAlpha"/>
<feOffset/>
<feGaussianBlur stdDeviation="0.5"/>
<feComposite in2="hardAlpha" operator="out"/>
<feColorMatrix type="matrix" values="0 0 0 0 0.666667 0 0 0 0 0.666667 0 0 0 0 0.666667 0 0 0 1 0"/>
<feBlend mode="normal" in2="BackgroundImageFix" result="effect1_dropShadow_565_3094"/>
<feColorMatrix in="SourceAlpha" type="matrix" values="0 0 0 0 0 0 0 0 0 0 0 0 0 0 0 0 0 0 127 0" result="hardAlpha"/>
<feOffset/>
<feGaussianBlur stdDeviation="0.5"/>
<feComposite in2="hardAlpha" operator="out"/>
<feColorMatrix type="matrix" values="0 0 0 0 0.666667 0 0 0 0 0.666667 0 0 0 0 0.666667 0 0 0 1 0"/>
<feBlend mode="normal" in2="effect1_dropShadow_565_3094" result="effect2_dropShadow_565_3094"/>
<feColorMatrix in="SourceAlpha" type="matrix" values="0 0 0 0 0 0 0 0 0 0 0 0 0 0 0 0 0 0 127 0" result="hardAlpha"/>
<feOffset/>
<feGaussianBlur stdDeviation="0.5"/>
<feComposite in2="hardAlpha" operator="out"/>
<feColorMatrix type="matrix" values="0 0 0 0 0.666667 0 0 0 0 0.666667 0 0 0 0 0.666667 0 0 0 1 0"/>
<feBlend mode="normal" in2="effect2_dropShadow_565_3094" result="effect3_dropShadow_565_3094"/>
<feBlend mode="normal" in="SourceGraphic" in2="effect3_dropShadow_565_3094" result="shape"/>
</filter>
</defs>
</svg>
