<svg xmlns="http://www.w3.org/2000/svg" width="57" height="57" fill="none" viewBox="0 0 57 57"><rect width="56.752" height="56.752" fill="url(#paint0_linear_551_3009)" rx="8.255"/><path fill="#0f80cc" d="M39.613 8.441H12.162a3.355 3.355 0 0 0-3.346 3.346v30.275a3.355 3.355 0 0 0 3.346 3.345h18.081c-.206-8.997 2.867-26.456 9.37-36.966"/><path fill="url(#paint1_linear_551_3009)" d="M38.616 9.418H12.162a2.37 2.37 0 0 0-2.369 2.369v28.065a65.6 65.6 0 0 1 21.202-4.193 193 193 0 0 1 7.621-26.241"/><path fill="#003b57" d="M46.016 7.45c-1.875-1.676-4.156-1.002-6.406.991q-.5.447-.997.977a39.7 39.7 0 0 0-8.518 17.395c.42.916.75 1.869.99 2.847.056.219.108.425.156.6.097.414.157.683.157.683s-.035-.13-.177-.54l-.092-.266-.06-.147c-.25-.583-.937-1.813-1.25-2.344-.26.77-.492 1.49-.684 2.142a19 19 0 0 1 1.419 4.375s-.047-.18-.267-.804a30 30 0 0 0-1.406-2.67 6.3 6.3 0 0 0-.413 2.695c.344.686.603 1.411.77 2.16.522 2.005.885 4.448.885 4.448l.03.41a41 41 0 0 0 .103 5.008c.077 1.65.384 3.28.912 4.844l.281-.156a21.7 21.7 0 0 1-.747-7.231 55 55 0 0 1 3.028-15.138c3.141-8.294 7.5-14.95 11.485-18.125-3.635 3.281-8.553 13.906-10.027 17.84a71.3 71.3 0 0 0-3.522 12.5 9.7 9.7 0 0 1 5.132-5.318s1.926-2.377 4.178-5.77A41 41 0 0 0 36.67 30c-1.094.46-1.389.615-1.389.615a37.4 37.4 0 0 1 6.586-3.136c4.181-6.585 8.737-15.937 4.15-20.037"/><defs><linearGradient id="paint0_linear_551_3009" x1="28.376" x2="28.376" y1="0" y2="56.752" gradientUnits="userSpaceOnUse"><stop stop-color="#fdfdfd"/><stop offset="1" stop-color="#f5f4f4"/></linearGradient><linearGradient id="paint1_linear_551_3009" x1="24.171" x2="24.171" y1="10.105" y2="38.227" gradientUnits="userSpaceOnUse"><stop stop-color="#97d9f6"/><stop offset=".92" stop-color="#0f80cc"/><stop offset="1" stop-color="#0f80cc"/></linearGradient></defs></svg>