<svg width="57" height="26" viewBox="0 0 57 26" fill="none" xmlns="http://www.w3.org/2000/svg">
<g filter="url(#filter0_d_565_3066)">
<g filter="url(#filter1_dd_565_3066)">
<path d="M49.1948 12.7941C49.3335 12.713 49.419 12.565 49.419 12.4041V11.3611C49.419 11.2007 49.3339 11.0527 49.1948 10.9716L45.4887 8.81988C45.3491 8.73879 45.1772 8.73835 45.0372 8.819L41.308 10.972C41.1689 11.0527 41.0829 11.2011 41.0829 11.362V15.6671C41.0829 15.8289 41.1698 15.9786 41.3107 16.0588L45.0164 18.1702C45.1528 18.2486 45.3203 18.2491 45.4581 18.1729L47.6993 16.9269C47.7707 16.887 47.815 16.8126 47.8154 16.7319C47.8159 16.6504 47.7725 16.575 47.702 16.5347L43.9498 14.3813C43.8794 14.3409 43.8364 14.2665 43.8364 14.1863V12.8366C43.8364 12.756 43.8794 12.682 43.9489 12.6421L45.1174 11.9686C45.1865 11.9282 45.2725 11.9282 45.342 11.9686L46.5105 12.6421C46.5805 12.6824 46.6235 12.7564 46.6235 12.8366V13.8983C46.6235 13.9794 46.6665 14.0538 46.736 14.0937C46.806 14.134 46.892 14.134 46.962 14.0932L49.1948 12.7941Z" fill="#404137"/>
<path d="M45.2078 12.5924C45.2348 12.5773 45.2676 12.5773 45.2942 12.5924L46.0098 13.0058C46.0364 13.0213 46.0528 13.0501 46.0528 13.0807V13.907C46.0528 13.9381 46.0364 13.9664 46.0098 13.9819L45.2942 14.3949C45.2676 14.4104 45.2344 14.4104 45.2078 14.3949L44.4926 13.9819C44.4656 13.9664 44.4492 13.9381 44.4492 13.907V13.0807C44.4492 13.0501 44.4656 13.0213 44.4926 13.0058L45.2078 12.5924Z" fill="#83CD29"/>
<path d="M35.5034 14.3113C35.5034 14.3511 35.4822 14.3884 35.4472 14.4087L34.1666 15.1469C34.1316 15.1673 34.0886 15.1673 34.054 15.1469L32.7735 14.4087C32.7385 14.3884 32.7172 14.3511 32.7172 14.3113V12.8322C32.7172 12.7923 32.7389 12.7546 32.7735 12.7343L34.054 11.9952C34.0891 11.9743 34.132 11.9743 34.167 11.9952L35.448 12.7343C35.4826 12.7546 35.5039 12.7923 35.5039 12.8322L35.5034 14.3113ZM35.8495 3.35956C35.7799 3.32101 35.6949 3.3219 35.6257 3.36222C35.5571 3.40299 35.5145 3.47654 35.5145 3.5563V9.27896C35.5145 9.33479 35.4844 9.38707 35.4361 9.41543C35.3873 9.44335 35.3271 9.44335 35.2783 9.41543L34.3443 8.87706C34.2051 8.79686 34.0337 8.79686 33.8945 8.87706L30.1645 11.0296C30.0249 11.1103 29.939 11.2592 29.939 11.42V15.7265C29.939 15.8874 30.0249 16.0358 30.1641 16.1169L33.8941 18.2708C34.0332 18.3515 34.2051 18.3515 34.3447 18.2708L38.0756 16.1169C38.2148 16.0358 38.3007 15.8874 38.3007 15.7265V4.9915C38.3007 4.82844 38.2121 4.67779 38.0699 4.59803L35.8495 3.35956Z" fill="#404137"/>
<path d="M22.7223 8.79632C22.8614 8.71568 23.0333 8.71568 23.1725 8.79632L26.9025 10.9485C27.0416 11.0291 27.1276 11.178 27.1276 11.3388V15.6467C27.1276 15.8075 27.0416 15.9564 26.9025 16.037L23.1729 18.191C23.0338 18.2712 22.8619 18.2712 22.7223 18.191L18.9936 16.037C18.8545 15.9564 18.7685 15.8075 18.7685 15.6467V11.3384C18.7685 11.178 18.8545 11.0291 18.9936 10.9485L22.7223 8.79632Z" fill="#83CD29"/>
<path d="M15.9392 11.3029C15.9392 11.1407 15.8541 10.9919 15.7141 10.9117L11.9854 8.76572C11.9216 8.7285 11.8511 8.70945 11.7798 8.70679H11.7412C11.6703 8.70945 11.5994 8.7285 11.5356 8.76572L7.80647 10.9117C7.66778 10.9919 7.58093 11.1407 7.58093 11.3029L7.58891 17.081C7.58891 17.1616 7.631 17.2365 7.70146 17.2755C7.77058 17.3171 7.8561 17.3171 7.92522 17.2755L10.1407 16.0064C10.2808 15.9231 10.3663 15.7765 10.3663 15.6156V12.9163C10.3663 12.755 10.4513 12.6065 10.5909 12.5259L11.5347 11.9826C11.6047 11.9414 11.6818 11.9219 11.7598 11.9219C11.8369 11.9219 11.9158 11.9414 11.9845 11.9826L12.9274 12.5259C13.067 12.6065 13.1529 12.755 13.1529 12.9163V15.6156C13.1529 15.7765 13.2393 15.924 13.3785 16.0064L15.594 17.2755C15.6636 17.3171 15.7504 17.3171 15.8191 17.2755C15.8878 17.236 15.9307 17.1612 15.9307 17.081L15.9392 11.3029Z" fill="#404137"/>
</g>
</g>
<defs>
<filter id="filter0_d_565_3066" x="-4" y="-0.248291" width="65" height="28.1592" filterUnits="userSpaceOnUse" color-interpolation-filters="sRGB">
<feFlood flood-opacity="0" result="BackgroundImageFix"/>
<feColorMatrix in="SourceAlpha" type="matrix" values="0 0 0 0 0 0 0 0 0 0 0 0 0 0 0 0 0 0 127 0" result="hardAlpha"/>
<feOffset dy="3"/>
<feGaussianBlur stdDeviation="2"/>
<feComposite in2="hardAlpha" operator="out"/>
<feColorMatrix type="matrix" values="0 0 0 0 0 0 0 0 0 0 0 0 0 0 0 0 0 0 0.25 0"/>
<feBlend mode="normal" in2="BackgroundImageFix" result="effect1_dropShadow_565_3066"/>
<feBlend mode="normal" in="SourceGraphic" in2="effect1_dropShadow_565_3066" result="shape"/>
</filter>
<filter id="filter1_dd_565_3066" x="6.58093" y="2.3313" width="43.8381" height="17" filterUnits="userSpaceOnUse" color-interpolation-filters="sRGB">
<feFlood flood-opacity="0" result="BackgroundImageFix"/>
<feColorMatrix in="SourceAlpha" type="matrix" values="0 0 0 0 0 0 0 0 0 0 0 0 0 0 0 0 0 0 127 0" result="hardAlpha"/>
<feOffset/>
<feGaussianBlur stdDeviation="0.5"/>
<feComposite in2="hardAlpha" operator="out"/>
<feColorMatrix type="matrix" values="0 0 0 0 0.513726 0 0 0 0 0.803922 0 0 0 0 0.160784 0 0 0 1 0"/>
<feBlend mode="normal" in2="BackgroundImageFix" result="effect1_dropShadow_565_3066"/>
<feColorMatrix in="SourceAlpha" type="matrix" values="0 0 0 0 0 0 0 0 0 0 0 0 0 0 0 0 0 0 127 0" result="hardAlpha"/>
<feOffset/>
<feGaussianBlur stdDeviation="0.5"/>
<feComposite in2="hardAlpha" operator="out"/>
<feColorMatrix type="matrix" values="0 0 0 0 0.513726 0 0 0 0 0.803922 0 0 0 0 0.160784 0 0 0 1 0"/>
<feBlend mode="normal" in2="effect1_dropShadow_565_3066" result="effect2_dropShadow_565_3066"/>
<feBlend mode="normal" in="SourceGraphic" in2="effect2_dropShadow_565_3066" result="shape"/>
</filter>
</defs>
</svg>
