<svg width="57" height="22" viewBox="0 0 57 22" fill="none" xmlns="http://www.w3.org/2000/svg">
<g filter="url(#filter0_d_578_893)">
<g filter="url(#filter1_dd_578_893)">
<path d="M46.0653 9.9528C46.1855 9.88252 46.2596 9.75426 46.2596 9.61486V8.71087C46.2596 8.57186 46.1859 8.4436 46.0653 8.37332L42.8534 6.50851C42.7324 6.43824 42.5834 6.43785 42.462 6.50775L39.2301 8.3737C39.1095 8.4436 39.035 8.57224 39.035 8.71164V12.4428C39.035 12.583 39.1103 12.7128 39.2324 12.7823L42.444 14.6121C42.5623 14.6801 42.7074 14.6805 42.8269 14.6144L44.7692 13.5346C44.8311 13.5 44.8695 13.4355 44.8699 13.3656C44.8702 13.2949 44.8326 13.2297 44.7716 13.1947L41.5197 11.3284C41.4586 11.2934 41.4213 11.2289 41.4213 11.1594V9.98966C41.4213 9.91977 41.4586 9.85564 41.5189 9.82108L42.5316 9.23737C42.5915 9.20242 42.666 9.20242 42.7263 9.23737L43.7389 9.82108C43.7996 9.85602 43.8368 9.92016 43.8368 9.98966V10.9098C43.8368 10.9801 43.8741 11.0446 43.9344 11.0791C43.9951 11.1141 44.0696 11.1141 44.1302 11.0787L46.0653 9.9528Z" fill="#404137"/>
<path d="M42.61 9.7781C42.6334 9.76505 42.6618 9.76505 42.6848 9.7781L43.305 10.1364C43.3281 10.1498 43.3423 10.1748 43.3423 10.2013V10.9175C43.3423 10.9444 43.3281 10.969 43.305 10.9824L42.6848 11.3403C42.6618 11.3537 42.633 11.3537 42.61 11.3403L41.9901 10.9824C41.9667 10.969 41.9525 10.9444 41.9525 10.9175V10.2013C41.9525 10.1748 41.9667 10.1498 41.9901 10.1364L42.61 9.7781Z" fill="#83CD29"/>
<path d="M34.1995 11.2677C34.1995 11.3022 34.1811 11.3345 34.1507 11.3521L33.0409 11.9919C33.0106 12.0096 32.9733 12.0096 32.9434 11.9919L31.8335 11.3521C31.8032 11.3345 31.7848 11.3022 31.7848 11.2677V9.9858C31.7848 9.95124 31.8036 9.9186 31.8335 9.90093L32.9434 9.26038C32.9737 9.24234 33.011 9.24234 33.0413 9.26038L34.1515 9.90093C34.1815 9.9186 34.1999 9.95124 34.1999 9.9858L34.1995 11.2677ZM34.4994 1.7762C34.4391 1.74279 34.3654 1.74356 34.3055 1.77851C34.246 1.81384 34.2091 1.87758 34.2091 1.94671V6.90634C34.2091 6.95472 34.183 7.00004 34.1411 7.02462C34.0989 7.04881 34.0467 7.04881 34.0044 7.02462L33.1949 6.55803C33.0743 6.48852 32.9257 6.48852 32.8051 6.55803L29.5724 8.4236C29.4515 8.49349 29.377 8.62253 29.377 8.76193V12.4942C29.377 12.6336 29.4515 12.7623 29.572 12.8325L32.8047 14.6993C32.9253 14.7692 33.0743 14.7692 33.1953 14.6993L36.4287 12.8325C36.5493 12.7623 36.6238 12.6336 36.6238 12.4942V3.19055C36.6238 3.04923 36.547 2.91866 36.4238 2.84954L34.4994 1.7762Z" fill="#404137"/>
<path d="M23.1225 6.48821C23.2431 6.41832 23.3921 6.41832 23.5127 6.48821L26.7454 8.3534C26.866 8.42329 26.9405 8.55232 26.9405 8.69172V12.4252C26.9405 12.5646 26.866 12.6936 26.7454 12.7635L23.5131 14.6302C23.3925 14.6997 23.2435 14.6997 23.1225 14.6302L19.891 12.7635C19.7704 12.6936 19.6959 12.5646 19.6959 12.4252V8.69134C19.6959 8.55232 19.7704 8.42329 19.891 8.3534L23.1225 6.48821Z" fill="#83CD29"/>
<path d="M17.2438 8.66062C17.2438 8.52007 17.1701 8.39104 17.0487 8.32153L13.8172 6.46172C13.7619 6.42946 13.7008 6.41295 13.639 6.41064H13.6056C13.5441 6.41295 13.4827 6.42946 13.4274 6.46172L10.1955 8.32153C10.0753 8.39104 10 8.52007 10 8.66062L10.0069 13.6683C10.0069 13.7381 10.0434 13.803 10.1045 13.8368C10.1644 13.8729 10.2385 13.8729 10.2984 13.8368L12.2185 12.737C12.3398 12.6648 12.414 12.5377 12.414 12.3983V10.0588C12.414 9.91906 12.4877 9.79041 12.6087 9.72052L13.4266 9.24971C13.4873 9.214 13.5541 9.1971 13.6217 9.1971C13.6885 9.1971 13.7569 9.214 13.8164 9.24971L14.6336 9.72052C14.7546 9.79041 14.8291 9.91906 14.8291 10.0588V12.3983C14.8291 12.5377 14.904 12.6656 15.0245 12.737L16.9447 13.8368C17.0049 13.8729 17.0802 13.8729 17.1397 13.8368C17.1993 13.8027 17.2365 13.7378 17.2365 13.6683L17.2438 8.66062Z" fill="#404137"/>
</g>
</g>
<defs>
<filter id="filter0_d_578_893" x="-4" y="-0.248291" width="65" height="29" filterUnits="userSpaceOnUse" color-interpolation-filters="sRGB">
<feFlood flood-opacity="0" result="BackgroundImageFix"/>
<feColorMatrix in="SourceAlpha" type="matrix" values="0 0 0 0 0 0 0 0 0 0 0 0 0 0 0 0 0 0 127 0" result="hardAlpha"/>
<feOffset dy="3"/>
<feGaussianBlur stdDeviation="2"/>
<feComposite in2="hardAlpha" operator="out"/>
<feColorMatrix type="matrix" values="0 0 0 0 0 0 0 0 0 0 0 0 0 0 0 0 0 0 0.25 0"/>
<feBlend mode="normal" in2="BackgroundImageFix" result="effect1_dropShadow_578_893"/>
<feBlend mode="normal" in="SourceGraphic" in2="effect1_dropShadow_578_893" result="shape"/>
</filter>
<filter id="filter1_dd_578_893" x="9" y="0.751709" width="38.2596" height="15" filterUnits="userSpaceOnUse" color-interpolation-filters="sRGB">
<feFlood flood-opacity="0" result="BackgroundImageFix"/>
<feColorMatrix in="SourceAlpha" type="matrix" values="0 0 0 0 0 0 0 0 0 0 0 0 0 0 0 0 0 0 127 0" result="hardAlpha"/>
<feOffset/>
<feGaussianBlur stdDeviation="0.5"/>
<feComposite in2="hardAlpha" operator="out"/>
<feColorMatrix type="matrix" values="0 0 0 0 0.513726 0 0 0 0 0.803922 0 0 0 0 0.160784 0 0 0 1 0"/>
<feBlend mode="normal" in2="BackgroundImageFix" result="effect1_dropShadow_578_893"/>
<feColorMatrix in="SourceAlpha" type="matrix" values="0 0 0 0 0 0 0 0 0 0 0 0 0 0 0 0 0 0 127 0" result="hardAlpha"/>
<feOffset/>
<feGaussianBlur stdDeviation="0.5"/>
<feComposite in2="hardAlpha" operator="out"/>
<feColorMatrix type="matrix" values="0 0 0 0 0.513726 0 0 0 0 0.803922 0 0 0 0 0.160784 0 0 0 1 0"/>
<feBlend mode="normal" in2="effect1_dropShadow_578_893" result="effect2_dropShadow_578_893"/>
<feBlend mode="normal" in="SourceGraphic" in2="effect2_dropShadow_578_893" result="shape"/>
</filter>
</defs>
</svg>
