<svg xmlns="http://www.w3.org/2000/svg" width="57" height="57" fill="none" viewBox="0 0 57 57"><rect width="56.752" height="56.752" fill="url(#paint0_linear_551_3029)" rx="8.255"/><path fill="url(#paint1_linear_551_3029)" d="m29.345 50.25-1.174-.388s.156-5.938-1.992-6.355c-1.406-1.637.208-69.908 5.348-.233a4.24 4.24 0 0 0-2.082 2.38 22 22 0 0 0-.1 4.597"/><path fill="url(#paint2_linear_551_3029)" d="M29.979 44.515A20.66 20.66 0 0 0 37.79 23.85c-2.296-10.133-7.736-13.464-8.321-14.736a15.3 15.3 0 0 1-1.29-2.5l.433 28.233s-.897 8.628 1.366 9.667"/><path fill="url(#paint3_linear_551_3029)" d="M27.574 44.89s-9.564-6.514-9.011-18.038a24.28 24.28 0 0 1 8.623-18.2 2.7 2.7 0 0 0 .949-2.151c.595 1.281.498 19.13.56 21.217.243 8.12-.45 15.639-1.121 17.172"/><defs><linearGradient id="paint0_linear_551_3029" x1="28.376" x2="28.376" y1="0" y2="56.752" gradientUnits="userSpaceOnUse"><stop stop-color="#fdfdfd"/><stop offset="1" stop-color="#f5f4f4"/></linearGradient><linearGradient id="paint1_linear_551_3029" x1="21.457" x2="34.944" y1="28.77" y2="33.347" gradientUnits="userSpaceOnUse"><stop offset=".231" stop-color="#999875"/><stop offset=".563" stop-color="#9b9977"/><stop offset=".683" stop-color="#a09f7e"/><stop offset=".768" stop-color="#a9a889"/><stop offset=".837" stop-color="#b7b69a"/><stop offset=".896" stop-color="#c9c7b0"/><stop offset=".948" stop-color="#deddcb"/><stop offset=".994" stop-color="#f8f6eb"/><stop offset="1" stop-color="#fbf9ef"/></linearGradient><linearGradient id="paint2_linear_551_3029" x1="26.402" x2="32.365" y1="6.413" y2="43.646" gradientUnits="userSpaceOnUse"><stop stop-color="#48a547"/><stop offset="1" stop-color="#3f9143"/></linearGradient><linearGradient id="paint3_linear_551_3029" x1="17.74" x2="33.741" y1="27.993" y2="22.634" gradientUnits="userSpaceOnUse"><stop stop-color="#41a247"/><stop offset=".352" stop-color="#4ba74b"/><stop offset=".956" stop-color="#67b554"/><stop offset="1" stop-color="#69b655"/></linearGradient></defs></svg>