<svg width="57" height="22" viewBox="0 0 57 22" fill="none" xmlns="http://www.w3.org/2000/svg">
<g filter="url(#filter0_dddd_551_2909)">
<path d="M51.6733 13.2202C51.8286 13.1294 51.9244 12.9637 51.9244 12.7836V11.6156C51.9244 11.436 51.8291 11.2703 51.6733 11.1795L47.5234 8.77007C47.3671 8.67927 47.1746 8.67878 47.0178 8.76908L42.842 11.18C42.6862 11.2703 42.59 11.4365 42.59 11.6166V16.4374C42.59 16.6185 42.6872 16.7862 42.845 16.876L46.9945 19.2402C47.1473 19.3281 47.3348 19.3286 47.4891 19.2432L49.9988 17.848C50.0787 17.8033 50.1283 17.72 50.1288 17.6297C50.1293 17.5384 50.0806 17.454 50.0017 17.4089L45.8002 14.9975C45.7213 14.9523 45.6732 14.869 45.6732 14.7792V13.2678C45.6732 13.1775 45.7213 13.0947 45.7992 13.05L47.1076 12.2959C47.185 12.2507 47.2812 12.2507 47.3591 12.2959L48.6675 13.05C48.7459 13.0952 48.7941 13.178 48.7941 13.2678V14.4567C48.7941 14.5475 48.8422 14.6308 48.9201 14.6755C48.9985 14.7206 49.0947 14.7206 49.1731 14.675L51.6733 13.2202Z" fill="#404137"/>
<path d="M47.2088 12.9939C47.239 12.977 47.2757 12.977 47.3055 12.9939L48.1068 13.4568C48.1366 13.4741 48.1549 13.5064 48.1549 13.5406V14.466C48.1549 14.5007 48.1366 14.5325 48.1068 14.5498L47.3055 15.0123C47.2757 15.0296 47.2385 15.0296 47.2088 15.0123L46.4079 14.5498C46.3777 14.5325 46.3593 14.5007 46.3593 14.466V13.5406C46.3593 13.5064 46.3777 13.4741 46.4079 13.4568L47.2088 12.9939Z" fill="#83CD29"/>
<path d="M36.3422 14.919C36.3422 14.9636 36.3183 15.0053 36.2791 15.0281L34.8452 15.8548C34.806 15.8776 34.7579 15.8776 34.7192 15.8548L33.2853 15.0281C33.2461 15.0053 33.2222 14.9636 33.2222 14.919V13.2628C33.2222 13.2181 33.2466 13.1759 33.2853 13.1531L34.7192 12.3255C34.7584 12.3022 34.8065 12.3022 34.8457 12.3255L36.2801 13.1531C36.3188 13.1759 36.3427 13.2181 36.3427 13.2628L36.3422 14.919ZM36.7297 2.65567C36.6518 2.6125 36.5565 2.6135 36.4791 2.65865C36.4022 2.7043 36.3546 2.78666 36.3546 2.87597V9.284C36.3546 9.34651 36.3208 9.40506 36.2667 9.43682C36.2122 9.46808 36.1447 9.46808 36.0901 9.43682L35.0442 8.83397C34.8884 8.74416 34.6964 8.74416 34.5406 8.83397L30.3638 11.2444C30.2075 11.3347 30.1113 11.5014 30.1113 11.6815V16.5038C30.1113 16.6839 30.2075 16.8501 30.3633 16.9409L34.5401 19.3528C34.6959 19.4431 34.8884 19.4431 35.0447 19.3528L39.2224 16.9409C39.3782 16.8501 39.4745 16.6839 39.4745 16.5038V4.48306C39.4745 4.30047 39.3752 4.13177 39.216 4.04246L36.7297 2.65567Z" fill="#404137"/>
<path d="M22.0302 8.74326C22.186 8.65296 22.3785 8.65296 22.5343 8.74326L26.711 11.1532C26.8668 11.2435 26.9631 11.4102 26.9631 11.5903V16.414C26.9631 16.5941 26.8668 16.7609 26.711 16.8512L22.5348 19.263C22.379 19.3529 22.1865 19.3529 22.0302 19.263L17.8549 16.8512C17.6991 16.7609 17.6028 16.5941 17.6028 16.414V11.5898C17.6028 11.4102 17.6991 11.2435 17.8549 11.1532L22.0302 8.74326Z" fill="#83CD29"/>
<path d="M14.4348 11.5501C14.4348 11.3685 14.3395 11.2018 14.1828 11.112L10.0075 8.70906C9.93604 8.66738 9.85715 8.64604 9.77726 8.64307H9.7341C9.65471 8.64604 9.57532 8.66738 9.50387 8.70906L5.32811 11.112C5.17281 11.2018 5.07556 11.3685 5.07556 11.5501L5.08449 18.0202C5.08449 18.1105 5.13163 18.1943 5.21052 18.238C5.28792 18.2846 5.38368 18.2846 5.46109 18.238L7.94193 16.817C8.09872 16.7237 8.19448 16.5594 8.19448 16.3793V13.3567C8.19448 13.1761 8.28975 13.0099 8.44604 12.9195L9.50288 12.3112C9.58128 12.2651 9.66761 12.2433 9.75493 12.2433C9.84127 12.2433 9.92959 12.2651 10.0065 12.3112L11.0623 12.9195C11.2186 13.0099 11.3149 13.1761 11.3149 13.3567V16.3793C11.3149 16.5594 11.4116 16.7247 11.5674 16.817L14.0483 18.238C14.1262 18.2846 14.2234 18.2846 14.3003 18.238C14.3772 18.1938 14.4254 18.11 14.4254 18.0202L14.4348 11.5501Z" fill="#404137"/>
</g>
<defs>
<filter id="filter0_dddd_551_2909" x="3.07556" y="0.624023" width="50.8488" height="20.7964" filterUnits="userSpaceOnUse" color-interpolation-filters="sRGB">
<feFlood flood-opacity="0" result="BackgroundImageFix"/>
<feColorMatrix in="SourceAlpha" type="matrix" values="0 0 0 0 0 0 0 0 0 0 0 0 0 0 0 0 0 0 127 0" result="hardAlpha"/>
<feOffset/>
<feGaussianBlur stdDeviation="0.5"/>
<feComposite in2="hardAlpha" operator="out"/>
<feColorMatrix type="matrix" values="0 0 0 0 0.513726 0 0 0 0 0.803922 0 0 0 0 0.160784 0 0 0 1 0"/>
<feBlend mode="normal" in2="BackgroundImageFix" result="effect1_dropShadow_551_2909"/>
<feColorMatrix in="SourceAlpha" type="matrix" values="0 0 0 0 0 0 0 0 0 0 0 0 0 0 0 0 0 0 127 0" result="hardAlpha"/>
<feOffset/>
<feGaussianBlur stdDeviation="0.25"/>
<feComposite in2="hardAlpha" operator="out"/>
<feColorMatrix type="matrix" values="0 0 0 0 0.513726 0 0 0 0 0.803922 0 0 0 0 0.160784 0 0 0 1 0"/>
<feBlend mode="normal" in2="effect1_dropShadow_551_2909" result="effect2_dropShadow_551_2909"/>
<feColorMatrix in="SourceAlpha" type="matrix" values="0 0 0 0 0 0 0 0 0 0 0 0 0 0 0 0 0 0 127 0" result="hardAlpha"/>
<feOffset/>
<feGaussianBlur stdDeviation="0.25"/>
<feComposite in2="hardAlpha" operator="out"/>
<feColorMatrix type="matrix" values="0 0 0 0 0.513726 0 0 0 0 0.803922 0 0 0 0 0.160784 0 0 0 1 0"/>
<feBlend mode="normal" in2="effect2_dropShadow_551_2909" result="effect3_dropShadow_551_2909"/>
<feColorMatrix in="SourceAlpha" type="matrix" values="0 0 0 0 0 0 0 0 0 0 0 0 0 0 0 0 0 0 127 0" result="hardAlpha"/>
<feOffset/>
<feGaussianBlur stdDeviation="1"/>
<feColorMatrix type="matrix" values="0 0 0 0 0.513726 0 0 0 0 0.803922 0 0 0 0 0.160784 0 0 0 1 0"/>
<feBlend mode="normal" in2="effect3_dropShadow_551_2909" result="effect4_dropShadow_551_2909"/>
<feBlend mode="normal" in="SourceGraphic" in2="effect4_dropShadow_551_2909" result="shape"/>
</filter>
</defs>
</svg>
