<svg width="57" height="23" viewBox="0 0 57 23" fill="none" xmlns="http://www.w3.org/2000/svg">
<g filter="url(#filter0_d_565_3097)">
<g filter="url(#filter1_ddd_565_3097)">
<path fill-rule="evenodd" clip-rule="evenodd" d="M37.5854 6.22458C37.6515 6.09762 37.7147 5.98551 37.7687 5.8695C37.8026 5.79528 37.855 5.78044 37.9288 5.78239C38.3714 5.79489 38.814 5.80856 39.2569 5.81286C39.6331 5.81676 40.0101 5.80973 40.3866 5.80544C40.8108 5.80036 41.2351 5.77809 41.6589 5.7902C42.2233 5.80661 42.7733 5.91715 43.2839 6.16833C43.8937 6.46872 44.355 6.92614 44.6694 7.52887C44.8702 7.91364 44.9866 8.32184 45.0331 8.75543C45.1003 9.38356 45.0562 9.99723 44.8569 10.598C44.6101 11.3425 44.1413 11.9125 43.4901 12.3394C42.989 12.6679 42.4394 12.8621 41.8503 12.973C41.2269 13.0906 40.6015 13.0527 39.9761 13.0547C39.2901 13.0574 38.6046 13.0425 37.9187 13.0347C37.7987 13.0336 37.7815 13.0109 37.8132 12.8965L37.8425 12.791C37.9093 12.5808 37.9452 12.5714 38.1585 12.5363C38.3062 12.5125 38.4593 12.457 38.5831 12.375C38.655 12.3273 38.6847 12.2031 38.7128 12.1074C38.737 12.0238 38.7382 11.932 38.739 11.8437C38.7487 10.5058 38.7589 9.16832 38.7644 7.83122C38.7655 7.49332 38.7577 7.15465 38.739 6.81715C38.7257 6.58082 38.5995 6.41911 38.3183 6.36325C38.0995 6.31989 37.8792 6.28629 37.6593 6.24762L37.5854 6.22458ZM43.8651 9.46403C43.8354 9.19762 43.821 8.92887 43.7733 8.66637C43.6593 8.03629 43.3835 7.48747 42.8991 7.05739C42.1159 6.36247 41.1729 6.25543 40.1847 6.33825C39.9597 6.357 39.9112 6.43395 39.9077 6.6652C39.9022 6.99332 39.8968 7.32145 39.8964 7.64958C39.8948 8.6902 39.8948 9.73083 39.8964 10.7715C39.8968 11.0675 39.8999 11.3636 39.9085 11.659C39.9179 11.9613 40.0276 12.2172 40.3237 12.3343C40.7905 12.5191 41.2815 12.541 41.7714 12.4656C42.5538 12.3457 43.1011 11.8898 43.4683 11.2066C43.7589 10.6644 43.8409 10.0726 43.8651 9.46403ZM45.7671 13.0074C45.7577 12.8453 45.8241 12.7113 45.9062 12.5882C45.9284 12.555 46.005 12.5566 46.0577 12.5461L46.5054 12.4574C46.6636 12.4238 46.7468 12.3175 46.769 12.1625C46.7839 12.0601 46.7979 11.9566 46.7991 11.8531C46.8089 11.0339 46.8183 10.2148 46.8222 9.39567C46.8261 8.57536 46.8229 7.75504 46.8229 6.93473L46.8194 6.77809C46.8034 6.51442 46.6761 6.3777 46.4144 6.33903L45.8468 6.2527C45.7769 6.24332 45.7515 6.20973 45.7769 6.14762C45.8206 6.04176 45.8624 5.932 45.9241 5.83669C45.9472 5.80153 46.0249 5.78786 46.0772 5.78903C46.3483 5.79294 46.6194 5.81325 46.8905 5.81286L49.2503 5.7988C49.705 5.7984 50.144 5.8777 50.5519 6.09528C51.0007 6.33434 51.2519 6.70426 51.3237 7.20817C51.3987 7.73747 51.2382 8.18356 50.8515 8.53786C50.6925 8.68395 50.4866 8.77926 50.3022 8.89801L50.2421 8.93551C50.4132 8.9984 50.5761 9.0527 50.7347 9.11754C51.1987 9.30778 51.5679 9.60505 51.7632 10.0797C51.9175 10.4543 51.9175 10.8449 51.8261 11.2332C51.6839 11.841 51.2835 12.2453 50.7628 12.5511C50.2741 12.8382 49.7452 13.0054 49.1819 13.0336C48.6624 13.0597 48.1405 13.05 47.6198 13.0558L47.3183 13.0574C46.8167 13.0461 46.3147 13.0332 45.8128 13.0199L45.7671 13.0074ZM47.93 10.6289H47.9351C47.9351 10.8859 47.9315 11.1429 47.9362 11.4C47.9394 11.5664 47.9335 11.7375 47.9694 11.8976C48.0233 12.1371 48.1327 12.3531 48.4015 12.4218C48.7644 12.5152 49.1351 12.5339 49.5022 12.4703C49.962 12.3902 50.3288 12.1597 50.53 11.7218C50.6792 11.3964 50.7015 11.0515 50.6503 10.6992C50.5823 10.2351 50.3358 9.8984 49.9261 9.6777C49.6573 9.53278 49.3706 9.44411 49.0651 9.43239C48.7229 9.4195 48.3804 9.41872 48.0382 9.40817C47.9421 9.40544 47.9288 9.45426 47.9292 9.53317C47.9312 9.89801 47.93 10.2632 47.93 10.6289ZM48.6585 8.88083C48.8456 8.87145 49.0573 8.86871 49.2679 8.84762C49.671 8.80739 49.955 8.60465 50.103 8.21911C50.1784 8.0234 50.1753 7.82184 50.1772 7.61833C50.1831 7.08825 49.8737 6.65387 49.3702 6.47418C48.9815 6.33551 48.5808 6.33317 48.1776 6.34411C48.0144 6.3484 47.9413 6.41989 47.939 6.58434L47.9147 8.72848C47.9136 8.81364 47.9503 8.85036 48.0331 8.85309L48.6585 8.88083Z" fill="#94795D"/>
<path fill-rule="evenodd" clip-rule="evenodd" d="M7.61827 12.5952L7.58975 12.9639C7.32413 12.9639 7.07921 12.962 6.83429 12.9647C6.37296 12.9694 5.91163 12.9768 5.44991 12.9834L5.40538 12.9862C5.33936 12.9784 5.21944 12.9784 5.21632 12.9588C5.19679 12.8491 5.20304 12.7338 5.20811 12.6202C5.2085 12.6073 5.25343 12.5909 5.2796 12.5846L5.63858 12.5045C5.86241 12.4463 5.94132 12.3499 5.95186 12.1186C5.96397 11.8581 5.97608 11.5971 5.97725 11.3366C5.98077 10.6952 5.97686 10.0545 5.9796 9.41313C5.97999 9.26313 5.92804 9.15141 5.78819 9.09048C5.62179 9.01704 5.4546 8.94517 5.28624 8.8772C5.20655 8.84517 5.10304 8.82759 5.11241 8.72056C5.12179 8.61157 5.22218 8.58306 5.31671 8.56157C5.70811 8.47212 6.09991 8.38501 6.49014 8.2897C6.61593 8.25884 6.73624 8.20688 6.88663 8.15454C6.89444 8.23579 6.90889 8.31313 6.90733 8.39048L6.88429 8.75806C6.88389 8.79946 6.90538 8.85493 6.93624 8.87798C6.95499 8.89243 7.01788 8.86626 7.04913 8.84204C7.38272 8.58813 7.73585 8.36899 8.13858 8.24126C8.76241 8.04321 9.29796 8.22681 9.67296 8.7647C9.80499 8.95415 9.80538 8.95415 9.98858 8.82173C10.303 8.59321 10.6319 8.39165 10.9999 8.25884C11.8077 7.96704 12.5839 8.33735 12.8648 9.15102C12.9671 9.44634 13.0062 9.75142 13.0054 10.0631L12.998 12.1327C12.9976 12.3034 13.0542 12.4006 13.2167 12.4538C13.3991 12.5135 13.5882 12.5545 13.7937 12.6084L13.746 12.9643C13.5124 12.9643 13.2976 12.9627 13.0827 12.9647C12.5577 12.9694 12.0327 12.9721 11.5081 12.9842C11.4167 12.9866 11.3929 12.9639 11.3882 12.8784C11.373 12.6045 11.3706 12.6049 11.6284 12.5432L11.7151 12.5209C11.9671 12.4522 12.0511 12.3749 12.053 12.1194C12.0589 11.3858 12.0741 10.6502 12.037 9.91821C11.9983 9.15884 11.3956 8.75454 10.6597 8.94907C10.4194 9.01235 10.2019 9.12329 9.99952 9.26704C9.93116 9.31587 9.91827 9.37212 9.92374 9.45767C9.94444 9.7811 9.95733 10.1049 9.96007 10.4288C9.96475 10.9956 9.95772 11.5624 9.96007 12.1295C9.96085 12.3592 10.0394 12.4471 10.2663 12.5002L10.6034 12.578L10.6659 12.592C10.6706 12.6999 10.6749 12.8077 10.6698 12.9155C10.6667 12.9831 10.6144 12.9889 10.5558 12.9877C10.228 12.9795 9.89991 12.9686 9.57218 12.9694C9.17335 12.9702 8.77491 12.9815 8.37647 12.9885H8.28272C8.28272 12.8741 8.27725 12.7647 8.28663 12.6557C8.28858 12.6295 8.33468 12.5928 8.36632 12.5846L8.75929 12.5014C8.92608 12.4604 9.00577 12.3749 9.01514 12.2053C9.05968 11.4202 9.09171 10.6346 9.01788 9.84985C9.00343 9.69751 8.95382 9.54282 8.89054 9.40259C8.68936 8.95806 8.23663 8.77251 7.71436 8.9061C7.46632 8.96938 7.24249 9.08305 7.03077 9.22641C6.93077 9.29438 6.88311 9.38423 6.88311 9.4979C6.88311 10.2811 6.88585 11.0643 6.88819 11.8471L6.89249 12.1491C6.89718 12.3596 6.98663 12.4706 7.19561 12.5159C7.32999 12.5463 7.46593 12.567 7.61827 12.5952Z" fill="#50382B"/>
<path fill-rule="evenodd" clip-rule="evenodd" d="M31.2346 8.23453C31.2951 8.52906 31.294 8.7939 31.0776 8.99468C30.8627 9.19429 30.5908 9.1271 30.3256 9.08257C30.3502 9.22242 30.3776 9.34117 30.3908 9.46148C30.4873 10.3556 30.1026 11.0193 29.2733 11.3986C28.96 11.5416 28.6276 11.5947 28.2881 11.622C28.1194 11.6353 27.9717 11.7642 27.9557 11.9029C27.9393 12.0435 28.0276 12.188 28.2041 12.2302C28.4123 12.2798 28.6295 12.2939 28.8432 12.3185C29.3018 12.3709 29.7655 12.3947 30.2186 12.4767C30.9037 12.6001 31.2862 13.1982 31.1655 13.8865C31.058 14.499 30.7033 14.9447 30.2088 15.2865C29.3756 15.8638 28.4615 16.0326 27.4881 15.738C26.9315 15.5693 26.5389 15.2033 26.4033 14.6111C26.3354 14.3146 26.4076 14.0462 26.6307 13.8451C26.8959 13.6068 27.1846 13.3943 27.4623 13.1693L27.5522 13.0791L27.449 13.0068C27.1658 12.8724 26.9393 12.6884 26.8514 12.3689C26.8213 12.2607 26.8526 12.1896 26.9444 12.1341C27.1006 12.04 27.2561 11.9443 27.4104 11.847C27.483 11.8017 27.5549 11.7548 27.6225 11.7025C27.7147 11.6322 27.7065 11.5798 27.5963 11.5392C27.3401 11.4447 27.1123 11.3076 26.9358 11.0966C26.6408 10.7447 26.5573 10.3255 26.5815 9.88296C26.6194 9.19155 26.9947 8.73609 27.6049 8.44312C28.3303 8.09507 29.058 8.0732 29.7975 8.39038C30.0709 8.50757 30.3592 8.53257 30.6526 8.51226C30.8717 8.49664 31.0631 8.41382 31.2346 8.23453ZM28.5615 13.188C28.017 13.1834 27.8463 13.2505 27.5268 13.5759C27.169 13.9408 27.1709 14.4466 27.528 14.813C27.799 15.0908 28.1373 15.2209 28.5135 15.2599C28.953 15.3052 29.3858 15.2869 29.785 15.0669C30.2108 14.8314 30.4225 14.3939 30.3268 13.9533C30.2475 13.5896 29.9795 13.4232 29.6533 13.3275C29.2823 13.2189 28.8987 13.1982 28.5615 13.188ZM27.492 9.70835C27.5119 9.85952 27.5201 10.0127 27.5537 10.1607C27.6408 10.5443 27.8076 10.8814 28.1893 11.0521C28.6373 11.2533 29.2096 11.1669 29.4057 10.538C29.5401 10.1072 29.5237 9.67945 29.3615 9.25913C29.2893 9.07163 29.1729 8.91304 29.0061 8.79663C28.617 8.52515 27.9151 8.48921 27.6291 9.08921C27.5362 9.28413 27.4998 9.49156 27.492 9.70835Z" fill="#4F382B"/>
<path fill-rule="evenodd" clip-rule="evenodd" d="M21.996 8.13813C22.0104 8.20493 22.0393 8.28071 22.0401 8.35688C22.0413 8.5018 22.0257 8.64672 22.0175 8.79164V8.91742L22.1401 8.82368C22.4761 8.54711 22.837 8.31157 23.2573 8.18461C24.0159 7.9561 24.7737 8.37133 25.021 9.14399C25.1147 9.43774 25.1518 9.73969 25.1554 10.0467C25.1632 10.7288 25.1679 11.4108 25.1749 12.0928C25.1772 12.3377 25.2054 12.3815 25.437 12.4522C25.5683 12.4924 25.7038 12.5205 25.8393 12.5416C25.914 12.5534 25.946 12.5827 25.9421 12.6557L25.9429 12.7229C25.9401 13.0053 25.9206 13.0182 25.6468 13.0174C24.9913 13.0163 24.3362 13.0202 23.6808 13.0256C23.4854 13.0272 23.4851 13.033 23.4655 12.8401L23.4616 12.7291C23.4737 12.5627 23.4776 12.5643 23.6413 12.5401C23.7515 12.5237 23.8608 12.4983 23.9683 12.4702C24.0788 12.4416 24.1319 12.36 24.1468 12.2506C24.1542 12.1952 24.164 12.1397 24.1636 12.0842C24.1542 11.3389 24.1663 10.5928 24.1257 9.84868C24.0929 9.24672 23.6335 8.88813 23.0292 8.92915C22.7327 8.94985 22.4647 9.04868 22.2202 9.21938C22.0589 9.33227 22.0265 9.49516 22.0272 9.67055C22.0304 10.3674 22.037 11.0643 22.0444 11.7616C22.046 11.9143 22.0503 12.067 22.0647 12.2186C22.08 12.3842 22.1382 12.451 22.3007 12.487C22.4561 12.5213 22.6147 12.5413 22.7808 12.569L22.7948 12.6971C22.8003 12.9959 22.769 13.0182 22.4788 13.017C21.8011 13.0143 21.1233 13.0186 20.446 13.026C20.3393 13.0276 20.294 12.994 20.2968 12.8901L20.2952 12.8456C20.2776 12.5764 20.2854 12.5663 20.5401 12.5225L20.6604 12.4983C20.9362 12.4362 21.0069 12.3627 21.0108 12.0827C21.0237 11.1956 21.0284 10.3088 21.0374 9.42172C21.0386 9.29438 20.9905 9.19555 20.8718 9.14282C20.7054 9.06938 20.5374 8.99946 20.369 8.93032C20.2761 8.89204 20.1698 8.86782 20.1663 8.7393C20.164 8.64868 20.2608 8.5686 20.3933 8.54164C20.6593 8.48774 20.9276 8.44282 21.1905 8.3768C21.4522 8.31157 21.7093 8.22407 21.996 8.13813Z" fill="#4F372B"/>
<path fill-rule="evenodd" clip-rule="evenodd" d="M36.6502 10.4553C36.6377 11.2838 36.4225 11.9537 35.8366 12.4565C35.0944 13.0943 33.9366 13.3111 32.9901 12.8342C32.5862 12.6307 32.2893 12.3186 32.0959 11.9135C31.7995 11.2904 31.7252 10.6354 31.8799 9.96427C32.0331 9.3006 32.435 8.81974 33.0366 8.50841C33.6553 8.18849 34.3069 8.06349 34.994 8.23146C35.8631 8.44357 36.4877 9.15216 36.612 10.0545C36.6342 10.2127 36.6428 10.3729 36.6502 10.4553ZM35.6436 10.9041L35.61 10.9002C35.61 10.8221 35.6143 10.744 35.6092 10.6658C35.5807 10.1791 35.4713 9.71544 35.1893 9.30802C34.9217 8.92208 34.5573 8.69435 34.0831 8.66115C33.5522 8.62365 33.1061 8.92052 32.9495 9.46271C32.7143 10.2768 32.794 11.0701 33.2073 11.8158C33.3873 12.1408 33.6541 12.3807 34.0116 12.5068C34.712 12.7533 35.3331 12.4342 35.5155 11.717C35.5827 11.4522 35.6022 11.1752 35.6436 10.9041Z" fill="#4F382B"/>
<path fill-rule="evenodd" clip-rule="evenodd" d="M19.4448 10.5194C19.4304 11.1139 19.2901 11.6635 18.923 12.1412C18.5296 12.6529 17.989 12.9264 17.3741 13.0416C16.6472 13.1776 15.9644 13.0541 15.3804 12.5662C15.103 12.3342 14.9136 12.0369 14.7886 11.6986C14.5835 11.144 14.5323 10.5756 14.6585 9.9963C14.7933 9.37638 15.1433 8.90255 15.6858 8.58458C16.3132 8.21779 16.9901 8.05412 17.7132 8.21896C18.6429 8.43146 19.1796 9.03732 19.378 9.95451C19.4179 10.1397 19.4233 10.3311 19.4448 10.5194ZM18.4269 10.9115L18.3999 10.9076V10.7959C18.3847 10.2506 18.278 9.73107 17.9526 9.27794C17.7116 8.94162 17.389 8.73068 16.9753 8.67169C16.3011 8.5756 15.8605 8.9756 15.7144 9.51896C15.5237 10.2287 15.5835 10.9299 15.8784 11.6029C16.0624 12.0225 16.353 12.3494 16.7995 12.508C17.4956 12.7553 18.1261 12.4279 18.3023 11.7135C18.3671 11.4522 18.3866 11.1795 18.4269 10.9115Z" fill="#4F372B"/>
</g>
</g>
<defs>
<filter id="filter0_d_565_3097" x="-4" y="-0.248291" width="65" height="28.1592" filterUnits="userSpaceOnUse" color-interpolation-filters="sRGB">
<feFlood flood-opacity="0" result="BackgroundImageFix"/>
<feColorMatrix in="SourceAlpha" type="matrix" values="0 0 0 0 0 0 0 0 0 0 0 0 0 0 0 0 0 0 127 0" result="hardAlpha"/>
<feOffset dy="3"/>
<feGaussianBlur stdDeviation="2"/>
<feComposite in2="hardAlpha" operator="out"/>
<feColorMatrix type="matrix" values="0 0 0 0 0 0 0 0 0 0 0 0 0 0 0 0 0 0 0.25 0"/>
<feBlend mode="normal" in2="BackgroundImageFix" result="effect1_dropShadow_565_3097"/>
<feBlend mode="normal" in="SourceGraphic" in2="effect1_dropShadow_565_3097" result="shape"/>
</filter>
<filter id="filter1_ddd_565_3097" x="4.11182" y="4.78223" width="48.7765" height="12.0981" filterUnits="userSpaceOnUse" color-interpolation-filters="sRGB">
<feFlood flood-opacity="0" result="BackgroundImageFix"/>
<feColorMatrix in="SourceAlpha" type="matrix" values="0 0 0 0 0 0 0 0 0 0 0 0 0 0 0 0 0 0 127 0" result="hardAlpha"/>
<feOffset/>
<feGaussianBlur stdDeviation="0.5"/>
<feComposite in2="hardAlpha" operator="out"/>
<feColorMatrix type="matrix" values="0 0 0 0 0.666667 0 0 0 0 0.666667 0 0 0 0 0.666667 0 0 0 1 0"/>
<feBlend mode="normal" in2="BackgroundImageFix" result="effect1_dropShadow_565_3097"/>
<feColorMatrix in="SourceAlpha" type="matrix" values="0 0 0 0 0 0 0 0 0 0 0 0 0 0 0 0 0 0 127 0" result="hardAlpha"/>
<feOffset/>
<feGaussianBlur stdDeviation="0.5"/>
<feComposite in2="hardAlpha" operator="out"/>
<feColorMatrix type="matrix" values="0 0 0 0 0.666667 0 0 0 0 0.666667 0 0 0 0 0.666667 0 0 0 1 0"/>
<feBlend mode="normal" in2="effect1_dropShadow_565_3097" result="effect2_dropShadow_565_3097"/>
<feColorMatrix in="SourceAlpha" type="matrix" values="0 0 0 0 0 0 0 0 0 0 0 0 0 0 0 0 0 0 127 0" result="hardAlpha"/>
<feOffset/>
<feGaussianBlur stdDeviation="0.5"/>
<feComposite in2="hardAlpha" operator="out"/>
<feColorMatrix type="matrix" values="0 0 0 0 0.666667 0 0 0 0 0.666667 0 0 0 0 0.666667 0 0 0 1 0"/>
<feBlend mode="normal" in2="effect2_dropShadow_565_3097" result="effect3_dropShadow_565_3097"/>
<feBlend mode="normal" in="SourceGraphic" in2="effect3_dropShadow_565_3097" result="shape"/>
</filter>
</defs>
</svg>
