<svg xmlns="http://www.w3.org/2000/svg" width="57" height="57" fill="none" viewBox="0 0 57 57"><rect width="56.752" height="56.752" x="-.003" fill="url(#paint0_linear_92_679)" rx="8.255"/><path fill="#83cd29" d="M28.373 50.947c-.61 0-1.208-.16-1.735-.464l-5.52-3.268c-.824-.461-.423-.624-.15-.72.876-.27 1.715-.65 2.497-1.128a.42.42 0 0 1 .411.03l4.242 2.52a.55.55 0 0 0 .513 0l16.541-9.547a.52.52 0 0 0 .254-.448v-19.1a.53.53 0 0 0-.257-.455l-16.542-9.54a.52.52 0 0 0-.51 0L11.583 18.37a.53.53 0 0 0-.261.453v19.09a.51.51 0 0 0 .26.442l4.536 2.619c2.46 1.228 3.965-.22 3.965-1.674V20.451a.484.484 0 0 1 .484-.483h2.096a.484.484 0 0 1 .483.483v18.85c0 3.282-1.786 5.16-4.898 5.16a7.1 7.1 0 0 1-3.81-1.035l-4.348-2.494a3.49 3.49 0 0 1-1.735-3.018V18.823A3.49 3.49 0 0 1 10.09 15.8l16.544-9.551a3.62 3.62 0 0 1 3.476 0l16.542 9.55a3.49 3.49 0 0 1 1.736 3.016v19.099a3.5 3.5 0 0 1-1.736 3.018l-16.542 9.55a3.47 3.47 0 0 1-1.738.465"/><path fill="#83cd29" d="M25.235 31.524a.484.484 0 0 1 .484-.484h2.14a.484.484 0 0 1 .475.405c.323 2.178 1.29 3.276 5.664 3.276 3.484 0 4.969-.788 4.969-2.637 0-1.066-.42-1.858-5.836-2.388-4.528-.448-7.326-1.451-7.326-5.07 0-3.337 2.813-5.328 7.529-5.328 5.3 0 7.922 1.84 8.255 5.787a.484.484 0 0 1-.476.52h-2.154a.48.48 0 0 1-.464-.373c-.515-2.292-1.774-3.023-5.16-3.023-3.805 0-4.246 1.325-4.246 2.318 0 1.203.522 1.554 5.659 2.233 5.083.672 7.498 1.623 7.498 5.196 0 3.605-3.005 5.669-8.246 5.669-7.247.01-8.765-3.313-8.765-6.1"/><defs><linearGradient id="paint0_linear_92_679" x1="28.373" x2="28.373" y1="0" y2="56.752" gradientUnits="userSpaceOnUse"><stop stop-color="#fdfdfd"/><stop offset="1" stop-color="#f5f4f4"/></linearGradient></defs></svg>