<svg width="57" height="24" viewBox="0 0 57 24" fill="none" xmlns="http://www.w3.org/2000/svg">
<g filter="url(#filter0_d_579_916)">
<g filter="url(#filter1_ddd_579_916)">
<path d="M14.2726 4.75944C13.6117 4.75944 13.0753 4.97064 12.6634 5.39046C12.2515 5.81029 12.0407 6.36405 12.0407 7.03886C12.0407 7.38914 12.0934 7.70852 12.194 8.00214C12.2946 8.29576 12.4574 8.56878 12.6681 8.81346C12.8789 9.05815 13.3099 9.39298 13.9493 9.84371C14.7324 10.3588 15.2425 10.7761 15.4916 11.1006C15.7229 11.3839 15.8535 11.7462 15.8604 12.1231C15.8604 12.5996 15.7167 12.9782 15.415 13.2641C15.1132 13.55 14.7133 13.6917 14.2176 13.6917C13.6907 13.6917 13.2597 13.4934 12.843 13.0993C12.4263 12.7052 12.2515 12.1798 12.2443 11.523H12V13.9029H12.2443C12.3161 13.6762 12.4215 13.5629 12.5556 13.5629C12.6202 13.5629 12.7711 13.6144 13.0345 13.702C13.6093 13.9235 14.0835 14.0291 14.457 14.0291C15.0988 14.0291 15.6448 13.787 16.1023 13.2976C16.3227 13.068 16.4971 12.7924 16.6149 12.4877C16.7327 12.183 16.7913 11.8556 16.7872 11.5256C16.7872 10.9899 16.6363 10.5134 16.3369 10.0987C16.0376 9.68402 15.4605 9.19723 14.5935 8.64347C13.8512 8.16183 13.365 7.76776 13.1423 7.46384C12.9243 7.17857 12.805 6.82086 12.8046 6.45162C12.7985 6.2681 12.832 6.08556 12.9027 5.91838C12.9733 5.75121 13.0791 5.60398 13.2118 5.48834C13.4824 5.2488 13.8344 5.12775 14.2774 5.12775C14.7755 5.12775 15.1874 5.28744 15.5179 5.60681C15.8594 5.95744 16.0647 6.43413 16.0927 6.94099H16.3369V4.88049H16.1094C16.0807 4.98352 16.0567 5.05306 16.0328 5.08654C16.0089 5.12002 15.9657 5.1329 15.9011 5.1329C15.8221 5.1329 15.6808 5.09684 15.482 5.02988C15.0509 4.87534 14.6582 4.79807 14.2966 4.79807L14.2726 4.75944ZM22.2472 4.75944C21.4426 4.75944 20.7146 4.96549 20.0512 5.37243C19.3952 5.77479 18.8524 6.36035 18.4803 7.06719C18.1002 7.76557 17.901 8.56062 17.9031 9.3698C17.8947 10.4453 18.2524 11.4869 18.9089 12.2983C19.5795 13.1534 20.3889 13.6891 21.3229 13.8952C21.5384 14.0162 21.8425 14.3253 22.2425 14.8224C22.6975 15.389 23.0758 15.796 23.3919 16.0381C23.6991 16.2759 24.0405 16.4578 24.4025 16.5764C24.7803 16.6965 25.1725 16.7555 25.5664 16.7515C26.0741 16.7515 26.5243 16.6562 26.9314 16.4605L26.8404 16.2209C26.6081 16.3111 26.3615 16.3549 26.098 16.3549C25.7436 16.3549 25.3868 16.2261 25.0276 15.9763C24.6684 15.7264 24.2205 15.2422 23.6865 14.5339L23.1644 13.8952C24.1894 13.6814 25.0324 13.1482 25.6861 12.2931C26.3294 11.4781 26.6787 10.4414 26.6704 9.37237C26.6813 8.76073 26.573 8.15341 26.3523 7.58957C26.1316 7.02573 25.8035 6.51788 25.3892 6.09876C24.5366 5.21017 23.4901 4.75944 22.2472 4.75944ZM27.2284 4.75944L27.2404 5.04275C27.7768 5.04275 28.0785 5.21274 28.1432 5.55273C28.1671 5.67378 28.1791 5.90044 28.1815 6.22239L28.1767 12.4348C28.1719 12.8984 28.1097 13.1946 27.9923 13.3234C27.875 13.4522 27.6738 13.5294 27.384 13.5629L27.3721 13.8462H32.7124L32.8489 12.4374H32.6046C32.5328 12.8237 32.3747 13.0967 32.1209 13.2513C31.8671 13.4058 31.4144 13.4831 30.7631 13.4831H30.2602C29.6734 13.4831 29.3358 13.2564 29.2448 12.7979C29.2267 12.7013 29.2179 12.6029 29.2184 12.5043L29.2424 6.21981C29.2424 5.7562 29.2975 5.44713 29.41 5.29259C29.5226 5.13805 29.7285 5.05563 30.0255 5.03503L30.0135 4.75171L27.2284 4.75944ZM22.3335 5.09942C22.763 5.08938 23.1886 5.1895 23.5751 5.39149C23.9615 5.59349 24.2977 5.89155 24.5558 6.26102C25.1306 7.03371 25.4131 8.10001 25.4131 9.44706C25.4131 10.7246 25.1258 11.7445 24.551 12.5121C24.279 12.8849 23.929 13.1834 23.5296 13.3835C23.1301 13.5835 22.6924 13.6794 22.252 13.6634C21.8185 13.6743 21.3889 13.5719 21.0002 13.3651C20.6115 13.1583 20.2752 12.8532 20.0201 12.476C19.4501 11.6827 19.1676 10.6525 19.1676 9.38525C19.1676 8.08456 19.4549 7.06719 20.0297 6.2636C20.6044 5.46 21.3708 5.09942 22.3382 5.09942H22.3335ZM34.6187 6.43874C34.4893 6.43874 34.3888 6.4851 34.3145 6.5804C34.2771 6.62819 34.251 6.68502 34.2385 6.74603C34.226 6.80704 34.2274 6.8704 34.2427 6.93068C34.272 7.07206 34.3466 7.19786 34.4534 7.28612C34.566 7.38914 34.6881 7.44066 34.8174 7.44066C34.9467 7.44066 35.0401 7.38914 35.1096 7.28612C35.179 7.18309 35.2006 7.06719 35.1742 6.93068C35.1479 6.79418 35.0784 6.67312 34.9731 6.5804C34.8677 6.48768 34.7456 6.43874 34.6187 6.43874ZM38.139 7.39172C37.9187 8.30864 37.4373 8.80316 36.7021 8.88558L36.7117 9.14829H37.5738L37.5618 12.2442L37.6097 13.3079C37.6935 13.738 37.957 13.957 38.3928 13.957C39.025 13.957 39.686 13.5449 40.3805 12.713L40.1697 12.5198C39.6668 13.0658 39.2262 13.3388 38.8382 13.3388C38.5988 13.3388 38.4551 13.192 38.3976 12.901C38.3816 12.8188 38.3744 12.735 38.3761 12.6511L38.3856 9.13799H39.7028L39.6908 8.71816H38.3928V7.38399L38.139 7.39172ZM43.2207 8.56105C42.4855 8.56105 41.8868 8.94739 41.4246 9.7072C40.9624 10.467 40.8187 11.317 41.0007 12.2493C41.0766 12.7383 41.3046 13.1851 41.6473 13.5165C41.973 13.8153 42.3897 13.9621 42.8806 13.9621C43.3404 13.9621 43.9822 13.8333 44.2504 13.5835C44.5187 13.3337 44.7701 12.9216 45 12.3627L44.8156 12.1566C44.4492 12.8829 43.7092 13.2487 43.1488 13.2487C42.3825 13.2487 41.9107 12.7954 41.712 11.8939C41.6888 11.7723 41.672 11.6493 41.6617 11.5256C42.5717 11.3711 43.2662 11.0955 43.7332 10.6962C44.2001 10.297 44.6671 9.87204 44.5809 9.42904C44.5337 9.17539 44.3995 8.95012 44.2049 8.79801C44.0062 8.64347 43.4865 8.55848 43.1991 8.55848L43.2207 8.56105ZM35.1838 8.59453L33.5985 8.98603V9.28995L34.1493 9.21268C34.4127 9.21268 34.5708 9.34146 34.621 9.59903C34.641 9.71718 34.6514 9.83696 34.6522 9.95704L34.6354 12.7439C34.6306 13.1302 34.5923 13.3543 34.5109 13.4212C34.4295 13.4882 34.2163 13.5243 33.8739 13.5243L33.8643 13.787H36.3788L36.374 13.5243C36.0244 13.5243 35.7993 13.4985 35.6987 13.4367C35.5981 13.3749 35.5311 13.2744 35.5023 13.1147C35.4784 12.9988 35.4688 12.8005 35.4688 12.5224L35.4784 8.58938H35.191L35.1838 8.59453ZM42.8184 9.10966C42.9716 9.10966 43.1201 9.17405 43.2686 9.29768C43.4171 9.42131 43.5081 9.56039 43.532 9.70978C43.6757 10.4516 43.065 10.9615 41.688 11.2474C41.6497 10.7323 41.7359 10.2172 41.9586 9.77417C42.1813 9.33116 42.4663 9.10451 42.816 9.10451L42.8184 9.10966Z" fill="#003B57"/>
</g>
</g>
<defs>
<filter id="filter0_d_579_916" x="-4" y="-0.248291" width="65" height="29" filterUnits="userSpaceOnUse" color-interpolation-filters="sRGB">
<feFlood flood-opacity="0" result="BackgroundImageFix"/>
<feColorMatrix in="SourceAlpha" type="matrix" values="0 0 0 0 0 0 0 0 0 0 0 0 0 0 0 0 0 0 127 0" result="hardAlpha"/>
<feOffset dy="3"/>
<feGaussianBlur stdDeviation="2"/>
<feComposite in2="hardAlpha" operator="out"/>
<feColorMatrix type="matrix" values="0 0 0 0 0 0 0 0 0 0 0 0 0 0 0 0 0 0 0.25 0"/>
<feBlend mode="normal" in2="BackgroundImageFix" result="effect1_dropShadow_579_916"/>
<feBlend mode="normal" in="SourceGraphic" in2="effect1_dropShadow_579_916" result="shape"/>
</filter>
<filter id="filter1_ddd_579_916" x="11" y="3.75171" width="35" height="14" filterUnits="userSpaceOnUse" color-interpolation-filters="sRGB">
<feFlood flood-opacity="0" result="BackgroundImageFix"/>
<feColorMatrix in="SourceAlpha" type="matrix" values="0 0 0 0 0 0 0 0 0 0 0 0 0 0 0 0 0 0 127 0" result="hardAlpha"/>
<feOffset/>
<feGaussianBlur stdDeviation="0.5"/>
<feComposite in2="hardAlpha" operator="out"/>
<feColorMatrix type="matrix" values="0 0 0 0 0.666667 0 0 0 0 0.666667 0 0 0 0 0.666667 0 0 0 1 0"/>
<feBlend mode="normal" in2="BackgroundImageFix" result="effect1_dropShadow_579_916"/>
<feColorMatrix in="SourceAlpha" type="matrix" values="0 0 0 0 0 0 0 0 0 0 0 0 0 0 0 0 0 0 127 0" result="hardAlpha"/>
<feOffset/>
<feGaussianBlur stdDeviation="0.5"/>
<feComposite in2="hardAlpha" operator="out"/>
<feColorMatrix type="matrix" values="0 0 0 0 0.666667 0 0 0 0 0.666667 0 0 0 0 0.666667 0 0 0 1 0"/>
<feBlend mode="normal" in2="effect1_dropShadow_579_916" result="effect2_dropShadow_579_916"/>
<feColorMatrix in="SourceAlpha" type="matrix" values="0 0 0 0 0 0 0 0 0 0 0 0 0 0 0 0 0 0 127 0" result="hardAlpha"/>
<feOffset/>
<feGaussianBlur stdDeviation="0.5"/>
<feComposite in2="hardAlpha" operator="out"/>
<feColorMatrix type="matrix" values="0 0 0 0 0.666667 0 0 0 0 0.666667 0 0 0 0 0.666667 0 0 0 1 0"/>
<feBlend mode="normal" in2="effect2_dropShadow_579_916" result="effect3_dropShadow_579_916"/>
<feBlend mode="normal" in="SourceGraphic" in2="effect3_dropShadow_579_916" result="shape"/>
</filter>
</defs>
</svg>
