<svg width="57" height="23" viewBox="0 0 57 23" fill="none" xmlns="http://www.w3.org/2000/svg">
<g filter="url(#filter0_d_565_3084)">
<path d="M5.70315 13.4871H7.30784V7.15003L9.79221 12.6746C10.0852 13.3434 10.4864 13.5797 11.2735 13.5797C12.0606 13.5797 12.4465 13.3434 12.7395 12.6746L15.2239 7.15003V13.4871H16.8285V7.16058C16.8285 6.54339 16.5817 6.24456 16.0723 6.09066C14.8531 5.71019 14.0352 6.03949 13.6649 6.86253L11.227 12.3149L8.86643 6.86214C8.51135 6.03949 7.67815 5.71019 6.45901 6.09027C5.94963 6.24457 5.70276 6.543 5.70276 7.16019L5.70315 13.4871ZM18.1633 8.32855H19.7676V11.82C19.7528 12.0094 19.8285 12.4547 20.7074 12.4688C21.1559 12.4758 24.1692 12.4688 24.1973 12.4688V8.31136H25.8055C25.8129 8.31136 25.8039 13.9809 25.8039 14.0043C25.8125 15.4028 24.0692 15.7063 23.2653 15.7297H18.1981V14.65C18.2067 14.65 23.2617 14.6512 23.2742 14.6496C24.3074 14.5407 24.1852 14.0274 24.1848 13.8547V13.4336H20.7742C19.1875 13.4192 18.1766 12.7266 18.1637 11.9297C18.1629 11.8567 18.1985 8.3637 18.1633 8.32855Z" fill="#00618A"/>
<path d="M27.0426 13.4872H31.6567C32.1969 13.4872 32.7219 13.3743 33.1383 13.179C33.8324 12.8603 34.1719 12.4282 34.1719 11.8618V10.6892C34.1719 10.2263 33.7864 9.79385 33.0301 9.50635C32.6289 9.35166 32.1348 9.27002 31.6563 9.27002H29.7117C29.0637 9.27002 28.7551 9.07471 28.6781 8.64267C28.6629 8.59111 28.6629 8.5501 28.6629 8.49853V7.76807C28.6629 7.72705 28.6629 7.68564 28.6781 7.63447C28.7551 7.30517 28.925 7.2126 29.4961 7.16103L29.6504 7.15088H34.2336V6.08135H29.7278C29.0797 6.08135 28.7403 6.12236 28.4317 6.21494C27.475 6.51338 27.0578 6.98642 27.0578 7.80947V8.74541C27.0578 9.46572 27.8762 10.0829 29.2492 10.227C29.4039 10.2368 29.5578 10.2478 29.7121 10.2478H31.3789C31.4407 10.2478 31.5024 10.2478 31.5489 10.2575C32.0582 10.2985 32.2739 10.3915 32.4285 10.5763C32.5211 10.6688 32.5516 10.7618 32.5516 10.8642V11.8005C32.5516 11.9134 32.4746 12.0575 32.3203 12.181C32.1817 12.3044 31.95 12.3868 31.6414 12.4075L31.4715 12.4177H27.0426V13.4872ZM44.1836 11.6255C44.1836 12.7259 45.0016 13.3431 46.6524 13.4669C46.8067 13.477 46.961 13.4872 47.1153 13.4872H51.2973V12.4177H47.0848C46.1434 12.4177 45.7887 12.181 45.7887 11.6149V6.08057H44.184L44.1836 11.6255ZM35.1961 11.681V7.8665C35.1961 6.89775 35.8766 6.30986 37.2219 6.12432C37.361 6.10361 37.516 6.09346 37.6547 6.09346H40.7012C40.8559 6.09346 40.9949 6.10361 41.1492 6.12432C42.4946 6.30986 43.1754 6.89736 43.1754 7.8665V11.681C43.1754 12.4677 42.8864 12.888 42.2203 13.1622L43.8016 14.5892H41.9379L40.659 13.4345L39.3715 13.5161H37.6547C37.361 13.5161 37.052 13.4751 36.7117 13.3821C35.691 13.104 35.1961 12.5677 35.1961 11.681ZM36.9281 11.5884C36.9281 11.6399 36.9434 11.6919 36.959 11.7536C37.0516 12.197 37.4696 12.4442 38.1031 12.4442H39.561L38.2219 11.2353H40.0856L41.2531 12.2899C41.4688 12.1747 41.6102 11.9997 41.6598 11.7743C41.675 11.7228 41.675 11.6712 41.675 11.6196V7.96025C41.675 7.91924 41.675 7.86729 41.6598 7.81572C41.5668 7.40322 41.1492 7.1665 40.5309 7.1665H38.1028C37.3918 7.1665 36.9278 7.47588 36.9278 7.96025L36.9281 11.5884Z" fill="#E48E00"/>
</g>
<defs>
<filter id="filter0_d_565_3084" x="-4" y="-0.248291" width="65" height="28.1592" filterUnits="userSpaceOnUse" color-interpolation-filters="sRGB">
<feFlood flood-opacity="0" result="BackgroundImageFix"/>
<feColorMatrix in="SourceAlpha" type="matrix" values="0 0 0 0 0 0 0 0 0 0 0 0 0 0 0 0 0 0 127 0" result="hardAlpha"/>
<feOffset dy="3"/>
<feGaussianBlur stdDeviation="2"/>
<feComposite in2="hardAlpha" operator="out"/>
<feColorMatrix type="matrix" values="0 0 0 0 0 0 0 0 0 0 0 0 0 0 0 0 0 0 0.25 0"/>
<feBlend mode="normal" in2="BackgroundImageFix" result="effect1_dropShadow_565_3084"/>
<feBlend mode="normal" in="SourceGraphic" in2="effect1_dropShadow_565_3084" result="shape"/>
</filter>
</defs>
</svg>
