<svg width="57" height="22" viewBox="0 0 57 22" fill="none" xmlns="http://www.w3.org/2000/svg">
<g filter="url(#filter0_dd_579_960)">
<path d="M9.89333 5.68163H7.41256V13.5982H6.46866V5.68163H4V4.81289H9.89333V5.68163Z" fill="#007ACC"/>
<path d="M13.2972 7.43135H14.229L11.4336 15.7517H10.5139L11.361 13.2311L9.18274 7.43135H10.1266L11.7724 11.9953L13.2972 7.43135Z" fill="#007ACC"/>
<path d="M19.8716 10.4291C19.8716 10.9512 19.807 11.4162 19.6779 11.824C19.5569 12.2319 19.3996 12.5663 19.206 12.8273C19.0043 13.1047 18.7502 13.3168 18.4436 13.4636C18.1451 13.6104 17.8385 13.6839 17.5239 13.6839C17.1205 13.6839 16.7615 13.5778 16.4469 13.3657C16.1403 13.1455 15.9427 12.9293 15.8539 12.7172V15.7517H14.9584V7.43135H15.8539V8.26339C16.2654 7.61081 16.8019 7.28452 17.4634 7.28452C17.8507 7.28452 18.1976 7.37425 18.5041 7.55371C18.8188 7.73317 19.0769 7.96973 19.2786 8.26339C19.4642 8.54889 19.6094 8.87926 19.7142 9.25449C19.8191 9.62972 19.8716 10.0213 19.8716 10.4291ZM18.9277 10.4903C18.9277 10.1559 18.8873 9.84181 18.8067 9.54815C18.734 9.24633 18.6251 8.9853 18.4799 8.76506C18.3428 8.54481 18.1774 8.37351 17.9838 8.25115C17.7901 8.12064 17.5925 8.05538 17.3908 8.05538C17.1972 8.05538 17.0036 8.12472 16.8099 8.26339C16.6163 8.3939 16.4509 8.56521 16.3138 8.77729C16.1766 8.99754 16.0677 9.25449 15.9871 9.54815C15.9064 9.84181 15.866 10.1559 15.866 10.4903C15.866 10.8248 15.9064 11.1388 15.9871 11.4325C16.0677 11.718 16.1766 11.9749 16.3138 12.2033C16.4509 12.4317 16.6163 12.6112 16.8099 12.7417C17.0036 12.8641 17.1972 12.9252 17.3908 12.9252C17.5925 12.9252 17.7901 12.8641 17.9838 12.7417C18.1855 12.6193 18.3508 12.444 18.4799 12.2156C18.6251 11.9953 18.734 11.7384 18.8067 11.4447C18.8873 11.1429 18.9277 10.8248 18.9277 10.4903Z" fill="#007ACC"/>
<path d="M21.4481 10.0498H24.3524C24.3524 9.4625 24.2718 8.99754 24.1104 8.65493C24.0217 8.47548 23.8845 8.32865 23.699 8.21445C23.5215 8.10024 23.3158 8.04314 23.0818 8.04314C22.6139 8.04314 22.2226 8.24707 21.908 8.65493C21.6417 9.00569 21.4885 9.47066 21.4481 10.0498ZM21.4602 10.8084C21.4602 10.8574 21.4643 10.9022 21.4723 10.943C21.4965 11.1306 21.5409 11.3223 21.6054 11.5181C21.678 11.7384 21.787 11.9545 21.9322 12.1666C22.0855 12.3787 22.2912 12.5622 22.5493 12.7172C22.6381 12.7743 22.7712 12.8314 22.9487 12.8885C23.1342 12.9375 23.348 12.9619 23.59 12.9619C23.7756 12.9619 24.0015 12.9334 24.2677 12.8763C24.542 12.8192 24.8284 12.705 25.1269 12.5337V13.2923C24.8042 13.4881 24.4613 13.6186 24.0983 13.6839C23.7353 13.7491 23.3682 13.7613 22.9971 13.7206C22.6744 13.6879 22.3557 13.5941 22.0411 13.4391C21.7345 13.2842 21.4885 13.0965 21.3029 12.8763C21.0609 12.6071 20.8592 12.2645 20.6978 11.8485C20.5446 11.4243 20.4679 10.9349 20.4679 10.3802C20.4679 9.92338 20.5244 9.50736 20.6373 9.13213C20.7583 8.7569 20.9278 8.43061 21.1456 8.15327C21.3634 7.89224 21.6337 7.68423 21.9564 7.52924C22.2791 7.3661 22.6542 7.28452 23.0818 7.28452C23.4287 7.28452 23.7595 7.36202 24.0741 7.517C24.3887 7.66383 24.6308 7.85553 24.8002 8.09209C25.1309 8.54889 25.2963 9.2341 25.2963 10.1477V10.8084H21.4602Z" fill="#007ACC"/>
<path d="M30.7332 11.2245C30.7332 12.0483 30.4791 12.656 29.9708 13.0476C29.4706 13.4391 28.7889 13.6349 27.9257 13.6349C27.5949 13.6349 27.2521 13.5941 26.8971 13.5126C26.5502 13.4228 26.284 13.3494 26.0984 13.2923V12.5092C26.2114 12.5582 26.4251 12.6357 26.7398 12.7417C26.9253 12.7988 27.127 12.8559 27.3448 12.913C27.5707 12.9619 27.7966 12.9864 28.0225 12.9864C28.2645 12.9864 28.4904 12.9579 28.7002 12.9008C28.918 12.8437 29.1157 12.758 29.2931 12.6438C29.4787 12.5296 29.636 12.3665 29.7651 12.1544C29.9022 11.9341 29.9708 11.6772 29.9708 11.3835C29.9708 10.9022 29.7732 10.4822 29.3779 10.1232C29.0632 9.83773 28.7325 9.60933 28.3855 9.43803C28.1435 9.29935 27.8813 9.15252 27.599 8.99754C27.3247 8.84255 27.0665 8.66309 26.8245 8.45916C26.5825 8.25523 26.3888 8.03091 26.2436 7.78619C26.0984 7.53332 26.0258 7.24374 26.0258 6.91745C26.0258 6.16699 26.2477 5.62045 26.6914 5.27785C27.1432 4.92709 27.724 4.75171 28.434 4.75171C28.6114 4.75171 28.793 4.76802 28.9785 4.80065C29.1641 4.83328 29.3416 4.86999 29.511 4.91077C29.8175 4.98419 30.0555 5.05353 30.2249 5.11878V5.79175C30.1846 5.77544 29.9587 5.70202 29.5473 5.57151C29.1358 5.43284 28.7284 5.3635 28.325 5.3635C27.8975 5.3635 27.5304 5.48994 27.2238 5.74281C26.9253 5.99568 26.7761 6.36276 26.7761 6.84403C26.7761 7.03165 26.8204 7.20295 26.9092 7.35794C27.006 7.51292 27.1109 7.65568 27.2238 7.78619C27.361 7.90855 27.5102 8.02683 27.6716 8.14103C27.8329 8.24707 27.9943 8.34904 28.1556 8.44693C28.7284 8.74874 29.152 8.99754 29.4263 9.19331C29.7006 9.38093 29.9305 9.56446 30.116 9.74392C30.5275 10.1681 30.7332 10.6616 30.7332 11.2245Z" fill="#007ACC"/>
<path d="M36.0854 9.25449H35.3109C35.1979 8.38167 34.7502 7.94526 33.9676 7.94526C33.4674 7.94526 33.052 8.16142 32.7212 8.59376C32.3904 9.02609 32.225 9.62564 32.225 10.3924C32.225 10.5719 32.2371 10.7595 32.2614 10.9553C32.2856 11.151 32.3299 11.3509 32.3945 11.5548C32.4751 11.7914 32.5921 12.0198 32.7454 12.24C32.8987 12.4521 33.1125 12.6397 33.3868 12.8029C33.4836 12.86 33.6248 12.9171 33.8103 12.9742C34.0039 13.0313 34.2258 13.0598 34.4759 13.0598C34.6695 13.0598 34.9035 13.0313 35.1778 12.9742C35.4601 12.9171 35.7062 12.8273 35.9159 12.705V13.2311C35.6336 13.4024 35.3149 13.5207 34.9599 13.586C34.613 13.6512 34.2581 13.6635 33.895 13.6227C33.5804 13.59 33.2738 13.5003 32.9753 13.3535C32.6768 13.2067 32.4388 13.0272 32.2614 12.8151C32.0274 12.5541 31.8338 12.2196 31.6805 11.8118C31.5272 11.4039 31.4506 10.9267 31.4506 10.3802C31.4506 9.93154 31.507 9.52776 31.62 9.16884C31.7329 8.80176 31.8943 8.48771 32.104 8.22668C32.3138 7.96565 32.576 7.76172 32.8906 7.61489C33.2133 7.4599 33.5804 7.38241 33.9918 7.38241C34.2984 7.38241 34.5727 7.42727 34.8147 7.517C35.0567 7.59858 35.2746 7.72909 35.4682 7.90855C35.8393 8.25115 36.045 8.6998 36.0854 9.25449Z" fill="#007ACC"/>
<path d="M40.3484 8.12879C40.1467 8.12879 39.9249 8.16142 39.6828 8.22668C39.4408 8.29194 39.2109 8.38575 38.9931 8.5081C38.7833 8.63862 38.5856 8.82624 38.4001 9.07095C38.2145 9.30751 38.0895 9.5767 38.025 9.87852C37.9604 10.2374 37.9281 10.6127 37.9281 11.0042V13.5003H37.2384V7.52924H37.9281V8.94859C38.275 8.36127 38.6381 7.96157 39.0173 7.74948C39.4368 7.50477 39.8805 7.38241 40.3484 7.38241V8.12879Z" fill="#007ACC"/>
<path d="M42.0581 5.93858H41.1505V4.91077H42.0581V5.93858ZM41.9855 13.5003H41.2473V7.52924H41.9855V13.5003Z" fill="#007ACC"/>
<path d="M48.1726 10.4291C48.1726 10.943 48.1121 11.3958 47.9911 11.7873C47.8701 12.1788 47.7168 12.5051 47.5312 12.7662C47.3376 13.0354 47.0956 13.2393 46.8052 13.378C46.5147 13.5166 46.2203 13.586 45.9218 13.586C45.5103 13.586 45.1513 13.4799 44.8448 13.2678C44.5463 13.0476 44.3163 12.7499 44.155 12.3746V15.6538H43.4531V7.52924H44.155V8.59376C44.5422 7.78619 45.111 7.38241 45.8613 7.38241C46.2243 7.38241 46.5551 7.46806 46.8536 7.63936C47.1521 7.81066 47.3981 8.03499 47.5917 8.31233C47.7773 8.58968 47.9185 8.91189 48.0153 9.27896C48.1202 9.64604 48.1726 10.0294 48.1726 10.4291ZM47.4223 10.4903C47.4223 10.1395 47.378 9.80918 47.2892 9.49921C47.2085 9.18923 47.0916 8.91597 46.9383 8.67941C46.7931 8.45916 46.6196 8.28378 46.4179 8.15327C46.2243 8.02275 46.0145 7.95749 45.7887 7.95749C45.5708 7.95749 45.3611 8.02683 45.1594 8.1655C44.9577 8.29602 44.7842 8.4714 44.639 8.69164C44.4938 8.9282 44.3768 9.20147 44.2881 9.51144C44.2074 9.81326 44.1671 10.1395 44.1671 10.4903C44.1671 10.8411 44.2074 11.1714 44.2881 11.4814C44.3768 11.7832 44.4938 12.0483 44.639 12.2767C44.7842 12.5051 44.9577 12.6887 45.1594 12.8273C45.3611 12.9579 45.5708 13.0231 45.7887 13.0231C46.0145 13.0231 46.2243 12.9579 46.4179 12.8273C46.6196 12.6968 46.7931 12.5174 46.9383 12.289C47.0916 12.0606 47.2085 11.7914 47.2892 11.4814C47.378 11.1714 47.4223 10.8411 47.4223 10.4903Z" fill="#007ACC"/>
<path d="M52 8.09209H50.4389V11.5548C50.4389 11.7424 50.4389 11.9219 50.4389 12.0932C50.4389 12.2645 50.4752 12.4358 50.5478 12.6071C50.6124 12.7621 50.7173 12.8763 50.8625 12.9497C51.0077 13.0231 51.1811 13.0598 51.3828 13.0598C51.6007 13.0598 51.7983 13.0435 51.9758 13.0109V13.5982C51.7983 13.6227 51.5563 13.6349 51.2497 13.6349C50.7092 13.6349 50.3179 13.5207 50.0759 13.2923C49.8419 13.0557 49.725 12.6683 49.725 12.1299V8.09209H48.7811V7.52924H49.725V6.06094L50.4389 5.69387V7.52924H52V8.09209Z" fill="#007ACC"/>
</g>
<defs>
<filter id="filter0_dd_579_960" x="-0.5" y="0.251709" width="58" height="22" filterUnits="userSpaceOnUse" color-interpolation-filters="sRGB">
<feFlood flood-opacity="0" result="BackgroundImageFix"/>
<feColorMatrix in="SourceAlpha" type="matrix" values="0 0 0 0 0 0 0 0 0 0 0 0 0 0 0 0 0 0 127 0" result="hardAlpha"/>
<feOffset/>
<feGaussianBlur stdDeviation="0.25"/>
<feComposite in2="hardAlpha" operator="out"/>
<feColorMatrix type="matrix" values="0 0 0 0 0.607843 0 0 0 0 0.878431 0 0 0 0 1 0 0 0 1 0"/>
<feBlend mode="normal" in2="BackgroundImageFix" result="effect1_dropShadow_579_960"/>
<feColorMatrix in="SourceAlpha" type="matrix" values="0 0 0 0 0 0 0 0 0 0 0 0 0 0 0 0 0 0 127 0" result="hardAlpha"/>
<feOffset/>
<feGaussianBlur stdDeviation="0.25"/>
<feComposite in2="hardAlpha" operator="out"/>
<feColorMatrix type="matrix" values="0 0 0 0 0.607843 0 0 0 0 0.878431 0 0 0 0 1 0 0 0 1 0"/>
<feBlend mode="normal" in2="effect1_dropShadow_579_960" result="effect2_dropShadow_579_960"/>
<feBlend mode="normal" in="SourceGraphic" in2="effect2_dropShadow_579_960" result="shape"/>
</filter>
</defs>
</svg>
