<svg width="57" height="22" viewBox="0 0 57 22" fill="none" xmlns="http://www.w3.org/2000/svg">
<g filter="url(#filter0_dddd_579_963)">
<path d="M19.3167 9.64503C19.9812 8.85134 20.0115 7.96946 19.649 7.08759C19.2865 6.20571 18.5312 5.79417 17.5948 5.76477C16.4771 5.73538 15.3292 5.76477 14.2115 5.76477H14V13.3783H14.9062V10.4975H16.326C16.5073 10.4975 16.6583 10.5563 16.749 10.7033L18.5615 13.4371C18.5917 13.4959 18.6823 13.5841 18.7427 13.5841H19.9208C19.1958 12.4964 18.501 11.4676 17.776 10.4093C18.4104 10.3211 18.9542 10.1154 19.3167 9.64503ZM14.9062 9.58624V6.67605H15.2385C15.9333 6.67605 16.6583 6.64665 17.3531 6.70544C18.1687 6.73484 18.7427 7.35215 18.7427 8.14584C18.7427 8.93953 18.0781 9.55684 17.2625 9.58624C16.5375 9.61563 15.8125 9.58624 14.9062 9.58624ZM26.5969 9.96838C26.1135 7.91067 24.1802 7.38155 22.7 8.02826C21.5521 8.52799 21.0385 9.49805 21.0083 10.7033C20.9781 11.6146 21.25 12.4376 21.975 13.0549C22.7906 13.7604 23.7875 13.8486 24.8146 13.6723C25.3885 13.5547 25.9021 13.2901 26.2948 12.8786C26.1437 12.6728 25.9927 12.467 25.8417 12.2907C24.9958 12.9962 24.0594 13.2313 23.0323 12.761C22.3677 12.4376 22.0354 11.6439 21.975 11.056H26.6573V10.6739C26.6875 10.4093 26.6573 10.1742 26.5969 9.96838ZM22.0354 10.4387C21.9448 9.55684 22.851 8.61617 23.8479 8.61617C24.9958 8.58678 25.7208 9.26288 25.751 10.4387H22.0354ZM31.3094 7.88128C30.8562 7.79309 30.3729 7.76369 29.9198 7.79309C29.1948 7.85188 28.5604 8.17523 28.0469 8.70436C28.1979 8.91013 28.3187 9.1159 28.5 9.35107C28.5604 9.29228 28.6208 9.23349 28.6812 9.20409C29.1646 8.76315 29.7385 8.52798 30.4333 8.58678C30.9771 8.61617 31.4906 8.79255 31.6417 9.32167C31.7625 9.73321 31.7323 10.1742 31.7625 10.6151C31.6719 10.6151 31.6417 10.5857 31.6115 10.5563C30.8865 9.96838 30.0708 9.8508 29.1948 10.0566C28.3792 10.2623 27.8656 10.8797 27.8052 11.6733C27.7448 12.5846 28.1677 13.2607 28.9833 13.5841C29.4969 13.7898 30.0708 13.7898 30.6146 13.6723C31.0375 13.5841 31.2187 13.3489 31.8229 13.0256V13.4077H32.6687C32.6687 12.2319 32.699 10.7915 32.6687 9.43926C32.6687 8.58678 32.1552 8.05765 31.3094 7.88128ZM31.7323 11.5852C31.7021 11.6733 31.7323 11.7615 31.7323 11.8497C31.7323 12.467 31.5812 12.6728 30.9771 12.908C30.5542 13.0549 30.101 13.1137 29.6479 12.9668C29.1344 12.8198 28.7719 12.3788 28.7719 11.8791C28.7417 11.3794 29.074 10.8797 29.5875 10.7327C30.2823 10.4975 30.9167 10.6445 31.4906 11.056C31.6719 11.203 31.7927 11.35 31.7323 11.5852ZM36.4448 8.67496C37.2302 8.4398 37.9552 8.58678 38.499 9.23349L38.5896 9.29228C38.801 9.1159 38.9823 8.93953 39.224 8.73376C39.1333 8.64557 39.1031 8.58678 39.0427 8.49859C38.1667 7.58732 36.4448 7.46973 35.3875 8.20463C33.9073 9.26288 33.9375 11.3206 34.6625 12.4082C35.3573 13.4371 36.3542 13.7898 37.5323 13.6429C38.2271 13.5547 38.801 13.2313 39.2542 12.6728C39.0427 12.4964 38.8312 12.3201 38.6198 12.1143C38.5594 12.1731 38.5292 12.2025 38.499 12.2613C37.6833 13.1431 36.324 13.0549 35.599 12.1143C35.176 11.5558 35.0854 10.9091 35.2062 10.2623C35.2667 9.52744 35.6594 8.93953 36.4448 8.67496ZM42.7281 12.6728C42.6677 12.7022 42.6375 12.7316 42.6375 12.7316C42.3958 12.908 42.1542 12.9374 41.8823 12.8492C41.6104 12.7316 41.5802 12.4964 41.55 12.2613V8.91013C41.55 8.85134 41.55 8.96892 41.5802 8.67496H42.7281V7.79309H41.5198V6.3233H40.6135V7.91067H39.8281C39.7677 7.91067 39.6771 7.96947 39.6771 8.02826C39.6469 8.23403 39.6771 8.38101 39.6771 8.67496H40.6437V12.4376C40.6437 12.908 40.7646 13.3195 41.1875 13.5547C41.6406 13.8192 42.5167 13.7604 42.9094 13.4371C42.9698 13.4077 43 13.2901 43 13.2607C42.9094 13.0843 42.8187 12.8786 42.7281 12.6728Z" fill="#00D8FF"/>
</g>
<defs>
<filter id="filter0_dddd_579_963" x="-2" y="-1.24829" width="61" height="25" filterUnits="userSpaceOnUse" color-interpolation-filters="sRGB">
<feFlood flood-opacity="0" result="BackgroundImageFix"/>
<feColorMatrix in="SourceAlpha" type="matrix" values="0 0 0 0 0 0 0 0 0 0 0 0 0 0 0 0 0 0 127 0" result="hardAlpha"/>
<feOffset/>
<feGaussianBlur stdDeviation="0.25"/>
<feComposite in2="hardAlpha" operator="out"/>
<feColorMatrix type="matrix" values="0 0 0 0 0 0 0 0 0 0.282353 0 0 0 0 0.333333 0 0 0 1 0"/>
<feBlend mode="normal" in2="BackgroundImageFix" result="effect1_dropShadow_579_963"/>
<feColorMatrix in="SourceAlpha" type="matrix" values="0 0 0 0 0 0 0 0 0 0 0 0 0 0 0 0 0 0 127 0" result="hardAlpha"/>
<feOffset/>
<feGaussianBlur stdDeviation="0.25"/>
<feComposite in2="hardAlpha" operator="out"/>
<feColorMatrix type="matrix" values="0 0 0 0 0 0 0 0 0 0.282353 0 0 0 0 0.333333 0 0 0 1 0"/>
<feBlend mode="normal" in2="effect1_dropShadow_579_963" result="effect2_dropShadow_579_963"/>
<feColorMatrix in="SourceAlpha" type="matrix" values="0 0 0 0 0 0 0 0 0 0 0 0 0 0 0 0 0 0 127 0" result="hardAlpha"/>
<feOffset/>
<feGaussianBlur stdDeviation="0.5"/>
<feComposite in2="hardAlpha" operator="out"/>
<feColorMatrix type="matrix" values="0 0 0 0 0 0 0 0 0 0.282353 0 0 0 0 0.333333 0 0 0 1 0"/>
<feBlend mode="normal" in2="effect2_dropShadow_579_963" result="effect3_dropShadow_579_963"/>
<feColorMatrix in="SourceAlpha" type="matrix" values="0 0 0 0 0 0 0 0 0 0 0 0 0 0 0 0 0 0 127 0" result="hardAlpha"/>
<feOffset/>
<feGaussianBlur stdDeviation="1"/>
<feComposite in2="hardAlpha" operator="out"/>
<feColorMatrix type="matrix" values="0 0 0 0 0 0 0 0 0 0.282263 0 0 0 0 0.333227 0 0 0 1 0"/>
<feBlend mode="normal" in2="effect3_dropShadow_579_963" result="effect4_dropShadow_579_963"/>
<feBlend mode="normal" in="SourceGraphic" in2="effect4_dropShadow_579_963" result="shape"/>
</filter>
</defs>
</svg>
