<svg width="57" height="22" viewBox="0 0 57 22" fill="none" xmlns="http://www.w3.org/2000/svg">
<g filter="url(#filter0_dd_563_998)">
<path d="M10.5352 7.27124H8.13281V14.8533H7.21875V7.27124H4.82812V6.43921H10.5352V7.27124ZM13.8314 8.94702H14.7337L12.0267 16.9158H11.1361L11.9564 14.5017L9.84703 8.94702H10.7611L12.3548 13.3181L13.8314 8.94702ZM20.198 11.8181C20.198 12.3181 20.1355 12.7634 20.0105 13.1541C19.8933 13.5447 19.7409 13.865 19.5534 14.115C19.3581 14.3806 19.112 14.5837 18.8152 14.7244C18.5261 14.865 18.2292 14.9353 17.9245 14.9353C17.5339 14.9353 17.1862 14.8337 16.8816 14.6306C16.5847 14.4197 16.3933 14.2126 16.3073 14.0095V16.9158H15.4402V8.94702H16.3073V9.7439C16.7058 9.1189 17.2253 8.8064 17.8659 8.8064C18.2409 8.8064 18.5769 8.89233 18.8737 9.06421C19.1784 9.23608 19.4284 9.46265 19.6237 9.7439C19.8034 10.0173 19.9441 10.3337 20.0456 10.6931C20.1472 11.0525 20.198 11.4275 20.198 11.8181ZM19.2839 11.8767C19.2839 11.5564 19.2448 11.2556 19.1667 10.9744C19.0964 10.6853 18.9909 10.4353 18.8503 10.2244C18.7175 10.0134 18.5573 9.84937 18.3698 9.73218C18.1823 9.60718 17.9909 9.54468 17.7956 9.54468C17.6081 9.54468 17.4206 9.61108 17.2331 9.7439C17.0456 9.8689 16.8855 10.033 16.7527 10.2361C16.6198 10.447 16.5144 10.6931 16.4362 10.9744C16.3581 11.2556 16.3191 11.5564 16.3191 11.8767C16.3191 12.197 16.3581 12.4978 16.4362 12.7791C16.5144 13.0525 16.6198 13.2986 16.7527 13.5173C16.8855 13.7361 17.0456 13.908 17.2331 14.033C17.4206 14.1501 17.6081 14.2087 17.7956 14.2087C17.9909 14.2087 18.1823 14.1501 18.3698 14.033C18.5652 13.9158 18.7253 13.7478 18.8503 13.5291C18.9909 13.3181 19.0964 13.072 19.1667 12.7908C19.2448 12.5017 19.2839 12.197 19.2839 11.8767ZM21.7247 11.4548H24.5372C24.5372 10.8923 24.4591 10.447 24.3028 10.1189C24.2169 9.94702 24.0841 9.8064 23.9044 9.69702C23.7325 9.58765 23.5333 9.53296 23.3067 9.53296C22.8536 9.53296 22.4747 9.72827 22.17 10.1189C21.9122 10.4548 21.7638 10.9001 21.7247 11.4548ZM21.7364 12.1814C21.7364 12.2283 21.7403 12.2712 21.7481 12.3103C21.7716 12.49 21.8145 12.6736 21.877 12.8611C21.9473 13.072 22.0528 13.2791 22.1934 13.4822C22.3419 13.6853 22.5411 13.8611 22.7911 14.0095C22.877 14.0642 23.0059 14.1189 23.1778 14.1736C23.3575 14.2205 23.5645 14.2439 23.7989 14.2439C23.9786 14.2439 24.1973 14.2166 24.4552 14.1619C24.7208 14.1072 24.9981 13.9978 25.2872 13.8337V14.5603C24.9747 14.7478 24.6427 14.8728 24.2911 14.9353C23.9395 14.9978 23.5841 15.0095 23.2247 14.9705C22.9122 14.9392 22.6036 14.8494 22.2989 14.7009C22.002 14.5525 21.7638 14.3728 21.5841 14.1619C21.3497 13.9041 21.1544 13.5759 20.9981 13.1775C20.8497 12.7712 20.7755 12.3025 20.7755 11.7712C20.7755 11.3337 20.8302 10.9353 20.9395 10.5759C21.0567 10.2166 21.2208 9.90405 21.4317 9.63843C21.6427 9.38843 21.9044 9.18921 22.2169 9.04077C22.5294 8.88452 22.8927 8.8064 23.3067 8.8064C23.6427 8.8064 23.963 8.88062 24.2677 9.02905C24.5723 9.16968 24.8067 9.35327 24.9708 9.57983C25.2911 10.0173 25.4513 10.6736 25.4513 11.5486V12.1814H21.7364ZM30.7162 12.5798C30.7162 13.3689 30.4702 13.9509 29.978 14.3259C29.4936 14.7009 28.8334 14.8884 27.9975 14.8884C27.6772 14.8884 27.3452 14.8494 27.0014 14.7712C26.6655 14.6853 26.4077 14.615 26.228 14.5603V13.8103C26.3373 13.8572 26.5444 13.9314 26.8491 14.033C27.0287 14.0876 27.2241 14.1423 27.435 14.197C27.6537 14.2439 27.8725 14.2673 28.0912 14.2673C28.3256 14.2673 28.5444 14.24 28.7475 14.1853C28.9584 14.1306 29.1498 14.0486 29.3217 13.9392C29.5014 13.8298 29.6537 13.6736 29.7787 13.4705C29.9116 13.2595 29.978 13.0134 29.978 12.7322C29.978 12.2712 29.7866 11.8689 29.4037 11.5251C29.0991 11.2517 28.7787 11.033 28.4428 10.8689C28.2084 10.7361 27.9545 10.5955 27.6811 10.447C27.4155 10.2986 27.1655 10.1267 26.9311 9.9314C26.6967 9.73608 26.5092 9.52124 26.3686 9.28687C26.228 9.04468 26.1577 8.76733 26.1577 8.45483C26.1577 7.73608 26.3725 7.21265 26.8022 6.88452C27.2397 6.54858 27.8022 6.38062 28.4897 6.38062C28.6616 6.38062 28.8373 6.39624 29.017 6.42749C29.1967 6.45874 29.3686 6.4939 29.5327 6.53296C29.8295 6.60327 30.06 6.66968 30.2241 6.73218V7.37671C30.185 7.36108 29.9662 7.29077 29.5678 7.16577C29.1694 7.03296 28.7748 6.96655 28.3842 6.96655C27.9702 6.96655 27.6147 7.08765 27.3178 7.32983C27.0287 7.57202 26.8842 7.92358 26.8842 8.38452C26.8842 8.56421 26.9272 8.72827 27.0131 8.87671C27.1069 9.02515 27.2084 9.16187 27.3178 9.28687C27.4506 9.40405 27.5952 9.51733 27.7514 9.62671C27.9077 9.72827 28.0639 9.82593 28.2202 9.91968C28.7748 10.2087 29.185 10.447 29.4506 10.6345C29.7162 10.8142 29.9389 10.99 30.1186 11.1619C30.517 11.5681 30.7162 12.0408 30.7162 12.5798ZM35.8992 10.6931H35.1492C35.0398 9.85718 34.6063 9.43921 33.8484 9.43921C33.3641 9.43921 32.9617 9.64624 32.6414 10.0603C32.3211 10.4744 32.1609 11.0486 32.1609 11.783C32.1609 11.9548 32.1727 12.1345 32.1961 12.322C32.2195 12.5095 32.2625 12.7009 32.325 12.8962C32.4031 13.1228 32.5164 13.3416 32.6648 13.5525C32.8133 13.7556 33.0203 13.9353 33.2859 14.0916C33.3797 14.1462 33.5164 14.2009 33.6961 14.2556C33.8836 14.3103 34.0984 14.3376 34.3406 14.3376C34.5281 14.3376 34.7547 14.3103 35.0203 14.2556C35.2938 14.2009 35.532 14.115 35.7352 13.9978V14.5017C35.4617 14.6658 35.1531 14.7791 34.8094 14.8416C34.4734 14.9041 34.1297 14.9158 33.7781 14.8767C33.4734 14.8455 33.1766 14.7595 32.8875 14.6189C32.5984 14.4783 32.368 14.3064 32.1961 14.1033C31.9695 13.8533 31.782 13.533 31.6336 13.1423C31.4852 12.7517 31.4109 12.2947 31.4109 11.7712C31.4109 11.3416 31.4656 10.9548 31.575 10.6111C31.6844 10.2595 31.8406 9.95874 32.0438 9.70874C32.2469 9.45874 32.5008 9.26343 32.8055 9.1228C33.118 8.97437 33.4734 8.90015 33.8719 8.90015C34.1688 8.90015 34.4344 8.94312 34.6688 9.02905C34.9031 9.10718 35.1141 9.23218 35.3016 9.40405C35.6609 9.73218 35.8602 10.1619 35.8992 10.6931ZM40.0275 9.61499C39.8322 9.61499 39.6173 9.64624 39.383 9.70874C39.1486 9.77124 38.9259 9.86108 38.715 9.97827C38.5119 10.1033 38.3205 10.283 38.1408 10.5173C37.9611 10.7439 37.84 11.0017 37.7775 11.2908C37.715 11.6345 37.6838 11.9939 37.6838 12.3689V14.7595H37.0158V9.04077H37.6838V10.4001C38.0197 9.83765 38.3713 9.45483 38.7384 9.25171C39.1447 9.01733 39.5744 8.90015 40.0275 8.90015V9.61499ZM41.6831 7.51733H40.8042V6.53296H41.6831V7.51733ZM41.6128 14.7595H40.898V9.04077H41.6128V14.7595ZM47.6044 11.8181C47.6044 12.3103 47.5458 12.7439 47.4286 13.1189C47.3114 13.4939 47.163 13.8064 46.9833 14.0564C46.7958 14.3142 46.5614 14.5095 46.2802 14.6423C45.9989 14.7751 45.7137 14.8416 45.4247 14.8416C45.0262 14.8416 44.6786 14.74 44.3817 14.5369C44.0927 14.3259 43.87 14.0408 43.7137 13.6814V16.822H43.0341V9.04077H43.7137V10.0603C44.0887 9.28687 44.6395 8.90015 45.3661 8.90015C45.7177 8.90015 46.038 8.98218 46.327 9.14624C46.6161 9.3103 46.8544 9.52515 47.0419 9.79077C47.2216 10.0564 47.3583 10.365 47.452 10.7166C47.5536 11.0681 47.6044 11.4353 47.6044 11.8181ZM46.8778 11.8767C46.8778 11.5408 46.8348 11.2244 46.7489 10.9275C46.6708 10.6306 46.5575 10.3689 46.4091 10.1423C46.2684 9.9314 46.1005 9.76343 45.9052 9.63843C45.7177 9.51343 45.5145 9.45093 45.2958 9.45093C45.0848 9.45093 44.8817 9.51733 44.6864 9.65015C44.4911 9.77515 44.3231 9.94312 44.1825 10.1541C44.0419 10.3806 43.9286 10.6423 43.8427 10.9392C43.7645 11.2283 43.7255 11.5408 43.7255 11.8767C43.7255 12.2126 43.7645 12.5291 43.8427 12.8259C43.9286 13.115 44.0419 13.3689 44.1825 13.5876C44.3231 13.8064 44.4911 13.9822 44.6864 14.115C44.8817 14.24 45.0848 14.3025 45.2958 14.3025C45.5145 14.3025 45.7177 14.24 45.9052 14.115C46.1005 13.99 46.2684 13.8181 46.4091 13.5994C46.5575 13.3806 46.6708 13.1228 46.7489 12.8259C46.8348 12.5291 46.8778 12.2126 46.8778 11.8767ZM51.3108 9.57983H49.7991V12.8962C49.7991 13.0759 49.7991 13.2478 49.7991 13.4119C49.7991 13.5759 49.8342 13.74 49.9045 13.9041C49.967 14.0525 50.0686 14.1619 50.2092 14.2322C50.3498 14.3025 50.5178 14.3376 50.7131 14.3376C50.9241 14.3376 51.1155 14.322 51.2873 14.2908V14.8533C51.1155 14.8767 50.8811 14.8884 50.5842 14.8884C50.0608 14.8884 49.6819 14.7791 49.4475 14.5603C49.2209 14.3337 49.1077 13.9626 49.1077 13.447V9.57983H48.1936V9.04077H49.1077V7.63452L49.7991 7.28296V9.04077H51.3108V9.57983Z" fill="#007ACC"/>
</g>
<defs>
<filter id="filter0_dd_563_998" x="-0.5" y="0.251709" width="58" height="22" filterUnits="userSpaceOnUse" color-interpolation-filters="sRGB">
<feFlood flood-opacity="0" result="BackgroundImageFix"/>
<feColorMatrix in="SourceAlpha" type="matrix" values="0 0 0 0 0 0 0 0 0 0 0 0 0 0 0 0 0 0 127 0" result="hardAlpha"/>
<feOffset/>
<feGaussianBlur stdDeviation="0.25"/>
<feComposite in2="hardAlpha" operator="out"/>
<feColorMatrix type="matrix" values="0 0 0 0 0.607843 0 0 0 0 0.878431 0 0 0 0 1 0 0 0 1 0"/>
<feBlend mode="normal" in2="BackgroundImageFix" result="effect1_dropShadow_563_998"/>
<feColorMatrix in="SourceAlpha" type="matrix" values="0 0 0 0 0 0 0 0 0 0 0 0 0 0 0 0 0 0 127 0" result="hardAlpha"/>
<feOffset/>
<feGaussianBlur stdDeviation="0.25"/>
<feComposite in2="hardAlpha" operator="out"/>
<feColorMatrix type="matrix" values="0 0 0 0 0.607843 0 0 0 0 0.878431 0 0 0 0 1 0 0 0 1 0"/>
<feBlend mode="normal" in2="effect1_dropShadow_563_998" result="effect2_dropShadow_563_998"/>
<feBlend mode="normal" in="SourceGraphic" in2="effect2_dropShadow_563_998" result="shape"/>
</filter>
</defs>
</svg>
