<svg width="57" height="22" viewBox="0 0 57 22" fill="none" xmlns="http://www.w3.org/2000/svg">
<g filter="url(#filter0_ddd_563_991)">
<path d="M8.79297 12.99C8.79297 13.2166 8.75781 13.4509 8.6875 13.6931C8.61719 13.9353 8.50781 14.1462 8.35938 14.3259C8.1875 14.5134 7.96484 14.6697 7.69141 14.7947C7.41797 14.9197 7.05469 14.9822 6.60156 14.9822C6.40625 14.9822 6.23047 14.9705 6.07422 14.947C5.91797 14.9236 5.76562 14.8884 5.61719 14.8416V13.9509C5.75781 14.0056 5.92578 14.0564 6.12109 14.1033C6.31641 14.1423 6.5 14.1619 6.67188 14.1619C6.71094 14.1619 6.75781 14.1619 6.8125 14.1619C6.86719 14.1619 6.92188 14.158 6.97656 14.1501C7.0625 14.1345 7.15625 14.1033 7.25781 14.0564C7.36719 14.0095 7.46484 13.9392 7.55078 13.8455C7.63672 13.7439 7.71094 13.6189 7.77344 13.4705C7.84375 13.3142 7.87891 13.115 7.87891 12.8728V6.43921H8.79297V12.99ZM14.1634 14.8533H13.2728V14.1267C13.1478 14.2986 12.9291 14.4705 12.6166 14.6423C12.4291 14.7517 12.2181 14.8376 11.9837 14.9001C11.7572 14.9548 11.4916 14.9822 11.1869 14.9822C11.0306 14.9822 10.8548 14.947 10.6595 14.8767C10.472 14.8064 10.3119 14.7048 10.1791 14.572C10.0306 14.4392 9.91734 14.2791 9.83922 14.0916C9.76109 13.8962 9.72203 13.6775 9.72203 13.4353C9.72203 12.9978 9.83922 12.6189 10.0736 12.2986C10.308 11.9783 10.5931 11.7556 10.9291 11.6306C11.1556 11.5525 11.3978 11.4939 11.6556 11.4548C11.9134 11.4158 12.14 11.3962 12.3353 11.3962H13.2728V10.8455C13.2728 10.7439 13.2572 10.6189 13.2259 10.4705C13.2025 10.3142 13.1478 10.1658 13.0619 10.0251C12.9681 9.89233 12.8314 9.77905 12.6517 9.6853C12.4798 9.58374 12.2728 9.53296 12.0306 9.53296C11.7181 9.53296 11.4447 9.6228 11.2103 9.80249C10.9837 9.97437 10.8705 10.2048 10.8705 10.4939H9.86266C9.86266 10.283 9.90562 10.0798 9.99156 9.88452C10.0775 9.68921 10.2064 9.51343 10.3783 9.35718C10.558 9.19312 10.7923 9.0603 11.0814 8.95874C11.3705 8.85718 11.6869 8.8064 12.0306 8.8064C12.7337 8.8064 13.265 8.9978 13.6244 9.38062C13.9837 9.76343 14.1634 10.2361 14.1634 10.7986V14.8533ZM13.2728 12.6267V12.0642C13.1009 12.0642 12.9017 12.0681 12.6752 12.0759C12.4486 12.0759 12.1712 12.1033 11.8431 12.158C11.5462 12.2126 11.2806 12.3259 11.0462 12.4978C10.7728 12.7244 10.6361 12.9978 10.6361 13.3181C10.6361 13.6462 10.7259 13.8845 10.9056 14.033C11.0853 14.1814 11.308 14.2556 11.5736 14.2556C11.6752 14.2556 11.8158 14.2322 11.9955 14.1853C12.1752 14.1306 12.3353 14.0603 12.4759 13.9744C12.7728 13.7791 12.9994 13.5408 13.1556 13.2595C13.2337 13.1033 13.2728 12.8923 13.2728 12.6267ZM19.9206 8.94702L17.8816 14.8533H17.073L14.8581 8.94702H15.7487L17.4714 13.7166L19.0652 8.94702H19.9206ZM24.7403 14.8533H23.8497V14.1267C23.7247 14.2986 23.5059 14.4705 23.1934 14.6423C23.0059 14.7517 22.795 14.8376 22.5606 14.9001C22.3341 14.9548 22.0684 14.9822 21.7638 14.9822C21.6075 14.9822 21.4317 14.947 21.2364 14.8767C21.0489 14.8064 20.8888 14.7048 20.7559 14.572C20.6075 14.4392 20.4942 14.2791 20.4161 14.0916C20.338 13.8962 20.2989 13.6775 20.2989 13.4353C20.2989 12.9978 20.4161 12.6189 20.6505 12.2986C20.8848 11.9783 21.17 11.7556 21.5059 11.6306C21.7325 11.5525 21.9747 11.4939 22.2325 11.4548C22.4903 11.4158 22.7169 11.3962 22.9122 11.3962H23.8497V10.8455C23.8497 10.7439 23.8341 10.6189 23.8028 10.4705C23.7794 10.3142 23.7247 10.1658 23.6388 10.0251C23.545 9.89233 23.4083 9.77905 23.2286 9.6853C23.0567 9.58374 22.8497 9.53296 22.6075 9.53296C22.295 9.53296 22.0216 9.6228 21.7872 9.80249C21.5606 9.97437 21.4473 10.2048 21.4473 10.4939H20.4395C20.4395 10.283 20.4825 10.0798 20.5684 9.88452C20.6544 9.68921 20.7833 9.51343 20.9552 9.35718C21.1348 9.19312 21.3692 9.0603 21.6583 8.95874C21.9473 8.85718 22.2638 8.8064 22.6075 8.8064C23.3106 8.8064 23.8419 8.9978 24.2013 9.38062C24.5606 9.76343 24.7403 10.2361 24.7403 10.7986V14.8533ZM23.8497 12.6267V12.0642C23.6778 12.0642 23.4786 12.0681 23.252 12.0759C23.0255 12.0759 22.7481 12.1033 22.42 12.158C22.1231 12.2126 21.8575 12.3259 21.6231 12.4978C21.3497 12.7244 21.213 12.9978 21.213 13.3181C21.213 13.6462 21.3028 13.8845 21.4825 14.033C21.6622 14.1814 21.8848 14.2556 22.1505 14.2556C22.252 14.2556 22.3927 14.2322 22.5723 14.1853C22.752 14.1306 22.9122 14.0603 23.0528 13.9744C23.3497 13.7791 23.5763 13.5408 23.7325 13.2595C23.8106 13.1033 23.8497 12.8923 23.8497 12.6267ZM30.2397 12.5798C30.2397 13.3689 29.9936 13.9509 29.5014 14.3259C29.017 14.7009 28.3569 14.8884 27.5209 14.8884C27.2006 14.8884 26.8686 14.8494 26.5248 14.7712C26.1889 14.6853 25.9311 14.615 25.7514 14.5603V13.8103C25.8608 13.8572 26.0678 13.9314 26.3725 14.033C26.5522 14.0876 26.7475 14.1423 26.9584 14.197C27.1772 14.2439 27.3959 14.2673 27.6147 14.2673C27.8491 14.2673 28.0678 14.24 28.2709 14.1853C28.4819 14.1306 28.6733 14.0486 28.8452 13.9392C29.0248 13.8298 29.1772 13.6736 29.3022 13.4705C29.435 13.2595 29.5014 13.0134 29.5014 12.7322C29.5014 12.2712 29.31 11.8689 28.9272 11.5251C28.6225 11.2517 28.3022 11.033 27.9662 10.8689C27.7319 10.7361 27.478 10.5955 27.2045 10.447C26.9389 10.2986 26.6889 10.1267 26.4545 9.9314C26.2202 9.73608 26.0327 9.52124 25.892 9.28687C25.7514 9.04468 25.6811 8.76733 25.6811 8.45483C25.6811 7.73608 25.8959 7.21265 26.3256 6.88452C26.7631 6.54858 27.3256 6.38062 28.0131 6.38062C28.185 6.38062 28.3608 6.39624 28.5405 6.42749C28.7202 6.45874 28.892 6.4939 29.0561 6.53296C29.353 6.60327 29.5834 6.66968 29.7475 6.73218V7.37671C29.7084 7.36108 29.4897 7.29077 29.0912 7.16577C28.6928 7.03296 28.2983 6.96655 27.9077 6.96655C27.4936 6.96655 27.1381 7.08765 26.8412 7.32983C26.5522 7.57202 26.4077 7.92358 26.4077 8.38452C26.4077 8.56421 26.4506 8.72827 26.5366 8.87671C26.6303 9.02515 26.7319 9.16187 26.8412 9.28687C26.9741 9.40405 27.1186 9.51733 27.2748 9.62671C27.4311 9.72827 27.5873 9.82593 27.7436 9.91968C28.2983 10.2087 28.7084 10.447 28.9741 10.6345C29.2397 10.8142 29.4623 10.99 29.642 11.1619C30.0405 11.5681 30.2397 12.0408 30.2397 12.5798ZM35.4227 10.6931H34.6727C34.5633 9.85718 34.1297 9.43921 33.3719 9.43921C32.8875 9.43921 32.4852 9.64624 32.1648 10.0603C31.8445 10.4744 31.6844 11.0486 31.6844 11.783C31.6844 11.9548 31.6961 12.1345 31.7195 12.322C31.743 12.5095 31.7859 12.7009 31.8484 12.8962C31.9266 13.1228 32.0398 13.3416 32.1883 13.5525C32.3367 13.7556 32.5438 13.9353 32.8094 14.0916C32.9031 14.1462 33.0398 14.2009 33.2195 14.2556C33.407 14.3103 33.6219 14.3376 33.8641 14.3376C34.0516 14.3376 34.2781 14.3103 34.5438 14.2556C34.8172 14.2009 35.0555 14.115 35.2586 13.9978V14.5017C34.9852 14.6658 34.6766 14.7791 34.3328 14.8416C33.9969 14.9041 33.6531 14.9158 33.3016 14.8767C32.9969 14.8455 32.7 14.7595 32.4109 14.6189C32.1219 14.4783 31.8914 14.3064 31.7195 14.1033C31.493 13.8533 31.3055 13.533 31.157 13.1423C31.0086 12.7517 30.9344 12.2947 30.9344 11.7712C30.9344 11.3416 30.9891 10.9548 31.0984 10.6111C31.2078 10.2595 31.3641 9.95874 31.5672 9.70874C31.7703 9.45874 32.0242 9.26343 32.3289 9.1228C32.6414 8.97437 32.9969 8.90015 33.3953 8.90015C33.6922 8.90015 33.9578 8.94312 34.1922 9.02905C34.4266 9.10718 34.6375 9.23218 34.825 9.40405C35.1844 9.73218 35.3836 10.1619 35.4227 10.6931ZM39.5509 9.61499C39.3556 9.61499 39.1408 9.64624 38.9064 9.70874C38.672 9.77124 38.4494 9.86108 38.2384 9.97827C38.0353 10.1033 37.8439 10.283 37.6642 10.5173C37.4845 10.7439 37.3634 11.0017 37.3009 11.2908C37.2384 11.6345 37.2072 11.9939 37.2072 12.3689V14.7595H36.5392V9.04077H37.2072V10.4001C37.5431 9.83765 37.8947 9.45483 38.2619 9.25171C38.6681 9.01733 39.0978 8.90015 39.5509 8.90015V9.61499ZM41.2066 7.51733H40.3277V6.53296H41.2066V7.51733ZM41.1362 14.7595H40.4214V9.04077H41.1362V14.7595ZM47.1278 11.8181C47.1278 12.3103 47.0692 12.7439 46.952 13.1189C46.8348 13.4939 46.6864 13.8064 46.5067 14.0564C46.3192 14.3142 46.0848 14.5095 45.8036 14.6423C45.5223 14.7751 45.2372 14.8416 44.9481 14.8416C44.5497 14.8416 44.202 14.74 43.9052 14.5369C43.6161 14.3259 43.3934 14.0408 43.2372 13.6814V16.822H42.5575V9.04077H43.2372V10.0603C43.6122 9.28687 44.163 8.90015 44.8895 8.90015C45.2411 8.90015 45.5614 8.98218 45.8505 9.14624C46.1395 9.3103 46.3778 9.52515 46.5653 9.79077C46.745 10.0564 46.8817 10.365 46.9755 10.7166C47.077 11.0681 47.1278 11.4353 47.1278 11.8181ZM46.4012 11.8767C46.4012 11.5408 46.3583 11.2244 46.2723 10.9275C46.1942 10.6306 46.0809 10.3689 45.9325 10.1423C45.7919 9.9314 45.6239 9.76343 45.4286 9.63843C45.2411 9.51343 45.038 9.45093 44.8192 9.45093C44.6083 9.45093 44.4052 9.51733 44.2098 9.65015C44.0145 9.77515 43.8466 9.94312 43.7059 10.1541C43.5653 10.3806 43.452 10.6423 43.3661 10.9392C43.288 11.2283 43.2489 11.5408 43.2489 11.8767C43.2489 12.2126 43.288 12.5291 43.3661 12.8259C43.452 13.115 43.5653 13.3689 43.7059 13.5876C43.8466 13.8064 44.0145 13.9822 44.2098 14.115C44.4052 14.24 44.6083 14.3025 44.8192 14.3025C45.038 14.3025 45.2411 14.24 45.4286 14.115C45.6239 13.99 45.7919 13.8181 45.9325 13.5994C46.0809 13.3806 46.1942 13.1228 46.2723 12.8259C46.3583 12.5291 46.4012 12.2126 46.4012 11.8767ZM50.8342 9.57983H49.3225V12.8962C49.3225 13.0759 49.3225 13.2478 49.3225 13.4119C49.3225 13.5759 49.3577 13.74 49.428 13.9041C49.4905 14.0525 49.592 14.1619 49.7327 14.2322C49.8733 14.3025 50.0412 14.3376 50.2366 14.3376C50.4475 14.3376 50.6389 14.322 50.8108 14.2908V14.8533C50.6389 14.8767 50.4045 14.8884 50.1077 14.8884C49.5842 14.8884 49.2053 14.7791 48.9709 14.5603C48.7444 14.3337 48.6311 13.9626 48.6311 13.447V9.57983H47.717V9.04077H48.6311V7.63452L49.3225 7.28296V9.04077H50.8342V9.57983Z" fill="#F5DE19"/>
</g>
<defs>
<filter id="filter0_ddd_563_991" x="4.61719" y="5.38062" width="47.217" height="12.4414" filterUnits="userSpaceOnUse" color-interpolation-filters="sRGB">
<feFlood flood-opacity="0" result="BackgroundImageFix"/>
<feColorMatrix in="SourceAlpha" type="matrix" values="0 0 0 0 0 0 0 0 0 0 0 0 0 0 0 0 0 0 127 0" result="hardAlpha"/>
<feOffset/>
<feGaussianBlur stdDeviation="0.5"/>
<feComposite in2="hardAlpha" operator="out"/>
<feColorMatrix type="matrix" values="0 0 0 0 0.407843 0 0 0 0 0.364706 0 0 0 0 0 0 0 0 1 0"/>
<feBlend mode="normal" in2="BackgroundImageFix" result="effect1_dropShadow_563_991"/>
<feColorMatrix in="SourceAlpha" type="matrix" values="0 0 0 0 0 0 0 0 0 0 0 0 0 0 0 0 0 0 127 0" result="hardAlpha"/>
<feOffset/>
<feGaussianBlur stdDeviation="0.5"/>
<feComposite in2="hardAlpha" operator="out"/>
<feColorMatrix type="matrix" values="0 0 0 0 0.407843 0 0 0 0 0.364706 0 0 0 0 0 0 0 0 1 0"/>
<feBlend mode="normal" in2="effect1_dropShadow_563_991" result="effect2_dropShadow_563_991"/>
<feColorMatrix in="SourceAlpha" type="matrix" values="0 0 0 0 0 0 0 0 0 0 0 0 0 0 0 0 0 0 127 0" result="hardAlpha"/>
<feOffset/>
<feGaussianBlur stdDeviation="0.5"/>
<feComposite in2="hardAlpha" operator="out"/>
<feColorMatrix type="matrix" values="0 0 0 0 0.407843 0 0 0 0 0.364706 0 0 0 0 0 0 0 0 1 0"/>
<feBlend mode="normal" in2="effect2_dropShadow_563_991" result="effect3_dropShadow_563_991"/>
<feBlend mode="normal" in="SourceGraphic" in2="effect3_dropShadow_563_991" result="shape"/>
</filter>
</defs>
</svg>
