<svg width="57" height="22" viewBox="0 0 57 22" fill="none" xmlns="http://www.w3.org/2000/svg">
<g filter="url(#filter0_dddd_563_1005)">
<path d="M19.6333 11.145C20.275 10.3513 20.3042 9.46946 19.9542 8.58759C19.6042 7.70571 18.875 7.29417 17.9708 7.26477C16.8917 7.23538 15.7833 7.26477 14.7042 7.26477H14.5V14.8783H15.375V11.9975H16.7458C16.9208 11.9975 17.0667 12.0563 17.1542 12.2033L18.9042 14.9371C18.9333 14.9959 19.0208 15.0841 19.0792 15.0841H20.2167C19.5167 13.9964 18.8458 12.9676 18.1458 11.9093C18.7583 11.8211 19.2833 11.6154 19.6333 11.145ZM15.375 11.0862V8.17605H15.6958C16.3667 8.17605 17.0667 8.14665 17.7375 8.20544C18.525 8.23484 19.0792 8.85215 19.0792 9.64584C19.0792 10.4395 18.4375 11.0568 17.65 11.0862C16.95 11.1156 16.25 11.0862 15.375 11.0862ZM26.6625 11.4684C26.1958 9.41067 24.3292 8.88155 22.9 9.52826C21.7917 10.028 21.2958 10.998 21.2667 12.2033C21.2375 13.1146 21.5 13.9376 22.2 14.5549C22.9875 15.2604 23.95 15.3486 24.9417 15.1723C25.4958 15.0547 25.9917 14.7901 26.3708 14.3786C26.225 14.1728 26.0792 13.967 25.9333 13.7907C25.1167 14.4962 24.2125 14.7313 23.2208 14.261C22.5792 13.9376 22.2583 13.1439 22.2 12.556H26.7208V12.1739C26.75 11.9093 26.7208 11.6742 26.6625 11.4684ZM22.2583 11.9387C22.1708 11.0568 23.0458 10.1162 24.0083 10.1162C25.1167 10.0868 25.8167 10.7629 25.8458 11.9387H22.2583ZM31.2125 9.38128C30.775 9.29309 30.3083 9.26369 29.8708 9.29309C29.1708 9.35188 28.5583 9.67523 28.0625 10.2044C28.2083 10.4101 28.325 10.6159 28.5 10.8511C28.5583 10.7923 28.6167 10.7335 28.675 10.7041C29.1417 10.2632 29.6958 10.028 30.3667 10.0868C30.8917 10.1162 31.3875 10.2925 31.5333 10.8217C31.65 11.2332 31.6208 11.6742 31.65 12.1151C31.5625 12.1151 31.5333 12.0857 31.5042 12.0563C30.8042 11.4684 30.0167 11.3508 29.1708 11.5566C28.3833 11.7623 27.8875 12.3797 27.8292 13.1733C27.7708 14.0846 28.1792 14.7607 28.9667 15.0841C29.4625 15.2898 30.0167 15.2898 30.5417 15.1723C30.95 15.0841 31.125 14.8489 31.7083 14.5256V14.9077H32.525C32.525 13.7319 32.5542 12.2915 32.525 10.9393C32.525 10.0868 32.0292 9.55765 31.2125 9.38128ZM31.6208 13.0852C31.5917 13.1733 31.6208 13.2615 31.6208 13.3497C31.6208 13.967 31.475 14.1728 30.8917 14.408C30.4833 14.5549 30.0458 14.6137 29.6083 14.4668C29.1125 14.3198 28.7625 13.8788 28.7625 13.3791C28.7333 12.8794 29.0542 12.3797 29.55 12.2327C30.2208 11.9975 30.8333 12.1445 31.3875 12.556C31.5625 12.703 31.6792 12.85 31.6208 13.0852ZM36.1708 10.175C36.9292 9.9398 37.6292 10.0868 38.1542 10.7335L38.2417 10.7923C38.4458 10.6159 38.6208 10.4395 38.8542 10.2338C38.7667 10.1456 38.7375 10.0868 38.6792 9.99859C37.8333 9.08732 36.1708 8.96973 35.15 9.70463C33.7208 10.7629 33.75 12.8206 34.45 13.9082C35.1208 14.9371 36.0833 15.2898 37.2208 15.1429C37.8917 15.0547 38.4458 14.7313 38.8833 14.1728C38.6792 13.9964 38.475 13.8201 38.2708 13.6143C38.2125 13.6731 38.1833 13.7025 38.1542 13.7613C37.3667 14.6431 36.0542 14.5549 35.3542 13.6143C34.9458 13.0558 34.8583 12.4091 34.975 11.7623C35.0333 11.0274 35.4125 10.4395 36.1708 10.175ZM42.2375 14.1728C42.1792 14.2022 42.15 14.2316 42.15 14.2316C41.9167 14.408 41.6833 14.4374 41.4208 14.3492C41.1583 14.2316 41.1292 13.9964 41.1 13.7613V10.4101C41.1 10.3513 41.1 10.4689 41.1292 10.175H42.2375V9.29309H41.0708V7.8233H40.1958V9.41067H39.4375C39.3792 9.41067 39.2917 9.46947 39.2917 9.52826C39.2625 9.73403 39.2917 9.88101 39.2917 10.175H40.225V13.9376C40.225 14.408 40.3417 14.8195 40.75 15.0547C41.1875 15.3192 42.0333 15.2604 42.4125 14.9371C42.4708 14.9077 42.5 14.7901 42.5 14.7607C42.4125 14.5843 42.325 14.3786 42.2375 14.1728Z" fill="#00D8FF"/>
</g>
<defs>
<filter id="filter0_dddd_563_1005" x="-2" y="-1.24829" width="61" height="25" filterUnits="userSpaceOnUse" color-interpolation-filters="sRGB">
<feFlood flood-opacity="0" result="BackgroundImageFix"/>
<feColorMatrix in="SourceAlpha" type="matrix" values="0 0 0 0 0 0 0 0 0 0 0 0 0 0 0 0 0 0 127 0" result="hardAlpha"/>
<feOffset/>
<feGaussianBlur stdDeviation="0.25"/>
<feComposite in2="hardAlpha" operator="out"/>
<feColorMatrix type="matrix" values="0 0 0 0 0 0 0 0 0 0.282353 0 0 0 0 0.333333 0 0 0 1 0"/>
<feBlend mode="normal" in2="BackgroundImageFix" result="effect1_dropShadow_563_1005"/>
<feColorMatrix in="SourceAlpha" type="matrix" values="0 0 0 0 0 0 0 0 0 0 0 0 0 0 0 0 0 0 127 0" result="hardAlpha"/>
<feOffset/>
<feGaussianBlur stdDeviation="0.25"/>
<feComposite in2="hardAlpha" operator="out"/>
<feColorMatrix type="matrix" values="0 0 0 0 0 0 0 0 0 0.282353 0 0 0 0 0.333333 0 0 0 1 0"/>
<feBlend mode="normal" in2="effect1_dropShadow_563_1005" result="effect2_dropShadow_563_1005"/>
<feColorMatrix in="SourceAlpha" type="matrix" values="0 0 0 0 0 0 0 0 0 0 0 0 0 0 0 0 0 0 127 0" result="hardAlpha"/>
<feOffset/>
<feGaussianBlur stdDeviation="0.5"/>
<feComposite in2="hardAlpha" operator="out"/>
<feColorMatrix type="matrix" values="0 0 0 0 0 0 0 0 0 0.282353 0 0 0 0 0.333333 0 0 0 1 0"/>
<feBlend mode="normal" in2="effect2_dropShadow_563_1005" result="effect3_dropShadow_563_1005"/>
<feColorMatrix in="SourceAlpha" type="matrix" values="0 0 0 0 0 0 0 0 0 0 0 0 0 0 0 0 0 0 127 0" result="hardAlpha"/>
<feOffset/>
<feGaussianBlur stdDeviation="1"/>
<feComposite in2="hardAlpha" operator="out"/>
<feColorMatrix type="matrix" values="0 0 0 0 0 0 0 0 0 0.282263 0 0 0 0 0.333227 0 0 0 1 0"/>
<feBlend mode="normal" in2="effect3_dropShadow_563_1005" result="effect4_dropShadow_563_1005"/>
<feBlend mode="normal" in="SourceGraphic" in2="effect4_dropShadow_563_1005" result="shape"/>
</filter>
</defs>
</svg>
