<svg xmlns="http://www.w3.org/2000/svg" width="58" height="57" fill="none" viewBox="0 0 58 57"><rect width="56.752" height="56.752" x=".627" fill="url(#paint0_linear_92_661)" rx="8.255"/><path fill="#00d8ff" d="M29.003 32.503a4.127 4.127 0 1 0 0-8.255 4.127 4.127 0 0 0 0 8.255"/><path fill="#00d8ff" d="M29.003 37.65a45.9 45.9 0 0 1-14.398-1.952 18.3 18.3 0 0 1-5.93-3.183 5.76 5.76 0 0 1-2.372-4.185c0-2.687 2.944-5.32 7.877-7.044a46.5 46.5 0 0 1 14.823-2.191 46.4 46.4 0 0 1 14.63 2.152 18.4 18.4 0 0 1 5.736 3.034 5.5 5.5 0 0 1 2.335 4.05c0 2.792-3.292 5.623-8.594 7.382a46.6 46.6 0 0 1-14.107 1.936m0-16.611a45.2 45.2 0 0 0-14.186 2.084c-4.54 1.588-6.575 3.76-6.575 5.203 0 1.508 2.187 3.88 6.99 5.527a44 44 0 0 0 13.771 1.852 44.6 44.6 0 0 0 13.499-1.837c4.986-1.657 7.256-4.032 7.256-5.538a3.8 3.8 0 0 0-1.638-2.557 16.5 16.5 0 0 0-5.125-2.689 44.4 44.4 0 0 0-13.992-2.045"/><path fill="#00d8ff" d="M19.803 48.496a4.3 4.3 0 0 1-2.17-.53c-2.324-1.335-3.129-5.184-2.153-10.3A46.4 46.4 0 0 1 21 23.782a46.4 46.4 0 0 1 9.176-11.561 18.5 18.5 0 0 1 5.493-3.447 5.53 5.53 0 0 1 4.672 0c2.417 1.386 3.217 5.633 2.09 11.084A46.4 46.4 0 0 1 37.046 33a45.9 45.9 0 0 1-8.89 11.462A18.4 18.4 0 0 1 22.44 48a8 8 0 0 1-2.636.496M22.68 24.74a45 45 0 0 0-5.292 13.282c-.898 4.71-.036 7.543 1.217 8.264 1.299.748 4.451.038 8.28-3.29a44 44 0 0 0 8.484-10.973 44.5 44.5 0 0 0 5.164-12.566c1.062-5.131.145-8.272-1.157-9.02a3.8 3.8 0 0 0-3.033.145 16.5 16.5 0 0 0-4.886 3.1 44.4 44.4 0 0 0-8.766 11.067z"/><path fill="#00d8ff" d="M38.172 48.496c-2.196 0-4.985-1.327-7.889-3.819a46.5 46.5 0 0 1-9.312-11.705 46.3 46.3 0 0 1-5.468-13.701 18.4 18.4 0 0 1-.256-6.47 5.48 5.48 0 0 1 2.324-4.022c2.41-1.393 6.498.038 10.67 3.736a46.6 46.6 0 0 1 8.735 11.215A45.9 45.9 0 0 1 42.5 37.133c.488 2.203.564 4.476.222 6.706a5.72 5.72 0 0 1-2.42 4.133 4.2 4.2 0 0 1-2.131.524M22.648 31.998a45.2 45.2 0 0 0 8.9 11.207c3.643 3.13 6.534 3.803 7.777 3.073 1.297-.752 2.253-3.822 1.267-8.789a44 44 0 0 0-5.3-12.795 44.7 44.7 0 0 0-8.337-10.74c-3.928-3.48-7.114-4.258-8.412-3.508a3.77 3.77 0 0 0-1.385 2.688 16.5 16.5 0 0 0 .247 5.766 44.4 44.4 0 0 0 5.244 13.101z"/><defs><linearGradient id="paint0_linear_92_661" x1="29.003" x2="29.003" y1="0" y2="56.752" gradientUnits="userSpaceOnUse"><stop stop-color="#fdfdfd"/><stop offset="1" stop-color="#f5f4f4"/></linearGradient></defs></svg>