<svg xmlns="http://www.w3.org/2000/svg" width="58" height="57" fill="none" viewBox="0 0 58 57"><rect width="56.752" height="56.752" x=".876" fill="url(#paint0_linear_92_667)" rx="8.255"/><path fill="#007acc" d="M6.55 28.376v22.7h45.401V5.675h-45.4z"/><path fill="#fff" d="M43.192 26.497a5.55 5.55 0 0 1 2.804 1.65c.416.444.776.938 1.075 1.471.014.06-1.937 1.395-3.119 2.144-.043.03-.213-.163-.405-.451a2.6 2.6 0 0 0-.89-.924 2.5 2.5 0 0 0-1.218-.37c-1.36-.094-2.242.633-2.227 1.847-.012.298.054.594.192.857.3.633.853 1.01 2.597 1.78 3.204 1.41 4.584 2.34 5.446 3.664a6.78 6.78 0 0 1 .519 5.581 6.1 6.1 0 0 1-1.998 2.505 5.94 5.94 0 0 1-2.967 1.122 13.5 13.5 0 0 1-3.416-.036 8.2 8.2 0 0 1-4.563-2.427 8 8 0 0 1-1.168-1.766q.198-.15.413-.268c.199-.116.961-.56 1.666-.981l1.281-.764.27.404a6.1 6.1 0 0 0 1.708 1.668 4.09 4.09 0 0 0 4.363-.226 2.02 2.02 0 0 0 .25-2.536c-.35-.509-1.06-.937-3.082-1.832a11.1 11.1 0 0 1-4.221-2.652 6.1 6.1 0 0 1-1.232-2.29 9.4 9.4 0 0 1-.079-2.922 5.6 5.6 0 0 1 1.629-2.913 5.4 5.4 0 0 1 2.97-1.434 11.1 11.1 0 0 1 3.401.099m-10.528 1.911.014 1.876h-5.836V47.22h-4.13V30.284h-5.837v-1.838q-.024-.946.05-1.89c.02-.03 3.573-.045 7.88-.037l7.837.022z"/><defs><linearGradient id="paint0_linear_92_667" x1="29.252" x2="29.252" y1="0" y2="56.752" gradientUnits="userSpaceOnUse"><stop stop-color="#fdfdfd"/><stop offset="1" stop-color="#f5f4f4"/></linearGradient></defs></svg>