<svg xmlns="http://www.w3.org/2000/svg" width="58" height="57" fill="none" viewBox="0 0 58 57"><rect width="56.752" height="56.752" x=".621" fill="url(#paint0_linear_92_633)" rx="8.255"/><path fill="#e44f26" d="M12.75 46.538 9.133 5.675H48.86l-3.62 40.857-16.267 4.545z"/><path fill="#f1662a" d="m29.255 47.465 12.948-3.634 3.045-34.544H29.255z"/><path fill="#ebebeb" d="M29.255 24.29H22.72l-.45-5.241h6.985V13.93H16.873l.118 1.375 1.213 14.103h11.05zm0 12.738-.022.007-5.502-1.523-.351-4.04h-4.96l.692 7.952 10.12 2.882.022-.007z"/><path fill="#fff" d="M29.255 24.249v4.963h6.012l-.565 6.437-5.447 1.493v5.164l10.01-2.821.073-.838 1.147-13.066.12-1.332zm0-10.319v5.159h11.939l.1-1.158.225-2.616.118-1.385z"/><defs><linearGradient id="paint0_linear_92_633" x1="28.997" x2="28.997" y1="0" y2="56.752" gradientUnits="userSpaceOnUse"><stop stop-color="#fdfdfd"/><stop offset="1" stop-color="#f5f4f4"/></linearGradient></defs></svg>