<svg width="57" height="57" viewBox="0 0 57 57" fill="none" xmlns="http://www.w3.org/2000/svg">
<rect width="57" height="56.7516" rx="8.25478" fill="url(#paint0_linear_760_1047)"/>
<g clip-path="url(#clip0_760_1047)">
<path d="M6.625 6.50073H43.375C45.2315 6.50073 47.012 7.23823 48.3247 8.55098C49.6375 9.86374 50.375 11.6442 50.375 13.5007V43.2507C50.375 45.1072 49.6375 46.8877 48.3247 48.2005C47.012 49.5132 45.2315 50.2507 43.375 50.2507H13.625C11.7685 50.2507 9.98801 49.5132 8.67525 48.2005C7.3625 46.8877 6.625 45.1072 6.625 43.2507V6.50073Z" fill="#663399"/>
<path d="M42.3486 46.7463C40.9316 46.7463 39.8479 46.3342 39.0892 45.506C38.3389 44.6735 37.9482 43.4857 37.9132 41.9343H40.967C40.9845 43.3063 41.4666 43.994 42.4142 43.994C42.8972 43.994 43.2394 43.8409 43.4367 43.5382C43.6296 43.2363 43.7307 42.7537 43.7307 42.0922C43.7307 41.5663 43.599 41.128 43.3444 40.7819C42.9989 40.3703 42.5553 40.0522 42.0546 39.857L40.9228 39.3132C39.9139 38.8311 39.1811 38.2615 38.7292 37.5952C38.2904 36.9332 38.0712 36.0044 38.0712 34.817C38.0712 33.4888 38.4575 32.4108 39.2249 31.5822C40.0146 30.754 41.0895 30.3423 42.4624 30.3423C43.788 30.3423 44.8144 30.7496 45.538 31.5603C46.2752 32.3758 46.6611 33.5413 46.6921 35.0664H43.7526C43.7701 34.5677 43.6694 34.0724 43.4586 33.62C43.2923 33.2875 42.9672 33.1208 42.4847 33.1208C41.625 33.1208 41.1949 33.6332 41.1949 34.6543C41.1949 35.1718 41.2999 35.5748 41.5108 35.8815C41.8146 36.2208 42.1952 36.4824 42.6207 36.6445L43.7044 37.1222C44.8231 37.635 45.6303 38.2619 46.126 39.0201C46.6261 39.7739 46.8719 40.7819 46.8719 42.0441C46.8719 43.5561 46.4769 44.7172 45.6741 45.5279C44.8756 46.3386 43.7657 46.7463 42.3491 46.7463H42.3486ZM32.4865 46.7463C31.069 46.7463 29.9857 46.3342 29.2267 45.506C28.4764 44.6735 28.0861 43.4857 28.0511 41.9343H31.1044C31.1219 43.3063 31.6045 43.994 32.5526 43.994C33.0347 43.994 33.3768 43.8409 33.5697 43.5382C33.7675 43.2363 33.8637 42.7537 33.8637 42.0922C33.8637 41.5663 33.7369 41.128 33.4822 40.7819C33.1367 40.3703 32.6932 40.0522 32.1925 39.857L31.0607 39.3132C30.0514 38.8311 29.319 38.2615 28.8671 37.5952C28.4282 36.9332 28.2091 36.0044 28.2091 34.817C28.2091 33.4888 28.5949 32.4108 29.3627 31.5822C30.1524 30.754 31.2274 30.3423 32.6002 30.3423C33.9254 30.3423 34.9518 30.7496 35.6715 31.5603C36.4174 32.3758 36.7989 33.5413 36.8296 35.0664H33.8904C33.9079 34.5677 33.8073 34.0724 33.5964 33.62C33.4297 33.2875 33.1051 33.1208 32.6226 33.1208C31.7624 33.1208 31.3324 33.6332 31.3324 34.6543C31.3324 35.1718 31.4378 35.5748 31.6482 35.8815C31.952 36.2208 32.3326 36.4824 32.7582 36.6445L33.8419 37.1222C34.9606 37.635 35.7677 38.2619 36.2639 39.0201C36.7596 39.7739 37.0094 40.7819 37.0094 42.0441C37.0094 43.5561 36.6104 44.7172 35.8119 45.5279C35.0135 46.3386 33.9036 46.7463 32.4865 46.7463ZM22.2162 46.7463C20.8293 46.7463 19.7286 46.3692 18.9126 45.6154C18.0967 44.8664 17.6929 43.7398 17.6929 42.2497V34.887C17.6929 33.4061 18.1229 32.2839 18.9826 31.5126C19.8559 30.75 21.0008 30.3646 22.4179 30.3646C23.7912 30.3646 24.8744 30.7588 25.6772 31.5388C26.4892 32.3233 26.897 33.4892 26.897 35.045V35.6277H23.6639V35.0625C23.6639 34.4622 23.5322 34.0195 23.2776 33.7303C23.1664 33.5857 23.0225 33.4694 22.8579 33.391C22.6932 33.3125 22.5123 33.2741 22.3299 33.2788C21.8036 33.2788 21.4309 33.4582 21.22 33.8222C20.9955 34.3257 20.8947 34.8756 20.926 35.426V41.8249C20.926 43.1615 21.3959 43.8409 22.3304 43.854C22.7687 43.854 23.0977 43.6961 23.3261 43.3807C23.5741 42.9822 23.6922 42.5165 23.6639 42.048V41.5707H26.897V42.0703C26.897 43.109 26.6953 43.9765 26.2871 44.6691C25.8991 45.345 25.3168 45.8886 24.6159 46.2292C23.8673 46.5865 23.0455 46.7636 22.2162 46.7463Z" fill="white"/>
</g>
<defs>
<linearGradient id="paint0_linear_760_1047" x1="28.5" y1="0" x2="28.5" y2="56.7516" gradientUnits="userSpaceOnUse">
<stop stop-color="#FDFDFD"/>
<stop offset="1" stop-color="#F5F4F4"/>
</linearGradient>
<clipPath id="clip0_760_1047">
<rect width="43.75" height="43.75" fill="white" transform="translate(6.625 6.50073)"/>
</clipPath>
</defs>
</svg>
