<svg xmlns="http://www.w3.org/2000/svg" width="57" height="57" fill="none" viewBox="0 0 57 57"><rect width="56.752" height="56.752" x=".124" fill="url(#paint0_linear_92_650)" rx="8.255"/><path fill="#f5de19" d="M50.943 5.675H6.057v45.402h44.886z"/><path fill="#000" d="M36.467 41.107A4.63 4.63 0 0 0 38.2 43a4.67 4.67 0 0 0 2.482.685c1.768 0 2.898-.878 2.898-2.095 0-1.45-1.161-1.97-3.107-2.816l-1.067-.454c-3.08-1.304-5.123-2.937-5.123-6.39 0-3.179 2.432-5.602 6.247-5.602a6.34 6.34 0 0 1 3.548.79 6.3 6.3 0 0 1 2.52 2.607l-3.336 2.119a2.9 2.9 0 0 0-1.084-1.333 2.9 2.9 0 0 0-1.654-.485 1.87 1.87 0 0 0-1.424.462 1.85 1.85 0 0 0-.618 1.356c0 1.271.793 1.787 2.624 2.579l1.066.454c3.626 1.546 5.675 3.12 5.675 6.661 0 3.819-3.017 5.91-7.069 5.91a8.24 8.24 0 0 1-4.532-1.025 8.17 8.17 0 0 1-3.242-3.312zm-15.07.367c.67 1.181 1.279 2.18 2.744 2.18 1.401 0 2.287-.544 2.287-2.664V26.57h4.265v14.477c0 4.39-2.594 6.389-6.37 6.389a6.65 6.65 0 0 1-3.803-.949 6.6 6.6 0 0 1-2.596-2.92z"/><defs><linearGradient id="paint0_linear_92_650" x1="28.5" x2="28.5" y1="0" y2="56.752" gradientUnits="userSpaceOnUse"><stop stop-color="#fdfdfd"/><stop offset="1" stop-color="#f5f4f4"/></linearGradient></defs></svg>