<svg width="57" height="22" viewBox="0 0 57 22" fill="none" xmlns="http://www.w3.org/2000/svg">
<g filter="url(#filter0_ddd_579_957)">
<path d="M9.29297 11.49C9.29297 11.7166 9.25781 11.9509 9.1875 12.1931C9.11719 12.4353 9.00781 12.6462 8.85938 12.8259C8.6875 13.0134 8.46484 13.1697 8.19141 13.2947C7.91797 13.4197 7.55469 13.4822 7.10156 13.4822C6.90625 13.4822 6.73047 13.4705 6.57422 13.447C6.41797 13.4236 6.26562 13.3884 6.11719 13.3416V12.4509C6.25781 12.5056 6.42578 12.5564 6.62109 12.6033C6.81641 12.6423 7 12.6619 7.17188 12.6619C7.21094 12.6619 7.25781 12.6619 7.3125 12.6619C7.36719 12.6619 7.42188 12.658 7.47656 12.6501C7.5625 12.6345 7.65625 12.6033 7.75781 12.5564C7.86719 12.5095 7.96484 12.4392 8.05078 12.3455C8.13672 12.2439 8.21094 12.1189 8.27344 11.9705C8.34375 11.8142 8.37891 11.615 8.37891 11.3728V4.93921H9.29297V11.49Z" fill="#F5DE19"/>
<path d="M14.6634 13.3533H13.7728V12.6267C13.6478 12.7986 13.4291 12.9705 13.1166 13.1423C12.9291 13.2517 12.7181 13.3376 12.4837 13.4001C12.2572 13.4548 11.9916 13.4822 11.6869 13.4822C11.5306 13.4822 11.3548 13.447 11.1595 13.3767C10.972 13.3064 10.8119 13.2048 10.6791 13.072C10.5306 12.9392 10.4173 12.7791 10.3392 12.5916C10.2611 12.3962 10.222 12.1775 10.222 11.9353C10.222 11.4978 10.3392 11.1189 10.5736 10.7986C10.808 10.4783 11.0931 10.2556 11.4291 10.1306C11.6556 10.0525 11.8978 9.9939 12.1556 9.95483C12.4134 9.91577 12.64 9.89624 12.8353 9.89624H13.7728V9.34546C13.7728 9.2439 13.7572 9.1189 13.7259 8.97046C13.7025 8.81421 13.6478 8.66577 13.5619 8.52515C13.4681 8.39233 13.3314 8.27905 13.1517 8.1853C12.9798 8.08374 12.7728 8.03296 12.5306 8.03296C12.2181 8.03296 11.9447 8.1228 11.7103 8.30249C11.4837 8.47437 11.3705 8.70483 11.3705 8.9939H10.3627C10.3627 8.78296 10.4056 8.57983 10.4916 8.38452C10.5775 8.18921 10.7064 8.01343 10.8783 7.85718C11.058 7.69312 11.2923 7.5603 11.5814 7.45874C11.8705 7.35718 12.1869 7.3064 12.5306 7.3064C13.2337 7.3064 13.765 7.4978 14.1244 7.88062C14.4837 8.26343 14.6634 8.73608 14.6634 9.29858V13.3533ZM13.7728 11.1267V10.5642C13.6009 10.5642 13.4017 10.5681 13.1752 10.5759C12.9486 10.5759 12.6712 10.6033 12.3431 10.658C12.0462 10.7126 11.7806 10.8259 11.5462 10.9978C11.2728 11.2244 11.1361 11.4978 11.1361 11.8181C11.1361 12.1462 11.2259 12.3845 11.4056 12.533C11.5853 12.6814 11.808 12.7556 12.0736 12.7556C12.1752 12.7556 12.3158 12.7322 12.4955 12.6853C12.6752 12.6306 12.8353 12.5603 12.9759 12.4744C13.2728 12.2791 13.4994 12.0408 13.6556 11.7595C13.7337 11.6033 13.7728 11.3923 13.7728 11.1267Z" fill="#F5DE19"/>
<path d="M20.4206 7.44702L18.3816 13.3533H17.573L15.3581 7.44702H16.2487L17.9714 12.2166L19.5652 7.44702H20.4206Z" fill="#F5DE19"/>
<path d="M25.2403 13.3533H24.3497V12.6267C24.2247 12.7986 24.0059 12.9705 23.6934 13.1423C23.5059 13.2517 23.295 13.3376 23.0606 13.4001C22.8341 13.4548 22.5684 13.4822 22.2638 13.4822C22.1075 13.4822 21.9317 13.447 21.7364 13.3767C21.5489 13.3064 21.3888 13.2048 21.2559 13.072C21.1075 12.9392 20.9942 12.7791 20.9161 12.5916C20.838 12.3962 20.7989 12.1775 20.7989 11.9353C20.7989 11.4978 20.9161 11.1189 21.1505 10.7986C21.3848 10.4783 21.67 10.2556 22.0059 10.1306C22.2325 10.0525 22.4747 9.9939 22.7325 9.95483C22.9903 9.91577 23.2169 9.89624 23.4122 9.89624H24.3497V9.34546C24.3497 9.2439 24.3341 9.1189 24.3028 8.97046C24.2794 8.81421 24.2247 8.66577 24.1388 8.52515C24.045 8.39233 23.9083 8.27905 23.7286 8.1853C23.5567 8.08374 23.3497 8.03296 23.1075 8.03296C22.795 8.03296 22.5216 8.1228 22.2872 8.30249C22.0606 8.47437 21.9473 8.70483 21.9473 8.9939H20.9395C20.9395 8.78296 20.9825 8.57983 21.0684 8.38452C21.1544 8.18921 21.2833 8.01343 21.4552 7.85718C21.6348 7.69312 21.8692 7.5603 22.1583 7.45874C22.4473 7.35718 22.7638 7.3064 23.1075 7.3064C23.8106 7.3064 24.3419 7.4978 24.7013 7.88062C25.0606 8.26343 25.2403 8.73608 25.2403 9.29858V13.3533ZM24.3497 11.1267V10.5642C24.1778 10.5642 23.9786 10.5681 23.752 10.5759C23.5255 10.5759 23.2481 10.6033 22.92 10.658C22.6231 10.7126 22.3575 10.8259 22.1231 10.9978C21.8497 11.2244 21.713 11.4978 21.713 11.8181C21.713 12.1462 21.8028 12.3845 21.9825 12.533C22.1622 12.6814 22.3848 12.7556 22.6505 12.7556C22.752 12.7556 22.8927 12.7322 23.0723 12.6853C23.252 12.6306 23.4122 12.5603 23.5528 12.4744C23.8497 12.2791 24.0763 12.0408 24.2325 11.7595C24.3106 11.6033 24.3497 11.3923 24.3497 11.1267Z" fill="#F5DE19"/>
<path d="M30.7397 11.0798C30.7397 11.8689 30.4936 12.4509 30.0014 12.8259C29.517 13.2009 28.8569 13.3884 28.0209 13.3884C27.7006 13.3884 27.3686 13.3494 27.0248 13.2712C26.6889 13.1853 26.4311 13.115 26.2514 13.0603V12.3103C26.3608 12.3572 26.5678 12.4314 26.8725 12.533C27.0522 12.5876 27.2475 12.6423 27.4584 12.697C27.6772 12.7439 27.8959 12.7673 28.1147 12.7673C28.3491 12.7673 28.5678 12.74 28.7709 12.6853C28.9819 12.6306 29.1733 12.5486 29.3452 12.4392C29.5248 12.3298 29.6772 12.1736 29.8022 11.9705C29.935 11.7595 30.0014 11.5134 30.0014 11.2322C30.0014 10.7712 29.81 10.3689 29.4272 10.0251C29.1225 9.75171 28.8022 9.53296 28.4662 9.3689C28.2319 9.23608 27.978 9.09546 27.7045 8.94702C27.4389 8.79858 27.1889 8.62671 26.9545 8.4314C26.7202 8.23608 26.5327 8.02124 26.392 7.78687C26.2514 7.54468 26.1811 7.26733 26.1811 6.95483C26.1811 6.23608 26.3959 5.71265 26.8256 5.38452C27.2631 5.04858 27.8256 4.88062 28.5131 4.88062C28.685 4.88062 28.8608 4.89624 29.0405 4.92749C29.2202 4.95874 29.392 4.9939 29.5561 5.03296C29.853 5.10327 30.0834 5.16968 30.2475 5.23218V5.87671C30.2084 5.86108 29.9897 5.79077 29.5912 5.66577C29.1928 5.53296 28.7983 5.46655 28.4077 5.46655C27.9936 5.46655 27.6381 5.58765 27.3412 5.82983C27.0522 6.07202 26.9077 6.42358 26.9077 6.88452C26.9077 7.06421 26.9506 7.22827 27.0366 7.37671C27.1303 7.52515 27.2319 7.66187 27.3412 7.78687C27.4741 7.90405 27.6186 8.01733 27.7748 8.12671C27.9311 8.22827 28.0873 8.32593 28.2436 8.41968C28.7983 8.70874 29.2084 8.94702 29.4741 9.13452C29.7397 9.31421 29.9623 9.48999 30.142 9.66187C30.5405 10.0681 30.7397 10.5408 30.7397 11.0798Z" fill="#F5DE19"/>
<path d="M35.9227 9.19312H35.1727C35.0633 8.35718 34.6297 7.93921 33.8719 7.93921C33.3875 7.93921 32.9852 8.14624 32.6648 8.5603C32.3445 8.97437 32.1844 9.54858 32.1844 10.283C32.1844 10.4548 32.1961 10.6345 32.2195 10.822C32.243 11.0095 32.2859 11.2009 32.3484 11.3962C32.4266 11.6228 32.5398 11.8416 32.6883 12.0525C32.8367 12.2556 33.0438 12.4353 33.3094 12.5916C33.4031 12.6462 33.5398 12.7009 33.7195 12.7556C33.907 12.8103 34.1219 12.8376 34.3641 12.8376C34.5516 12.8376 34.7781 12.8103 35.0438 12.7556C35.3172 12.7009 35.5555 12.615 35.7586 12.4978V13.0017C35.4852 13.1658 35.1766 13.2791 34.8328 13.3416C34.4969 13.4041 34.1531 13.4158 33.8016 13.3767C33.4969 13.3455 33.2 13.2595 32.9109 13.1189C32.6219 12.9783 32.3914 12.8064 32.2195 12.6033C31.993 12.3533 31.8055 12.033 31.657 11.6423C31.5086 11.2517 31.4344 10.7947 31.4344 10.2712C31.4344 9.84155 31.4891 9.45483 31.5984 9.11108C31.7078 8.75952 31.8641 8.45874 32.0672 8.20874C32.2703 7.95874 32.5242 7.76343 32.8289 7.6228C33.1414 7.47437 33.4969 7.40015 33.8953 7.40015C34.1922 7.40015 34.4578 7.44312 34.6922 7.52905C34.9266 7.60718 35.1375 7.73218 35.325 7.90405C35.6844 8.23218 35.8836 8.66187 35.9227 9.19312Z" fill="#F5DE19"/>
<path d="M40.0509 8.11499C39.8556 8.11499 39.6408 8.14624 39.4064 8.20874C39.172 8.27124 38.9494 8.36108 38.7384 8.47827C38.5353 8.60327 38.3439 8.78296 38.1642 9.01733C37.9845 9.2439 37.8634 9.50171 37.8009 9.79077C37.7384 10.1345 37.7072 10.4939 37.7072 10.8689V13.2595H37.0392V7.54077H37.7072V8.90015C38.0431 8.33765 38.3947 7.95483 38.7619 7.75171C39.1681 7.51733 39.5978 7.40015 40.0509 7.40015V8.11499Z" fill="#F5DE19"/>
<path d="M41.7066 6.01733H40.8277V5.03296H41.7066V6.01733ZM41.6362 13.2595H40.9214V7.54077H41.6362V13.2595Z" fill="#F5DE19"/>
<path d="M47.6278 10.3181C47.6278 10.8103 47.5692 11.2439 47.452 11.6189C47.3348 11.9939 47.1864 12.3064 47.0067 12.5564C46.8192 12.8142 46.5848 13.0095 46.3036 13.1423C46.0223 13.2751 45.7372 13.3416 45.4481 13.3416C45.0497 13.3416 44.702 13.24 44.4052 13.0369C44.1161 12.8259 43.8934 12.5408 43.7372 12.1814V15.322H43.0575V7.54077H43.7372V8.5603C44.1122 7.78687 44.663 7.40015 45.3895 7.40015C45.7411 7.40015 46.0614 7.48218 46.3505 7.64624C46.6395 7.8103 46.8778 8.02515 47.0653 8.29077C47.245 8.5564 47.3817 8.86499 47.4755 9.21655C47.577 9.56812 47.6278 9.9353 47.6278 10.3181ZM46.9012 10.3767C46.9012 10.0408 46.8583 9.72437 46.7723 9.42749C46.6942 9.13062 46.5809 8.8689 46.4325 8.64233C46.2919 8.4314 46.1239 8.26343 45.9286 8.13843C45.7411 8.01343 45.538 7.95093 45.3192 7.95093C45.1083 7.95093 44.9052 8.01733 44.7098 8.15015C44.5145 8.27515 44.3466 8.44312 44.2059 8.65405C44.0653 8.88062 43.952 9.14233 43.8661 9.43921C43.788 9.72827 43.7489 10.0408 43.7489 10.3767C43.7489 10.7126 43.788 11.0291 43.8661 11.3259C43.952 11.615 44.0653 11.8689 44.2059 12.0876C44.3466 12.3064 44.5145 12.4822 44.7098 12.615C44.9052 12.74 45.1083 12.8025 45.3192 12.8025C45.538 12.8025 45.7411 12.74 45.9286 12.615C46.1239 12.49 46.2919 12.3181 46.4325 12.0994C46.5809 11.8806 46.6942 11.6228 46.7723 11.3259C46.8583 11.0291 46.9012 10.7126 46.9012 10.3767Z" fill="#F5DE19"/>
<path d="M51.3342 8.07983H49.8225V11.3962C49.8225 11.5759 49.8225 11.7478 49.8225 11.9119C49.8225 12.0759 49.8577 12.24 49.928 12.4041C49.9905 12.5525 50.092 12.6619 50.2327 12.7322C50.3733 12.8025 50.5412 12.8376 50.7366 12.8376C50.9475 12.8376 51.1389 12.822 51.3108 12.7908V13.3533C51.1389 13.3767 50.9045 13.3884 50.6077 13.3884C50.0842 13.3884 49.7053 13.2791 49.4709 13.0603C49.2444 12.8337 49.1311 12.4626 49.1311 11.947V8.07983H48.217V7.54077H49.1311V6.13452L49.8225 5.78296V7.54077H51.3342V8.07983Z" fill="#F5DE19"/>
</g>
<defs>
<filter id="filter0_ddd_579_957" x="5.11719" y="3.88062" width="47.217" height="12.4414" filterUnits="userSpaceOnUse" color-interpolation-filters="sRGB">
<feFlood flood-opacity="0" result="BackgroundImageFix"/>
<feColorMatrix in="SourceAlpha" type="matrix" values="0 0 0 0 0 0 0 0 0 0 0 0 0 0 0 0 0 0 127 0" result="hardAlpha"/>
<feOffset/>
<feGaussianBlur stdDeviation="0.5"/>
<feComposite in2="hardAlpha" operator="out"/>
<feColorMatrix type="matrix" values="0 0 0 0 0.407843 0 0 0 0 0.364706 0 0 0 0 0 0 0 0 1 0"/>
<feBlend mode="normal" in2="BackgroundImageFix" result="effect1_dropShadow_579_957"/>
<feColorMatrix in="SourceAlpha" type="matrix" values="0 0 0 0 0 0 0 0 0 0 0 0 0 0 0 0 0 0 127 0" result="hardAlpha"/>
<feOffset/>
<feGaussianBlur stdDeviation="0.5"/>
<feComposite in2="hardAlpha" operator="out"/>
<feColorMatrix type="matrix" values="0 0 0 0 0.407843 0 0 0 0 0.364706 0 0 0 0 0 0 0 0 1 0"/>
<feBlend mode="normal" in2="effect1_dropShadow_579_957" result="effect2_dropShadow_579_957"/>
<feColorMatrix in="SourceAlpha" type="matrix" values="0 0 0 0 0 0 0 0 0 0 0 0 0 0 0 0 0 0 127 0" result="hardAlpha"/>
<feOffset/>
<feGaussianBlur stdDeviation="0.5"/>
<feComposite in2="hardAlpha" operator="out"/>
<feColorMatrix type="matrix" values="0 0 0 0 0.407843 0 0 0 0 0.364706 0 0 0 0 0 0 0 0 1 0"/>
<feBlend mode="normal" in2="effect2_dropShadow_579_957" result="effect3_dropShadow_579_957"/>
<feBlend mode="normal" in="SourceGraphic" in2="effect3_dropShadow_579_957" result="shape"/>
</filter>
</defs>
</svg>
