<svg xmlns="http://www.w3.org/2000/svg" width="58" height="57" fill="none" viewBox="0 0 58 57"><rect width="56.752" height="56.752" x=".373" fill="url(#paint0_linear_92_641)" rx="8.255"/><path fill="#1572b6" d="M12.289 46.538 8.627 5.675H48.87l-3.666 40.857-16.48 4.545z"/><path fill="#33a9dc" d="m28.749 47.465 13.365-3.634 3.144-34.544h-16.51z"/><path fill="#fff" d="M28.749 23.944h6.534l.45-5.066H28.75V13.93h12.38l-.118 1.327L39.8 28.892H28.749z"/><path fill="#ebebeb" d="m28.749 36.764-.023.006-5.501-1.451-.352-3.848h-4.959l.692 7.575 10.118 2.744.024-.006z"/><path fill="#fff" d="m35.013 28.376-.61 6.701-5.654 1.506v5.207l10.392-2.843.077-.845.88-9.726z"/><path fill="#ebebeb" d="M28.749 13.93v4.643h-11.94l-.099-1.044-.225-2.354-.119-1.245zm0 9.803v5.159H23.5l-.096-1.16-.216-2.616-.115-1.383z"/><defs><linearGradient id="paint0_linear_92_641" x1="28.748" x2="28.748" y1="0" y2="56.752" gradientUnits="userSpaceOnUse"><stop stop-color="#fdfdfd"/><stop offset="1" stop-color="#f5f4f4"/></linearGradient></defs></svg>