<svg width="57" height="16" viewBox="0 0 57 16" fill="none" xmlns="http://www.w3.org/2000/svg">
<g filter="url(#filter0_ddd_565_2768)">
<path d="M13.1303 6.77849H8.92904C8.87697 6.77849 8.82704 6.79917 8.79022 6.83599C8.7534 6.87281 8.73272 6.92274 8.73272 6.97481V9.0291C8.73272 9.08117 8.7534 9.1311 8.79022 9.16792C8.82704 9.20474 8.87697 9.22542 8.92904 9.22542H10.5675V11.7776C10.5675 11.7776 10.1996 11.9032 9.18151 11.9032C7.9816 11.9032 6.30463 11.465 6.30463 7.77736C6.30463 4.08929 8.05109 3.6036 9.69076 3.6036C11.1098 3.6036 11.7207 3.85332 12.1102 3.97386C12.2319 4.01076 12.3458 3.88905 12.3458 3.78068L12.8142 1.79588C12.815 1.76616 12.8085 1.7367 12.7954 1.71003C12.7822 1.68336 12.7628 1.66027 12.7388 1.64275C12.5806 1.52967 11.6171 0.990967 9.18229 0.990967C6.37727 0.990967 3.5 2.18381 3.5 7.92107C3.5 13.6575 6.79425 14.5123 9.57022 14.5123C11.8687 14.5123 13.263 13.5299 13.263 13.5299C13.3203 13.4985 13.3266 13.418 13.3266 13.3807V6.97442C13.3266 6.92235 13.3059 6.87241 13.2691 6.8356C13.2323 6.79878 13.1824 6.77849 13.1303 6.77849ZM34.5885 1.48098H32.2224C32.1966 1.48109 32.1711 1.48628 32.1473 1.49627C32.1235 1.50625 32.1019 1.52083 32.0837 1.53918C32.0655 1.55752 32.0512 1.57927 32.0414 1.60317C32.0317 1.62708 32.0267 1.65267 32.0269 1.67848L32.0277 6.25039H28.34V1.67848C28.3402 1.6527 28.3352 1.62714 28.3255 1.60326C28.3158 1.57939 28.3015 1.55766 28.2833 1.53932C28.2652 1.52098 28.2437 1.50639 28.2199 1.49638C28.1961 1.48637 28.1706 1.48114 28.1449 1.48098H25.7792C25.7534 1.48109 25.7278 1.48628 25.704 1.49627C25.6802 1.50625 25.6586 1.52083 25.6405 1.53918C25.6223 1.55752 25.6079 1.57927 25.5982 1.60317C25.5884 1.62708 25.5835 1.65267 25.5837 1.67848V14.0584C25.5837 14.1672 25.6716 14.2559 25.7792 14.2559H28.1449C28.1707 14.2558 28.1962 14.2505 28.22 14.2405C28.2438 14.2305 28.2653 14.2158 28.2835 14.1975C28.3016 14.1791 28.3159 14.1573 28.3256 14.1334C28.3353 14.1095 28.3402 14.0839 28.34 14.058V8.76289H32.0277L32.0214 14.058C32.0214 14.1672 32.1093 14.2559 32.2177 14.2559H34.5885C34.6143 14.2558 34.6398 14.2505 34.6636 14.2405C34.6874 14.2305 34.709 14.2158 34.7271 14.1975C34.7452 14.1791 34.7595 14.1573 34.7692 14.1334C34.7789 14.1095 34.7838 14.0839 34.7836 14.058V1.67809C34.7836 1.56893 34.6972 1.48098 34.5885 1.48098ZM16.0692 1.76251C15.2274 1.76251 14.5442 2.4508 14.5442 3.30283C14.5442 4.15369 15.2274 4.84395 16.0692 4.84395C16.9118 4.84395 17.5946 4.15369 17.5946 3.30283C17.5946 2.4508 16.9114 1.76251 16.0692 1.76251ZM17.2298 5.535H14.8717C14.7633 5.535 14.6667 5.6465 14.6667 5.75487V13.9422C14.6667 14.1829 14.8167 14.2544 15.0106 14.2544H17.1348C17.3685 14.2544 17.4254 14.1397 17.4254 13.9383V11.4466V5.73249C17.4255 5.70671 17.4205 5.68116 17.4107 5.6573C17.401 5.63345 17.3866 5.61175 17.3684 5.59344C17.3503 5.57514 17.3287 5.56059 17.3049 5.55063C17.2811 5.54067 17.2556 5.5351 17.2298 5.535ZM43.7747 5.55345H41.4267C41.4009 5.55365 41.3754 5.55894 41.3517 5.56899C41.3279 5.57905 41.3064 5.59368 41.2883 5.61206C41.2703 5.63043 41.256 5.65219 41.2463 5.67609C41.2366 5.69999 41.2317 5.72556 41.232 5.75134V11.8216C41.232 11.8216 40.6351 12.2574 39.789 12.2574C38.9429 12.2574 38.7183 11.8738 38.7183 11.0449V5.75134C38.7185 5.72552 38.7136 5.69993 38.7039 5.676C38.6942 5.65208 38.6799 5.6303 38.6617 5.61192C38.6436 5.59354 38.622 5.57891 38.5983 5.56888C38.5745 5.55885 38.5489 5.5536 38.5231 5.55345H36.1406C36.0884 5.55386 36.0386 5.57492 36.0019 5.61201C35.9653 5.6491 35.9448 5.6992 35.945 5.75134V11.4454C35.945 13.9073 37.3173 14.5096 39.2047 14.5096C40.7533 14.5096 42.0019 13.6536 42.0019 13.6536C42.0019 13.6536 42.0608 14.1052 42.0883 14.1582C42.1158 14.2116 42.1853 14.2654 42.2611 14.2654L43.7767 14.2587C43.8025 14.2586 43.8281 14.2534 43.852 14.2434C43.8759 14.2334 43.8976 14.2188 43.9158 14.2004C43.934 14.182 43.9485 14.1602 43.9583 14.1363C43.9681 14.1123 43.9731 14.0867 43.973 14.0608L43.9718 5.75016C43.9716 5.69808 43.9509 5.64819 43.9141 5.61129C43.8774 5.57439 43.8276 5.55347 43.7755 5.55306L43.7747 5.55345ZM50.1912 5.27546C48.8578 5.27546 47.9508 5.87031 47.9508 5.87031V1.67809C47.951 1.65231 47.946 1.62675 47.9363 1.60287C47.9266 1.57899 47.9123 1.55726 47.8941 1.53892C47.876 1.52058 47.8545 1.50599 47.8307 1.49598C47.807 1.48598 47.7815 1.48074 47.7557 1.48059H45.3837C45.3578 1.48059 45.3322 1.48571 45.3083 1.49565C45.2844 1.50559 45.2627 1.52015 45.2445 1.53851C45.2262 1.55686 45.2118 1.57864 45.202 1.6026C45.1922 1.62655 45.1873 1.65221 45.1874 1.67809V14.058C45.1873 14.0839 45.1922 14.1096 45.202 14.1335C45.2118 14.1575 45.2262 14.1793 45.2445 14.1976C45.2627 14.216 45.2844 14.2305 45.3083 14.2405C45.3322 14.2504 45.3578 14.2555 45.3837 14.2555H47.0297C47.1043 14.2555 47.16 14.2175 47.2013 14.1503C47.2417 14.0836 47.301 13.5794 47.301 13.5794C47.301 13.5794 48.2708 14.4982 50.1076 14.4982C52.2632 14.4982 53.5 13.4051 53.5 9.5894C53.5 5.77372 51.525 5.27507 50.1908 5.27507L50.1912 5.27546ZM49.2646 12.2503C48.4506 12.2256 47.8982 11.8561 47.8982 11.8561V7.9356C47.8982 7.9356 48.4432 7.60185 49.1115 7.54139C49.9568 7.46561 50.7715 7.72122 50.7715 9.73782C50.7715 11.8647 50.4044 12.2845 49.265 12.2499L49.2646 12.2503ZM24.2577 12.204C24.1545 12.204 23.8898 12.246 23.6177 12.246C22.7461 12.246 22.4504 11.8408 22.4504 11.3162V7.83508H24.2251C24.251 7.83508 24.2767 7.82995 24.3006 7.81999C24.3245 7.81002 24.3463 7.79542 24.3645 7.77703C24.3828 7.75863 24.3972 7.7368 24.407 7.7128C24.4167 7.6888 24.4217 7.6631 24.4214 7.63719V5.73053C24.4216 5.70468 24.4166 5.67907 24.4067 5.65516C24.3969 5.63125 24.3825 5.60952 24.3642 5.5912C24.346 5.57289 24.3243 5.55836 24.3004 5.54844C24.2766 5.53853 24.251 5.53342 24.2251 5.53342H22.4504L22.4476 3.18936C22.4476 3.10023 22.4021 3.05586 22.2992 3.05586H19.8806C19.7871 3.05586 19.7365 3.09748 19.7365 3.1874V5.60999C19.7365 5.60999 18.5244 5.90251 18.4427 5.92606C18.4019 5.93796 18.3661 5.96276 18.3406 5.99674C18.3151 6.03072 18.3014 6.07205 18.3014 6.11453V7.6368C18.3012 7.66258 18.3061 7.68814 18.3159 7.71202C18.3256 7.7359 18.3399 7.75763 18.358 7.77597C18.3762 7.7943 18.3977 7.8089 18.4215 7.8189C18.4452 7.82891 18.4707 7.83414 18.4965 7.8343H19.7365V11.4968C19.7365 14.2178 21.6447 14.4848 22.9326 14.4848C23.5203 14.4848 24.2243 14.2964 24.3406 14.2532C24.4112 14.2269 24.4517 14.1542 24.4517 14.0753L24.4533 12.4007C24.4524 12.3488 24.4315 12.2993 24.3949 12.2625C24.3583 12.2257 24.3088 12.2046 24.2569 12.2036L24.2577 12.204Z" fill="#100E0F"/>
</g>
<defs>
<filter id="filter0_ddd_565_2768" x="2.5" y="-0.0090332" width="52" height="15.5212" filterUnits="userSpaceOnUse" color-interpolation-filters="sRGB">
<feFlood flood-opacity="0" result="BackgroundImageFix"/>
<feColorMatrix in="SourceAlpha" type="matrix" values="0 0 0 0 0 0 0 0 0 0 0 0 0 0 0 0 0 0 127 0" result="hardAlpha"/>
<feOffset/>
<feGaussianBlur stdDeviation="0.5"/>
<feComposite in2="hardAlpha" operator="out"/>
<feColorMatrix type="matrix" values="0 0 0 0 0.666667 0 0 0 0 0.666667 0 0 0 0 0.666667 0 0 0 1 0"/>
<feBlend mode="normal" in2="BackgroundImageFix" result="effect1_dropShadow_565_2768"/>
<feColorMatrix in="SourceAlpha" type="matrix" values="0 0 0 0 0 0 0 0 0 0 0 0 0 0 0 0 0 0 127 0" result="hardAlpha"/>
<feOffset/>
<feGaussianBlur stdDeviation="0.5"/>
<feComposite in2="hardAlpha" operator="out"/>
<feColorMatrix type="matrix" values="0 0 0 0 0.666667 0 0 0 0 0.666667 0 0 0 0 0.666667 0 0 0 1 0"/>
<feBlend mode="normal" in2="effect1_dropShadow_565_2768" result="effect2_dropShadow_565_2768"/>
<feColorMatrix in="SourceAlpha" type="matrix" values="0 0 0 0 0 0 0 0 0 0 0 0 0 0 0 0 0 0 127 0" result="hardAlpha"/>
<feOffset/>
<feGaussianBlur stdDeviation="0.5"/>
<feComposite in2="hardAlpha" operator="out"/>
<feColorMatrix type="matrix" values="0 0 0 0 0.666667 0 0 0 0 0.666667 0 0 0 0 0.666667 0 0 0 1 0"/>
<feBlend mode="normal" in2="effect2_dropShadow_565_2768" result="effect3_dropShadow_565_2768"/>
<feBlend mode="normal" in="SourceGraphic" in2="effect3_dropShadow_565_2768" result="shape"/>
</filter>
</defs>
</svg>
