<svg width="61" height="24" viewBox="0 0 61 24" fill="none" xmlns="http://www.w3.org/2000/svg">
<g filter="url(#filter0_d_579_988)">
<path d="M4 13.8599V4.61395H6.52535C7.16456 4.61395 7.74526 4.70902 8.26743 4.89916C8.78961 5.08929 9.206 5.42093 9.5166 5.89406C9.8272 6.36276 9.98251 7.01497 9.98251 7.85069C9.98251 8.45647 9.86547 9.02909 9.63139 9.56855C9.39731 10.1036 9.02819 10.5391 8.52402 10.8752C8.02435 11.2112 7.37613 11.3793 6.57937 11.3793H5.74208V13.8599H4ZM6.41731 5.95375H5.74208V9.9864H6.45782C7.05202 9.9864 7.49767 9.81174 7.79477 9.46242C8.09187 9.1131 8.24042 8.60681 8.24042 7.94355C8.24042 7.26702 8.10538 6.76736 7.83529 6.44457C7.5652 6.11736 7.09254 5.95375 6.41731 5.95375Z" fill="#31C5F0"/>
<path d="M10.3299 13.8599V3.75171H11.9235V7.09457L11.8897 8.08946C12.0698 7.833 12.3218 7.60307 12.646 7.39967C12.9701 7.19627 13.4 7.09457 13.9356 7.09457C14.6109 7.09457 15.115 7.30681 15.4481 7.7313C15.7813 8.15579 15.9478 8.74389 15.9478 9.49559V13.8599H14.2192V9.66804C14.2192 9.30103 14.1292 9.00477 13.9491 8.77926C13.7736 8.54933 13.526 8.43436 13.2064 8.43436C12.8913 8.43436 12.6099 8.54933 12.3624 8.77926C12.1148 9.00477 11.991 9.30103 11.991 9.66804V13.8599H10.3299Z" fill="#31C5F0"/>
<path d="M19.4689 13.9925C18.4786 13.9925 17.7133 13.6874 17.1731 13.0772C16.633 12.467 16.3629 11.6225 16.3629 10.5435C16.3629 9.45579 16.642 8.60902 17.2001 8.00324C17.7583 7.39746 18.5326 7.09457 19.5229 7.09457C20.5178 7.09457 21.274 7.40851 21.7917 8.0364C22.3139 8.65987 22.575 9.49559 22.575 10.5435C22.575 11.5915 22.3049 12.4294 21.7647 13.0573C21.229 13.6808 20.4637 13.9925 19.4689 13.9925ZM19.4959 12.666C20.3512 12.666 20.7788 11.9585 20.7788 10.5435C20.7788 9.11974 20.3512 8.40783 19.4959 8.40783C19.0728 8.40783 18.7442 8.57365 18.5101 8.90528C18.276 9.23249 18.159 9.77858 18.159 10.5435C18.159 11.3041 18.276 11.848 18.5101 12.1752C18.7442 12.5024 19.0728 12.666 19.4959 12.666Z" fill="#31C5F0"/>
<path d="M25.2519 14.0589C24.4912 14.0589 23.9757 13.8643 23.7056 13.4752C23.4401 13.0861 23.3073 12.498 23.3073 11.7109V8.64661H22.4295V7.25375H23.3748L23.4693 5.86089L24.9413 5.23742V7.25375H26.6024V8.64661H24.9413V11.6711C24.9413 12.0558 24.9953 12.3233 25.1034 12.4736C25.2159 12.6196 25.3689 12.6925 25.5625 12.6925C25.7606 12.6925 25.9699 12.6417 26.1905 12.54C26.411 12.4383 26.5844 12.3344 26.7104 12.2282L27.0345 13.568C26.895 13.6653 26.7126 13.7515 26.4876 13.8267C26.267 13.8975 26.0419 13.9527 25.8123 13.9925C25.5873 14.0367 25.4005 14.0589 25.2519 14.0589Z" fill="#31C5F0"/>
<path d="M29.8827 13.9925C28.8924 13.9925 28.1271 13.6874 27.5869 13.0772C27.0467 12.467 26.7767 11.6225 26.7767 10.5435C26.7767 9.45579 27.0557 8.60902 27.6139 8.00324C28.1721 7.39746 28.9464 7.09457 29.9367 7.09457C30.9315 7.09457 31.6878 7.40851 32.2055 8.0364C32.7276 8.65987 32.9887 9.49559 32.9887 10.5435C32.9887 11.5915 32.7186 12.4294 32.1785 13.0573C31.6428 13.6808 30.8775 13.9925 29.8827 13.9925ZM29.9097 12.666C30.765 12.666 31.1926 11.9585 31.1926 10.5435C31.1926 9.11974 30.765 8.40783 29.9097 8.40783C29.4866 8.40783 29.158 8.57365 28.9239 8.90528C28.6898 9.23249 28.5728 9.77858 28.5728 10.5435C28.5728 11.3041 28.6898 11.848 28.9239 12.1752C29.158 12.5024 29.4866 12.666 29.9097 12.666Z" fill="#31C5F0"/>
<path d="M35.3799 13.9793C34.8892 13.9793 34.4863 13.935 34.1712 13.8466C33.8606 13.7538 33.6175 13.6498 33.442 13.5349C33.2709 13.4155 33.1516 13.316 33.0841 13.2364L33.5838 11.9762C33.7818 12.1354 34.0339 12.2924 34.34 12.4471C34.6506 12.6019 35.0108 12.6793 35.4204 12.6793C35.74 12.6793 35.9628 12.6151 36.0889 12.4869C36.2194 12.3587 36.2847 12.2194 36.2847 12.0691C36.2847 11.8612 36.1384 11.6733 35.8458 11.5053C35.5532 11.3373 35.2133 11.1714 34.8262 11.0078C34.5966 10.9106 34.3535 10.7867 34.097 10.6364C33.8404 10.4861 33.6198 10.2871 33.4352 10.0395C33.2552 9.79185 33.1651 9.47348 33.1651 9.08436C33.1651 8.48742 33.3857 8.01208 33.8269 7.65834C34.2725 7.30018 34.9027 7.1211 35.7175 7.1211C36.2397 7.1211 36.6808 7.19848 37.0409 7.35324C37.4056 7.50358 37.6486 7.63844 37.7702 7.75783L37.311 8.95171C37.1355 8.81906 36.9126 8.69304 36.6426 8.57365C36.3725 8.45426 36.0821 8.39457 35.7715 8.39457C35.4294 8.39457 35.1908 8.43878 35.0558 8.52722C34.9207 8.61565 34.8532 8.75715 34.8532 8.95171C34.8532 9.16838 34.9725 9.34746 35.2111 9.48895C35.4542 9.62603 35.7445 9.76089 36.0821 9.89355C36.6448 10.1102 37.0972 10.3777 37.4393 10.6961C37.7859 11.01 37.9592 11.4102 37.9592 11.8966C37.9592 12.2592 37.8737 12.5997 37.7027 12.918C37.5316 13.232 37.257 13.4884 36.8789 13.6874C36.5008 13.882 36.0011 13.9793 35.3799 13.9793Z" fill="#31C5F0"/>
<path d="M38.3624 13.8599V3.75171H39.9559V7.09457L39.9222 8.08946C40.1022 7.833 40.3543 7.60307 40.6784 7.39967C41.0025 7.19627 41.4324 7.09457 41.9681 7.09457C42.6433 7.09457 43.1475 7.30681 43.4806 7.7313C43.8137 8.15579 43.9803 8.74389 43.9803 9.49559V13.8599H42.2517V9.66804C42.2517 9.30103 42.1617 9.00477 41.9816 8.77926C41.806 8.54933 41.5585 8.43436 41.2388 8.43436C40.9237 8.43436 40.6424 8.54933 40.3948 8.77926C40.1472 9.00477 40.0234 9.30103 40.0234 9.66804V13.8599H38.3624Z" fill="#31C5F0"/>
<path d="M47.5014 13.9925C46.511 13.9925 45.7458 13.6874 45.2056 13.0772C44.6654 12.467 44.3953 11.6225 44.3953 10.5435C44.3953 9.45579 44.6744 8.60902 45.2326 8.00324C45.7908 7.39746 46.565 7.09457 47.5554 7.09457C48.5502 7.09457 49.3065 7.40851 49.8241 8.0364C50.3463 8.65987 50.6074 9.49559 50.6074 10.5435C50.6074 11.5915 50.3373 12.4294 49.7971 13.0573C49.2614 13.6808 48.4962 13.9925 47.5014 13.9925ZM47.5284 12.666C48.3837 12.666 48.8113 11.9585 48.8113 10.5435C48.8113 9.11974 48.3837 8.40783 47.5284 8.40783C47.1052 8.40783 46.7766 8.57365 46.5425 8.90528C46.3085 9.23249 46.1914 9.77858 46.1914 10.5435C46.1914 11.3041 46.3085 11.848 46.5425 12.1752C46.7766 12.5024 47.1052 12.666 47.5284 12.666Z" fill="#31C5F0"/>
<path d="M51.0175 16.7517V7.25375H52.6245V7.46599L52.4895 8.39457C52.5435 8.14253 52.665 7.91702 52.8541 7.71804C53.0477 7.51906 53.2818 7.36429 53.5563 7.25375C53.8354 7.13878 54.128 7.0813 54.4341 7.0813C55.3254 7.0813 55.9759 7.38861 56.3855 8.00324C56.7952 8.61344 57 9.43368 57 10.464C57 11.618 56.7502 12.5046 56.2505 13.1236C55.7553 13.7383 55.1049 14.0456 54.2991 14.0456C53.7994 14.0456 53.3988 13.893 53.0972 13.5879C52.8001 13.2828 52.5975 12.9357 52.4895 12.5466L52.6515 13.7935V16.7517H51.0175ZM53.9075 12.7323C54.1235 12.7323 54.3329 12.6616 54.5354 12.5201C54.738 12.3742 54.9045 12.1398 55.0351 11.817C55.1656 11.4942 55.2309 11.0653 55.2309 10.5303C55.2309 9.78742 55.1004 9.25239 54.8393 8.92518C54.5827 8.59797 54.2811 8.43436 53.9345 8.43436C53.5158 8.43436 53.1962 8.64661 52.9756 9.0711C52.7596 9.49116 52.6515 10.0129 52.6515 10.6364C52.6515 11.2599 52.7618 11.7662 52.9824 12.1553C53.2075 12.54 53.5158 12.7323 53.9075 12.7323Z" fill="#31C5F0"/>
</g>
<defs>
<filter id="filter0_d_579_988" x="-2" y="-0.248291" width="65" height="29" filterUnits="userSpaceOnUse" color-interpolation-filters="sRGB">
<feFlood flood-opacity="0" result="BackgroundImageFix"/>
<feColorMatrix in="SourceAlpha" type="matrix" values="0 0 0 0 0 0 0 0 0 0 0 0 0 0 0 0 0 0 127 0" result="hardAlpha"/>
<feOffset dy="3"/>
<feGaussianBlur stdDeviation="2"/>
<feComposite in2="hardAlpha" operator="out"/>
<feColorMatrix type="matrix" values="0 0 0 0 0 0 0 0 0 0 0 0 0 0 0 0 0 0 0.25 0"/>
<feBlend mode="normal" in2="BackgroundImageFix" result="effect1_dropShadow_579_988"/>
<feBlend mode="normal" in="SourceGraphic" in2="effect1_dropShadow_579_988" result="shape"/>
</filter>
</defs>
</svg>
