<svg width="58" height="24" viewBox="0 0 58 24" fill="none" xmlns="http://www.w3.org/2000/svg">
<g filter="url(#filter0_d_565_2826)">
<path d="M4.634 16.2517V6.49371H6.426V16.2517H4.634ZM7.22072 16.2517V5.61171H8.92872V16.2517H7.22072ZM9.65869 16.2517V5.61171H11.3667V16.2517H9.65869ZM14.057 16.4197C13.3523 16.4197 12.832 16.1957 12.496 15.7477C12.1647 15.295 11.999 14.6744 11.999 13.8857V9.27971H13.749V13.7317C13.749 14.1144 13.819 14.427 13.959 14.6697C14.099 14.9124 14.337 15.0337 14.673 15.0337C15.0043 15.0337 15.2797 14.9124 15.499 14.6697C15.723 14.427 15.835 14.1144 15.835 13.7317V9.27971H17.585V16.2517H16.003L15.968 15.3487C15.7953 15.624 15.5597 15.8714 15.261 16.0907C14.967 16.31 14.5657 16.4197 14.057 16.4197ZM20.3891 16.3777C19.8805 16.3777 19.4628 16.331 19.1361 16.2377C18.8141 16.1397 18.5621 16.03 18.3801 15.9087C18.2028 15.7827 18.0791 15.6777 18.0091 15.5937L18.5271 14.2637C18.7325 14.4317 18.9938 14.5974 19.3111 14.7607C19.6331 14.924 20.0065 15.0057 20.4311 15.0057C20.7625 15.0057 20.9935 14.938 21.1241 14.8027C21.2595 14.6674 21.3271 14.5204 21.3271 14.3617C21.3271 14.1424 21.1755 13.944 20.8721 13.7667C20.5688 13.5894 20.2165 13.4144 19.8151 13.2417C19.5771 13.139 19.3251 13.0084 19.0591 12.8497C18.7931 12.691 18.5645 12.481 18.3731 12.2197C18.1865 11.9584 18.0931 11.6224 18.0931 11.2117C18.0931 10.5817 18.3218 10.08 18.7791 9.70671C19.2411 9.32871 19.8945 9.13971 20.7391 9.13971C21.2805 9.13971 21.7378 9.22138 22.1111 9.38471C22.4891 9.54338 22.7411 9.68571 22.8671 9.81171L22.3911 11.0717C22.2091 10.9317 21.9781 10.7987 21.6981 10.6727C21.4181 10.5467 21.1171 10.4837 20.7951 10.4837C20.4405 10.4837 20.1931 10.5304 20.0531 10.6237C19.9131 10.717 19.8431 10.8664 19.8431 11.0717C19.8431 11.3004 19.9668 11.4894 20.2141 11.6387C20.4661 11.7834 20.7671 11.9257 21.1171 12.0657C21.7005 12.2944 22.1695 12.5767 22.5241 12.9127C22.8835 13.244 23.0631 13.6664 23.0631 14.1797C23.0631 14.5624 22.9745 14.9217 22.7971 15.2577C22.6198 15.589 22.3351 15.8597 21.9431 16.0697C21.5511 16.275 21.0331 16.3777 20.3891 16.3777ZM25.8851 16.4617C25.0965 16.4617 24.5621 16.2564 24.2821 15.8457C24.0068 15.435 23.8691 14.8144 23.8691 13.9837V10.7497H22.9591V9.27971H23.9391L24.0371 7.80971L25.5631 7.15171V9.27971H27.2851V10.7497H25.5631V13.9417C25.5631 14.3477 25.6191 14.63 25.7311 14.7887C25.8478 14.9427 26.0065 15.0197 26.2071 15.0197C26.4125 15.0197 26.6295 14.966 26.8581 14.8587C27.0868 14.7514 27.2665 14.6417 27.3971 14.5297L27.7331 15.9437C27.5885 16.0464 27.3995 16.1374 27.1661 16.2167C26.9375 16.2914 26.7041 16.3497 26.4661 16.3917C26.2328 16.4384 26.0391 16.4617 25.8851 16.4617ZM27.9395 16.2517V9.27971H29.5215L29.6055 10.5117C29.6802 10.3297 29.7945 10.136 29.9485 9.93071C30.1072 9.72538 30.3242 9.55271 30.5995 9.41271C30.8795 9.26804 31.2388 9.19571 31.6775 9.19571C31.8128 9.19571 31.9318 9.20504 32.0345 9.22371C32.1372 9.24238 32.2328 9.27038 32.3215 9.30771L31.9295 11.1417C31.7802 10.9924 31.5515 10.9177 31.2435 10.9177C30.8842 10.9177 30.5902 10.9924 30.3615 11.1417C30.1328 11.2864 29.9625 11.4497 29.8505 11.6317C29.7432 11.8137 29.6895 11.9537 29.6895 12.0517V16.2517H27.9395ZM33.5975 16.4477C33.1682 16.4477 32.8112 16.352 32.5265 16.1607C32.2465 15.9694 32.0365 15.715 31.8965 15.3977C31.7612 15.0804 31.6935 14.7304 31.6935 14.3477C31.6935 14.133 31.7472 13.8974 31.8545 13.6407C31.9665 13.384 32.1625 13.139 32.4425 12.9057C32.7225 12.6724 33.1168 12.481 33.6255 12.3317C34.1342 12.1824 34.7875 12.1077 35.5855 12.1077V11.7857C35.5855 11.4404 35.5015 11.1534 35.3335 10.9247C35.1702 10.696 34.8388 10.5817 34.3395 10.5817C33.9755 10.5817 33.6185 10.6447 33.2685 10.7707C32.9232 10.892 32.6688 11.0437 32.5055 11.2257L31.9455 9.88171C32.2255 9.69038 32.5988 9.51538 33.0655 9.35671C33.5368 9.19338 34.0595 9.11171 34.6335 9.11171C35.3242 9.11171 35.8608 9.21671 36.2435 9.42671C36.6262 9.63671 36.8945 9.93538 37.0485 10.3227C37.2025 10.7054 37.2795 11.1557 37.2795 11.6737V16.2517H35.7815L35.6555 15.2577C35.1702 16.051 34.4842 16.4477 33.5975 16.4477ZM34.3395 15.1037C34.5495 15.1037 34.7735 15.0197 35.0115 14.8517C35.2542 14.679 35.4455 14.4597 35.5855 14.1937V13.1997C35.5388 13.1904 35.4875 13.1857 35.4315 13.1857C35.3802 13.1857 35.3195 13.1857 35.2495 13.1857C34.9928 13.1857 34.7222 13.216 34.4375 13.2767C34.1575 13.3327 33.9195 13.433 33.7235 13.5777C33.5275 13.7224 33.4295 13.923 33.4295 14.1797C33.4295 14.5157 33.5042 14.7537 33.6535 14.8937C33.8028 15.0337 34.0315 15.1037 34.3395 15.1037ZM40.3084 16.4617C39.5197 16.4617 38.9854 16.2564 38.7054 15.8457C38.4301 15.435 38.2924 14.8144 38.2924 13.9837V10.7497H37.3824V9.27971H38.3624L38.4604 7.80971L39.9864 7.15171V9.27971H41.7084V10.7497H39.9864V13.9417C39.9864 14.3477 40.0424 14.63 40.1544 14.7887C40.2711 14.9427 40.4297 15.0197 40.6304 15.0197C40.8357 15.0197 41.0527 14.966 41.2814 14.8587C41.5101 14.7514 41.6897 14.6417 41.8204 14.5297L42.1564 15.9437C42.0117 16.0464 41.8227 16.1374 41.5894 16.2167C41.3607 16.2914 41.1274 16.3497 40.8894 16.3917C40.6561 16.4384 40.4624 16.4617 40.3084 16.4617ZM45.1091 16.3917C44.0824 16.3917 43.2891 16.0697 42.7291 15.4257C42.1691 14.7817 41.8891 13.8904 41.8891 12.7517C41.8891 11.6037 42.1784 10.71 42.7571 10.0707C43.3358 9.43138 44.1384 9.11171 45.1651 9.11171C46.1964 9.11171 46.9804 9.44304 47.5171 10.1057C48.0584 10.7637 48.3291 11.6457 48.3291 12.7517C48.3291 13.8577 48.0491 14.742 47.4891 15.4047C46.9338 16.0627 46.1404 16.3917 45.1091 16.3917ZM45.1371 14.9917C46.0238 14.9917 46.4671 14.245 46.4671 12.7517C46.4671 11.249 46.0238 10.4977 45.1371 10.4977C44.6984 10.4977 44.3578 10.6727 44.1151 11.0227C43.8724 11.368 43.7511 11.9444 43.7511 12.7517C43.7511 13.5544 43.8724 14.1284 44.1151 14.4737C44.3578 14.819 44.6984 14.9917 45.1371 14.9917ZM48.7246 16.2517V9.27971H50.3066L50.3906 10.5117C50.4653 10.3297 50.5796 10.136 50.7336 9.93071C50.8923 9.72538 51.1093 9.55271 51.3846 9.41271C51.6646 9.26804 52.0239 9.19571 52.4626 9.19571C52.5979 9.19571 52.7169 9.20504 52.8196 9.22371C52.9223 9.24238 53.0179 9.27038 53.1066 9.30771L52.7146 11.1417C52.5653 10.9924 52.3366 10.9177 52.0286 10.9177C51.6693 10.9177 51.3753 10.9924 51.1466 11.1417C50.9179 11.2864 50.7476 11.4497 50.6356 11.6317C50.5283 11.8137 50.4746 11.9537 50.4746 12.0517V16.2517H48.7246Z" fill="#FF7F18"/>
</g>
<defs>
<filter id="filter0_d_565_2826" x="-4" y="-0.248291" width="65" height="29" filterUnits="userSpaceOnUse" color-interpolation-filters="sRGB">
<feFlood flood-opacity="0" result="BackgroundImageFix"/>
<feColorMatrix in="SourceAlpha" type="matrix" values="0 0 0 0 0 0 0 0 0 0 0 0 0 0 0 0 0 0 127 0" result="hardAlpha"/>
<feOffset dy="3"/>
<feGaussianBlur stdDeviation="2"/>
<feComposite in2="hardAlpha" operator="out"/>
<feColorMatrix type="matrix" values="0 0 0 0 0 0 0 0 0 0 0 0 0 0 0 0 0 0 0.25 0"/>
<feBlend mode="normal" in2="BackgroundImageFix" result="effect1_dropShadow_565_2826"/>
<feBlend mode="normal" in="SourceGraphic" in2="effect1_dropShadow_565_2826" result="shape"/>
</filter>
</defs>
</svg>
