<svg xmlns="http://www.w3.org/2000/svg" width="57" height="57" fill="none" viewBox="0 0 57 57"><rect width="57" height="56.752" fill="url(#paint0_linear_568_896)" rx="8.255"/><path fill="#0c0824" d="M7.159 7.616H49.84v41.519H7.16z"/><path fill="#31c5f0" d="M7.159 7.617H49.84v41.518H7.16zM5.218 51.076h46.564v-45.4H5.218zM36.61 24.3c-1.533 0-2.057.777-2.057 1.417 0 .699.35 1.184 2.407 2.25 3.046 1.475 3.99 2.89 3.99 4.968 0 3.105-2.366 4.773-5.567 4.773a8.44 8.44 0 0 1-3.978-.832c-.136-.058-.154-.155-.154-.31V33.71c0-.195.096-.253.232-.155a7.2 7.2 0 0 0 3.9 1.144c1.533 0 2.174-.64 2.174-1.513 0-.699-.446-1.319-2.407-2.328-2.755-1.32-3.9-2.661-3.9-4.89 0-2.502 1.96-4.578 5.355-4.578a8.9 8.9 0 0 1 3.473.544.43.43 0 0 1 .194.387v2.661c0 .155-.096.253-.29.195a6.56 6.56 0 0 0-3.377-.873zm-16.686 2.31c.445.038.795.038 1.571.038 2.27 0 4.404-.795 4.404-3.88 0-2.464-1.533-3.705-4.113-3.705-.776 0-1.513.038-1.862.058zM16.47 16.299c0-.136.27-.233.427-.233 1.242-.058 3.085-.096 5.006-.096 5.375 0 7.47 2.948 7.47 6.713 0 4.928-3.57 7.043-7.954 7.043-.737 0-.99-.038-1.514-.038v7.45c0 .155-.058.233-.232.233h-2.969c-.154 0-.233-.058-.233-.233v-20.83z"/><defs><linearGradient id="paint0_linear_568_896" x1="28.5" x2="28.5" y1="0" y2="56.752" gradientUnits="userSpaceOnUse"><stop stop-color="#fdfdfd"/><stop offset="1" stop-color="#f5f4f4"/></linearGradient></defs></svg>