<svg xmlns="http://www.w3.org/2000/svg" width="58" height="57" fill="none" viewBox="0 0 58 57"><rect width="56.752" height="56.752" x=".373" fill="url(#paint0_linear_92_654)" rx="8.255"/><path fill="#f34f29" d="M50.342 26.354 30.747 6.534a2.9 2.9 0 0 0-2.044-.859 2.86 2.86 0 0 0-2.043.858l-4.07 4.117 5.161 5.22a3.4 3.4 0 0 1 1.89-.093 3.4 3.4 0 0 1 1.65.933c.454.462.77 1.042.912 1.677a3.5 3.5 0 0 1-.105 1.91l4.969 5.026a3.4 3.4 0 0 1 2.289.02c.738.271 1.362.79 1.768 1.47a3.51 3.51 0 0 1-.586 4.325 3.406 3.406 0 0 1-4.303.332 3.47 3.47 0 0 1-1.345-1.873 3.5 3.5 0 0 1 .117-2.312l-4.64-4.694v12.35a3.45 3.45 0 0 1 1.594 1.658c.328.72.402 1.533.21 2.302a3.47 3.47 0 0 1-1.267 1.926 3.405 3.405 0 0 1-4.308-.154 3.48 3.48 0 0 1-1.13-2.01 3.5 3.5 0 0 1 .37-2.282 3.45 3.45 0 0 1 1.704-1.541V22.377a3.4 3.4 0 0 1-1.123-.755 3.51 3.51 0 0 1-.745-3.808l-5.08-5.142L7.155 26.268a2.92 2.92 0 0 0-.85 2.068 2.95 2.95 0 0 0 .85 2.068L26.75 50.218a2.88 2.88 0 0 0 2.043.858 2.86 2.86 0 0 0 2.044-.858l19.505-19.735a2.92 2.92 0 0 0 .849-2.068 2.95 2.95 0 0 0-.85-2.068"/><path fill="#fff" d="m22.762 10.834 5.192 5.148a3.48 3.48 0 0 1 3.562.828 3.4 3.4 0 0 1 .812 3.536l4.998 4.956a3.5 3.5 0 0 1 2.302.02 3.45 3.45 0 0 1 1.78 1.449 3.4 3.4 0 0 1-.59 4.264 3.48 3.48 0 0 1-4.33.327 3.43 3.43 0 0 1-1.352-1.847 3.4 3.4 0 0 1 .118-2.28l-4.668-4.627v12.176a3.44 3.44 0 0 1 1.603 1.635c.33.711.405 1.512.211 2.27a3.42 3.42 0 0 1-1.274 1.9 3.47 3.47 0 0 1-4.334-.152 3.4 3.4 0 0 1-.765-4.233 3.44 3.44 0 0 1 1.714-1.519V22.397a3.46 3.46 0 0 1-1.883-1.862 3.4 3.4 0 0 1 .005-2.637l-5.111-5.07"/><defs><linearGradient id="paint0_linear_92_654" x1="28.748" x2="28.748" y1="0" y2="56.752" gradientUnits="userSpaceOnUse"><stop stop-color="#fdfdfd"/><stop offset="1" stop-color="#f5f4f4"/></linearGradient></defs></svg>