<svg width="58" height="22" viewBox="0 0 58 22" fill="none" xmlns="http://www.w3.org/2000/svg">
<g filter="url(#filter0_d_579_991)">
<path d="M4.63403 14.2518V4.49382H6.42603V14.2518H4.63403Z" fill="#FF7F18"/>
<path d="M7.22075 14.2518V3.61182H8.92875V14.2518H7.22075Z" fill="#FF7F18"/>
<path d="M9.65872 14.2518V3.61182H11.3667V14.2518H9.65872Z" fill="#FF7F18"/>
<path d="M14.057 14.4198C13.3524 14.4198 12.832 14.1958 12.496 13.7478C12.1647 13.2952 11.999 12.6745 11.999 11.8858V7.27982H13.749V11.7318C13.749 12.1145 13.819 12.4272 13.959 12.6698C14.099 12.9125 14.337 13.0338 14.673 13.0338C15.0044 13.0338 15.2797 12.9125 15.499 12.6698C15.723 12.4272 15.835 12.1145 15.835 11.7318V7.27982H17.585V14.2518H16.003L15.968 13.3488C15.7954 13.6242 15.5597 13.8715 15.261 14.0908C14.967 14.3102 14.5657 14.4198 14.057 14.4198Z" fill="#FF7F18"/>
<path d="M20.3892 14.3778C19.8805 14.3778 19.4628 14.3312 19.1362 14.2378C18.8142 14.1398 18.5622 14.0302 18.3802 13.9088C18.2028 13.7828 18.0792 13.6778 18.0092 13.5938L18.5272 12.2638C18.7325 12.4318 18.9938 12.5975 19.3112 12.7608C19.6332 12.9241 20.0065 13.0058 20.4312 13.0058C20.7625 13.0058 20.9935 12.9382 21.1242 12.8028C21.2595 12.6675 21.3272 12.5205 21.3272 12.3618C21.3272 12.1425 21.1755 11.9442 20.8722 11.7668C20.5688 11.5895 20.2165 11.4145 19.8152 11.2418C19.5772 11.1392 19.3252 11.0085 19.0592 10.8498C18.7932 10.6912 18.5645 10.4812 18.3732 10.2198C18.1865 9.95848 18.0932 9.62248 18.0932 9.21182C18.0932 8.58182 18.3218 8.08015 18.7792 7.70682C19.2412 7.32882 19.8945 7.13982 20.7392 7.13982C21.2805 7.13982 21.7378 7.22148 22.1112 7.38482C22.4892 7.54348 22.7412 7.68582 22.8672 7.81182L22.3912 9.07182C22.2092 8.93182 21.9782 8.79882 21.6982 8.67282C21.4182 8.54682 21.1172 8.48382 20.7952 8.48382C20.4405 8.48382 20.1932 8.53048 20.0532 8.62382C19.9132 8.71715 19.8432 8.86648 19.8432 9.07182C19.8432 9.30048 19.9668 9.48948 20.2142 9.63882C20.4662 9.78348 20.7672 9.92582 21.1172 10.0658C21.7005 10.2945 22.1695 10.5768 22.5242 10.9128C22.8835 11.2442 23.0632 11.6665 23.0632 12.1798C23.0632 12.5625 22.9745 12.9218 22.7972 13.2578C22.6198 13.5892 22.3352 13.8598 21.9432 14.0698C21.5512 14.2752 21.0332 14.3778 20.3892 14.3778Z" fill="#FF7F18"/>
<path d="M25.8852 14.4618C25.0965 14.4618 24.5622 14.2565 24.2822 13.8458C24.0068 13.4352 23.8692 12.8145 23.8692 11.9838V8.74982H22.9592V7.27982H23.9392L24.0372 5.80982L25.5632 5.15182V7.27982H27.2852V8.74982H25.5632V11.9418C25.5632 12.3478 25.6192 12.6302 25.7312 12.7888C25.8478 12.9428 26.0065 13.0198 26.2072 13.0198C26.4125 13.0198 26.6295 12.9662 26.8582 12.8588C27.0868 12.7515 27.2665 12.6418 27.3972 12.5298L27.7332 13.9438C27.5885 14.0465 27.3995 14.1375 27.1662 14.2168C26.9375 14.2915 26.7042 14.3498 26.4662 14.3918C26.2328 14.4385 26.0392 14.4618 25.8852 14.4618Z" fill="#FF7F18"/>
<path d="M27.9395 14.2518V7.27982H29.5215L29.6055 8.51182C29.6802 8.32982 29.7945 8.13615 29.9485 7.93082C30.1072 7.72548 30.3242 7.55282 30.5995 7.41282C30.8795 7.26815 31.2389 7.19582 31.6775 7.19582C31.8129 7.19582 31.9319 7.20515 32.0345 7.22382C32.1372 7.24248 32.2329 7.27048 32.3215 7.30782L31.9295 9.14182C31.7802 8.99248 31.5515 8.91782 31.2435 8.91782C30.8842 8.91782 30.5902 8.99248 30.3615 9.14182C30.1329 9.28648 29.9625 9.44982 29.8505 9.63182C29.7432 9.81382 29.6895 9.95382 29.6895 10.0518V14.2518H27.9395Z" fill="#FF7F18"/>
<path d="M33.5975 14.4478C33.1682 14.4478 32.8112 14.3522 32.5265 14.1608C32.2465 13.9695 32.0365 13.7152 31.8965 13.3978C31.7612 13.0805 31.6935 12.7305 31.6935 12.3478C31.6935 12.1332 31.7472 11.8975 31.8545 11.6408C31.9665 11.3841 32.1625 11.1392 32.4425 10.9058C32.7225 10.6725 33.1169 10.4812 33.6255 10.3318C34.1342 10.1825 34.7875 10.1078 35.5855 10.1078V9.78582C35.5855 9.44048 35.5015 9.15348 35.3335 8.92482C35.1702 8.69615 34.8389 8.58182 34.3395 8.58182C33.9755 8.58182 33.6185 8.64482 33.2685 8.77082C32.9232 8.89215 32.6688 9.04382 32.5055 9.22582L31.9455 7.88182C32.2255 7.69048 32.5989 7.51548 33.0655 7.35682C33.5369 7.19348 34.0595 7.11182 34.6335 7.11182C35.3242 7.11182 35.8609 7.21682 36.2435 7.42682C36.6262 7.63682 36.8945 7.93548 37.0485 8.32282C37.2025 8.70548 37.2795 9.15582 37.2795 9.67382V14.2518H35.7815L35.6555 13.2578C35.1702 14.0512 34.4842 14.4478 33.5975 14.4478ZM34.3395 13.1038C34.5495 13.1038 34.7735 13.0198 35.0115 12.8518C35.2542 12.6792 35.4455 12.4598 35.5855 12.1938V11.1998C35.5389 11.1905 35.4875 11.1858 35.4315 11.1858C35.3802 11.1858 35.3195 11.1858 35.2495 11.1858C34.9929 11.1858 34.7222 11.2162 34.4375 11.2768C34.1575 11.3328 33.9195 11.4332 33.7235 11.5778C33.5275 11.7225 33.4295 11.9232 33.4295 12.1798C33.4295 12.5158 33.5042 12.7538 33.6535 12.8938C33.8029 13.0338 34.0315 13.1038 34.3395 13.1038Z" fill="#FF7F18"/>
<path d="M40.3084 14.4618C39.5198 14.4618 38.9854 14.2565 38.7054 13.8458C38.4301 13.4352 38.2924 12.8145 38.2924 11.9838V8.74982H37.3824V7.27982H38.3624L38.4604 5.80982L39.9864 5.15182V7.27982H41.7084V8.74982H39.9864V11.9418C39.9864 12.3478 40.0424 12.6302 40.1544 12.7888C40.2711 12.9428 40.4298 13.0198 40.6304 13.0198C40.8358 13.0198 41.0528 12.9662 41.2814 12.8588C41.5101 12.7515 41.6898 12.6418 41.8204 12.5298L42.1564 13.9438C42.0118 14.0465 41.8228 14.1375 41.5894 14.2168C41.3608 14.2915 41.1274 14.3498 40.8894 14.3918C40.6561 14.4385 40.4624 14.4618 40.3084 14.4618Z" fill="#FF7F18"/>
<path d="M45.1091 14.3918C44.0825 14.3918 43.2891 14.0698 42.7291 13.4258C42.1691 12.7818 41.8891 11.8905 41.8891 10.7518C41.8891 9.60382 42.1785 8.71015 42.7571 8.07082C43.3358 7.43148 44.1385 7.11182 45.1651 7.11182C46.1965 7.11182 46.9805 7.44315 47.5171 8.10582C48.0585 8.76382 48.3291 9.64582 48.3291 10.7518C48.3291 11.8578 48.0491 12.7421 47.4891 13.4048C46.9338 14.0628 46.1405 14.3918 45.1091 14.3918ZM45.1371 12.9918C46.0238 12.9918 46.4671 12.2452 46.4671 10.7518C46.4671 9.24915 46.0238 8.49782 45.1371 8.49782C44.6985 8.49782 44.3578 8.67282 44.1151 9.02282C43.8725 9.36815 43.7511 9.94448 43.7511 10.7518C43.7511 11.5545 43.8725 12.1285 44.1151 12.4738C44.3578 12.8192 44.6985 12.9918 45.1371 12.9918Z" fill="#FF7F18"/>
<path d="M48.7246 14.2518V7.27982H50.3066L50.3906 8.51182C50.4653 8.32982 50.5796 8.13615 50.7336 7.93082C50.8923 7.72548 51.1093 7.55282 51.3846 7.41282C51.6646 7.26815 52.024 7.19582 52.4626 7.19582C52.598 7.19582 52.717 7.20515 52.8196 7.22382C52.9223 7.24248 53.018 7.27048 53.1066 7.30782L52.7146 9.14182C52.5653 8.99248 52.3366 8.91782 52.0286 8.91782C51.6693 8.91782 51.3753 8.99248 51.1466 9.14182C50.918 9.28648 50.7476 9.44982 50.6356 9.63182C50.5283 9.81382 50.4746 9.95382 50.4746 10.0518V14.2518H48.7246Z" fill="#FF7F18"/>
</g>
<defs>
<filter id="filter0_d_579_991" x="-4" y="-0.248291" width="65" height="29" filterUnits="userSpaceOnUse" color-interpolation-filters="sRGB">
<feFlood flood-opacity="0" result="BackgroundImageFix"/>
<feColorMatrix in="SourceAlpha" type="matrix" values="0 0 0 0 0 0 0 0 0 0 0 0 0 0 0 0 0 0 127 0" result="hardAlpha"/>
<feOffset dy="3"/>
<feGaussianBlur stdDeviation="2"/>
<feComposite in2="hardAlpha" operator="out"/>
<feColorMatrix type="matrix" values="0 0 0 0 0 0 0 0 0 0 0 0 0 0 0 0 0 0 0.25 0"/>
<feBlend mode="normal" in2="BackgroundImageFix" result="effect1_dropShadow_579_991"/>
<feBlend mode="normal" in="SourceGraphic" in2="effect1_dropShadow_579_991" result="shape"/>
</filter>
</defs>
</svg>
