<svg width="57" height="24" viewBox="0 0 57 24" fill="none" xmlns="http://www.w3.org/2000/svg">
<g filter="url(#filter0_d_565_2818)">
<path d="M21.244 16.2517L18.416 9.27971H20.376L21.58 12.7657L21.888 13.9137L22.168 12.7657L23.33 9.27971H25.178L22.49 16.2517H21.244ZM25.0352 8.14571V6.28371H26.9952V8.14571H25.0352ZM25.1052 16.2517V9.27971H26.9252V16.2517H25.1052ZM30.1669 16.4617C29.3783 16.4617 28.8439 16.2564 28.5639 15.8457C28.2886 15.435 28.1509 14.8144 28.1509 13.9837V10.7497H27.2409V9.27971H28.2209L28.3189 7.80971L29.8449 7.15171V9.27971H31.5669V10.7497H29.8449V13.9417C29.8449 14.3477 29.9009 14.63 30.0129 14.7887C30.1296 14.9427 30.2883 15.0197 30.4889 15.0197C30.6943 15.0197 30.9113 14.966 31.1399 14.8587C31.3686 14.7514 31.5483 14.6417 31.6789 14.5297L32.0149 15.9437C31.8703 16.0464 31.6813 16.1374 31.4479 16.2167C31.2193 16.2914 30.9859 16.3497 30.7479 16.3917C30.5146 16.4384 30.3209 16.4617 30.1669 16.4617ZM34.9552 16.4337C34.1712 16.4337 33.5389 16.2704 33.0582 15.9437C32.5776 15.6124 32.2276 15.176 32.0082 14.6347C31.7889 14.0887 31.6792 13.4937 31.6792 12.8497C31.6792 12.173 31.8029 11.5524 32.0502 10.9877C32.3022 10.4184 32.6686 9.96338 33.1492 9.62271C33.6346 9.28204 34.2272 9.11171 34.9272 9.11171C35.9726 9.11171 36.7029 9.41504 37.1182 10.0217C37.5336 10.6237 37.7412 11.4777 37.7412 12.5837C37.7412 12.6817 37.7389 12.8054 37.7342 12.9547C37.7296 13.104 37.7226 13.2324 37.7132 13.3397H33.5132C33.5412 13.8904 33.6952 14.322 33.9752 14.6347C34.2599 14.9474 34.6846 15.1037 35.2492 15.1037C35.5386 15.1037 35.8489 15.0407 36.1802 14.9147C36.5116 14.784 36.7566 14.6277 36.9152 14.4457L37.4752 15.7757C37.2886 15.9017 36.9922 16.044 36.5862 16.2027C36.1849 16.3567 35.6412 16.4337 34.9552 16.4337ZM33.4992 12.2477H35.9632C35.9632 11.7577 35.9189 11.3844 35.8302 11.1277C35.7462 10.8664 35.6296 10.6867 35.4802 10.5887C35.3309 10.4907 35.1606 10.4417 34.9692 10.4417C34.4932 10.4417 34.1362 10.619 33.8982 10.9737C33.6602 11.3237 33.5272 11.7484 33.4992 12.2477Z" fill="#BD34FE"/>
</g>
<defs>
<filter id="filter0_d_565_2818" x="-4" y="-0.248291" width="65" height="29" filterUnits="userSpaceOnUse" color-interpolation-filters="sRGB">
<feFlood flood-opacity="0" result="BackgroundImageFix"/>
<feColorMatrix in="SourceAlpha" type="matrix" values="0 0 0 0 0 0 0 0 0 0 0 0 0 0 0 0 0 0 127 0" result="hardAlpha"/>
<feOffset dy="3"/>
<feGaussianBlur stdDeviation="2"/>
<feComposite in2="hardAlpha" operator="out"/>
<feColorMatrix type="matrix" values="0 0 0 0 0 0 0 0 0 0 0 0 0 0 0 0 0 0 0.25 0"/>
<feBlend mode="normal" in2="BackgroundImageFix" result="effect1_dropShadow_565_2818"/>
<feBlend mode="normal" in="SourceGraphic" in2="effect1_dropShadow_565_2818" result="shape"/>
</filter>
</defs>
</svg>
