<svg width="57" height="29" viewBox="0 0 57 29" fill="none" xmlns="http://www.w3.org/2000/svg">
<g filter="url(#filter0_d_565_2761)">
<path d="M21.1982 8.56255C20.1291 8.56255 19.333 9.08755 19.333 10.3512C19.333 11.3032 19.8576 11.9641 21.1408 11.9641C22.2283 11.9641 22.9673 11.3231 22.9673 10.3118C22.9673 9.16567 22.306 8.56255 21.1982 8.56255ZM19.0611 17.4844C18.808 17.795 18.5556 18.125 18.5556 18.5145C18.5556 19.2915 19.5462 19.525 20.9076 19.525C22.0345 19.525 23.5701 19.4461 23.5701 18.3981C23.5701 17.775 22.831 17.7368 21.8978 17.6782L19.0611 17.4844ZM24.813 8.62114C25.1626 9.06841 25.5326 9.69028 25.5326 10.5844C25.5326 12.7415 23.8416 14.0047 21.3931 14.0047C20.7705 14.0047 20.2068 13.9274 19.8572 13.8301L19.2158 14.8602L21.1201 14.9762C24.4826 15.1907 26.4646 15.2879 26.4646 17.8719C26.4646 20.1075 24.5021 21.37 21.1201 21.37C17.6021 21.37 16.2615 20.4758 16.2615 18.9411C16.2615 18.0661 16.6505 17.6008 17.3306 16.9583C16.6888 16.6872 16.4755 16.2016 16.4755 15.6766C16.4755 15.2489 16.6892 14.8602 17.0392 14.4907C17.3892 14.1219 17.7779 13.752 18.2439 13.3247C17.2916 12.8582 16.5728 11.8477 16.5728 10.409C16.5728 8.17427 18.0498 6.6395 21.0232 6.6395C21.8591 6.6395 22.365 6.71645 22.8115 6.83403H26.6017V8.48559L24.813 8.62114ZM30.0209 5.08989C28.9126 5.08989 28.2712 4.4481 28.2712 3.33989C28.2712 2.23325 28.9126 1.63013 30.0209 1.63013C31.1482 1.63013 31.7892 2.23286 31.7892 3.33989C31.7896 4.4481 31.1482 5.08989 30.0209 5.08989ZM27.513 16.7696V15.2348L28.5048 15.0989C28.7767 15.0598 28.8154 15.0016 28.8154 14.7094V8.99575C28.8154 8.78247 28.7576 8.64575 28.5626 8.58794L27.513 8.21841L27.7267 6.64497H31.7505V14.7098C31.7505 15.0215 31.7693 15.0598 32.0615 15.0993L33.0529 15.2352V16.77L27.513 16.7696ZM40.7384 16.0157C39.9021 16.4231 38.6783 16.793 37.5697 16.793C35.2572 16.793 34.383 15.861 34.383 13.6637V8.57192C34.383 8.45591 34.383 8.37778 34.2271 8.37778H32.8669V6.6481C34.5779 6.45317 35.2576 5.5981 35.4712 3.47974H37.3181V6.24028C37.3181 6.37583 37.3181 6.43481 37.4736 6.43481H40.2138V8.37817H37.3181V13.0227C37.3181 14.1692 37.5904 14.6161 38.6396 14.6161C39.1845 14.6161 39.7474 14.4805 40.2138 14.3055L40.7384 16.0157Z" fill="#F34F29"/>
</g>
<defs>
<filter id="filter0_d_565_2761" x="-4" y="0" width="65" height="29" filterUnits="userSpaceOnUse" color-interpolation-filters="sRGB">
<feFlood flood-opacity="0" result="BackgroundImageFix"/>
<feColorMatrix in="SourceAlpha" type="matrix" values="0 0 0 0 0 0 0 0 0 0 0 0 0 0 0 0 0 0 127 0" result="hardAlpha"/>
<feOffset dy="3"/>
<feGaussianBlur stdDeviation="2"/>
<feComposite in2="hardAlpha" operator="out"/>
<feColorMatrix type="matrix" values="0 0 0 0 0 0 0 0 0 0 0 0 0 0 0 0 0 0 0.25 0"/>
<feBlend mode="normal" in2="BackgroundImageFix" result="effect1_dropShadow_565_2761"/>
<feBlend mode="normal" in="SourceGraphic" in2="effect1_dropShadow_565_2761" result="shape"/>
</filter>
</defs>
</svg>
