<svg width="57" height="22" viewBox="0 0 57 22" fill="none" xmlns="http://www.w3.org/2000/svg">
<g filter="url(#filter0_d_579_999)">
<path d="M22.3414 13.566L20 7.40095H21.6227L22.6196 10.4835L22.8746 11.4986L23.1064 10.4835L24.0685 7.40095H25.5985L23.373 13.566H22.3414Z" fill="#BD34FE"/>
<path d="M25.4802 6.3982V4.75171H27.103V6.3982H25.4802ZM25.5382 13.566V7.40095H27.045V13.566H25.5382Z" fill="#BD34FE"/>
<path d="M29.729 13.7517C29.076 13.7517 28.6336 13.5701 28.4018 13.207C28.1738 12.8439 28.0599 12.295 28.0599 11.5605V8.70081H27.3064V7.40095H28.1178L28.1989 6.10109L29.4624 5.51925V7.40095H30.8881V8.70081H29.4624V11.5234C29.4624 11.8824 29.5087 12.132 29.6015 12.2723C29.6981 12.4085 29.8294 12.4766 29.9956 12.4766C30.1656 12.4766 30.3452 12.4291 30.5345 12.3342C30.7239 12.2393 30.8726 12.1424 30.9808 12.0433L31.259 13.2937C31.1392 13.3844 30.9827 13.4649 30.7896 13.5351C30.6002 13.6011 30.407 13.6527 30.21 13.6898C30.0168 13.7311 29.8565 13.7517 29.729 13.7517Z" fill="#BD34FE"/>
<path d="M33.6934 13.7269C33.0443 13.7269 32.5208 13.5825 32.1228 13.2937C31.7248 13.0007 31.4351 12.6148 31.2535 12.1362C31.0719 11.6534 30.9811 11.1272 30.9811 10.5578C30.9811 9.95941 31.0835 9.41058 31.2882 8.91127C31.4969 8.40783 31.8002 8.00549 32.1981 7.70425C32.6 7.40302 33.0906 7.2524 33.6702 7.2524C34.5357 7.2524 35.1403 7.52062 35.4842 8.05707C35.8281 8.5894 36 9.34456 36 10.3225C36 10.4092 35.9981 10.5186 35.9942 10.6506C35.9903 10.7827 35.9845 10.8961 35.9768 10.991H32.4995C32.5227 11.478 32.6502 11.8597 32.882 12.1362C33.1177 12.4126 33.4693 12.5509 33.9368 12.5509C34.1763 12.5509 34.4333 12.4952 34.7076 12.3838C34.9819 12.2682 35.1848 12.13 35.3161 11.969L35.7798 13.1451C35.6252 13.2565 35.3799 13.3824 35.0437 13.5227C34.7115 13.6589 34.2613 13.7269 33.6934 13.7269ZM32.4879 10.0254H34.5279C34.5279 9.59215 34.4912 9.26202 34.4178 9.03506C34.3483 8.80398 34.2517 8.64511 34.128 8.55845C34.0044 8.47179 33.8634 8.42846 33.705 8.42846C33.3109 8.42846 33.0153 8.58527 32.8183 8.89889C32.6212 9.20838 32.5111 9.5839 32.4879 10.0254Z" fill="#BD34FE"/>
</g>
<defs>
<filter id="filter0_d_579_999" x="-4" y="-0.248291" width="65" height="29" filterUnits="userSpaceOnUse" color-interpolation-filters="sRGB">
<feFlood flood-opacity="0" result="BackgroundImageFix"/>
<feColorMatrix in="SourceAlpha" type="matrix" values="0 0 0 0 0 0 0 0 0 0 0 0 0 0 0 0 0 0 127 0" result="hardAlpha"/>
<feOffset dy="3"/>
<feGaussianBlur stdDeviation="2"/>
<feComposite in2="hardAlpha" operator="out"/>
<feColorMatrix type="matrix" values="0 0 0 0 0 0 0 0 0 0 0 0 0 0 0 0 0 0 0.25 0"/>
<feBlend mode="normal" in2="BackgroundImageFix" result="effect1_dropShadow_579_999"/>
<feBlend mode="normal" in="SourceGraphic" in2="effect1_dropShadow_579_999" result="shape"/>
</filter>
</defs>
</svg>
