<svg xmlns="http://www.w3.org/2000/svg" width="57" height="57" fill="none" viewBox="0 0 57 57"><rect width="57" height="56.752" fill="url(#paint0_linear_564_2381)" rx="8.255"/><g clip-path="url(#clip0_564_2381)"><path fill="#000" d="M11.366 8.386a5.71 5.71 0 0 0-5.711 5.712v28.556a5.71 5.71 0 0 0 5.711 5.711h34.268a5.71 5.71 0 0 0 5.711-5.711V14.098a5.71 5.71 0 0 0-5.711-5.712z"/><path fill="#0f0" d="M22.789 31.231a1.43 1.43 0 0 1 1.427-1.428h8.567a1.427 1.427 0 1 1 0 2.856h-8.567a1.43 1.43 0 0 1-1.428-1.428M16.66 17.37a1.43 1.43 0 1 0-2.021 2.022l4.703 4.7-4.703 4.7a1.427 1.427 0 0 0 0 2.022 1.43 1.43 0 0 0 2.021 0l5.712-5.711a1.43 1.43 0 0 0 0-2.022z"/></g><defs><linearGradient id="paint0_linear_564_2381" x1="28.5" x2="28.5" y1="0" y2="56.752" gradientUnits="userSpaceOnUse"><stop stop-color="#fdfdfd"/><stop offset="1" stop-color="#f5f4f4"/></linearGradient><clipPath id="clip0_564_2381"><path fill="#fff" d="M5.655 5.53h45.69v45.69H5.655z"/></clipPath></defs></svg>