<svg width="63" height="27" viewBox="0 0 63 27" fill="none" xmlns="http://www.w3.org/2000/svg">
<g filter="url(#filter0_d_565_2829)">
<path d="M4.001 16.2517V6.49371H6.619C7.28167 6.49371 7.88367 6.59404 8.425 6.79471C8.96633 6.99538 9.398 7.34538 9.72 7.84471C10.042 8.33938 10.203 9.02771 10.203 9.90971C10.203 10.549 10.0817 11.1534 9.839 11.7227C9.59633 12.2874 9.21367 12.747 8.691 13.1017C8.173 13.4564 7.501 13.6337 6.675 13.6337H5.807V16.2517H4.001ZM6.507 7.90771H5.807V12.1637H6.549C7.165 12.1637 7.627 11.9794 7.935 11.6107C8.243 11.242 8.397 10.7077 8.397 10.0077C8.397 9.29371 8.257 8.76638 7.977 8.42571C7.697 8.08038 7.207 7.90771 6.507 7.90771ZM10.5632 16.2517V5.58371H12.2152V9.11171L12.1802 10.1617C12.3668 9.89104 12.6282 9.64838 12.9642 9.43371C13.3002 9.21904 13.7458 9.11171 14.3012 9.11171C15.0012 9.11171 15.5238 9.33571 15.8692 9.78371C16.2145 10.2317 16.3872 10.8524 16.3872 11.6457V16.2517H14.5952V11.8277C14.5952 11.4404 14.5018 11.1277 14.3152 10.8897C14.1332 10.647 13.8765 10.5257 13.5452 10.5257C13.2185 10.5257 12.9268 10.647 12.6702 10.8897C12.4135 11.1277 12.2852 11.4404 12.2852 11.8277V16.2517H10.5632ZM20.0375 16.3917C19.0108 16.3917 18.2175 16.0697 17.6575 15.4257C17.0975 14.7817 16.8175 13.8904 16.8175 12.7517C16.8175 11.6037 17.1068 10.71 17.6855 10.0707C18.2641 9.43138 19.0668 9.11171 20.0935 9.11171C21.1248 9.11171 21.9088 9.44304 22.4455 10.1057C22.9868 10.7637 23.2575 11.6457 23.2575 12.7517C23.2575 13.8577 22.9775 14.742 22.4175 15.4047C21.8621 16.0627 21.0688 16.3917 20.0375 16.3917ZM20.0655 14.9917C20.9521 14.9917 21.3955 14.245 21.3955 12.7517C21.3955 11.249 20.9521 10.4977 20.0655 10.4977C19.6268 10.4977 19.2861 10.6727 19.0435 11.0227C18.8008 11.368 18.6795 11.9444 18.6795 12.7517C18.6795 13.5544 18.8008 14.1284 19.0435 14.4737C19.2861 14.819 19.6268 14.9917 20.0655 14.9917ZM26.0326 16.4617C25.244 16.4617 24.7096 16.2564 24.4296 15.8457C24.1543 15.435 24.0166 14.8144 24.0166 13.9837V10.7497H23.1066V9.27971H24.0866L24.1846 7.80971L25.7106 7.15171V9.27971H27.4326V10.7497H25.7106V13.9417C25.7106 14.3477 25.7666 14.63 25.8786 14.7887C25.9953 14.9427 26.154 15.0197 26.3546 15.0197C26.56 15.0197 26.777 14.966 27.0056 14.8587C27.2343 14.7514 27.414 14.6417 27.5446 14.5297L27.8806 15.9437C27.736 16.0464 27.547 16.1374 27.3136 16.2167C27.085 16.2914 26.8516 16.3497 26.6136 16.3917C26.3803 16.4384 26.1866 16.4617 26.0326 16.4617ZM30.8333 16.3917C29.8066 16.3917 29.0133 16.0697 28.4533 15.4257C27.8933 14.7817 27.6133 13.8904 27.6133 12.7517C27.6133 11.6037 27.9026 10.71 28.4813 10.0707C29.06 9.43138 29.8626 9.11171 30.8893 9.11171C31.9206 9.11171 32.7046 9.44304 33.2413 10.1057C33.7826 10.7637 34.0533 11.6457 34.0533 12.7517C34.0533 13.8577 33.7733 14.742 33.2133 15.4047C32.658 16.0627 31.8646 16.3917 30.8333 16.3917ZM30.8613 14.9917C31.748 14.9917 32.1913 14.245 32.1913 12.7517C32.1913 11.249 31.748 10.4977 30.8613 10.4977C30.4226 10.4977 30.082 10.6727 29.8393 11.0227C29.5966 11.368 29.4753 11.9444 29.4753 12.7517C29.4753 13.5544 29.5966 14.1284 29.8393 14.4737C30.082 14.819 30.4226 14.9917 30.8613 14.9917ZM36.5322 16.3777C36.0235 16.3777 35.6059 16.331 35.2792 16.2377C34.9572 16.1397 34.7052 16.03 34.5232 15.9087C34.3459 15.7827 34.2222 15.6777 34.1522 15.5937L34.6702 14.2637C34.8755 14.4317 35.1369 14.5974 35.4542 14.7607C35.7762 14.924 36.1495 15.0057 36.5742 15.0057C36.9055 15.0057 37.1365 14.938 37.2672 14.8027C37.4025 14.6674 37.4702 14.5204 37.4702 14.3617C37.4702 14.1424 37.3185 13.944 37.0152 13.7667C36.7119 13.5894 36.3595 13.4144 35.9582 13.2417C35.7202 13.139 35.4682 13.0084 35.2022 12.8497C34.9362 12.691 34.7075 12.481 34.5162 12.2197C34.3295 11.9584 34.2362 11.6224 34.2362 11.2117C34.2362 10.5817 34.4649 10.08 34.9222 9.70671C35.3842 9.32871 36.0375 9.13971 36.8822 9.13971C37.4235 9.13971 37.8809 9.22138 38.2542 9.38471C38.6322 9.54338 38.8842 9.68571 39.0102 9.81171L38.5342 11.0717C38.3522 10.9317 38.1212 10.7987 37.8412 10.6727C37.5612 10.5467 37.2602 10.4837 36.9382 10.4837C36.5835 10.4837 36.3362 10.5304 36.1962 10.6237C36.0562 10.717 35.9862 10.8664 35.9862 11.0717C35.9862 11.3004 36.1099 11.4894 36.3572 11.6387C36.6092 11.7834 36.9102 11.9257 37.2602 12.0657C37.8435 12.2944 38.3125 12.5767 38.6672 12.9127C39.0265 13.244 39.2062 13.6664 39.2062 14.1797C39.2062 14.5624 39.1175 14.9217 38.9402 15.2577C38.7629 15.589 38.4782 15.8597 38.0862 16.0697C37.6942 16.275 37.1762 16.3777 36.5322 16.3777ZM39.6241 16.2517V5.58371H41.2761V9.11171L41.2411 10.1617C41.4278 9.89104 41.6891 9.64838 42.0251 9.43371C42.3611 9.21904 42.8068 9.11171 43.3621 9.11171C44.0621 9.11171 44.5848 9.33571 44.9301 9.78371C45.2754 10.2317 45.4481 10.8524 45.4481 11.6457V16.2517H43.6561V11.8277C43.6561 11.4404 43.5628 11.1277 43.3761 10.8897C43.1941 10.647 42.9374 10.5257 42.6061 10.5257C42.2794 10.5257 41.9878 10.647 41.7311 10.8897C41.4744 11.1277 41.3461 11.4404 41.3461 11.8277V16.2517H39.6241ZM49.0984 16.3917C48.0717 16.3917 47.2784 16.0697 46.7184 15.4257C46.1584 14.7817 45.8784 13.8904 45.8784 12.7517C45.8784 11.6037 46.1677 10.71 46.7464 10.0707C47.3251 9.43138 48.1277 9.11171 49.1544 9.11171C50.1857 9.11171 50.9697 9.44304 51.5064 10.1057C52.0477 10.7637 52.3184 11.6457 52.3184 12.7517C52.3184 13.8577 52.0384 14.742 51.4784 15.4047C50.9231 16.0627 50.1297 16.3917 49.0984 16.3917ZM49.1264 14.9917C50.0131 14.9917 50.4564 14.245 50.4564 12.7517C50.4564 11.249 50.0131 10.4977 49.1264 10.4977C48.6877 10.4977 48.3471 10.6727 48.1044 11.0227C47.8617 11.368 47.7404 11.9444 47.7404 12.7517C47.7404 13.5544 47.8617 14.1284 48.1044 14.4737C48.3471 14.819 48.6877 14.9917 49.1264 14.9917ZM52.7435 19.3037V9.27971H54.4095V9.50371L54.2695 10.4837C54.3255 10.2177 54.4515 9.97971 54.6475 9.76971C54.8482 9.55971 55.0909 9.39638 55.3755 9.27971C55.6649 9.15838 55.9682 9.09771 56.2855 9.09771C57.2095 9.09771 57.8839 9.42204 58.3085 10.0707C58.7332 10.7147 58.9455 11.5804 58.9455 12.6677C58.9455 13.8857 58.6865 14.8214 58.1685 15.4747C57.6552 16.1234 56.9809 16.4477 56.1455 16.4477C55.6275 16.4477 55.2122 16.2867 54.8995 15.9647C54.5915 15.6427 54.3815 15.2764 54.2695 14.8657L54.4375 16.1817V19.3037H52.7435ZM55.7395 15.0617C55.9635 15.0617 56.1805 14.987 56.3905 14.8377C56.6005 14.6837 56.7732 14.4364 56.9085 14.0957C57.0439 13.755 57.1115 13.3024 57.1115 12.7377C57.1115 11.9537 56.9762 11.389 56.7055 11.0437C56.4395 10.6984 56.1269 10.5257 55.7675 10.5257C55.3335 10.5257 55.0022 10.7497 54.7735 11.1977C54.5495 11.641 54.4375 12.1917 54.4375 12.8497C54.4375 13.5077 54.5519 14.042 54.7805 14.4527C55.0139 14.8587 55.3335 15.0617 55.7395 15.0617Z" fill="#31C5F0"/>
</g>
<defs>
<filter id="filter0_d_565_2829" x="-1" y="-0.248291" width="65" height="29" filterUnits="userSpaceOnUse" color-interpolation-filters="sRGB">
<feFlood flood-opacity="0" result="BackgroundImageFix"/>
<feColorMatrix in="SourceAlpha" type="matrix" values="0 0 0 0 0 0 0 0 0 0 0 0 0 0 0 0 0 0 127 0" result="hardAlpha"/>
<feOffset dy="3"/>
<feGaussianBlur stdDeviation="2"/>
<feComposite in2="hardAlpha" operator="out"/>
<feColorMatrix type="matrix" values="0 0 0 0 0 0 0 0 0 0 0 0 0 0 0 0 0 0 0.25 0"/>
<feBlend mode="normal" in2="BackgroundImageFix" result="effect1_dropShadow_565_2829"/>
<feBlend mode="normal" in="SourceGraphic" in2="effect1_dropShadow_565_2829" result="shape"/>
</filter>
</defs>
</svg>
