<svg xmlns="http://www.w3.org/2000/svg" width="57" height="57" fill="none" viewBox="0 0 57 57"><rect width="56.752" height="56.752" x=".124" fill="url(#paint0_linear_92_658)" rx="8.255"/><path fill="#010101" fill-rule="evenodd" d="M28.498 9.545c-10.683 0-19.345 8.644-19.345 19.308 0 8.53 5.543 15.767 13.231 18.321.968.177 1.32-.42 1.32-.932 0-.457-.016-1.672-.025-3.283-5.382 1.167-6.517-2.588-6.517-2.588-.88-2.23-2.149-2.824-2.149-2.824-1.757-1.198.133-1.174.133-1.174 1.942.137 2.963 1.99 2.963 1.99 1.726 2.95 4.529 2.098 5.631 1.604.176-1.248.675-2.098 1.229-2.581-4.296-.487-8.814-2.145-8.814-9.543 0-2.107.755-3.831 1.992-5.18-.199-.49-.863-2.452.19-5.11 0 0 1.624-.52 5.32 1.98a18.6 18.6 0 0 1 4.843-.65c1.643.006 3.299.22 4.844.65 3.694-2.5 5.316-1.98 5.316-1.98 1.055 2.658.39 4.62.192 5.11 1.24 1.349 1.99 3.073 1.99 5.18 0 7.418-4.525 9.05-8.835 9.528.695.596 1.313 1.773 1.313 3.576 0 2.58-.023 4.663-.023 5.295 0 .517.348 1.118 1.33.93 7.682-2.56 13.22-9.791 13.22-18.319 0-10.664-8.663-19.308-19.349-19.308" clip-rule="evenodd"/><defs><linearGradient id="paint0_linear_92_658" x1="28.5" x2="28.5" y1="0" y2="56.752" gradientUnits="userSpaceOnUse"><stop stop-color="#fdfdfd"/><stop offset="1" stop-color="#f5f4f4"/></linearGradient></defs></svg>