<svg xmlns="http://www.w3.org/2000/svg" width="57" height="58" fill="none" viewBox="0 0 57 58"><rect width="56.752" height="56.752" x=".124" y=".751" fill="url(#paint0_linear_267_5479)" rx="8.255"/><path fill="#1c0a00" d="M7.162 8.368h42.683v41.519H7.161z"/><path fill="#ff7f18" d="M7.162 8.368h42.683v41.518H7.162zm-1.944 43.46h46.564v-45.4H5.218zm30.5-29.22c0-.154.058-.233.232-.233h3.047c.155 0 .233.059.233.233v15.308c0 .155-.038.233-.233.233h-3.005c-.195 0-.253-.096-.253-.253V22.608zm-.213-4.403a1.979 1.979 0 1 1 3.958 0 1.854 1.854 0 0 1-2.018 1.979 1.83 1.83 0 0 1-1.937-1.98zm-8.731 10.788c-.544-2.162-1.83-6.849-2.308-9.119h-.039c-.407 2.27-1.435 6.112-2.25 9.119zm-5.393 3.143-1.533 5.82c-.039.155-.097.195-.292.195h-2.848c-.195 0-.233-.059-.195-.291l5.51-19.291c.134-.526.2-1.067.194-1.61 0-.136.058-.194.155-.194h4.074c.137 0 .195.038.233.194l6.17 20.934c.038.155 0 .253-.155.253h-3.221c-.155 0-.253-.038-.291-.167l-1.592-5.84h-6.208z"/><defs><linearGradient id="paint0_linear_267_5479" x1="28.5" x2="28.5" y1=".751" y2="57.503" gradientUnits="userSpaceOnUse"><stop stop-color="#fdfdfd"/><stop offset="1" stop-color="#f5f4f4"/></linearGradient></defs></svg>