<svg width="57" height="22" viewBox="0 0 57 22" fill="none" xmlns="http://www.w3.org/2000/svg">
<g filter="url(#filter0_dd_565_2750)">
<path d="M5.596 15.2517V7.76371H3.34V6.85171H8.86V7.76371H6.604V15.2517H5.596ZM12.5153 15.3957C11.9553 15.3957 11.4593 15.2677 11.0273 15.0117C10.6033 14.7477 10.2673 14.3837 10.0193 13.9197C9.77131 13.4477 9.64731 12.8997 9.64731 12.2757C9.64731 11.6517 9.76731 11.1077 10.0073 10.6437C10.2553 10.1717 10.5953 9.80771 11.0273 9.55171C11.4593 9.28771 11.9633 9.15571 12.5393 9.15571C13.1153 9.15571 13.6073 9.28771 14.0153 9.55171C14.4233 9.80771 14.7353 10.1477 14.9513 10.5717C15.1673 10.9957 15.2753 11.4517 15.2753 11.9397C15.2753 12.0277 15.2713 12.1157 15.2633 12.2037C15.2633 12.2917 15.2633 12.3917 15.2633 12.5037H10.6433C10.6673 12.9437 10.7673 13.3117 10.9433 13.6077C11.1273 13.8957 11.3553 14.1117 11.6273 14.2557C11.9073 14.3997 12.2033 14.4717 12.5153 14.4717C12.9553 14.4717 13.2993 14.3797 13.5473 14.1957C13.7953 14.0117 13.9833 13.7557 14.1113 13.4277H15.1073C14.9713 13.9797 14.6873 14.4477 14.2553 14.8317C13.8233 15.2077 13.2433 15.3957 12.5153 15.3957ZM12.5153 10.0557C12.0513 10.0557 11.6433 10.1957 11.2913 10.4757C10.9473 10.7557 10.7353 11.1477 10.6553 11.6517H14.2793C14.2473 11.1557 14.0673 10.7677 13.7393 10.4877C13.4193 10.1997 13.0113 10.0557 12.5153 10.0557ZM16.2186 15.2517V14.3877H17.7426V10.4637C17.7426 10.2637 17.6466 10.1637 17.4546 10.1637H16.3746V9.29971H17.8266C18.0906 9.29971 18.3026 9.37171 18.4626 9.51571C18.6226 9.65971 18.7026 9.87171 18.7026 10.1517V10.4037H18.7506C18.8466 10.0037 19.0266 9.69571 19.2906 9.47971C19.5626 9.26371 19.9386 9.15571 20.4186 9.15571H21.5106V10.2237H20.2746C19.7866 10.2237 19.4106 10.3877 19.1466 10.7157C18.8826 11.0357 18.7506 11.4477 18.7506 11.9517V14.3877H20.6226V15.2517H16.2186ZM22.0099 15.2517V9.29971H22.8379L22.9459 9.99571H23.0059C23.1099 9.75571 23.2659 9.55571 23.4739 9.39571C23.6899 9.23571 23.9499 9.15571 24.2539 9.15571C24.5579 9.15571 24.8139 9.23171 25.0219 9.38371C25.2379 9.52771 25.3939 9.73171 25.4899 9.99571H25.5379C25.6419 9.75571 25.8099 9.55571 26.0419 9.39571C26.2739 9.23571 26.5539 9.15571 26.8819 9.15571C27.3379 9.15571 27.6779 9.31171 27.9019 9.62371C28.1339 9.92771 28.2499 10.3357 28.2499 10.8477V15.2517H27.2659V11.0037C27.2659 10.7157 27.2059 10.4877 27.0859 10.3197C26.9739 10.1517 26.7899 10.0677 26.5339 10.0677C26.2699 10.0677 26.0539 10.1677 25.8859 10.3677C25.7179 10.5677 25.6339 10.8517 25.6339 11.2197V15.2517H24.6379V11.0037C24.6379 10.7157 24.5819 10.4877 24.4699 10.3197C24.3579 10.1517 24.1739 10.0677 23.9179 10.0677C23.6539 10.0677 23.4339 10.1677 23.2579 10.3677C23.0899 10.5677 23.0059 10.8517 23.0059 11.2197V15.2517H22.0099ZM31.4492 8.24371C31.2092 8.24371 31.0092 8.16371 30.8492 8.00371C30.6892 7.84371 30.6092 7.65171 30.6092 7.42771C30.6092 7.19571 30.6892 7.00371 30.8492 6.85171C31.0092 6.69171 31.2092 6.61171 31.4492 6.61171C31.6812 6.61171 31.8772 6.69171 32.0372 6.85171C32.2052 7.00371 32.2892 7.19571 32.2892 7.42771C32.2892 7.65171 32.2052 7.84371 32.0372 8.00371C31.8772 8.16371 31.6812 8.24371 31.4492 8.24371ZM29.1212 15.2517V14.3877H31.0172V10.4637C31.0172 10.2637 30.9172 10.1637 30.7172 10.1637H29.3252V9.29971H30.9572C31.6692 9.29971 32.0252 9.65571 32.0252 10.3677V14.3877H33.9212V15.2517H29.1212ZM35.3326 15.2517V9.29971H36.1726L36.2806 10.1997H36.3406C36.5006 9.91171 36.7526 9.66771 37.0966 9.46771C37.4406 9.25971 37.8366 9.15571 38.2846 9.15571C39.0126 9.15571 39.5566 9.37171 39.9166 9.80371C40.2846 10.2357 40.4686 10.8597 40.4686 11.6757V15.2517H39.4606V11.7957C39.4606 11.2677 39.3446 10.8557 39.1126 10.5597C38.8806 10.2557 38.5206 10.1037 38.0326 10.1037C37.5606 10.1037 37.1606 10.2677 36.8326 10.5957C36.5046 10.9157 36.3406 11.3797 36.3406 11.9877V15.2517H35.3326ZM43.7279 15.3957C43.2559 15.3957 42.8639 15.3117 42.5519 15.1437C42.2399 14.9757 42.0079 14.7557 41.8559 14.4837C41.7039 14.2037 41.6279 13.8997 41.6279 13.5717C41.6279 12.9637 41.8479 12.5037 42.2879 12.1917C42.7359 11.8717 43.3319 11.7117 44.0759 11.7117H45.7079V11.5917C45.7079 10.5517 45.2319 10.0317 44.2799 10.0317C43.8959 10.0317 43.5719 10.1157 43.3079 10.2837C43.0519 10.4517 42.8879 10.7157 42.8159 11.0757H41.7839C41.8239 10.6757 41.9559 10.3317 42.1799 10.0437C42.4119 9.75571 42.7079 9.53571 43.0679 9.38371C43.4279 9.23171 43.8319 9.15571 44.2799 9.15571C45.1279 9.15571 45.7439 9.37971 46.1279 9.82771C46.5199 10.2677 46.7159 10.8557 46.7159 11.5917V15.2517H45.8519L45.7679 14.3277H45.6839C45.5079 14.6157 45.2719 14.8677 44.9759 15.0837C44.6879 15.2917 44.2719 15.3957 43.7279 15.3957ZM43.9079 14.5077C44.2919 14.5077 44.6159 14.4157 44.8799 14.2317C45.1519 14.0477 45.3559 13.8037 45.4919 13.4997C45.6359 13.1957 45.7079 12.8637 45.7079 12.5037H44.1599C43.6159 12.5037 43.2319 12.5957 43.0079 12.7797C42.7919 12.9637 42.6839 13.2077 42.6839 13.5117C42.6839 13.8237 42.7879 14.0677 42.9959 14.2437C43.2039 14.4197 43.5079 14.5077 43.9079 14.5077ZM47.8872 15.2517V14.3877H49.9152V7.77571C49.9152 7.57571 49.8152 7.47571 49.6152 7.47571H48.1032V6.61171H49.8552C50.1992 6.61171 50.4632 6.70371 50.6472 6.88771C50.8312 7.07171 50.9232 7.33571 50.9232 7.67971V14.3877H52.9512V15.2517H47.8872Z" fill="#00FF00"/>
</g>
<defs>
<filter id="filter0_dd_565_2750" x="2.83997" y="6.11182" width="50.6112" height="9.78394" filterUnits="userSpaceOnUse" color-interpolation-filters="sRGB">
<feFlood flood-opacity="0" result="BackgroundImageFix"/>
<feColorMatrix in="SourceAlpha" type="matrix" values="0 0 0 0 0 0 0 0 0 0 0 0 0 0 0 0 0 0 127 0" result="hardAlpha"/>
<feOffset/>
<feGaussianBlur stdDeviation="0.25"/>
<feComposite in2="hardAlpha" operator="out"/>
<feColorMatrix type="matrix" values="0 0 0 0 0 0 0 0 0 0.396078 0 0 0 0 0 0 0 0 1 0"/>
<feBlend mode="normal" in2="BackgroundImageFix" result="effect1_dropShadow_565_2750"/>
<feColorMatrix in="SourceAlpha" type="matrix" values="0 0 0 0 0 0 0 0 0 0 0 0 0 0 0 0 0 0 127 0" result="hardAlpha"/>
<feOffset/>
<feGaussianBlur stdDeviation="0.25"/>
<feComposite in2="hardAlpha" operator="out"/>
<feColorMatrix type="matrix" values="0 0 0 0 0 0 0 0 0 0.396078 0 0 0 0 0 0 0 0 1 0"/>
<feBlend mode="normal" in2="effect1_dropShadow_565_2750" result="effect2_dropShadow_565_2750"/>
<feBlend mode="normal" in="SourceGraphic" in2="effect2_dropShadow_565_2750" result="shape"/>
</filter>
</defs>
</svg>
