<svg width="57" height="22" viewBox="0 0 57 22" fill="none" xmlns="http://www.w3.org/2000/svg">
<g filter="url(#filter0_dd_579_1012)">
<path d="M5.596 13.2517V5.76371H3.34V4.85171H8.86V5.76371H6.604V13.2517H5.596ZM12.5153 13.3957C11.9553 13.3957 11.4593 13.2677 11.0273 13.0117C10.6033 12.7477 10.2673 12.3837 10.0193 11.9197C9.77131 11.4477 9.64731 10.8997 9.64731 10.2757C9.64731 9.65171 9.76731 9.10771 10.0073 8.64371C10.2553 8.17171 10.5953 7.80771 11.0273 7.55171C11.4593 7.28771 11.9633 7.15571 12.5393 7.15571C13.1153 7.15571 13.6073 7.28771 14.0153 7.55171C14.4233 7.80771 14.7353 8.14771 14.9513 8.57171C15.1673 8.99571 15.2753 9.45171 15.2753 9.93971C15.2753 10.0277 15.2713 10.1157 15.2633 10.2037C15.2633 10.2917 15.2633 10.3917 15.2633 10.5037H10.6433C10.6673 10.9437 10.7673 11.3117 10.9433 11.6077C11.1273 11.8957 11.3553 12.1117 11.6273 12.2557C11.9073 12.3997 12.2033 12.4717 12.5153 12.4717C12.9553 12.4717 13.2993 12.3797 13.5473 12.1957C13.7953 12.0117 13.9833 11.7557 14.1113 11.4277H15.1073C14.9713 11.9797 14.6873 12.4477 14.2553 12.8317C13.8233 13.2077 13.2433 13.3957 12.5153 13.3957ZM12.5153 8.05571C12.0513 8.05571 11.6433 8.19571 11.2913 8.47571C10.9473 8.75571 10.7353 9.14771 10.6553 9.65171H14.2793C14.2473 9.15571 14.0673 8.76771 13.7393 8.48771C13.4193 8.19971 13.0113 8.05571 12.5153 8.05571ZM16.2186 13.2517V12.3877H17.7426V8.46371C17.7426 8.26371 17.6466 8.16371 17.4546 8.16371H16.3746V7.29971H17.8266C18.0906 7.29971 18.3026 7.37171 18.4626 7.51571C18.6226 7.65971 18.7026 7.87171 18.7026 8.15171V8.40371H18.7506C18.8466 8.00371 19.0266 7.69571 19.2906 7.47971C19.5626 7.26371 19.9386 7.15571 20.4186 7.15571H21.5106V8.22371H20.2746C19.7866 8.22371 19.4106 8.38771 19.1466 8.71571C18.8826 9.03571 18.7506 9.44771 18.7506 9.95171V12.3877H20.6226V13.2517H16.2186ZM22.0099 13.2517V7.29971H22.8379L22.9459 7.99571H23.0059C23.1099 7.75571 23.2659 7.55571 23.4739 7.39571C23.6899 7.23571 23.9499 7.15571 24.2539 7.15571C24.5579 7.15571 24.8139 7.23171 25.0219 7.38371C25.2379 7.52771 25.3939 7.73171 25.4899 7.99571H25.5379C25.6419 7.75571 25.8099 7.55571 26.0419 7.39571C26.2739 7.23571 26.5539 7.15571 26.8819 7.15571C27.3379 7.15571 27.6779 7.31171 27.9019 7.62371C28.1339 7.92771 28.2499 8.33571 28.2499 8.84771V13.2517H27.2659V9.00371C27.2659 8.71571 27.2059 8.48771 27.0859 8.31971C26.9739 8.15171 26.7899 8.06771 26.5339 8.06771C26.2699 8.06771 26.0539 8.16771 25.8859 8.36771C25.7179 8.56771 25.6339 8.85171 25.6339 9.21971V13.2517H24.6379V9.00371C24.6379 8.71571 24.5819 8.48771 24.4699 8.31971C24.3579 8.15171 24.1739 8.06771 23.9179 8.06771C23.6539 8.06771 23.4339 8.16771 23.2579 8.36771C23.0899 8.56771 23.0059 8.85171 23.0059 9.21971V13.2517H22.0099ZM31.4492 6.24371C31.2092 6.24371 31.0092 6.16371 30.8492 6.00371C30.6892 5.84371 30.6092 5.65171 30.6092 5.42771C30.6092 5.19571 30.6892 5.00371 30.8492 4.85171C31.0092 4.69171 31.2092 4.61171 31.4492 4.61171C31.6812 4.61171 31.8772 4.69171 32.0372 4.85171C32.2052 5.00371 32.2892 5.19571 32.2892 5.42771C32.2892 5.65171 32.2052 5.84371 32.0372 6.00371C31.8772 6.16371 31.6812 6.24371 31.4492 6.24371ZM29.1212 13.2517V12.3877H31.0172V8.46371C31.0172 8.26371 30.9172 8.16371 30.7172 8.16371H29.3252V7.29971H30.9572C31.6692 7.29971 32.0252 7.65571 32.0252 8.36771V12.3877H33.9212V13.2517H29.1212ZM35.3326 13.2517V7.29971H36.1726L36.2806 8.19971H36.3406C36.5006 7.91171 36.7526 7.66771 37.0966 7.46771C37.4406 7.25971 37.8366 7.15571 38.2846 7.15571C39.0126 7.15571 39.5566 7.37171 39.9166 7.80371C40.2846 8.23571 40.4686 8.85971 40.4686 9.67571V13.2517H39.4606V9.79571C39.4606 9.26771 39.3446 8.85571 39.1126 8.55971C38.8806 8.25571 38.5206 8.10371 38.0326 8.10371C37.5606 8.10371 37.1606 8.26771 36.8326 8.59571C36.5046 8.91571 36.3406 9.37971 36.3406 9.98771V13.2517H35.3326ZM43.7279 13.3957C43.2559 13.3957 42.8639 13.3117 42.5519 13.1437C42.2399 12.9757 42.0079 12.7557 41.8559 12.4837C41.7039 12.2037 41.6279 11.8997 41.6279 11.5717C41.6279 10.9637 41.8479 10.5037 42.2879 10.1917C42.7359 9.87171 43.3319 9.71171 44.0759 9.71171H45.7079V9.59171C45.7079 8.55171 45.2319 8.03171 44.2799 8.03171C43.8959 8.03171 43.5719 8.11571 43.3079 8.28371C43.0519 8.45171 42.8879 8.71571 42.8159 9.07571H41.7839C41.8239 8.67571 41.9559 8.33171 42.1799 8.04371C42.4119 7.75571 42.7079 7.53571 43.0679 7.38371C43.4279 7.23171 43.8319 7.15571 44.2799 7.15571C45.1279 7.15571 45.7439 7.37971 46.1279 7.82771C46.5199 8.26771 46.7159 8.85571 46.7159 9.59171V13.2517H45.8519L45.7679 12.3277H45.6839C45.5079 12.6157 45.2719 12.8677 44.9759 13.0837C44.6879 13.2917 44.2719 13.3957 43.7279 13.3957ZM43.9079 12.5077C44.2919 12.5077 44.6159 12.4157 44.8799 12.2317C45.1519 12.0477 45.3559 11.8037 45.4919 11.4997C45.6359 11.1957 45.7079 10.8637 45.7079 10.5037H44.1599C43.6159 10.5037 43.2319 10.5957 43.0079 10.7797C42.7919 10.9637 42.6839 11.2077 42.6839 11.5117C42.6839 11.8237 42.7879 12.0677 42.9959 12.2437C43.2039 12.4197 43.5079 12.5077 43.9079 12.5077ZM47.8872 13.2517V12.3877H49.9152V5.77571C49.9152 5.57571 49.8152 5.47571 49.6152 5.47571H48.1032V4.61171H49.8552C50.1992 4.61171 50.4632 4.70371 50.6472 4.88771C50.8312 5.07171 50.9232 5.33571 50.9232 5.67971V12.3877H52.9512V13.2517H47.8872Z" fill="#00FF00"/>
</g>
<defs>
<filter id="filter0_dd_579_1012" x="2.83997" y="4.11182" width="50.6112" height="9.78394" filterUnits="userSpaceOnUse" color-interpolation-filters="sRGB">
<feFlood flood-opacity="0" result="BackgroundImageFix"/>
<feColorMatrix in="SourceAlpha" type="matrix" values="0 0 0 0 0 0 0 0 0 0 0 0 0 0 0 0 0 0 127 0" result="hardAlpha"/>
<feOffset/>
<feGaussianBlur stdDeviation="0.25"/>
<feComposite in2="hardAlpha" operator="out"/>
<feColorMatrix type="matrix" values="0 0 0 0 0 0 0 0 0 0.396078 0 0 0 0 0 0 0 0 1 0"/>
<feBlend mode="normal" in2="BackgroundImageFix" result="effect1_dropShadow_579_1012"/>
<feColorMatrix in="SourceAlpha" type="matrix" values="0 0 0 0 0 0 0 0 0 0 0 0 0 0 0 0 0 0 127 0" result="hardAlpha"/>
<feOffset/>
<feGaussianBlur stdDeviation="0.25"/>
<feComposite in2="hardAlpha" operator="out"/>
<feColorMatrix type="matrix" values="0 0 0 0 0 0 0 0 0 0.396078 0 0 0 0 0 0 0 0 1 0"/>
<feBlend mode="normal" in2="effect1_dropShadow_579_1012" result="effect2_dropShadow_579_1012"/>
<feBlend mode="normal" in="SourceGraphic" in2="effect2_dropShadow_579_1012" result="shape"/>
</filter>
</defs>
</svg>
