<svg width="57" height="22" viewBox="0 0 57 22" fill="none" xmlns="http://www.w3.org/2000/svg">
<g filter="url(#filter0_ddd_565_2821)">
<path d="M11.7823 5.25171V14.6251H12.988V10.1495H15.8873V8.98604H12.988V6.42455H16.7552V5.25171H11.7823ZM18.9367 7.15641C19.373 7.15641 19.7249 6.80455 19.7249 6.36826C19.7249 5.93196 19.3683 5.62702 18.9367 5.62702C18.5051 5.62702 18.1486 5.97887 18.1486 6.41517C18.1486 6.62628 18.233 6.82332 18.3831 6.97813C18.5333 7.13295 18.7303 7.2127 18.9461 7.2127L18.9367 7.15641ZM18.3268 8.33863V14.6251H19.4856V8.33863H18.2893H18.3268ZM24.0128 8.15098C22.4083 8.15098 21.2918 9.55839 21.2918 11.1159C21.2918 12.6735 22.4177 14.0715 24.0128 14.0715C24.3447 14.0773 24.6742 14.014 24.9803 13.8856C25.2864 13.7571 25.5624 13.5664 25.7908 13.3256V14.1606C25.7875 14.6623 25.5928 15.1439 25.2466 15.507C25.0717 15.6855 24.8629 15.8272 24.6325 15.9239C24.4021 16.0205 24.1548 16.0702 23.9049 16.07C23.5212 16.0579 23.1495 15.934 22.8353 15.7135L22.2254 16.7596C22.6937 17.0608 23.2347 17.2302 23.7912 17.2498C24.3477 17.2694 24.8992 17.1386 25.3876 16.8711C25.876 16.6036 26.2832 16.2093 26.5663 15.7299C26.8495 15.2504 26.9981 14.7034 26.9965 14.1465V8.32925H25.7908V8.89221C25.5624 8.65134 25.2864 8.46063 24.9803 8.33221C24.6742 8.20379 24.3447 8.14517 24.0128 8.15098ZM22.5022 11.1159C22.4747 10.8109 22.5331 10.5043 22.6707 10.2307C22.8083 9.95717 23.0197 9.72753 23.2809 9.56777C23.8158 9.23937 24.4866 9.23937 25.0168 9.56777C25.5469 9.89617 25.8471 10.4967 25.7955 11.1159C25.823 11.4209 25.7646 11.7275 25.627 12.0011C25.4894 12.2747 25.278 12.5043 25.0168 12.6641C24.4819 12.9925 23.8111 12.9925 23.2809 12.6641C22.7508 12.3357 22.4506 11.7352 22.5022 11.1159Z" fill="black"/>
<path d="M31.3453 9.38014C30.9985 9.38138 30.6663 9.51968 30.4211 9.76488C30.1759 10.0101 30.0376 10.3423 30.0364 10.689V14.6673H28.8307V8.38088H30.0364V8.91101C30.4023 8.4231 30.984 8.14162 31.5939 8.151C32.3633 8.13224 33.0811 8.54508 33.4611 9.21595C33.9302 8.55915 34.6058 8.16039 35.3376 8.151C36.7122 8.151 37.566 9.25817 37.5707 10.628V14.6298H36.3651V10.6421C36.4004 10.3937 36.3638 10.1404 36.2597 9.91211C36.1556 9.68382 35.9883 9.49012 35.7776 9.35392C35.5669 9.21772 35.3216 9.14472 35.0707 9.14355C34.8198 9.14237 34.5738 9.21308 34.3618 9.3473C34.151 9.48474 33.9841 9.67983 33.881 9.90937C33.7779 10.1389 33.7429 10.3932 33.7801 10.6421V14.6204H32.6213V10.6468C32.6201 10.3001 32.4818 9.96785 32.2366 9.72265C31.9914 9.47746 31.6592 9.33916 31.3124 9.33792L31.3453 9.38014ZM44.012 9.05175C43.7376 8.76539 43.4075 8.53817 43.042 8.38408C42.6765 8.22999 42.2834 8.15226 41.8868 8.1557C40.09 8.1557 38.8374 9.6757 38.8374 11.4397C38.8374 13.2036 40.1041 14.7236 41.8868 14.7236C42.2834 14.727 42.6765 14.6493 43.042 14.4952C43.4075 14.3411 43.7376 14.1139 44.012 13.8276V14.5407H45.2177V8.25421H44.012V9.05175ZM40.0243 11.4913C39.9633 10.7406 40.3293 10.0182 40.972 9.6241C41.6147 9.23002 42.3794 9.23002 43.0644 9.6241C43.3781 9.8188 43.6323 10.0959 43.7994 10.4251C43.9665 10.7543 44.04 11.1231 44.012 11.4913C44.073 12.2419 43.7071 12.9643 43.0644 13.3584C42.4216 13.7525 41.6569 13.7525 40.972 13.3584C40.6583 13.1637 40.404 12.8867 40.2369 12.5574C40.0698 12.2282 39.9963 11.8594 40.0243 11.4913Z" fill="black"/>
</g>
<defs>
<filter id="filter0_ddd_565_2821" x="10.7823" y="4.25171" width="35.4353" height="14" filterUnits="userSpaceOnUse" color-interpolation-filters="sRGB">
<feFlood flood-opacity="0" result="BackgroundImageFix"/>
<feColorMatrix in="SourceAlpha" type="matrix" values="0 0 0 0 0 0 0 0 0 0 0 0 0 0 0 0 0 0 127 0" result="hardAlpha"/>
<feOffset/>
<feGaussianBlur stdDeviation="0.5"/>
<feComposite in2="hardAlpha" operator="out"/>
<feColorMatrix type="matrix" values="0 0 0 0 0.666667 0 0 0 0 0.666667 0 0 0 0 0.666667 0 0 0 1 0"/>
<feBlend mode="normal" in2="BackgroundImageFix" result="effect1_dropShadow_565_2821"/>
<feColorMatrix in="SourceAlpha" type="matrix" values="0 0 0 0 0 0 0 0 0 0 0 0 0 0 0 0 0 0 127 0" result="hardAlpha"/>
<feOffset/>
<feGaussianBlur stdDeviation="0.5"/>
<feComposite in2="hardAlpha" operator="out"/>
<feColorMatrix type="matrix" values="0 0 0 0 0.666667 0 0 0 0 0.666667 0 0 0 0 0.666667 0 0 0 1 0"/>
<feBlend mode="normal" in2="effect1_dropShadow_565_2821" result="effect2_dropShadow_565_2821"/>
<feColorMatrix in="SourceAlpha" type="matrix" values="0 0 0 0 0 0 0 0 0 0 0 0 0 0 0 0 0 0 127 0" result="hardAlpha"/>
<feOffset/>
<feGaussianBlur stdDeviation="0.5"/>
<feComposite in2="hardAlpha" operator="out"/>
<feColorMatrix type="matrix" values="0 0 0 0 0.666667 0 0 0 0 0.666667 0 0 0 0 0.666667 0 0 0 1 0"/>
<feBlend mode="normal" in2="effect2_dropShadow_565_2821" result="effect3_dropShadow_565_2821"/>
<feBlend mode="normal" in="SourceGraphic" in2="effect3_dropShadow_565_2821" result="shape"/>
</filter>
</defs>
</svg>
