<svg width="59" height="26" viewBox="0 0 59 26" fill="none" xmlns="http://www.w3.org/2000/svg">
<g filter="url(#filter0_d_568_903)">
<g filter="url(#filter1_ddd_568_903)">
<path d="M14.1303 10.2785H9.92904C9.87697 10.2785 9.82704 10.2992 9.79022 10.336C9.7534 10.3728 9.73272 10.4227 9.73272 10.4748V12.5291C9.73272 12.5812 9.7534 12.6311 9.79022 12.6679C9.82704 12.7047 9.87697 12.7254 9.92904 12.7254H11.5675V15.2776C11.5675 15.2776 11.1996 15.4032 10.1815 15.4032C8.9816 15.4032 7.30463 14.965 7.30463 11.2774C7.30463 7.58929 9.05109 7.1036 10.6908 7.1036C12.1098 7.1036 12.7207 7.35332 13.1102 7.47386C13.2319 7.51076 13.3458 7.38905 13.3458 7.28068L13.8142 5.29588C13.815 5.26616 13.8085 5.2367 13.7954 5.21003C13.7822 5.18336 13.7628 5.16027 13.7388 5.14275C13.5806 5.02967 12.6171 4.49097 10.1823 4.49097C7.37727 4.49097 4.5 5.68381 4.5 11.4211C4.5 17.1575 7.79425 18.0123 10.5702 18.0123C12.8687 18.0123 14.263 17.0299 14.263 17.0299C14.3203 16.9985 14.3266 16.918 14.3266 16.8807V10.4744C14.3266 10.4223 14.3059 10.3724 14.2691 10.3356C14.2323 10.2988 14.1824 10.2785 14.1303 10.2785ZM35.5885 4.98098H33.2224C33.1966 4.98109 33.1711 4.98628 33.1473 4.99627C33.1235 5.00625 33.1019 5.02083 33.0837 5.03918C33.0655 5.05752 33.0512 5.07927 33.0414 5.10317C33.0317 5.12708 33.0267 5.15267 33.0269 5.17848L33.0277 9.75039H29.34V5.17848C29.3402 5.1527 29.3352 5.12714 29.3255 5.10326C29.3158 5.07939 29.3015 5.05766 29.2833 5.03932C29.2652 5.02098 29.2437 5.00639 29.2199 4.99638C29.1961 4.98637 29.1706 4.98114 29.1449 4.98098H26.7792C26.7534 4.98109 26.7278 4.98628 26.704 4.99627C26.6802 5.00625 26.6586 5.02083 26.6405 5.03918C26.6223 5.05752 26.6079 5.07927 26.5982 5.10317C26.5884 5.12708 26.5835 5.15267 26.5837 5.17848V17.5584C26.5837 17.6672 26.6716 17.7559 26.7792 17.7559H29.1449C29.1707 17.7558 29.1962 17.7505 29.22 17.7405C29.2438 17.7305 29.2653 17.7158 29.2835 17.6975C29.3016 17.6791 29.3159 17.6573 29.3256 17.6334C29.3353 17.6095 29.3402 17.5839 29.34 17.558V12.2629H33.0277L33.0214 17.558C33.0214 17.6672 33.1093 17.7559 33.2177 17.7559H35.5885C35.6143 17.7558 35.6398 17.7505 35.6636 17.7405C35.6874 17.7305 35.709 17.7158 35.7271 17.6975C35.7452 17.6791 35.7595 17.6573 35.7692 17.6334C35.7789 17.6095 35.7838 17.5839 35.7836 17.558V5.17809C35.7836 5.06893 35.6972 4.98098 35.5885 4.98098ZM17.0692 5.26251C16.2274 5.26251 15.5442 5.9508 15.5442 6.80283C15.5442 7.65369 16.2274 8.34395 17.0692 8.34395C17.9118 8.34395 18.5946 7.65369 18.5946 6.80283C18.5946 5.9508 17.9114 5.26251 17.0692 5.26251ZM18.2298 9.035H15.8717C15.7633 9.035 15.6667 9.1465 15.6667 9.25487V17.4422C15.6667 17.6829 15.8167 17.7544 16.0106 17.7544H18.1348C18.3685 17.7544 18.4254 17.6397 18.4254 17.4383V14.9466V9.23249C18.4255 9.20671 18.4205 9.18116 18.4107 9.1573C18.401 9.13345 18.3866 9.11175 18.3684 9.09344C18.3503 9.07514 18.3287 9.06059 18.3049 9.05063C18.2811 9.04067 18.2556 9.0351 18.2298 9.035ZM44.7747 9.05345H42.4267C42.4009 9.05365 42.3754 9.05894 42.3517 9.06899C42.3279 9.07905 42.3064 9.09368 42.2883 9.11206C42.2703 9.13043 42.256 9.15219 42.2463 9.17609C42.2366 9.19999 42.2317 9.22556 42.232 9.25134V15.3216C42.232 15.3216 41.6351 15.7574 40.789 15.7574C39.9429 15.7574 39.7183 15.3738 39.7183 14.5449V9.25134C39.7185 9.22552 39.7136 9.19993 39.7039 9.176C39.6942 9.15208 39.6799 9.1303 39.6617 9.11192C39.6436 9.09354 39.622 9.07891 39.5983 9.06888C39.5745 9.05885 39.5489 9.0536 39.5231 9.05345H37.1406C37.0884 9.05386 37.0386 9.07492 37.0019 9.11201C36.9653 9.1491 36.9448 9.1992 36.945 9.25134V14.9454C36.945 17.4073 38.3173 18.0096 40.2048 18.0096C41.7533 18.0096 43.0019 17.1536 43.0019 17.1536C43.0019 17.1536 43.0608 17.6052 43.0883 17.6582C43.1158 17.7116 43.1853 17.7654 43.2611 17.7654L44.7767 17.7587C44.8025 17.7586 44.8281 17.7534 44.852 17.7434C44.8759 17.7334 44.8976 17.7188 44.9158 17.7004C44.934 17.682 44.9485 17.6602 44.9583 17.6363C44.9681 17.6123 44.9731 17.5867 44.973 17.5608L44.9718 9.25016C44.9716 9.19808 44.9509 9.14819 44.9141 9.11129C44.8774 9.07439 44.8276 9.05347 44.7755 9.05306L44.7747 9.05345ZM51.1912 8.77546C49.8578 8.77546 48.9508 9.37031 48.9508 9.37031V5.17809C48.951 5.15231 48.946 5.12675 48.9363 5.10287C48.9266 5.07899 48.9123 5.05726 48.8941 5.03892C48.876 5.02058 48.8545 5.00599 48.8307 4.99598C48.8069 4.98598 48.7815 4.98074 48.7557 4.98059H46.3837C46.3578 4.98059 46.3322 4.98571 46.3083 4.99565C46.2844 5.00559 46.2627 5.02015 46.2445 5.03851C46.2262 5.05686 46.2118 5.07864 46.202 5.1026C46.1922 5.12655 46.1873 5.15221 46.1874 5.17809V17.558C46.1873 17.5839 46.1922 17.6096 46.202 17.6335C46.2118 17.6575 46.2262 17.6793 46.2445 17.6976C46.2627 17.716 46.2844 17.7305 46.3083 17.7405C46.3322 17.7504 46.3578 17.7555 46.3837 17.7555H48.0297C48.1043 17.7555 48.16 17.7175 48.2013 17.6503C48.2417 17.5836 48.301 17.0794 48.301 17.0794C48.301 17.0794 49.2708 17.9982 51.1076 17.9982C53.2632 17.9982 54.5 16.9051 54.5 13.0894C54.5 9.27372 52.525 8.77507 51.1908 8.77507L51.1912 8.77546ZM50.2646 15.7503C49.4506 15.7256 48.8982 15.3561 48.8982 15.3561V11.4356C48.8982 11.4356 49.4432 11.1019 50.1115 11.0414C50.9568 10.9656 51.7715 11.2212 51.7715 13.2378C51.7715 15.3647 51.4044 15.7845 50.265 15.7499L50.2646 15.7503ZM25.2577 15.704C25.1545 15.704 24.8898 15.746 24.6177 15.746C23.7461 15.746 23.4504 15.3408 23.4504 14.8162V11.3351H25.2251C25.251 11.3351 25.2767 11.33 25.3006 11.32C25.3245 11.31 25.3463 11.2954 25.3645 11.277C25.3828 11.2586 25.3972 11.2368 25.407 11.2128C25.4167 11.1888 25.4217 11.1631 25.4214 11.1372V9.23053C25.4216 9.20468 25.4166 9.17907 25.4067 9.15516C25.3969 9.13125 25.3825 9.10952 25.3642 9.0912C25.346 9.07289 25.3243 9.05836 25.3004 9.04844C25.2766 9.03853 25.251 9.03342 25.2251 9.03342H23.4504L23.4476 6.68936C23.4476 6.60023 23.4021 6.55586 23.2992 6.55586H20.8806C20.7871 6.55586 20.7365 6.59748 20.7365 6.6874V9.10999C20.7365 9.10999 19.5244 9.4025 19.4427 9.42606C19.4019 9.43796 19.3661 9.46276 19.3406 9.49674C19.3151 9.53072 19.3014 9.57205 19.3014 9.61453V11.1368C19.3012 11.1626 19.3061 11.1881 19.3159 11.212C19.3256 11.2359 19.3399 11.2576 19.358 11.276C19.3762 11.2943 19.3977 11.3089 19.4215 11.3189C19.4452 11.3289 19.4707 11.3341 19.4965 11.3343H20.7365V14.9968C20.7365 17.7178 22.6447 17.9848 23.9326 17.9848C24.5203 17.9848 25.2243 17.7964 25.3406 17.7532C25.4112 17.7269 25.4517 17.6542 25.4517 17.5753L25.4533 15.9007C25.4524 15.8488 25.4315 15.7993 25.3949 15.7625C25.3583 15.7257 25.3088 15.7046 25.2569 15.7036L25.2577 15.704Z" fill="#100E0F"/>
</g>
</g>
<defs>
<filter id="filter0_d_568_903" x="-3" y="-0.248291" width="65" height="29" filterUnits="userSpaceOnUse" color-interpolation-filters="sRGB">
<feFlood flood-opacity="0" result="BackgroundImageFix"/>
<feColorMatrix in="SourceAlpha" type="matrix" values="0 0 0 0 0 0 0 0 0 0 0 0 0 0 0 0 0 0 127 0" result="hardAlpha"/>
<feOffset dy="3"/>
<feGaussianBlur stdDeviation="2"/>
<feComposite in2="hardAlpha" operator="out"/>
<feColorMatrix type="matrix" values="0 0 0 0 0 0 0 0 0 0 0 0 0 0 0 0 0 0 0.25 0"/>
<feBlend mode="normal" in2="BackgroundImageFix" result="effect1_dropShadow_568_903"/>
<feBlend mode="normal" in="SourceGraphic" in2="effect1_dropShadow_568_903" result="shape"/>
</filter>
<filter id="filter1_ddd_568_903" x="3.5" y="3.49097" width="52" height="15.5212" filterUnits="userSpaceOnUse" color-interpolation-filters="sRGB">
<feFlood flood-opacity="0" result="BackgroundImageFix"/>
<feColorMatrix in="SourceAlpha" type="matrix" values="0 0 0 0 0 0 0 0 0 0 0 0 0 0 0 0 0 0 127 0" result="hardAlpha"/>
<feOffset/>
<feGaussianBlur stdDeviation="0.5"/>
<feComposite in2="hardAlpha" operator="out"/>
<feColorMatrix type="matrix" values="0 0 0 0 0.666667 0 0 0 0 0.666667 0 0 0 0 0.666667 0 0 0 1 0"/>
<feBlend mode="normal" in2="BackgroundImageFix" result="effect1_dropShadow_568_903"/>
<feColorMatrix in="SourceAlpha" type="matrix" values="0 0 0 0 0 0 0 0 0 0 0 0 0 0 0 0 0 0 127 0" result="hardAlpha"/>
<feOffset/>
<feGaussianBlur stdDeviation="0.5"/>
<feComposite in2="hardAlpha" operator="out"/>
<feColorMatrix type="matrix" values="0 0 0 0 0.666667 0 0 0 0 0.666667 0 0 0 0 0.666667 0 0 0 1 0"/>
<feBlend mode="normal" in2="effect1_dropShadow_568_903" result="effect2_dropShadow_568_903"/>
<feColorMatrix in="SourceAlpha" type="matrix" values="0 0 0 0 0 0 0 0 0 0 0 0 0 0 0 0 0 0 127 0" result="hardAlpha"/>
<feOffset/>
<feGaussianBlur stdDeviation="0.5"/>
<feComposite in2="hardAlpha" operator="out"/>
<feColorMatrix type="matrix" values="0 0 0 0 0.666667 0 0 0 0 0.666667 0 0 0 0 0.666667 0 0 0 1 0"/>
<feBlend mode="normal" in2="effect2_dropShadow_568_903" result="effect3_dropShadow_568_903"/>
<feBlend mode="normal" in="SourceGraphic" in2="effect3_dropShadow_568_903" result="shape"/>
</filter>
</defs>
</svg>
