<svg xmlns="http://www.w3.org/2000/svg" width="58" height="58" fill="none" viewBox="0 0 58 58"><rect width="56.752" height="56.752" x=".373" y=".751" fill="url(#paint0_linear_267_5472)" rx="8.255"/><path fill="#0acf83" d="M21.03 51.827a7.49 7.49 0 0 0 7.491-7.49v-7.492h-7.49a7.49 7.49 0 1 0 0 14.982"/><path fill="#a259ff" d="M13.54 29.127c0-2.047.789-4.01 2.193-5.457a7.38 7.38 0 0 1 5.297-2.26h7.491v15.435h-7.49a7.38 7.38 0 0 1-5.298-2.26 7.84 7.84 0 0 1-2.194-5.458"/><path fill="#f24e1e" d="M13.54 13.918a7.49 7.49 0 0 1 7.487-7.49h7.494v14.981h-7.488a7.496 7.496 0 0 1-7.494-7.49"/><path fill="#ff7262" d="M28.521 6.427h7.718c2.047 0 4.01.79 5.458 2.194a7.38 7.38 0 0 1 2.26 5.297 7.38 7.38 0 0 1-2.26 5.297 7.84 7.84 0 0 1-5.458 2.194h-7.718z"/><path fill="#1abcfe" d="M43.957 29.127a7.718 7.718 0 1 1-15.436 0 7.718 7.718 0 0 1 15.436 0"/><defs><linearGradient id="paint0_linear_267_5472" x1="28.748" x2="28.748" y1=".751" y2="57.503" gradientUnits="userSpaceOnUse"><stop stop-color="#fdfdfd"/><stop offset="1" stop-color="#f5f4f4"/></linearGradient></defs></svg>