<svg width="57" height="23" viewBox="0 0 57 23" fill="none" xmlns="http://www.w3.org/2000/svg">
<g filter="url(#filter0_d_579_1009)">
<path d="M24.0253 8.21427C23.3701 8.21427 22.8823 8.53342 22.8823 9.30162C22.8823 9.88032 23.2038 10.2821 23.9901 10.2821C24.6566 10.2821 25.1095 9.89243 25.1095 9.27763C25.1095 8.58092 24.7042 8.21427 24.0253 8.21427ZM22.7157 13.6379C22.5605 13.8267 22.4059 14.0274 22.4059 14.2641C22.4059 14.7365 23.013 14.8785 23.8472 14.8785C24.5378 14.8785 25.4789 14.8305 25.4789 14.1934C25.4789 13.8146 25.026 13.7913 24.4541 13.7557L22.7157 13.6379ZM26.2406 8.24989C26.4548 8.52179 26.6815 8.89983 26.6815 9.44339C26.6815 10.7547 25.6452 11.5226 24.1448 11.5226C23.7632 11.5226 23.4178 11.4756 23.2035 11.4165L22.8105 12.0427L23.9775 12.1132C26.0381 12.2436 27.2527 12.3027 27.2527 13.8735C27.2527 15.2325 26.05 16 23.9775 16C21.8216 16 21 15.4564 21 14.5235C21 13.9915 21.2384 13.7087 21.6552 13.3181C21.2619 13.1533 21.1312 12.8581 21.1312 12.539C21.1312 12.2789 21.2621 12.0427 21.4766 11.818C21.6911 11.5939 21.9293 11.369 22.2149 11.1092C21.6313 10.8257 21.1908 10.2113 21.1908 9.33676C21.1908 7.97823 22.0959 7.04524 23.9181 7.04524C24.4304 7.04524 24.7404 7.09202 25.014 7.16349H27.3367V8.16749L26.2406 8.24989ZM29.432 6.10322C28.7529 6.10322 28.3598 5.71306 28.3598 5.03938C28.3598 4.36664 28.7529 4 29.432 4C30.1229 4 30.5157 4.36641 30.5157 5.03938C30.516 5.71306 30.1229 6.10322 29.432 6.10322ZM27.8952 13.2034V12.2704L28.503 12.1878C28.6696 12.164 28.6933 12.1286 28.6933 11.951V8.47762C28.6933 8.34796 28.6579 8.26485 28.5384 8.22971L27.8952 8.00507L28.0261 7.04856H30.492V11.9512C30.492 12.1407 30.5035 12.164 30.6826 12.188L31.2901 12.2706V13.2036L27.8952 13.2034ZM36 12.7451C35.4875 12.9928 34.7375 13.2176 34.0581 13.2176C32.641 13.2176 32.1052 12.651 32.1052 11.3153V8.21997C32.1052 8.14944 32.1052 8.10195 32.0097 8.10195H31.1762V7.05046C32.2247 6.93197 32.6412 6.41216 32.7722 5.12439H33.904V6.80255C33.904 6.88495 33.904 6.92081 33.9992 6.92081H35.6785V8.10219H33.904V10.9256C33.904 11.6226 34.0708 11.8942 34.7138 11.8942C35.0477 11.8942 35.3927 11.8118 35.6785 11.7055L36 12.7451Z" fill="#F34F29"/>
</g>
<defs>
<filter id="filter0_d_579_1009" x="-4" y="-1" width="65" height="29" filterUnits="userSpaceOnUse" color-interpolation-filters="sRGB">
<feFlood flood-opacity="0" result="BackgroundImageFix"/>
<feColorMatrix in="SourceAlpha" type="matrix" values="0 0 0 0 0 0 0 0 0 0 0 0 0 0 0 0 0 0 127 0" result="hardAlpha"/>
<feOffset dy="3"/>
<feGaussianBlur stdDeviation="2"/>
<feComposite in2="hardAlpha" operator="out"/>
<feColorMatrix type="matrix" values="0 0 0 0 0 0 0 0 0 0 0 0 0 0 0 0 0 0 0.25 0"/>
<feBlend mode="normal" in2="BackgroundImageFix" result="effect1_dropShadow_579_1009"/>
<feBlend mode="normal" in="SourceGraphic" in2="effect1_dropShadow_579_1009" result="shape"/>
</filter>
</defs>
</svg>
