<svg width="57" height="22" viewBox="0 0 57 22" fill="none" xmlns="http://www.w3.org/2000/svg">
<g filter="url(#filter0_d_579_1005)">
<g filter="url(#filter1_ddd_579_1005)">
<path d="M17.5958 8.45482H14.7183C14.6827 8.45482 14.6485 8.46899 14.6233 8.49421C14.598 8.51942 14.5839 8.55362 14.5839 8.58928V9.99626C14.5839 10.0319 14.598 10.0661 14.6233 10.0913C14.6485 10.1166 14.6827 10.1307 14.7183 10.1307H15.8405V11.8787C15.8405 11.8787 15.5886 11.9647 14.8912 11.9647C14.0694 11.9647 12.9209 11.6646 12.9209 9.13895C12.9209 6.613 14.117 6.28035 15.24 6.28035C16.2119 6.28035 16.6303 6.45138 16.8971 6.53394C16.9805 6.55922 17.0585 6.47585 17.0585 6.40163L17.3793 5.04225C17.3798 5.0219 17.3754 5.00172 17.3664 4.98345C17.3574 4.96519 17.3441 4.94937 17.3276 4.93737C17.2193 4.85992 16.5593 4.49097 14.8918 4.49097C12.9706 4.49097 11 5.30794 11 9.23738C11 13.1663 13.2562 13.7517 15.1575 13.7517C16.7317 13.7517 17.6867 13.0789 17.6867 13.0789C17.7259 13.0574 17.7302 13.0022 17.7302 12.9767V8.58901C17.7302 8.55335 17.7161 8.51915 17.6908 8.49394C17.6656 8.46872 17.6314 8.45482 17.5958 8.45482ZM32.2924 4.82658H30.6719C30.6542 4.82665 30.6367 4.83021 30.6204 4.83704C30.6041 4.84388 30.5893 4.85387 30.5769 4.86644C30.5645 4.879 30.5546 4.89389 30.5479 4.91027C30.5413 4.92664 30.5379 4.94416 30.538 4.96184L30.5385 8.09313H28.0129V4.96184C28.013 4.94419 28.0096 4.92668 28.0029 4.91033C27.9963 4.89397 27.9865 4.87909 27.974 4.86653C27.9616 4.85397 27.9469 4.84398 27.9306 4.83712C27.9143 4.83027 27.8969 4.82668 27.8792 4.82658H26.259C26.2413 4.82665 26.2238 4.83021 26.2075 4.83704C26.1912 4.84388 26.1764 4.85387 26.164 4.86644C26.1515 4.879 26.1417 4.89389 26.135 4.91027C26.1283 4.92664 26.1249 4.94416 26.125 4.96184V13.4408C26.125 13.5153 26.1853 13.5761 26.259 13.5761H27.8792C27.8969 13.576 27.9144 13.5724 27.9307 13.5655C27.9469 13.5587 27.9617 13.5486 27.9741 13.5361C27.9866 13.5235 27.9964 13.5086 28.003 13.4922C28.0096 13.4758 28.013 13.4583 28.0129 13.4406V9.81394H30.5385L30.5342 13.4406C30.5342 13.5153 30.5945 13.5761 30.6687 13.5761H32.2924C32.3101 13.576 32.3276 13.5724 32.3439 13.5655C32.3602 13.5587 32.3749 13.5486 32.3874 13.5361C32.3998 13.5235 32.4096 13.5086 32.4162 13.4922C32.4229 13.4758 32.4262 13.4583 32.4261 13.4406V4.96157C32.4261 4.88681 32.3669 4.82658 32.2924 4.82658ZM19.6086 5.01939C19.0321 5.01939 18.5641 5.49081 18.5641 6.07436C18.5641 6.6571 19.0321 7.12986 19.6086 7.12986C20.1857 7.12986 20.6534 6.6571 20.6534 6.07436C20.6534 5.49081 20.1854 5.01939 19.6086 5.01939ZM20.4035 7.60316H18.7884C18.7142 7.60316 18.648 7.67953 18.648 7.75375V13.3612C18.648 13.5261 18.7508 13.575 18.8836 13.575H20.3385C20.4985 13.575 20.5375 13.4965 20.5375 13.3586V11.652V7.73843C20.5375 7.72077 20.5341 7.70327 20.5274 7.68693C20.5207 7.67059 20.5109 7.65573 20.4985 7.64319C20.486 7.63065 20.4712 7.62069 20.455 7.61387C20.4387 7.60705 20.4212 7.60323 20.4035 7.60316ZM38.584 7.6158H36.9759C36.9582 7.61594 36.9408 7.61956 36.9245 7.62644C36.9083 7.63333 36.8935 7.64335 36.8811 7.65594C36.8687 7.66853 36.859 7.68343 36.8523 7.6998C36.8457 7.71616 36.8424 7.73368 36.8425 7.75133V11.9088C36.8425 11.9088 36.4338 12.2073 35.8542 12.2073C35.2747 12.2073 35.1209 11.9446 35.1209 11.3769V7.75133C35.121 7.73365 35.1177 7.71612 35.1111 7.69974C35.1044 7.68335 35.0946 7.66843 35.0822 7.65585C35.0698 7.64326 35.055 7.63324 35.0387 7.62637C35.0224 7.6195 35.0049 7.6159 34.9872 7.6158H33.3555C33.3197 7.61608 33.2856 7.6305 33.2605 7.65591C33.2354 7.68131 33.2214 7.71562 33.2215 7.75133V11.6512C33.2215 13.3373 34.1614 13.7498 35.4541 13.7498C36.5147 13.7498 37.3699 13.1636 37.3699 13.1636C37.3699 13.1636 37.4102 13.4728 37.429 13.5091C37.4479 13.5457 37.4954 13.5826 37.5474 13.5826L38.5854 13.578C38.6031 13.5779 38.6206 13.5744 38.637 13.5675C38.6533 13.5607 38.6682 13.5507 38.6807 13.5381C38.6932 13.5255 38.703 13.5106 38.7098 13.4942C38.7165 13.4777 38.7199 13.4602 38.7198 13.4425L38.719 7.75053C38.7189 7.71486 38.7047 7.68069 38.6795 7.65541C38.6544 7.63014 38.6202 7.61581 38.5846 7.61553L38.584 7.6158ZM42.9787 7.4254C42.0654 7.4254 41.4442 7.83282 41.4442 7.83282V4.96157C41.4444 4.94392 41.441 4.92641 41.4343 4.91006C41.4277 4.8937 41.4178 4.87882 41.4054 4.86626C41.393 4.8537 41.3783 4.84371 41.362 4.83685C41.3457 4.83 41.3283 4.82641 41.3106 4.82631H39.6861C39.6683 4.82631 39.6508 4.82981 39.6344 4.83662C39.618 4.84343 39.6032 4.8534 39.5907 4.86598C39.5782 4.87855 39.5683 4.89346 39.5616 4.90987C39.5549 4.92628 39.5515 4.94385 39.5516 4.96157V13.4406C39.5515 13.4583 39.5549 13.4759 39.5616 13.4923C39.5683 13.5087 39.5782 13.5236 39.5907 13.5362C39.6032 13.5487 39.618 13.5587 39.6344 13.5655C39.6508 13.5723 39.6683 13.5758 39.6861 13.5758H40.8134C40.8645 13.5758 40.9026 13.5498 40.9309 13.5038C40.9586 13.4581 40.9992 13.1128 40.9992 13.1128C40.9992 13.1128 41.6634 13.742 42.9214 13.742C44.3978 13.742 45.2449 12.9934 45.2449 10.38C45.2449 7.76666 43.8922 7.42514 42.9784 7.42514L42.9787 7.4254ZM42.344 12.2025C41.7866 12.1855 41.4082 11.9325 41.4082 11.9325V9.24733C41.4082 9.24733 41.7815 9.01875 42.2392 8.97733C42.8182 8.92543 43.3762 9.1005 43.3762 10.4817C43.3762 11.9384 43.1247 12.2259 42.3443 12.2022L42.344 12.2025ZM25.2169 12.1707C25.1462 12.1707 24.9649 12.1995 24.7786 12.1995C24.1816 12.1995 23.9791 11.922 23.9791 11.5627V9.17848H25.1946C25.2123 9.17848 25.2299 9.17497 25.2463 9.16815C25.2627 9.16132 25.2775 9.15132 25.29 9.13872C25.3025 9.12612 25.3124 9.11117 25.3191 9.09473C25.3258 9.0783 25.3292 9.0607 25.329 9.04295V7.73708C25.3291 7.71938 25.3257 7.70184 25.319 7.68546C25.3122 7.66909 25.3023 7.6542 25.2899 7.64166C25.2774 7.62911 25.2625 7.61916 25.2462 7.61237C25.2298 7.60558 25.2123 7.60208 25.1946 7.60208H23.9791L23.9772 5.99664C23.9772 5.9356 23.946 5.90521 23.8755 5.90521H22.219C22.155 5.90521 22.1203 5.93371 22.1203 5.9953V7.65452C22.1203 7.65452 21.2902 7.85487 21.2342 7.871C21.2063 7.87915 21.1818 7.89613 21.1643 7.91941C21.1469 7.94268 21.1374 7.97099 21.1374 8.00008V9.04268C21.1373 9.06034 21.1407 9.07784 21.1473 9.0942C21.154 9.11055 21.1638 9.12543 21.1762 9.13799C21.1886 9.15055 21.2034 9.16055 21.2197 9.1674C21.2359 9.17426 21.2534 9.17784 21.2711 9.17794H22.1203V11.6864C22.1203 13.55 23.4273 13.7329 24.3093 13.7329C24.7119 13.7329 25.194 13.6038 25.2736 13.5742C25.3221 13.5562 25.3498 13.5065 25.3498 13.4524L25.3508 12.3055C25.3503 12.2699 25.336 12.236 25.3109 12.2108C25.2858 12.1856 25.2519 12.1712 25.2164 12.1705L25.2169 12.1707Z" fill="#100E0F"/>
</g>
</g>
<defs>
<filter id="filter0_d_579_1005" x="-4" y="-0.248291" width="65" height="29" filterUnits="userSpaceOnUse" color-interpolation-filters="sRGB">
<feFlood flood-opacity="0" result="BackgroundImageFix"/>
<feColorMatrix in="SourceAlpha" type="matrix" values="0 0 0 0 0 0 0 0 0 0 0 0 0 0 0 0 0 0 127 0" result="hardAlpha"/>
<feOffset dy="3"/>
<feGaussianBlur stdDeviation="2"/>
<feComposite in2="hardAlpha" operator="out"/>
<feColorMatrix type="matrix" values="0 0 0 0 0 0 0 0 0 0 0 0 0 0 0 0 0 0 0.25 0"/>
<feBlend mode="normal" in2="BackgroundImageFix" result="effect1_dropShadow_579_1005"/>
<feBlend mode="normal" in="SourceGraphic" in2="effect1_dropShadow_579_1005" result="shape"/>
</filter>
<filter id="filter1_ddd_579_1005" x="10" y="3.49097" width="36.2449" height="11.2607" filterUnits="userSpaceOnUse" color-interpolation-filters="sRGB">
<feFlood flood-opacity="0" result="BackgroundImageFix"/>
<feColorMatrix in="SourceAlpha" type="matrix" values="0 0 0 0 0 0 0 0 0 0 0 0 0 0 0 0 0 0 127 0" result="hardAlpha"/>
<feOffset/>
<feGaussianBlur stdDeviation="0.5"/>
<feComposite in2="hardAlpha" operator="out"/>
<feColorMatrix type="matrix" values="0 0 0 0 0.666667 0 0 0 0 0.666667 0 0 0 0 0.666667 0 0 0 1 0"/>
<feBlend mode="normal" in2="BackgroundImageFix" result="effect1_dropShadow_579_1005"/>
<feColorMatrix in="SourceAlpha" type="matrix" values="0 0 0 0 0 0 0 0 0 0 0 0 0 0 0 0 0 0 127 0" result="hardAlpha"/>
<feOffset/>
<feGaussianBlur stdDeviation="0.5"/>
<feComposite in2="hardAlpha" operator="out"/>
<feColorMatrix type="matrix" values="0 0 0 0 0.666667 0 0 0 0 0.666667 0 0 0 0 0.666667 0 0 0 1 0"/>
<feBlend mode="normal" in2="effect1_dropShadow_579_1005" result="effect2_dropShadow_579_1005"/>
<feColorMatrix in="SourceAlpha" type="matrix" values="0 0 0 0 0 0 0 0 0 0 0 0 0 0 0 0 0 0 127 0" result="hardAlpha"/>
<feOffset/>
<feGaussianBlur stdDeviation="0.5"/>
<feComposite in2="hardAlpha" operator="out"/>
<feColorMatrix type="matrix" values="0 0 0 0 0.666667 0 0 0 0 0.666667 0 0 0 0 0.666667 0 0 0 1 0"/>
<feBlend mode="normal" in2="effect2_dropShadow_579_1005" result="effect3_dropShadow_579_1005"/>
<feBlend mode="normal" in="SourceGraphic" in2="effect3_dropShadow_579_1005" result="shape"/>
</filter>
</defs>
</svg>
