<svg width="57" height="22" viewBox="0 0 57 22" fill="none" xmlns="http://www.w3.org/2000/svg">
<g filter="url(#filter0_ddd_579_994)">
<path d="M12.4789 4.75171V13.7345H13.6343V9.44542H16.4128V8.33044H13.6343V5.87568H17.2445V4.75171H12.4789ZM19.3351 6.57704C19.7533 6.57704 20.0905 6.23985 20.0905 5.82173C20.0905 5.40361 19.7488 5.11138 19.3351 5.11138C18.9215 5.11138 18.5798 5.44857 18.5798 5.86669C18.5798 6.06901 18.6608 6.25783 18.8046 6.4062C18.9485 6.55456 19.1373 6.63099 19.3441 6.63099L19.3351 6.57704ZM18.7507 7.71001V13.7345H19.8612V7.71001H18.7147H18.7507ZM24.1997 7.53017C22.6621 7.53017 21.5921 8.87894 21.5921 10.3716C21.5921 11.8642 22.6711 13.204 24.1997 13.204C24.5178 13.2096 24.8335 13.1489 25.1269 13.0258C25.4203 12.9027 25.6848 12.72 25.9037 12.4891V13.2894C25.9005 13.7702 25.7139 14.2317 25.3822 14.5797C25.2145 14.7507 25.0145 14.8865 24.7937 14.9792C24.5729 15.0718 24.3358 15.1194 24.0963 15.1192C23.7286 15.1076 23.3724 14.9889 23.0712 14.7776L22.4868 15.7801C22.9356 16.0688 23.454 16.2311 23.9873 16.2499C24.5206 16.2687 25.0492 16.1433 25.5172 15.8869C25.9853 15.6306 26.3755 15.2528 26.6469 14.7933C26.9182 14.3338 27.0607 13.8096 27.0591 13.2759V7.70102H25.9037V8.24052C25.6848 8.00969 25.4203 7.82692 25.1269 7.70385C24.8335 7.58079 24.5178 7.5246 24.1997 7.53017ZM22.752 10.3716C22.7257 10.0793 22.7816 9.78545 22.9135 9.52328C23.0454 9.2611 23.248 9.04103 23.4984 8.88793C24.0109 8.57322 24.6538 8.57322 25.1618 8.88793C25.6699 9.20265 25.9576 9.77812 25.9082 10.3716C25.9345 10.6639 25.8786 10.9577 25.7467 11.2199C25.6148 11.4821 25.4122 11.7021 25.1618 11.8552C24.6493 12.1699 24.0064 12.1699 23.4984 11.8552C22.9903 11.5405 22.7026 10.965 22.752 10.3716Z" fill="black"/>
<path d="M31.2267 8.70805C30.8944 8.70924 30.576 8.84177 30.341 9.07675C30.1061 9.31174 29.9735 9.6301 29.9723 9.96241V13.7749H28.8169V7.75043H29.9723V8.25846C30.323 7.79089 30.8805 7.52114 31.465 7.53013C32.2023 7.51215 32.8902 7.90778 33.2544 8.5507C33.7039 7.92127 34.3514 7.53912 35.0527 7.53013C36.37 7.53013 37.1883 8.59116 37.1928 9.90396V13.739H36.0373V9.91745C36.0712 9.6794 36.0362 9.43663 35.9364 9.21785C35.8366 8.99908 35.6763 8.81345 35.4744 8.68293C35.2724 8.5524 35.0373 8.48244 34.7969 8.48131C34.5565 8.48019 34.3207 8.54795 34.1176 8.67658C33.9156 8.80829 33.7556 8.99525 33.6568 9.21523C33.558 9.43521 33.5244 9.67895 33.5601 9.91745V13.73H32.4496V9.92195C32.4484 9.58963 32.3159 9.27127 32.0809 9.03629C31.8459 8.80131 31.5275 8.66878 31.1952 8.66759L31.2267 8.70805ZM43.3657 8.39334C43.1027 8.11891 42.7863 7.90117 42.4361 7.75349C42.0858 7.60582 41.7091 7.53134 41.329 7.53462C39.6071 7.53462 38.4067 8.99129 38.4067 10.6818C38.4067 12.3722 39.6206 13.8289 41.329 13.8289C41.7091 13.8322 42.0858 13.7577 42.4361 13.61C42.7863 13.4623 43.1027 13.2446 43.3657 12.9702V13.6535H44.5211V7.62904H43.3657V8.39334ZM39.5441 10.7312C39.4857 10.0119 39.8364 9.3195 40.4523 8.94184C41.0683 8.56419 41.8011 8.56419 42.4575 8.94184C42.7581 9.12843 43.0018 9.39395 43.1619 9.70947C43.3221 10.025 43.3925 10.3784 43.3657 10.7312C43.4241 11.4505 43.0734 12.1429 42.4575 12.5206C41.8415 12.8982 41.1087 12.8982 40.4523 12.5206C40.1517 12.334 39.908 12.0685 39.7479 11.7529C39.5877 11.4374 39.5173 11.084 39.5441 10.7312Z" fill="black"/>
</g>
<defs>
<filter id="filter0_ddd_579_994" x="11.4789" y="3.75171" width="34.0422" height="13.5" filterUnits="userSpaceOnUse" color-interpolation-filters="sRGB">
<feFlood flood-opacity="0" result="BackgroundImageFix"/>
<feColorMatrix in="SourceAlpha" type="matrix" values="0 0 0 0 0 0 0 0 0 0 0 0 0 0 0 0 0 0 127 0" result="hardAlpha"/>
<feOffset/>
<feGaussianBlur stdDeviation="0.5"/>
<feComposite in2="hardAlpha" operator="out"/>
<feColorMatrix type="matrix" values="0 0 0 0 0.666667 0 0 0 0 0.666667 0 0 0 0 0.666667 0 0 0 1 0"/>
<feBlend mode="normal" in2="BackgroundImageFix" result="effect1_dropShadow_579_994"/>
<feColorMatrix in="SourceAlpha" type="matrix" values="0 0 0 0 0 0 0 0 0 0 0 0 0 0 0 0 0 0 127 0" result="hardAlpha"/>
<feOffset/>
<feGaussianBlur stdDeviation="0.5"/>
<feComposite in2="hardAlpha" operator="out"/>
<feColorMatrix type="matrix" values="0 0 0 0 0.666667 0 0 0 0 0.666667 0 0 0 0 0.666667 0 0 0 1 0"/>
<feBlend mode="normal" in2="effect1_dropShadow_579_994" result="effect2_dropShadow_579_994"/>
<feColorMatrix in="SourceAlpha" type="matrix" values="0 0 0 0 0 0 0 0 0 0 0 0 0 0 0 0 0 0 127 0" result="hardAlpha"/>
<feOffset/>
<feGaussianBlur stdDeviation="0.5"/>
<feComposite in2="hardAlpha" operator="out"/>
<feColorMatrix type="matrix" values="0 0 0 0 0.666667 0 0 0 0 0.666667 0 0 0 0 0.666667 0 0 0 1 0"/>
<feBlend mode="normal" in2="effect2_dropShadow_579_994" result="effect3_dropShadow_579_994"/>
<feBlend mode="normal" in="SourceGraphic" in2="effect3_dropShadow_579_994" result="shape"/>
</filter>
</defs>
</svg>
