<svg width="57" height="57" viewBox="0 0 57 57" fill="none" xmlns="http://www.w3.org/2000/svg">
<rect width="57" height="56.7516" rx="8.25478" fill="url(#paint0_linear_564_2381)"/>
<g clip-path="url(#clip0_564_2381)">
<path d="M11.3663 8.38647C9.85156 8.38647 8.39888 8.98819 7.32782 10.0593C6.25675 11.1303 5.65503 12.583 5.65503 14.0977L5.65503 42.654C5.65503 44.1687 6.25675 45.6214 7.32782 46.6924C8.39888 47.7635 9.85156 48.3652 11.3663 48.3652H45.6338C47.1485 48.3652 48.6012 47.7635 49.6722 46.6924C50.7433 45.6214 51.345 44.1687 51.345 42.654V14.0977C51.345 12.583 50.7433 11.1303 49.6722 10.0593C48.6012 8.98819 47.1485 8.38647 45.6338 8.38647H11.3663Z" fill="black"/>
<path d="M22.7885 31.2311C22.7885 30.8524 22.939 30.4892 23.2067 30.2215C23.4745 29.9537 23.8377 29.8033 24.2163 29.8033H32.7832C33.1619 29.8033 33.5251 29.9537 33.7928 30.2215C34.0606 30.4892 34.211 30.8524 34.211 31.2311C34.211 31.6098 34.0606 31.9729 33.7928 32.2407C33.5251 32.5085 33.1619 32.6589 32.7832 32.6589H24.2163C23.8377 32.6589 23.4745 32.5085 23.2067 32.2407C22.939 31.9729 22.7885 31.6098 22.7885 31.2311ZM16.6604 17.3699C16.5276 17.2371 16.37 17.1318 16.1966 17.06C16.0231 16.9881 15.8372 16.9512 15.6495 16.9512C15.4617 16.9512 15.2758 16.9881 15.1024 17.06C14.9289 17.1318 14.7713 17.2371 14.6386 17.3699C14.5058 17.5026 14.4005 17.6602 14.3287 17.8337C14.2568 18.0071 14.2198 18.193 14.2198 18.3808C14.2198 18.5685 14.2568 18.7544 14.3287 18.9279C14.4005 19.1013 14.5058 19.2589 14.6386 19.3917L19.3418 24.092L14.6386 28.7924C14.5058 28.9251 14.4005 29.0827 14.3287 29.2562C14.2568 29.4296 14.2198 29.6155 14.2198 29.8033C14.2198 29.991 14.2568 30.1769 14.3287 30.3504C14.4005 30.5238 14.5058 30.6814 14.6386 30.8142C14.9067 31.0823 15.2703 31.2329 15.6495 31.2329C15.8372 31.2329 16.0231 31.1959 16.1966 31.1241C16.37 31.0522 16.5276 30.9469 16.6604 30.8142L22.3716 25.1029C22.5046 24.9703 22.6101 24.8127 22.6821 24.6393C22.754 24.4658 22.7911 24.2798 22.7911 24.092C22.7911 23.9042 22.754 23.7183 22.6821 23.5448C22.6101 23.3713 22.5046 23.2138 22.3716 23.0811L16.6604 17.3699Z" fill="#00FF00"/>
</g>
<defs>
<linearGradient id="paint0_linear_564_2381" x1="28.5" y1="0" x2="28.5" y2="56.7516" gradientUnits="userSpaceOnUse">
<stop stop-color="#FDFDFD"/>
<stop offset="1" stop-color="#F5F4F4"/>
</linearGradient>
<clipPath id="clip0_564_2381">
<rect width="45.69" height="45.69" fill="white" transform="translate(5.65503 5.53076)"/>
</clipPath>
</defs>
</svg>
